<?xml version="1.0" encoding="UTF-8"?>
<svg version="1.1" xmlns="http://www.w3.org/2000/svg" width="250" height="250">
<path d="M0 0 C82.5 0 165 0 250 0 C250 82.5 250 165 250 250 C167.5 250 85 250 0 250 C0 167.5 0 85 0 0 Z " fill="#FDFEFE" transform="translate(0,0)"/>
<path d="M0 0 C5.61 0 11.22 0 17 0 C17 1.65 17 3.3 17 5 C17.66386719 4.6390625 18.32773438 4.278125 19.01171875 3.90625 C19.89472656 3.4421875 20.77773437 2.978125 21.6875 2.5 C22.55761719 2.0359375 23.42773438 1.571875 24.32421875 1.09375 C27 0 27 0 32 0 C32 3.96 32 7.92 32 12 C30.7625 12.556875 29.525 13.11375 28.25 13.6875 C24.43610313 15.65530849 21.97856123 17.04287755 20 21 C19.19953465 25.92918134 18.84681331 30.70942369 21.140625 35.265625 C24.1908084 39.08638104 27.13842415 40.95823375 32 42 C32 45.63 32 49.26 32 53 C32.99 53 33.98 53 35 53 C35 49.7 35 46.4 35 43 C36.32 43 37.64 43 39 43 C39.11537109 42.27272705 39.23074219 41.5454541 39.34960938 40.79614258 C40.01861322 37.91997854 40.97793244 35.83682056 42.40625 33.26171875 C42.89899414 32.36598145 43.39173828 31.47024414 43.89941406 30.54736328 C44.42760742 29.6036084 44.95580078 28.65985352 45.5 27.6875 C46.03592773 26.71796387 46.57185547 25.74842773 47.12402344 24.74951172 C48.74156937 21.82859519 50.36900407 18.91342415 52 16 C52.47759766 15.14519043 52.95519531 14.29038086 53.44726562 13.40966797 C55.9511013 8.93193289 58.46847355 4.46213501 61 0 C61.804375 0.185625 62.60875 0.37125 63.4375 0.5625 C64.283125 0.706875 65.12875 0.85125 66 1 C66.33 0.67 66.66 0.34 67 0 C71.95 0 76.9 0 82 0 C82.33 11.22 82.66 22.44 83 34 C87.38527395 25.80535213 87.38527395 25.80535213 91.7644043 17.60742188 C93.48956595 14.39358646 95.23760304 11.19355792 97 8 C97.47260254 7.13246094 97.94520508 6.26492187 98.43212891 5.37109375 C99.70703125 3.15625 99.70703125 3.15625 102 0 C103.32 0 104.64 0 106 0 C106.80822559 12.98292542 106.82164108 21.24733711 99 32 C97.96654805 33.98292135 96.95735679 35.97924074 96 38 C98.97 38 101.94 38 105 38 C105 41.63 105 45.26 105 49 C99.72 49 94.44 49 89 49 C89 51.31 89 53.62 89 56 C89.66 56.33 90.32 56.66 91 57 C90.67 57.33 90.34 57.66 90 58 C91.485 58.99 91.485 58.99 93 60 C93 60.99 93 61.98 93 63 C93.763125 63.103125 94.52625 63.20625 95.3125 63.3125 C98.28812061 64.07370527 98.9034959 64.9034959 101 67 C103.60611077 67.72197162 103.60611077 67.72197162 106 68 C106 68.99 106 69.98 106 71 C107.09121359 74.27364078 108.3205818 75.2500538 111.125 77.4375 C114 80 114 80 114.375 82.8125 C114.189375 83.8953125 114.189375 83.8953125 114 85 C114.66 85 115.32 85 116 85 C117.16013992 86.39899226 118.31590991 87.80184133 119.44921875 89.22265625 C121.68620728 91.78645922 124.23589969 93.91221165 126.83984375 96.09375 C127.55269531 96.7228125 128.26554688 97.351875 129 98 C130.02050446 98.78239044 131.04100891 99.56478088 132.09243774 100.37088013 C135.74071571 104.07343768 135.70677137 107.52480707 135.746521 112.55226135 C135.72494934 113.68083054 135.70337769 114.80939972 135.68115234 115.97216797 C135.68246658 117.77301598 135.68246658 117.77301598 135.68380737 119.61024475 C135.68035203 122.88933045 135.65034009 126.16686446 135.60836363 129.44564199 C135.5707641 132.87686973 135.56732409 136.30813051 135.56021118 139.73953247 C135.54158908 146.23137163 135.49238891 152.72260195 135.43211424 159.21417344 C135.35837471 167.33276942 135.32560639 175.45146504 135.29296875 183.5703125 C135.23459086 198.04734885 135.114392 212.52305735 135 227 C95.4 227 55.8 227 15 227 C15 226.34 15 225.68 15 225 C14.34 225.66 13.68 226.32 13 227 C12.34 224.69 11.68 222.38 11 220 C10.01 220 9.02 220 8 220 C8 219.34 8 218.68 8 218 C7.01 217.34 6.02 216.68 5 216 C5 215.34 5 214.68 5 214 C4.01 214 3.02 214 2 214 C1.81179687 213.15824219 1.62359375 212.31648437 1.4296875 211.44921875 C-0.4688744 206.86880848 -3.32861428 204.19637314 -6.875 200.8125 C-7.50019531 200.19697266 -8.12539063 199.58144531 -8.76953125 198.94726562 C-11.24570095 196.53129878 -13.65663587 194.25286081 -16.4453125 192.19921875 C-16.95835938 191.80347656 -17.47140625 191.40773437 -18 191 C-18 190.34 -18 189.68 -18 189 C-18.58366018 188.72938657 -19.16732037 188.45877314 -19.76866722 188.1799593 C-23.66082592 186.12173253 -26.55788163 183.68888486 -29 180 C-29.97159126 176.01033261 -29.87736023 172.15841499 -29.77880859 168.06958008 C-29.77822449 166.88504745 -29.77764038 165.70051483 -29.77703857 164.48008728 C-29.76880032 161.24804855 -29.72964991 158.01817922 -29.676826 154.78661942 C-29.62914433 151.39869379 -29.62227949 148.01069002 -29.61123657 144.6224823 C-29.58436816 138.20969042 -29.52267679 131.79774747 -29.44759142 125.38535756 C-29.33901023 115.97076331 -29.28493265 106.55582064 -29.22843361 97.14079571 C-29.21999653 95.75065786 -29.21153006 94.36052018 -29.20303345 92.97038269 C-29.19893168 92.29167152 -29.19482991 91.61296034 -29.19060385 90.91368216 C-29.16099189 86.23377483 -29.11625444 81.55420071 -29.06625366 76.87446594 C-29.05468231 75.63410583 -29.04311096 74.39374573 -29.03118896 73.11579895 C-29.0093754 70.79789032 -28.98366186 68.48001385 -28.95333862 66.16220093 C-28.94022644 64.62933693 -28.94022644 64.62933693 -28.92684937 63.06550598 C-28.91683584 62.17861493 -28.90682232 61.29172388 -28.89650536 60.37795734 C-28.91311402 58.01175905 -28.91311402 58.01175905 -29.57927895 55.84649181 C-30.28838896 52.73429712 -28.49613773 50.88845088 -26.875 48.25 C-26.12829481 47.0045264 -25.38507311 45.75696056 -24.64453125 44.5078125 C-24.01732178 43.45255371 -24.01732178 43.45255371 -23.37744141 42.37597656 C-20.65969351 37.6880782 -18.12639046 32.89818842 -15.5625 28.125 C-10.47659009 18.68954143 -5.28904266 9.32305826 0 0 Z " fill="#02BDF1" transform="translate(68,12)"/>
<path d="M0 0 C5.61 0 11.22 0 17 0 C17 1.65 17 3.3 17 5 C17.66386719 4.6390625 18.32773438 4.278125 19.01171875 3.90625 C19.89472656 3.4421875 20.77773437 2.978125 21.6875 2.5 C22.55761719 2.0359375 23.42773438 1.571875 24.32421875 1.09375 C27 0 27 0 32 0 C32 3.96 32 7.92 32 12 C30.7625 12.556875 29.525 13.11375 28.25 13.6875 C24.43610313 15.65530849 21.97856123 17.04287755 20 21 C19.19953465 25.92918134 18.84681331 30.70942369 21.140625 35.265625 C24.1908084 39.08638104 27.13842415 40.95823375 32 42 C32 45.63 32 49.26 32 53 C32.99 53 33.98 53 35 53 C35 49.7 35 46.4 35 43 C36.32 43 37.64 43 39 43 C39.11537109 42.27272705 39.23074219 41.5454541 39.34960938 40.79614258 C40.01861322 37.91997854 40.97793244 35.83682056 42.40625 33.26171875 C42.89899414 32.36598145 43.39173828 31.47024414 43.89941406 30.54736328 C44.42760742 29.6036084 44.95580078 28.65985352 45.5 27.6875 C46.03592773 26.71796387 46.57185547 25.74842773 47.12402344 24.74951172 C48.74156937 21.82859519 50.36900407 18.91342415 52 16 C52.47759766 15.14519043 52.95519531 14.29038086 53.44726562 13.40966797 C55.9511013 8.93193289 58.46847355 4.46213501 61 0 C61.804375 0.185625 62.60875 0.37125 63.4375 0.5625 C64.283125 0.706875 65.12875 0.85125 66 1 C66.33 0.67 66.66 0.34 67 0 C71.95 0 76.9 0 82 0 C82.33 11.22 82.66 22.44 83 34 C87.38527395 25.80535213 87.38527395 25.80535213 91.7644043 17.60742188 C93.48956595 14.39358646 95.23760304 11.19355792 97 8 C97.47260254 7.13246094 97.94520508 6.26492187 98.43212891 5.37109375 C99.70703125 3.15625 99.70703125 3.15625 102 0 C103.32 0 104.64 0 106 0 C106.80822559 12.98292542 106.82164108 21.24733711 99 32 C97.96654805 33.98292135 96.95735679 35.97924074 96 38 C98.97 38 101.94 38 105 38 C105 41.63 105 45.26 105 49 C99.72 49 94.44 49 89 49 C89 51.31 89 53.62 89 56 C89.66 56.33 90.32 56.66 91 57 C90.67 57.33 90.34 57.66 90 58 C91.485 58.99 91.485 58.99 93 60 C93 60.99 93 61.98 93 63 C93.763125 63.103125 94.52625 63.20625 95.3125 63.3125 C98.28812061 64.07370527 98.9034959 64.9034959 101 67 C103.60611077 67.72197162 103.60611077 67.72197162 106 68 C106 68.99 106 69.98 106 71 C107.42090206 75.26270618 110.5721715 77.31735161 114 80 C113.67 81.32 113.34 82.64 113 84 C109.75925192 81.64309231 107.14587257 79.09939798 104.5625 76.0625 C101.60725702 72.59972616 98.54941337 69.8395307 95 67 C94.38509075 66.30429775 93.7701815 65.6085955 93.13663864 64.89181137 C90.54615844 62.59816199 89.41286137 62.49541292 86.00128174 62.48101807 C84.49110725 62.46014885 84.49110725 62.46014885 82.95042419 62.43885803 C81.30288902 62.44640358 81.30288902 62.44640358 79.62207031 62.45410156 C78.46081131 62.44376389 77.29955231 62.43342621 76.10310364 62.42277527 C72.26130406 62.39325648 68.42002926 62.39184611 64.578125 62.390625 C61.91580485 62.37564948 59.25354003 62.35911897 56.59124756 62.34051514 C50.2979657 62.29995445 44.00478746 62.27961437 37.71139503 62.26654124 C29.84265391 62.24911434 21.97409514 62.20469264 14.10546875 62.16015625 C0.07031739 62.08083659 -13.9645803 62.0423519 -28 62 C-28 100.94 -28 139.88 -28 180 C-28.33 180 -28.66 180 -29 180 C-28.99861731 179.06239775 -28.99861731 179.06239775 -28.99720669 178.10585403 C-28.97512635 162.8994965 -28.95857618 147.69314388 -28.94818783 132.48677444 C-28.94303063 125.13310419 -28.93599888 117.77944464 -28.92456055 110.42578125 C-28.91459614 104.0166456 -28.90814238 97.60751769 -28.90591151 91.19837451 C-28.90460739 87.80451419 -28.9015404 84.41067603 -28.89426994 81.01682281 C-28.88703755 77.22897514 -28.88601 73.44117376 -28.88647461 69.65332031 C-28.88287933 68.52691132 -28.87928406 67.40050232 -28.87557983 66.23995972 C-28.8769545 65.20793427 -28.87832916 64.17590881 -28.87974548 63.11260986 C-28.87882369 62.21662708 -28.8779019 61.3206443 -28.87695217 60.39751053 C-28.91478928 58.01449112 -28.91478928 58.01449112 -29.58222294 55.84354782 C-30.28692763 52.73385868 -28.49434376 50.88553115 -26.875 48.25 C-26.12829481 47.0045264 -25.38507311 45.75696056 -24.64453125 44.5078125 C-24.01732178 43.45255371 -24.01732178 43.45255371 -23.37744141 42.37597656 C-20.65969351 37.6880782 -18.12639046 32.89818842 -15.5625 28.125 C-10.47659009 18.68954143 -5.28904266 9.32305826 0 0 Z " fill="#FAF9F7" transform="translate(68,12)"/>
<path d="M0 0 C17.16 0 34.32 0 52 0 C52 36.63 52 73.26 52 111 C-4.925 111.495 -4.925 111.495 -63 112 C-58.26798186 116.09281409 -58.26798186 116.09281409 -52.99491882 116.51898193 C-51.52054604 116.53985115 -51.52054604 116.53985115 -50.01638794 116.56114197 C-48.94967865 116.5561116 -47.88296936 116.55108124 -46.78393555 116.54589844 C-45.65179123 116.55623611 -44.51964691 116.56657379 -43.35319519 116.57722473 C-39.61422538 116.60670244 -35.87579574 116.60815302 -32.13671875 116.609375 C-29.54310572 116.6243532 -26.94950223 116.64107957 -24.35591125 116.65948486 C-18.22909343 116.69874239 -12.10244593 116.72037872 -5.97552377 116.73345876 C1.0015801 116.74933856 7.97850322 116.78775821 14.95550215 116.82805204 C29.30360253 116.91041177 43.65171094 116.96452835 58 117 C58 117.33 58 117.66 58 118 C18.4 118 -21.2 118 -62 118 C-62 117.34 -62 116.68 -62 116 C-62.99 116.99 -62.99 116.99 -64 118 C-64.66 115.69 -65.32 113.38 -66 111 C-66.99 111 -67.98 111 -69 111 C-69 110.34 -69 109.68 -69 109 C-69.99 108.34 -70.98 107.68 -72 107 C-72 106.34 -72 105.68 -72 105 C-72.99 105 -73.98 105 -75 105 C-74.67 103.68 -74.34 102.36 -74 101 C-73.18366089 102.2223938 -73.18366089 102.2223938 -72.35083008 103.46948242 C-68.64246249 107.1390147 -64.22786506 106.56803682 -59.28556824 106.56648254 C-57.35563774 106.5277729 -57.35563774 106.5277729 -55.38671875 106.48828125 C-54.04866357 106.47894787 -52.71059123 106.47183423 -51.37251282 106.46684265 C-47.86217514 106.44781319 -44.35288302 106.39875053 -40.84295654 106.34332275 C-37.25677635 106.29204083 -33.67042608 106.26930974 -30.08398438 106.24414062 C-23.0555619 106.19062549 -16.02783124 106.10536371 -9 106 C-8.75845688 105.45927353 -8.51691376 104.91854706 -8.26805115 104.36143494 C-3.65076471 94.03522932 1.00688863 83.74333962 5.9375 73.5625 C6.43548096 72.50724121 6.93346191 71.45198242 7.4465332 70.36474609 C9.77868151 65.44572364 12.15339967 60.64355009 14.953125 55.97265625 C24.2460475 39.86449152 23.42031612 23.09353512 23 5 C19.7 5 16.4 5 13 5 C12.649375 6.19625 12.29875 7.3925 11.9375 8.625 C9.6914366 15.41718212 6.27570581 21.66170659 3 28 C2.33075228 29.33203968 1.66270727 30.66469431 1 32 C0.67 32 0.34 32 0 32 C0 21.44 0 10.88 0 0 Z " fill="#F7FDFC" transform="translate(145,121)"/>
<path d="M0 0 C17.49 0 34.98 0 53 0 C53.020625 7.569375 53.04125 15.13875 53.0625 22.9375 C53.071604 25.32991943 53.08070801 27.72233887 53.09008789 30.18725586 C53.09300692 32.07145125 53.09555551 33.95564727 53.09765625 35.83984375 C53.10277222 36.82795044 53.10788818 37.81605713 53.11315918 38.83410645 C53.11334045 40.23481384 53.11334045 40.23481384 53.11352539 41.66381836 C53.115746 42.47878281 53.11796661 43.29374725 53.12025452 44.13340759 C53 46 53 46 52 47 C50.37325222 47.09340434 48.74245949 47.11745171 47.11303711 47.11352539 C46.07203354 47.11344986 45.03102997 47.11337433 43.95848083 47.11329651 C42.8262056 47.10813522 41.69393036 47.10297394 40.52734375 47.09765625 C39.37456436 47.0962413 38.22178497 47.09482635 37.03407288 47.09336853 C33.33518936 47.08775005 29.63636536 47.07519442 25.9375 47.0625 C23.43684983 47.05748738 20.93619871 47.05292406 18.43554688 47.04882812 C12.29032295 47.0386235 6.14522845 47.01905169 0 47 C0 31.49 0 15.98 0 0 Z " fill="#FDFEFD" transform="translate(87,121)"/>
<path d="M0 0 C7.26 0 14.52 0 22 0 C22 33.33 22 66.66 22 101 C14.74 101 7.48 101 0 101 C0 67.67 0 34.34 0 0 Z " fill="#07BCF0" transform="translate(172,126)"/>
<path d="M0 0 C4.95 0 9.9 0 15 0 C15.33 11.22 15.66 22.44 16 34 C20.38527395 25.80535213 20.38527395 25.80535213 24.7644043 17.60742188 C26.48956595 14.39358646 28.23760304 11.19355792 30 8 C30.70890381 6.69869141 30.70890381 6.69869141 31.43212891 5.37109375 C32.70703125 3.15625 32.70703125 3.15625 35 0 C36.32 0 37.64 0 39 0 C39.80822559 12.98292542 39.82164108 21.24733711 32 32 C30.96654805 33.98292135 29.95735679 35.97924074 29 38 C31.97 38 34.94 38 38 38 C38 41.63 38 45.26 38 49 C32.72 49 27.44 49 22 49 C21.67 50.32 21.34 51.64 21 53 C14.07 53 7.14 53 0 53 C0 35.51 0 18.02 0 0 Z " fill="#353334" transform="translate(135,12)"/>
<path d="M0 0 C1.67316578 0.98908749 3.33833751 1.99170661 5 3 C6.30751724 3.74641251 6.30751724 3.74641251 7.64144897 4.50790405 C11.86249359 7.66249638 14.46517946 10.45887769 15.55316925 15.62830353 C16.37511072 23.27976928 16.18065917 30.96683299 16.01393938 38.64928865 C15.95100618 42.04165745 15.94551977 45.43413337 15.9336853 48.82699585 C15.90272434 55.23778017 15.82083513 61.64683916 15.72019041 68.056867 C15.60803303 75.36022168 15.55333928 82.66366308 15.50323606 89.96766591 C15.39898478 104.97940179 15.22333677 119.98952756 15 135 C-0.02078991 135.1168834 -15.04154453 135.20501257 -30.06269264 135.25906086 C-37.03755535 135.28482534 -44.01213524 135.31994158 -50.98681641 135.37719727 C-57.7171251 135.43242047 -64.44707921 135.46141783 -71.17762375 135.47438622 C-73.74609376 135.48362862 -76.3145476 135.50167677 -78.88289261 135.52865028 C-82.47908603 135.56491834 -86.07406344 135.56994598 -89.67041016 135.56762695 C-91.26508118 135.59459152 -91.26508118 135.59459152 -92.89196777 135.62210083 C-97.5976947 135.58924062 -100.95484198 135.56382736 -104.70809937 132.52702332 C-107 130 -107 130 -107 129 C-68.72 129 -30.44 129 9 129 C9 92.37 9 55.74 9 18 C9.66 18.33 10.32 18.66 11 19 C11 55.96 11 92.92 11 131 C11.66 131 12.32 131 13 131 C13 92.06 13 53.12 13 13 C11.35 12.67 9.7 12.34 8 12 C7.9175 11.401875 7.835 10.80375 7.75 10.1875 C6.77052189 7.33068885 5.56298332 6.53778999 3 5 C0.85266073 4.29485154 0.85266073 4.29485154 -1 4 C-0.67 2.68 -0.34 1.36 0 0 Z " fill="#06BFF1" transform="translate(188,103)"/>
<path d="M0 0 C0 3.96 0 7.92 0 12 C-1.2375 12.556875 -2.475 13.11375 -3.75 13.6875 C-7.56389687 15.65530849 -10.02143877 17.04287755 -12 21 C-12.80046535 25.92918134 -13.15318669 30.70942369 -10.859375 35.265625 C-7.8091916 39.08638104 -4.86157585 40.95823375 0 42 C0 45.63 0 49.26 0 53 C-5.67276511 53.29341888 -8.99067246 53.00559652 -14 50 C-14.33 50.99 -14.66 51.98 -15 53 C-18.96 53 -22.92 53 -27 53 C-27 35.84 -27 18.68 -27 1 C-23.37 1 -19.74 1 -16 1 C-16 2.65 -16 4.3 -16 6 C-15.45730469 5.65066406 -14.91460937 5.30132812 -14.35546875 4.94140625 C-13.28232422 4.25884766 -13.28232422 4.25884766 -12.1875 3.5625 C-11.47980469 3.11003906 -10.77210937 2.65757813 -10.04296875 2.19140625 C-6.39353385 0.06315071 -4.37017916 0 0 0 Z " fill="#353435" transform="translate(100,12)"/>
<path d="M0 0 C7.2003749 -0.86901076 11.85604139 1.01760354 17.94970703 4.68579102 C21.27511761 6.57907322 22.62472153 7.08643814 26.42578125 6.2109375 C27.27527344 5.81132812 28.12476563 5.41171875 29 5 C24.13971615 14.97124136 19.01397234 24.75465651 13.59448242 34.43457031 C13.14177979 35.24635742 12.68907715 36.05814453 12.22265625 36.89453125 C11.81797119 37.61487549 11.41328613 38.33521973 10.99633789 39.07739258 C9.87162927 41.12555904 9.87162927 41.12555904 9 44 C7.68 44 6.36 44 5 44 C5.09539062 44.77085938 5.19078125 45.54171875 5.2890625 46.3359375 C5.39992188 47.33882812 5.51078125 48.34171875 5.625 49.375 C5.79902344 50.87160156 5.79902344 50.87160156 5.9765625 52.3984375 C5.98429687 53.25695312 5.99203125 54.11546875 6 55 C5.34 55.66 4.68 56.32 4 57 C4 56.34 4 55.68 4 55 C3.01 54.67 2.02 54.34 1 54 C1.33 50.37 1.66 46.74 2 43 C1.154375 43 0.30875 43 -0.5625 43 C-4.88763074 41.74178015 -6.82843537 39.98346867 -9.62890625 36.515625 C-12.2017852 31.79501518 -12.14188615 27.17040377 -11 22 C-8.64559787 17.65977627 -5.56051752 14.88525331 -1 13 C-0.01 13 0.98 13 2 13 C2 9.04 2 5.08 2 1 C1.34 0.67 0.68 0.34 0 0 Z " fill="#F9F8F8" transform="translate(98,11)"/>
<path d="M0 0 C14.52 0 29.04 0 44 0 C42.77303041 3.68090876 41.69030666 6.87516346 40.0546875 10.3046875 C39.73483887 10.97999512 39.41499023 11.65530273 39.08544922 12.35107422 C38.68600098 13.18396973 38.28655273 14.01686523 37.875 14.875 C36.59625 17.55625 35.3175 20.2375 34 23 C22.78 23 11.56 23 0 23 C0 15.41 0 7.82 0 0 Z " fill="#FAFDFC" transform="translate(87,183)"/>
<path d="M0 0 C17.16 0 34.32 0 52 0 C52 36.63 52 73.26 52 111 C-4.925 111.495 -4.925 111.495 -63 112 C-58.26798186 116.09281409 -58.26798186 116.09281409 -52.99491882 116.51898193 C-51.52054604 116.53985115 -51.52054604 116.53985115 -50.01638794 116.56114197 C-48.94967865 116.5561116 -47.88296936 116.55108124 -46.78393555 116.54589844 C-45.65179123 116.55623611 -44.51964691 116.56657379 -43.35319519 116.57722473 C-39.61422538 116.60670244 -35.87579574 116.60815302 -32.13671875 116.609375 C-29.54310572 116.6243532 -26.94950223 116.64107957 -24.35591125 116.65948486 C-18.22909343 116.69874239 -12.10244593 116.72037872 -5.97552377 116.73345876 C1.0015801 116.74933856 7.97850322 116.78775821 14.95550215 116.82805204 C29.30360253 116.91041177 43.65171094 116.96452835 58 117 C58 117.33 58 117.66 58 118 C18.4 118 -21.2 118 -62 118 C-62 117.34 -62 116.68 -62 116 C-62.99 116.99 -62.99 116.99 -64 118 C-64.66 115.69 -65.32 113.38 -66 111 C-66.99 111 -67.98 111 -69 111 C-69 110.34 -69 109.68 -69 109 C-69.99 108.34 -70.98 107.68 -72 107 C-72 106.34 -72 105.68 -72 105 C-72.99 105 -73.98 105 -75 105 C-74.67 103.68 -74.34 102.36 -74 101 C-73.18366089 102.2223938 -73.18366089 102.2223938 -72.35083008 103.46948242 C-68.64246249 107.1390147 -64.22786506 106.56803682 -59.28556824 106.56648254 C-57.35563774 106.5277729 -57.35563774 106.5277729 -55.38671875 106.48828125 C-54.04866357 106.47894787 -52.71059123 106.47183423 -51.37251282 106.46684265 C-47.86217514 106.44781319 -44.35288302 106.39875053 -40.84295654 106.34332275 C-37.25677635 106.29204083 -33.67042608 106.26930974 -30.08398438 106.24414062 C-23.0555619 106.19062549 -16.02783124 106.10536371 -9 106 C-7.68 103.03 -6.36 100.06 -5 97 C-4.67 97 -4.34 97 -4 97 C-3.77963136 100.85645121 -4.39644899 103.49223216 -6 107 C-6.66 107 -7.32 107 -8 107 C-8 107.66 -8 108.32 -8 109 C11.14 109 30.28 109 50 109 C50 108.34 50 107.68 50 107 C42.41 107 34.82 107 27 107 C27 106.67 27 106.34 27 106 C34.26 106 41.52 106 49 106 C49 72.67 49 39.34 49 5 C41.74 5 34.48 5 27 5 C27 4.67 27 4.34 27 4 C34.59 4 42.18 4 50 4 C50.33 3.01 50.66 2.02 51 1 C34.5 1 18 1 1 1 C1.33 10.9 1.66 20.8 2 31 C1.34 31.33 0.68 31.66 0 32 C0 21.44 0 10.88 0 0 Z " fill="#B2EFF9" transform="translate(145,121)"/>
<path d="M0 0 C1.32 0 2.64 0 4 0 C5.24835594 14.90321225 3.19286654 24.45060919 -5 37 C-2.03 37 0.94 37 4 37 C4 40.96 4 44.92 4 49 C-1.61 49 -7.22 49 -13 49 C-13.33 50.32 -13.66 51.64 -14 53 C-17.96 53 -21.92 53 -26 53 C-26 49.7 -26 46.4 -26 43 C-24.68 43 -23.36 43 -22 43 C-21.82694336 41.90909058 -21.82694336 41.90909058 -21.65039062 40.79614258 C-20.98138678 37.91997854 -20.02206756 35.83682056 -18.59375 33.26171875 C-18.10100586 32.36598145 -17.60826172 31.47024414 -17.10058594 30.54736328 C-16.57239258 29.6036084 -16.04419922 28.65985352 -15.5 27.6875 C-14.96407227 26.71796387 -14.42814453 25.74842773 -13.87597656 24.74951172 C-12.25843063 21.82859519 -10.63099593 18.91342415 -9 16 C-8.52240234 15.14519043 -8.04480469 14.29038086 -7.55273438 13.40966797 C-5.0488987 8.93193289 -2.53152645 4.46213501 0 0 Z " fill="#3C3B3C" transform="translate(129,12)"/>
<path d="M0 0 C17.49 0.33 34.98 0.66 53 1 C53.495 1.99 53.495 1.99 54 3 C36.51 3 19.02 3 1 3 C1 18.51 1 34.02 1 50 C18.16 49.67 35.32 49.34 53 49 C53.33 34.15 53.66 19.3 54 4 C55.65 4 57.3 4 59 4 C59 14.23 59 24.46 59 35 C56.87491756 31.81237635 56.4979837 29.73487777 56 26 C55.96241577 27.08269165 55.96241577 27.08269165 55.92407227 28.18725586 C55.80848698 31.437535 55.68559226 34.68749688 55.5625 37.9375 C55.52318359 39.07380859 55.48386719 40.21011719 55.44335938 41.38085938 C55.38051758 43.00024414 55.38051758 43.00024414 55.31640625 44.65234375 C55.27974854 45.65257568 55.24309082 46.65280762 55.20532227 47.68334961 C55 50 55 50 54 51 C52.37420782 51.12281952 50.74322996 51.17782504 49.11303711 51.20532227 C48.07203354 51.22526749 47.03102997 51.24521271 45.95848083 51.26576233 C44.8262056 51.28247482 43.69393036 51.29918732 42.52734375 51.31640625 C41.37456436 51.33718735 40.22178497 51.35796844 39.03407288 51.37937927 C35.33527843 51.44499964 31.63641041 51.50381755 27.9375 51.5625 C25.43684121 51.60567335 22.93618999 51.64928724 20.43554688 51.69335938 C14.29044338 51.80069368 8.14526596 51.90243643 2 52 C2 52.66 2 53.32 2 54 C16.52 54 31.04 54 46 54 C46 53.34 46 52.68 46 52 C47.32 52.66 48.64 53.32 50 54 C50 54.66 50 55.32 50 56 C52.475 55.505 52.475 55.505 55 55 C55.495 57.97 55.495 57.97 56 61 C54.02 61.495 54.02 61.495 52 62 C51.67 61.34 51.34 60.68 51 60 C50.01 60.33 49.02 60.66 48 61 C46.32779029 61.08754798 44.65227801 61.11765995 42.9777832 61.11352539 C41.95695145 61.11344986 40.93611969 61.11337433 39.88435364 61.11329651 C38.78427475 61.10813522 37.68419586 61.10297394 36.55078125 61.09765625 C35.4230278 61.0962413 34.29527435 61.09482635 33.13334656 61.09336853 C29.52637088 61.0877647 25.91945696 61.07521153 22.3125 61.0625 C19.86914152 61.05748549 17.42578207 61.0529225 14.98242188 61.04882812 C8.98826013 61.03779403 2.99413448 61.02105215 -3 61 C-3 59.35 -3 57.7 -3 56 C-2.01 56 -1.02 56 0 56 C-0.16226074 55.22672363 -0.32452148 54.45344727 -0.49169922 53.65673828 C-1.15074507 48.91553333 -1.14286505 44.27294849 -1.1328125 39.4921875 C-1.13376923 38.48914581 -1.13472595 37.48610413 -1.13571167 36.45266724 C-1.13639016 34.33970069 -1.13455901 32.22673203 -1.13037109 30.11376953 C-1.12500694 26.87918431 -1.13033309 23.64473724 -1.13671875 20.41015625 C-1.13605813 18.35416636 -1.1347773 16.29817656 -1.1328125 14.2421875 C-1.13483673 13.27546112 -1.13686096 12.30873474 -1.13894653 11.31271362 C-1.13579437 10.41142731 -1.13264221 9.51014099 -1.12939453 8.58154297 C-1.12859894 7.79133759 -1.12780334 7.0011322 -1.12698364 6.1869812 C-1 4 -1 4 0 0 Z " fill="#2CBAE2" transform="translate(86,118)"/>
<path d="M0 0 C0.66 0 1.32 0 2 0 C3.1314036 14.77569582 1.53199866 25.17206478 -6 38 C-3.69 38 -1.38 38 1 38 C1 41.63 1 45.26 1 49 C-3.62 49 -8.24 49 -13 49 C-13.33 50.32 -13.66 51.64 -14 53 C-18.62 53 -23.24 53 -28 53 C-23.45723006 41.64307515 -17.33189683 31.0747673 -11.35839844 20.42578125 C-9.01920178 16.24852424 -6.69815675 12.06119151 -4.375 7.875 C-3.52872514 6.35151844 -2.68237853 4.82807674 -1.8359375 3.3046875 C-1.23007813 2.21414062 -0.62421875 1.12359375 0 0 Z " fill="#363435" transform="translate(68,12)"/>
<path d="M0 0 C4.29 0 8.58 0 13 0 C13 17.49 13 34.98 13 53 C8.71 53 4.42 53 0 53 C0 35.51 0 18.02 0 0 Z " fill="#484748" transform="translate(176,12)"/>
<path d="M0 0 C16.5 0 33 0 50 0 C50 33.66 50 67.32 50 102 C49.67 102 49.34 102 49 102 C49 69.33 49 36.66 49 3 C41.41 3 33.82 3 26 3 C26 36.66 26 70.32 26 105 C25.67 105 25.34 105 25 105 C24.98969254 104.29256149 24.97938507 103.58512299 24.96876526 102.85624695 C24.87080479 96.19068762 24.76829237 89.52521568 24.66066074 82.85980511 C24.60548647 79.43301772 24.55207534 76.00622172 24.50268555 72.5793457 C24.44583335 68.64004749 24.38132688 64.7008926 24.31640625 60.76171875 C24.29969376 59.53039719 24.28298126 58.29907562 24.26576233 57.03044128 C24.24581711 55.88948502 24.22587189 54.74852875 24.20532227 53.57299805 C24.18977798 52.567061 24.1742337 51.56112396 24.15821838 50.52470398 C24.1003603 47.87395947 24.1003603 47.87395947 23 45 C23 44.01 23 43.02 23 42 C21.515 42.495 21.515 42.495 20 43 C20.23771118 42.2589502 20.23771118 42.2589502 20.48022461 41.50292969 C21.20720942 38.00220245 21.23650246 34.51472969 21.31640625 30.953125 C21.33718735 30.18192322 21.35796844 29.41072144 21.37937927 28.6161499 C21.44458572 26.16085428 21.50362484 23.70545479 21.5625 21.25 C21.60571274 19.58202065 21.6493279 17.91405168 21.69335938 16.24609375 C21.80023736 12.16416804 21.90158566 8.08213818 22 4 C18.7 4 15.4 4 12 4 C11.67 5.175625 11.34 6.35125 11 7.5625 C8.6218158 14.80146068 4.68210832 21.36170969 1 28 C0.67 28 0.34 28 0 28 C0 18.76 0 9.52 0 0 Z " fill="#E3FCFD" transform="translate(146,122)"/>
<path d="M0 0 C3.96 0 7.92 0 12 0 C12 17.49 12 34.98 12 53 C8.04 53 4.08 53 0 53 C0 35.51 0 18.02 0 0 Z " fill="#333132" transform="translate(191,12)"/>
<path d="M0 0 C1.93166016 0.01740234 1.93166016 0.01740234 3.90234375 0.03515625 C5.19269531 0.04417969 6.48304687 0.05320312 7.8125 0.0625 C8.81152344 0.07410156 9.81054688 0.08570313 10.83984375 0.09765625 C11.33484375 3.06765625 11.33484375 3.06765625 11.83984375 6.09765625 C11.17984375 6.09765625 10.51984375 6.09765625 9.83984375 6.09765625 C9.83984375 4.44765625 9.83984375 2.79765625 9.83984375 1.09765625 C6.20984375 1.09765625 2.57984375 1.09765625 -1.16015625 1.09765625 C-1.16015625 18.25765625 -1.16015625 35.41765625 -1.16015625 53.09765625 C1.47984375 53.09765625 4.11984375 53.09765625 6.83984375 53.09765625 C6.83984375 54.74765625 6.83984375 56.39765625 6.83984375 58.09765625 C2.37410864 58.12245106 -2.09158955 58.14056111 -6.55737305 58.15258789 C-8.0752838 58.15760391 -9.59318975 58.16441828 -11.11108398 58.1730957 C-13.29802641 58.18528122 -15.48490471 58.19091197 -17.671875 58.1953125 C-18.98631592 58.20054932 -20.30075684 58.20578613 -21.6550293 58.21118164 C-24.6422075 58.11443177 -27.26608236 57.80109389 -30.16015625 57.09765625 C-30.16015625 58.08765625 -30.16015625 59.07765625 -30.16015625 60.09765625 C-29.50015625 60.42765625 -28.84015625 60.75765625 -28.16015625 61.09765625 C-30.14015625 61.09765625 -32.12015625 61.09765625 -34.16015625 61.09765625 C-36.49776383 57.38498538 -36.12126475 56.90319877 -35.16015625 52.09765625 C-30.21015625 52.42765625 -25.26015625 52.75765625 -20.16015625 53.09765625 C-19.83015625 51.77765625 -19.50015625 50.45765625 -19.16015625 49.09765625 C-14.54015625 49.09765625 -9.92015625 49.09765625 -5.16015625 49.09765625 C-5.16015625 45.46765625 -5.16015625 41.83765625 -5.16015625 38.09765625 C-7.47015625 38.09765625 -9.78015625 38.09765625 -12.16015625 38.09765625 C-11.58467702 34.07649512 -10.26828605 31.47607003 -8.16015625 28.03515625 C-3.96676221 20.04869218 -4.25233586 11.71397229 -4.27026367 2.85668945 C-4.07179358 -0.31399129 -3.22367206 0.09961904 0 0 Z " fill="#FAF9F9" transform="translate(74.16015625,11.90234375)"/>
<path d="M0 0 C4.29 0 8.58 0 13 0 C13 12.54 13 25.08 13 38 C10.79681741 33.59363482 10.8253093 31.66245297 11.0234375 26.828125 C11.04846344 26.1457074 11.07348938 25.46328979 11.09927368 24.76019287 C11.18117053 22.58960017 11.27787353 20.41995927 11.375 18.25 C11.43327079 16.77477793 11.49057339 15.29951728 11.546875 13.82421875 C11.68670221 10.21563108 11.83981043 6.60774764 12 3 C11.34 3 10.68 3 10 3 C10.00523682 4.00901367 10.01047363 5.01802734 10.01586914 6.05761719 C10.03399262 9.80728262 10.04545888 13.55694418 10.05493164 17.30664062 C10.05995505 18.92839204 10.06677494 20.55013895 10.07543945 22.171875 C10.08759229 24.50521969 10.09324828 26.8385044 10.09765625 29.171875 C10.10281754 29.89493835 10.10797882 30.61800171 10.11329651 31.36297607 C10.11404383 38.0950139 10.11404383 38.0950139 9 41 C8.319375 41.598125 7.63875 42.19625 6.9375 42.8125 C4.61707972 44.98295695 4.61707972 44.98295695 4.75 48.75 C4.87375 50.35875 4.87375 50.35875 5 52 C3.35 52 1.7 52 0 52 C0 34.84 0 17.68 0 0 Z " fill="#363435" transform="translate(136,13)"/>
<path d="M0 0 C1.32 0 2.64 0 4 0 C5.2740571 20.46580606 5.2740571 20.46580606 -1.2734375 29.4921875 C-4.11527886 33.61992992 -5.13826356 38.11682681 -6 43 C-7.32 43 -8.64 43 -10 43 C-10.37125 41.88625 -10.37125 41.88625 -10.75 40.75 C-11.84516432 37.91343832 -11.84516432 37.91343832 -14.0625 35.9375 C-16.21404747 33.78595253 -16.6841506 32.97762866 -17 30 C-16.09130859 27.65332031 -16.09130859 27.65332031 -14.6484375 25.078125 C-14.12636719 24.13453125 -13.60429687 23.1909375 -13.06640625 22.21875 C-12.22916016 20.74921875 -12.22916016 20.74921875 -11.375 19.25 C-10.84003906 18.28578125 -10.30507812 17.3215625 -9.75390625 16.328125 C-8.1950017 13.53651004 -6.60130116 10.76745508 -5 8 C-4.54657227 7.17951172 -4.09314453 6.35902344 -3.62597656 5.51367188 C-3.20541992 4.78212891 -2.78486328 4.05058594 -2.3515625 3.296875 C-1.99143066 2.65588867 -1.63129883 2.01490234 -1.26025391 1.35449219 C-0.84437012 0.90750977 -0.42848633 0.46052734 0 0 Z " fill="#383637" transform="translate(170,12)"/>
<path d="M0 0 C0.66 0 1.32 0 2 0 C2.33 1.32 2.66 2.64 3 4 C3.99 4 4.98 4 6 4 C6 3.34 6 2.68 6 2 C7.32 2.33 8.64 2.66 10 3 C9.34 3 8.68 3 8 3 C8 4.32 8 5.64 8 7 C8.33 6.01 8.66 5.02 9 4 C9.66 4 10.32 4 11 4 C11 4.99 11 5.98 11 7 C13.97 7 16.94 7 20 7 C20 10.63 20 14.26 20 18 C14.72 18 9.44 18 4 18 C3.67 19.32 3.34 20.64 3 22 C-0.96 22 -4.92 22 -9 22 C-9 18.7 -9 15.4 -9 12 C-7.68 12 -6.36 12 -5 12 C-4.9175 11.319375 -4.835 10.63875 -4.75 9.9375 C-3.77667472 6.1253093 -2.04192545 3.35929671 0 0 Z " fill="#343333" transform="translate(112,43)"/>
<path d="M0 0 C0.33 0 0.66 0 1 0 C1.22036864 3.85645121 0.60355101 6.49223216 -1 10 C-1.66 10 -2.32 10 -3 10 C-3 10.66 -3 11.32 -3 12 C-1.02 12 0.96 12 3 12 C3 12.33 3 12.66 3 13 C-27.69 13.495 -27.69 13.495 -59 14 C-53.71758638 18.95693689 -53.71758638 18.95693689 -47.87466431 19.63923645 C-46.39822952 19.66216766 -46.39822952 19.66216766 -44.89196777 19.68556213 C-43.29729675 19.67262367 -43.29729675 19.67262367 -41.67041016 19.65942383 C-40.53811981 19.66990753 -39.40582947 19.68039124 -38.23922729 19.69119263 C-34.50556014 19.71993867 -30.77282048 19.71365105 -27.0390625 19.70703125 C-24.44687742 19.72014643 -21.85470256 19.73545008 -19.26254272 19.75285339 C-13.14278893 19.78866274 -7.02335079 19.80243908 -0.90350473 19.8054778 C6.0663788 19.81017281 13.03604032 19.84311017 20.00582576 19.87837565 C34.33718264 19.95025853 48.66847492 19.98681864 63 20 C63 20.33 63 20.66 63 21 C23.4 21 -16.2 21 -57 21 C-57 20.34 -57 19.68 -57 19 C-57.66 19.66 -58.32 20.32 -59 21 C-59.66 18.69 -60.32 16.38 -61 14 C-61.99 14 -62.98 14 -64 14 C-64 13.34 -64 12.68 -64 12 C-64.99 11.34 -65.98 10.68 -67 10 C-67 9.34 -67 8.68 -67 8 C-67.99 8 -68.98 8 -70 8 C-69.67 6.68 -69.34 5.36 -69 4 C-68.45577393 4.8149292 -67.91154785 5.6298584 -67.35083008 6.46948242 C-63.64246249 10.1390147 -59.22786506 9.56803682 -54.28556824 9.56648254 C-52.35563774 9.5277729 -52.35563774 9.5277729 -50.38671875 9.48828125 C-49.04866357 9.47894787 -47.71059123 9.47183423 -46.37251282 9.46684265 C-42.86217514 9.44781319 -39.35288302 9.39875053 -35.84295654 9.34332275 C-32.25677635 9.29204083 -28.67042608 9.26930974 -25.08398438 9.24414062 C-18.0555619 9.19062549 -11.02783124 9.10536371 -4 9 C-2.68 6.03 -1.36 3.06 0 0 Z " fill="#CFF4FC" transform="translate(140,218)"/>
<path d="M0 0 C2.31 0.99 4.62 1.98 7 3 C6.67 3.99 6.34 4.98 6 6 C4.68 5.67 3.36 5.34 2 5 C1.67 6.32 1.34 7.64 1 9 C1.69746338 8.96970703 2.39492676 8.93941406 3.11352539 8.90820312 C15.63606123 8.37546005 28.15224837 7.89986948 40.6875 7.875 C42.07304077 7.86823242 42.07304077 7.86823242 43.48657227 7.86132812 C48.74760243 7.87296007 53.79372313 8.23633191 59 9 C58.67 9.99 58.34 10.98 58 12 C45.38731588 12.02313205 32.77463678 12.04091951 20.16193581 12.05181217 C14.30586627 12.0570391 8.44981121 12.06413333 2.59375 12.07543945 C-3.0536984 12.08627504 -8.70113286 12.09227827 -14.34859085 12.09487724 C-16.50724126 12.09673027 -18.66589087 12.10034857 -20.82453537 12.10573006 C-23.83925805 12.11294936 -26.85392247 12.11399056 -29.86865234 12.11352539 C-30.76848343 12.11712067 -31.66831451 12.12071594 -32.59541321 12.12442017 C-38.77189568 12.11405216 -38.77189568 12.11405216 -41 11 C-41 10.01 -41 9.02 -41 8 C-29.12 8 -17.24 8 -5 8 C-4.67 6.68 -4.34 5.36 -4 4 C-2.68 4 -1.36 4 0 4 C0 2.68 0 1.36 0 0 Z " fill="#F5FAF3" transform="translate(85,61)"/>
<path d="M0 0 C0.99 0.495 0.99 0.495 2 1 C2 37.96 2 74.92 2 113 C-35.62 112.67 -73.24 112.34 -112 112 C-111.34 113.32 -110.68 114.64 -110 116 C-113.16115776 114.63016497 -113.9927092 114.0109362 -116 111 C-77.72 111 -39.44 111 0 111 C0 74.37 0 37.74 0 0 Z " fill="#31B7DB" transform="translate(197,121)"/>
<path d="M0 0 C40.26 0 80.52 0 122 0 C122 0.66 122 1.32 122 2 C122.763125 2.103125 123.52625 2.20625 124.3125 2.3125 C127.28812061 3.07370527 127.9034959 3.9034959 130 6 C132.60611077 6.72197162 132.60611077 6.72197162 135 7 C135 7.99 135 8.98 135 10 C136.42090206 14.26270618 139.5721715 16.31735161 143 19 C142.67 20.32 142.34 21.64 142 23 C138.75925192 20.64309231 136.14587257 18.09939798 133.5625 15.0625 C130.60725702 11.59972616 127.54941337 8.8395307 124 6 C123.07763613 4.95644663 123.07763613 4.95644663 122.13663864 3.89181137 C119.54615844 1.59816199 118.41286137 1.49541292 115.00128174 1.48101807 C113.49110725 1.46014885 113.49110725 1.46014885 111.95042419 1.43885803 C110.30288902 1.44640358 110.30288902 1.44640358 108.62207031 1.45410156 C107.46081131 1.44376389 106.29955231 1.43342621 105.10310364 1.42277527 C101.26130406 1.39325648 97.42002926 1.39184611 93.578125 1.390625 C90.91580485 1.37564948 88.25354003 1.35911897 85.59124756 1.34051514 C79.2979657 1.29995445 73.00478746 1.27961437 66.71139503 1.26654124 C58.84265391 1.24911434 50.97409514 1.20469264 43.10546875 1.16015625 C29.07031739 1.08083659 15.0354197 1.0423519 1 1 C1 39.94 1 78.88 1 119 C0.67 119 0.34 119 0 119 C0 79.73 0 40.46 0 0 Z " fill="#C2F7FE" transform="translate(39,73)"/>
<path d="M0 0 C3.63 0 7.26 0 11 0 C11 17.16 11 34.32 11 52 C7.37 52 3.74 52 0 52 C0 48.04 0 44.08 0 40 C0.99 40.33 1.98 40.66 3 41 C3 42.65 3 44.3 3 46 C3.66 46 4.32 46 5 46 C5 34.12 5 22.24 5 10 C5.33 10 5.66 10 6 10 C6.33 18.91 6.66 27.82 7 37 C7.33 25.78 7.66 14.56 8 3 C7.34 3 6.68 3 6 3 C6 4.98 6 6.96 6 9 C5.01 9 4.02 9 3 9 C3 6.69 3 4.38 3 2 C2.01 2 1.02 2 0 2 C0 1.34 0 0.68 0 0 Z " fill="#313030" transform="translate(177,13)"/>
<path d="M0 0 C17.49 0 34.98 0 53 0 C53.020625 7.569375 53.04125 15.13875 53.0625 22.9375 C53.071604 25.32991943 53.08070801 27.72233887 53.09008789 30.18725586 C53.09300692 32.07145125 53.09555551 33.95564727 53.09765625 35.83984375 C53.10277222 36.82795044 53.10788818 37.81605713 53.11315918 38.83410645 C53.11334045 40.23481384 53.11334045 40.23481384 53.11352539 41.66381836 C53.115746 42.47878281 53.11796661 43.29374725 53.12025452 44.13340759 C53 46 53 46 52 47 C50.37325222 47.09340434 48.74245949 47.11745171 47.11303711 47.11352539 C46.07203354 47.11344986 45.03102997 47.11337433 43.95848083 47.11329651 C42.8262056 47.10813522 41.69393036 47.10297394 40.52734375 47.09765625 C39.37456436 47.0962413 38.22178497 47.09482635 37.03407288 47.09336853 C33.33518936 47.08775005 29.63636536 47.07519442 25.9375 47.0625 C23.43684983 47.05748738 20.93619871 47.05292406 18.43554688 47.04882812 C12.29032295 47.0386235 6.14522845 47.01905169 0 47 C0 31.49 0 15.98 0 0 Z M1 2 C0.979375 9.074375 0.95875 16.14875 0.9375 23.4375 C0.928396 25.67329834 0.91929199 27.90909668 0.90991211 30.21264648 C0.90699304 31.97379496 0.90444446 33.73494411 0.90234375 35.49609375 C0.89722778 36.41942505 0.89211182 37.34275635 0.88684082 38.29406738 C0.88671997 39.16696411 0.88659912 40.03986084 0.88647461 40.93920898 C0.884254 41.70087875 0.88203339 42.46254852 0.87974548 43.24729919 C0.80909045 45.02810605 0.80909045 45.02810605 2 46 C3.5348297 46.09319449 5.07392082 46.117458 6.61157227 46.11352539 C8.08298424 46.11341209 8.08298424 46.11341209 9.5841217 46.11329651 C10.6507756 46.10813522 11.7174295 46.10297394 12.81640625 46.09765625 C14.44569313 46.09553383 14.44569313 46.09553383 16.1078949 46.09336853 C19.59279075 46.08775048 23.07762342 46.07519492 26.5625 46.0625 C28.91861887 46.05748733 31.27473874 46.05292402 33.63085938 46.04882812 C39.42061711 46.03862411 45.21023745 46.01905224 51 46 C51 31.48 51 16.96 51 2 C34.5 2 18 2 1 2 Z " fill="#C4F8FD" transform="translate(87,121)"/>
<path d="M0 0 C1.67316578 0.98908749 3.33833751 1.99170661 5 3 C6.30751724 3.74641251 6.30751724 3.74641251 7.64144897 4.50790405 C11.86249359 7.66249638 14.46517946 10.45887769 15.55316925 15.62830353 C16.37511072 23.27976928 16.18065917 30.96683299 16.01393938 38.64928865 C15.95100618 42.04165745 15.94551977 45.43413337 15.9336853 48.82699585 C15.90272434 55.23778017 15.82083513 61.64683916 15.72019041 68.056867 C15.597011 76.07794353 15.54261616 84.09930609 15.48828125 92.12109375 C15.39115894 106.41540317 15.19081344 120.70595319 15 135 C-23.28 135 -61.56 135 -101 135 C-101 134.67 -101 134.34 -101 134 C-63.05 134 -25.1 134 14 134 C13.67 94.07 13.34 54.14 13 13 C11.35 12.67 9.7 12.34 8 12 C7.9175 11.401875 7.835 10.80375 7.75 10.1875 C6.77052189 7.33068885 5.56298332 6.53778999 3 5 C0.85266073 4.29485154 0.85266073 4.29485154 -1 4 C-0.67 2.68 -0.34 1.36 0 0 Z " fill="#29AFD5" transform="translate(188,103)"/>
<path d="M0 0 C39.27 0 78.54 0 119 0 C119 0.33 119 0.66 119 1 C80.06 1 41.12 1 1 1 C1.33 39.61 1.66 78.22 2 118 C2.99 118.33 3.98 118.66 5 119 C5 119.66 5 120.32 5 121 C5.99 121.33 6.98 121.66 8 122 C8 122.99 8 123.98 8 125 C8.66 125 9.32 125 10 125 C10 125.66 10 126.32 10 127 C5.82119944 125.39276902 2.42950703 122.74257963 0 119 C-0.8600117 115.12923896 -0.75917128 111.3458884 -0.68115234 107.39501953 C-0.68187555 106.21474623 -0.68259876 105.03447292 -0.68334389 103.81843376 C-0.67887292 100.00586469 -0.63322056 96.19506579 -0.5859375 92.3828125 C-0.57711341 90.0259689 -0.57099381 87.66911357 -0.56762695 85.31225586 C-0.53619718 76.582991 -0.45242951 67.85397803 -0.375 59.125 C-0.25125 39.61375 -0.1275 20.1025 0 0 Z " fill="#2FBAD9" transform="translate(40,74)"/>
<path d="M0 0 C1.93166016 0.01740234 1.93166016 0.01740234 3.90234375 0.03515625 C5.19269531 0.04417969 6.48304687 0.05320312 7.8125 0.0625 C8.81152344 0.07410156 9.81054688 0.08570313 10.83984375 0.09765625 C11.16984375 2.07765625 11.49984375 4.05765625 11.83984375 6.09765625 C11.17984375 6.09765625 10.51984375 6.09765625 9.83984375 6.09765625 C9.83984375 4.44765625 9.83984375 2.79765625 9.83984375 1.09765625 C6.20984375 1.09765625 2.57984375 1.09765625 -1.16015625 1.09765625 C-1.16015625 18.25765625 -1.16015625 35.41765625 -1.16015625 53.09765625 C-1.49015625 53.09765625 -1.82015625 53.09765625 -2.16015625 53.09765625 C-2.49015625 47.81765625 -2.82015625 42.53765625 -3.16015625 37.09765625 C-3.49015625 41.05765625 -3.82015625 45.01765625 -4.16015625 49.09765625 C-4.49015625 49.09765625 -4.82015625 49.09765625 -5.16015625 49.09765625 C-5.16015625 45.46765625 -5.16015625 41.83765625 -5.16015625 38.09765625 C-7.47015625 38.09765625 -9.78015625 38.09765625 -12.16015625 38.09765625 C-11.58467702 34.07649512 -10.26828605 31.47607003 -8.16015625 28.03515625 C-3.96676221 20.04869218 -4.25233586 11.71397229 -4.27026367 2.85668945 C-4.07179358 -0.31399129 -3.22367206 0.09961904 0 0 Z " fill="#D4D3D4" transform="translate(74.16015625,11.90234375)"/>
<path d="M0 0 C6.93156207 -0.92420828 12.48636572 1.84092639 18 6 C19.00390625 7.9375 19.00390625 7.9375 19 10 C17.78515625 12.140625 17.78515625 12.140625 16.0625 14.25 C15.49660156 14.95640625 14.93070313 15.6628125 14.34765625 16.390625 C13.90292969 16.92171875 13.45820312 17.4528125 13 18 C11.96875 17.21625 10.9375 16.4325 9.875 15.625 C6.71901262 13.35603148 3.78184481 12.01464129 0 11 C0 7.37 0 3.74 0 0 Z " fill="#343334" transform="translate(103,12)"/>
<path d="M0 0 C4.95 0 9.9 0 15 0 C15.33 11.22 15.66 22.44 16 34 C16.66 33.34 17.32 32.68 18 32 C18.75 34.75 18.75 34.75 19 38 C17.25 40.375 17.25 40.375 15 42 C14.01 42 13.02 42 12 42 C12 41.34 12 40.68 12 40 C11.34 40 10.68 40 10 40 C9.79239091 27.98174054 10.42172115 16.00082416 11 4 C11.66 4 12.32 4 13 4 C13 14.89 13 25.78 13 37 C13.33 25.12 13.66 13.24 14 1 C9.71 1 5.42 1 1 1 C1 18.16 1 35.32 1 53 C0.67 53 0.34 53 0 53 C0 35.51 0 18.02 0 0 Z " fill="#656465" transform="translate(135,12)"/>
<path d="M0 0 C-2.86803301 1.62594036 -4.91173174 2.24894428 -8.20147705 2.24050903 C-9.03156281 2.24325836 -9.86164856 2.24600769 -10.71688843 2.24884033 C-11.6188797 2.24164978 -12.52087097 2.23445923 -13.45019531 2.22705078 C-14.40662933 2.22734283 -15.36306335 2.22763489 -16.34848022 2.22793579 C-19.50845424 2.22654294 -22.6681922 2.21098366 -25.828125 2.1953125 C-28.01959097 2.19158222 -30.21105862 2.18873532 -32.40252686 2.18673706 C-38.16964322 2.17910183 -43.9366588 2.1594542 -49.70373535 2.1373291 C-55.5889347 2.11686836 -61.47415033 2.10773485 -67.359375 2.09765625 C-78.90629427 2.07620828 -90.45313875 2.04207358 -102 2 C-102 1.34 -102 0.68 -102 0 C-89.29153629 -0.1537763 -76.58302092 -0.30195781 -63.87440872 -0.4429636 C-57.97352777 -0.50861214 -52.07268222 -0.57619996 -46.171875 -0.64819336 C-40.47907675 -0.71757801 -34.78624191 -0.78190303 -29.09334564 -0.84269524 C-26.91958281 -0.86680208 -24.74583952 -0.89274323 -22.57212067 -0.92053413 C-19.53150999 -0.9590973 -16.49089563 -0.99118416 -13.45019531 -1.02172852 C-12.54820404 -1.03467453 -11.64621277 -1.04762054 -10.71688843 -1.06095886 C-9.88680267 -1.06799835 -9.05671692 -1.07503784 -8.20147705 -1.08229065 C-7.48247852 -1.09058679 -6.76348 -1.09888292 -6.02269363 -1.10743046 C-3.90269511 -0.99483189 -2.03774215 -0.58039954 0 0 Z " fill="#F6F9F9" transform="translate(198,240)"/>
<path d="M0 0 C15.84 0 31.68 0 48 0 C47.67 1.32 47.34 2.64 47 4 C31.49 4 15.98 4 0 4 C0 2.68 0 1.36 0 0 Z " fill="#E1FDFD" transform="translate(87,174)"/>
<path d="M0 0 C1 3 1 3 -0.6875 6.625 C-2.65677691 9.88895724 -2.65677691 9.88895724 -5.125 10.6875 C-5.74375 10.790625 -6.3625 10.89375 -7 11 C-7.33 11.66 -7.66 12.32 -8 13 C-9 15 -9 15 -11.125 15.75 C-12.053125 15.87375 -12.053125 15.87375 -13 16 C-11.46371007 10.87903356 -9.4723363 6.94467261 -7 2 C-21.52 2 -36.04 2 -51 2 C-51 9.59 -51 17.18 -51 25 C-40.11 25 -29.22 25 -18 25 C-18 25.33 -18 25.66 -18 26 C-29.22 26 -40.44 26 -52 26 C-52 17.75 -52 9.5 -52 1 C-45.34292805 0.95415941 -38.68640074 0.91431272 -32.02929688 0.89013672 C-29.76332751 0.88006141 -27.49737119 0.86640082 -25.23144531 0.84912109 C-21.97978499 0.82493989 -18.72829613 0.81353237 -15.4765625 0.8046875 C-13.94994492 0.78920364 -13.94994492 0.78920364 -12.39248657 0.77340698 C-11.45166229 0.77325592 -10.51083801 0.77310486 -9.54150391 0.77294922 C-8.71099518 0.768508 -7.88048645 0.76406677 -7.02481079 0.75949097 C-5 1 -5 1 -3 3 C-2.01 2.01 -1.02 1.02 0 0 Z " fill="#21B5DF" transform="translate(138,181)"/>
<path d="M0 0 C0.33 0 0.66 0 1 0 C2.06378669 4.31772244 2.1294216 8.50742256 2.09765625 12.92578125 C2.0962413 13.67337204 2.09482635 14.42096283 2.09336853 15.19120789 C2.08779764 17.56501365 2.0752506 19.93872303 2.0625 22.3125 C2.05748123 23.92773301 2.05291899 25.5429675 2.04882812 27.15820312 C2.03783775 31.10550555 2.02059332 35.05273647 2 39 C1.34 39 0.68 39 0 39 C0 41.97 0 44.94 0 48 C-0.33 48 -0.66 48 -1 48 C-1 44.37 -1 40.74 -1 37 C-3.97 37 -6.94 37 -10 37 C-8.73120791 32.63254985 -7.05127733 29.50671139 -4.4375 25.8125 C0.47548208 17.74990907 0.06746619 9.21395429 0 0 Z " fill="#F1F0F0" transform="translate(174,13)"/>
<path d="M0 0 C4.29 0 8.58 0 13 0 C13 12.54 13 25.08 13 38 C10.79681741 33.59363482 10.8253093 31.66245297 11.0234375 26.828125 C11.04846344 26.1457074 11.07348938 25.46328979 11.09927368 24.76019287 C11.18117053 22.58960017 11.27787353 20.41995927 11.375 18.25 C11.43327079 16.77477793 11.49057339 15.29951728 11.546875 13.82421875 C11.68670221 10.21563108 11.83981043 6.60774764 12 3 C11.34 3 10.68 3 10 3 C10 10.59 10 18.18 10 26 C9.67 26 9.34 26 9 26 C8.67 21.38 8.34 16.76 8 12 C7.67 14.31 7.34 16.62 7 19 C6.67 19 6.34 19 6 19 C5.94576362 17.08364783 5.90710037 15.16685075 5.875 13.25 C5.85179687 12.18265625 5.82859375 11.1153125 5.8046875 10.015625 C5.99512313 7.07529894 6.47329896 5.47638122 8 3 C6.02 3.33 4.04 3.66 2 4 C2 19.84 2 35.68 2 52 C1.34 52 0.68 52 0 52 C0 34.84 0 17.68 0 0 Z " fill="#2C2B2C" transform="translate(136,13)"/>
<path d="M0 0 C1.65 0 3.3 0 5 0 C5 10.23 5 20.46 5 31 C2.87491756 27.81237635 2.4979837 25.73487777 2 22 C1.96241577 23.08269165 1.96241577 23.08269165 1.92407227 24.18725586 C1.80848698 27.437535 1.68559226 30.68749688 1.5625 33.9375 C1.52318359 35.07380859 1.48386719 36.21011719 1.44335938 37.38085938 C1.38051758 39.00024414 1.38051758 39.00024414 1.31640625 40.65234375 C1.27974854 41.65257568 1.24309082 42.65280762 1.20532227 43.68334961 C1 46 1 46 0 47 C-1.47354348 47.09304018 -2.95150591 47.11746265 -4.42797852 47.11352539 C-5.36887833 47.11344986 -6.30977814 47.11337433 -7.27919006 47.11329651 C-8.30209641 47.10813522 -9.32500275 47.10297394 -10.37890625 47.09765625 C-11.42070541 47.0962413 -12.46250458 47.09482635 -13.53587341 47.09336853 C-16.87811094 47.0877508 -20.22028257 47.0751953 -23.5625 47.0625 C-25.82226466 47.05748728 -28.08203037 47.05292398 -30.34179688 47.04882812 C-35.89455391 47.03777561 -41.44727225 47.02102024 -47 47 C-47 46.67 -47 46.34 -47 46 C-24.23 45.505 -24.23 45.505 -1 45 C-0.67 30.15 -0.34 15.3 0 0 Z " fill="#1EAED4" transform="translate(140,122)"/>
<path d="M0 0 C0.33 0 0.66 0 1 0 C1.33 9.24 1.66 18.48 2 28 C2.33 18.76 2.66 9.52 3 0 C3.33 0 3.66 0 4 0 C4 33.33 4 66.66 4 101 C3.67 101 3.34 101 3 101 C2.98969254 100.29256149 2.97938507 99.58512299 2.96876526 98.85624695 C2.87080479 92.19068762 2.76829237 85.52521568 2.66066074 78.85980511 C2.60548647 75.43301772 2.55207534 72.00622172 2.50268555 68.5793457 C2.44583335 64.64004749 2.38132688 60.7008926 2.31640625 56.76171875 C2.29969376 55.53039719 2.28298126 54.29907562 2.26576233 53.03044128 C2.24581711 51.88948502 2.22587189 50.74852875 2.20532227 49.57299805 C2.18977798 48.567061 2.1742337 47.56112396 2.15821838 46.52470398 C2.1003603 43.87395947 2.1003603 43.87395947 1 41 C1 40.01 1 39.02 1 38 C-0.485 38.495 -0.485 38.495 -2 39 C-1.84152588 38.5059668 -1.68305176 38.01193359 -1.51977539 37.50292969 C-0.79279058 34.00220245 -0.76349754 30.51472969 -0.68359375 26.953125 C-0.66281265 26.18192322 -0.64203156 25.41072144 -0.62062073 24.6161499 C-0.55541428 22.16085428 -0.49637516 19.70545479 -0.4375 17.25 C-0.39428726 15.58202065 -0.3506721 13.91405168 -0.30664062 12.24609375 C-0.19976264 8.16416804 -0.09841434 4.08213818 0 0 Z " fill="#B9F0FB" transform="translate(168,126)"/>
<path d="M0 0 C14.52 0 29.04 0 44 0 C42 6 42 6 40 8 C40.33 6.02 40.66 4.04 41 2 C27.8 2 14.6 2 1 2 C1 8.6 1 15.2 1 22 C11.23 22 21.46 22 32 22 C32.66 20.35 33.32 18.7 34 17 C34.33 16.34 34.66 15.68 35 15 C35.66 15.33 36.32 15.66 37 16 C36.01 18.31 35.02 20.62 34 23 C22.78 23 11.56 23 0 23 C0 15.41 0 7.82 0 0 Z " fill="#B4F3FC" transform="translate(87,183)"/>
<path d="M0 0 C15.429218 -0.11683006 30.8584029 -0.20498648 46.2879591 -0.25906086 C53.45229572 -0.28483663 60.61635742 -0.31997456 67.78051758 -0.37719727 C74.02522555 -0.42705218 80.26973441 -0.4592956 86.51463586 -0.47044247 C89.82105277 -0.476958 93.12676764 -0.49488214 96.4330349 -0.52865028 C100.12521733 -0.56486542 103.8162139 -0.56994819 107.50854492 -0.56762695 C109.15068718 -0.59459152 109.15068718 -0.59459152 110.82600403 -0.62210083 C118.26328034 -0.57139567 118.26328034 -0.57139567 122.04243469 2.35969543 C122.68843124 3.23099594 123.3344278 4.10229645 124 5 C124.928125 5.928125 125.85625 6.85625 126.8125 7.8125 C127.534375 8.534375 128.25625 9.25625 129 10 C126.69 10 124.38 10 122 10 C122 8.68 122 7.36 122 6 C120.78392818 3.55506798 120.78392818 3.55506798 118 2 C114.27436633 1.38523533 110.57458019 1.43654131 106.80566406 1.45410156 C105.09303627 1.43859505 105.09303627 1.43859505 103.34580994 1.42277527 C99.56893916 1.39325893 95.79260224 1.39184617 92.015625 1.390625 C89.39816256 1.37564941 86.78070959 1.35892358 84.16326904 1.34051514 C77.97623513 1.29995622 71.7893066 1.27961479 65.60216022 1.26654124 C58.55736696 1.25067074 51.51275305 1.21225501 44.46806383 1.17194796 C29.97878015 1.08955071 15.4894736 1.03545754 1 1 C0.67 2.32 0.34 3.64 0 5 C0 3.35 0 1.7 0 0 Z " fill="#06B9E4" transform="translate(41,75)"/>
<path d="M0 0 C4 0 4 0 6 1 C4.69124677 3.98082668 3.37737319 6.95936842 2.0625 9.9375 C1.68931641 10.78763672 1.31613281 11.63777344 0.93164062 12.51367188 C0.39506836 13.72700195 0.39506836 13.72700195 -0.15234375 14.96484375 C-0.48226318 15.7137085 -0.81218262 16.46257324 -1.15209961 17.23413086 C-2 19 -2 19 -3 20 C-4.82818091 20.13576325 -6.66157681 20.20185094 -8.49438477 20.24047852 C-9.66973282 20.26622452 -10.84508087 20.29197052 -12.05604553 20.3184967 C-17.46086765 20.40253082 -22.86550424 20.46863252 -28.27075195 20.51489258 C-31.12018107 20.54156367 -33.9679202 20.59017347 -36.81665039 20.65844727 C-40.9209838 20.75656087 -45.02348622 20.78853605 -49.12890625 20.81640625 C-50.39690567 20.85455948 -51.66490509 20.89271271 -52.97132874 20.93202209 C-59.41844509 20.91789694 -63.17248808 20.61245442 -67.86694336 15.94897461 C-68.94751267 14.66221407 -70.0063059 13.35497408 -71 12 C-68.3333581 10.66667905 -66.83319697 11.32897967 -64 12 C-64 12.66 -64 13.32 -64 14 C-63.34 14.33 -62.68 14.66 -62 15 C-62 16.32 -62 17.64 -62 19 C-42.86 19 -23.72 19 -4 19 C-3.67 16.36 -3.34 13.72 -3 11 C-2.01 11 -1.02 11 0 11 C0 7.37 0 3.74 0 0 Z " fill="#24B1D3" transform="translate(139,208)"/>
<path d="M0 0 C1.32 0.33 2.64 0.66 4 1 C3.84080078 1.50523193 3.68160156 2.01046387 3.51757812 2.53100586 C2.82246964 5.84687008 2.78496086 9.12992779 2.71875 12.50390625 C2.70034058 13.22360092 2.68193115 13.94329559 2.66296387 14.68479919 C2.58454912 17.75448258 2.51653845 20.8243752 2.44775391 23.89428711 C2.39595945 26.13926776 2.33874832 28.38406562 2.28125 30.62890625 C2.26767456 31.32270889 2.25409912 32.01651154 2.2401123 32.7313385 C2.16235519 35.74323226 1.96008504 38.11974489 1 41 C4.43376268 42.71688134 8.38114365 42.24509002 12.1640625 42.31640625 C13.07127045 42.33718735 13.97847839 42.35796844 14.91317749 42.37937927 C17.8170398 42.44487135 20.72099405 42.50375814 23.625 42.5625 C25.59115542 42.60568555 27.55730147 42.64929985 29.5234375 42.69335938 C34.34886362 42.80055239 39.1743824 42.90182081 44 43 C44 43.33 44 43.66 44 44 C37.8944529 44.02464513 31.78893449 44.04283371 25.68334961 44.05493164 C23.60456844 44.05997288 21.52579084 44.06680574 19.44702148 44.07543945 C16.46597414 44.08751422 13.48497351 44.09323024 10.50390625 44.09765625 C9.10078941 44.10539818 9.10078941 44.10539818 7.66932678 44.11329651 C6.37810158 44.11340981 6.37810158 44.11340981 5.06079102 44.11352539 C4.29912125 44.115746 3.53745148 44.11796661 2.75270081 44.12025452 C1 44 1 44 0 43 C-0.09268999 41.64905018 -0.11747326 40.29332909 -0.11352539 38.93920898 C-0.11344986 38.07839218 -0.11337433 37.21757538 -0.11329651 36.33067322 C-0.10813522 35.39526199 -0.10297394 34.45985077 -0.09765625 33.49609375 C-0.0962413 32.54307877 -0.09482635 31.59006378 -0.09336853 30.60816956 C-0.08775152 27.55124835 -0.07519616 24.49439923 -0.0625 21.4375 C-0.05748719 19.37044376 -0.05292391 17.30338638 -0.04882812 15.23632812 C-0.03777656 10.15752412 -0.02050055 5.0787743 0 0 Z " fill="#F2FBF8" transform="translate(88,123)"/>
<path d="M0 0 C3.3 0 6.6 0 10 0 C10 1.32 10 2.64 10 4 C9.34 4 8.68 4 8 4 C8 5.32 8 6.64 8 8 C7.34 8 6.68 8 6 8 C6.0825 9.051875 6.165 10.10375 6.25 11.1875 C5.90415716 16.46160328 3.59137127 18.40862873 0 22 C0 14.74 0 7.48 0 0 Z " fill="#F6FBF8" transform="translate(147,123)"/>
<path d="M0 0 C1.32 0.33 2.64 0.66 4 1 C3.67 41.59 3.34 82.18 3 124 C2.67 124 2.34 124 2 124 C1.99365209 123.05963237 1.99365209 123.05963237 1.98717594 122.10026741 C1.8839675 106.86118441 1.77534458 91.62215051 1.66066074 76.3831501 C1.60533221 69.01375043 1.55185083 61.64434592 1.50268555 54.27490234 C1.45983917 47.85330388 1.41356004 41.43174101 1.36312145 35.01019752 C1.33652415 31.60859728 1.31167118 28.20700408 1.29092598 24.8053627 C1.26693171 21.01228133 1.23687036 17.21929451 1.20532227 13.42626953 C1.19668907 11.72587021 1.19668907 11.72587021 1.18788147 9.99111938 C1.17809265 8.96184326 1.16830383 7.93256714 1.15821838 6.87210083 C1.15176583 5.97427446 1.14531328 5.0764481 1.1386652 4.15141487 C1.13671924 1.94947315 1.13671924 1.94947315 0 0 Z " fill="#ACFBFE" transform="translate(201,114)"/>
<path d="M0 0 C0.33 0 0.66 0 1 0 C1 38.61 1 77.22 1 117 C-0.32 117 -1.64 117 -3 117 C-3 116.01 -3 115.02 -3 114 C-2.01 114 -1.02 114 0 114 C0 76.38 0 38.76 0 0 Z " fill="#11B8E9" transform="translate(201,120)"/>
<path d="M0 0 C0.66 0 1.32 0 2 0 C2.01030746 0.64479813 2.02061493 1.28959625 2.03123474 1.95393372 C2.13925427 8.65339391 2.25385608 15.35271837 2.37231445 22.05200195 C2.41567788 24.55360072 2.45735191 27.05522936 2.49731445 29.55688477 C2.55498271 33.14869192 2.61868733 36.74034852 2.68359375 40.33203125 C2.70030624 41.45398392 2.71701874 42.57593658 2.73423767 43.73188782 C2.75418289 44.77274033 2.77412811 45.81359283 2.79467773 46.88598633 C2.81799416 48.2616552 2.81799416 48.2616552 2.84178162 49.66511536 C2.912291 52.15581608 2.912291 52.15581608 4 55 C2.68 54.67 1.36 54.34 0 54 C0 36.18 0 18.36 0 0 Z " fill="#F7F5F6" transform="translate(189,13)"/>
<path d="M0 0 C17.49 0.33 34.98 0.66 53 1 C53.495 1.99 53.495 1.99 54 3 C36.18 3 18.36 3 0 3 C0 2.01 0 1.02 0 0 Z " fill="#1DB2DC" transform="translate(86,118)"/>
<path d="M0 0 C0.66 0.33 1.32 0.66 2 1 C1.83628906 1.53109375 1.67257813 2.0621875 1.50390625 2.609375 C0.88643623 5.53876764 0.90498075 8.25822936 0.9375 11.25 C0.94652344 12.32765625 0.95554687 13.4053125 0.96484375 14.515625 C0.97644531 15.33546875 0.98804687 16.1553125 1 17 C0.34 17 -0.32 17 -1 17 C-1 17.66 -1 18.32 -1 19 C-1.66 18.67 -2.32 18.34 -3 18 C-3.99 17.67 -4.98 17.34 -6 17 C-6.33 17.99 -6.66 18.98 -7 20 C-7.66 20 -8.32 20 -9 20 C-9.33 20.66 -9.66 21.32 -10 22 C-10.33 21.34 -10.66 20.68 -11 20 C-10.10375977 17.93701172 -10.10375977 17.93701172 -8.69140625 15.4296875 C-8.19189453 14.53378906 -7.69238281 13.63789063 -7.17773438 12.71484375 C-6.64470703 11.77769531 -6.11167969 10.84054688 -5.5625 9.875 C-5.03333984 8.93011719 -4.50417969 7.98523438 -3.95898438 7.01171875 C-2.64641061 4.67037095 -1.32651055 2.3334713 0 0 Z " fill="#363535" transform="translate(68,12)"/>
<path d="M0 0 C4.31574219 1.05857827 6.95044138 1.81182508 10 5 C12.60611077 5.72197162 12.60611077 5.72197162 15 6 C15 6.99 15 7.98 15 9 C16.42090206 13.26270618 19.5721715 15.31735161 23 18 C22.67 19.32 22.34 20.64 22 22 C18.75925192 19.64309231 16.14587257 17.09939798 13.5625 14.0625 C11.44289757 11.57427106 9.36756642 9.35139138 6.8125 7.3125 C4.09780792 5.08041985 2.0890193 2.81214137 0 0 Z " fill="#E9F8F8" transform="translate(159,74)"/>
<path d="M0 0 C3.63 0 7.26 0 11 0 C11 1.65 11 3.3 11 5 C10.67 4.34 10.34 3.68 10 3 C9.01 3 8.02 3 7 3 C7.99 4.32 8.98 5.64 10 7 C8.68799596 8.35432675 7.35368596 9.68733482 6 11 C5.67 11 5.34 11 5 11 C5 8.36 5 5.72 5 3 C4.34 3 3.68 3 3 3 C3 2.34 3 1.68 3 1 C2.34 1 1.68 1 1 1 C1 12.22 1 23.44 1 35 C0.67 35 0.34 35 0 35 C0 23.45 0 11.9 0 0 Z " fill="#2B2A2A" transform="translate(73,13)"/>
<path d="M0 0 C1.32 0 2.64 0 4 0 C4 10.23 4 20.46 4 31 C0.03590792 25.05386188 0.71092824 17.57276686 0.4375 10.625 C0.39431641 9.60277344 0.35113281 8.58054688 0.30664062 7.52734375 C0.20112208 5.01834712 0.09900787 2.50926057 0 0 Z " fill="#15B4E3" transform="translate(141,122)"/>
<path d="M0 0 C0.71172363 0.81041748 1.42344727 1.62083496 2.15673828 2.45581055 C7.13313309 6.56787652 13.35069411 5.72620608 19.4921875 5.70703125 C20.79326447 5.72215256 22.09434143 5.73727386 23.43484497 5.75285339 C26.87738763 5.79258709 30.31940111 5.80288611 33.762146 5.80688477 C37.28169693 5.81623851 40.80093978 5.85366579 44.3203125 5.88867188 C51.21349785 5.95312824 58.1065316 5.98646614 65 6 C65 6.33 65 6.66 65 7 C44.87 7 24.74 7 4 7 C3.67 6.01 3.34 5.02 3 4 C2.01 4 1.02 4 0 4 C0 2.68 0 1.36 0 0 Z " fill="#D6FFFF" transform="translate(70,222)"/>
<path d="M0 0 C1.32 0 2.64 0 4 0 C4 6.6 4 13.2 4 20 C3.67 20 3.34 20 3 20 C2.67 16.37 2.34 12.74 2 9 C1.05125 9.350625 0.1025 9.70125 -0.875 10.0625 C-4 11 -4 11 -6 10 C-5.10177882 8.32332046 -4.18078439 6.65882367 -3.25 5 C-2.73953125 4.071875 -2.2290625 3.14375 -1.703125 2.1875 C-0.86007813 1.1046875 -0.86007813 1.1046875 0 0 Z " fill="#444343" transform="translate(170,12)"/>
<path d="M0 0 C1.32 0 2.64 0 4 0 C4 1.32 4 2.64 4 4 C19.51 4 35.02 4 51 4 C51 4.33 51 4.66 51 5 C34.17 5 17.34 5 0 5 C0 3.35 0 1.7 0 0 Z " fill="#26B3D7" transform="translate(83,174)"/>
<path d="M0 0 C0.66 0.33 1.32 0.66 2 1 C-1.3 7.27 -4.6 13.54 -8 20 C-8.33 19.34 -8.66 18.68 -9 18 C-9.99 18.33 -10.98 18.66 -12 19 C-12.66 17.68 -13.32 16.36 -14 15 C-13.40316406 14.91234375 -12.80632812 14.8246875 -12.19140625 14.734375 C-9.40281552 13.79987401 -8.61755794 12.6334422 -6.9375 10.25 C-6.17179687 9.17298828 -6.17179687 9.17298828 -5.390625 8.07421875 C-3.84114144 5.76305086 -2.38834276 3.41133217 -1 1 C-0.67 0.67 -0.34 0.34 0 0 Z " fill="#F0EEEF" transform="translate(125,16)"/>
<path d="M0 0 C1.32 0 2.64 0 4 0 C4 6.6 4 13.2 4 20 C3.67 20 3.34 20 3 20 C2.90912109 18.62714844 2.90912109 18.62714844 2.81640625 17.2265625 C2.73261719 16.03804687 2.64882812 14.84953125 2.5625 13.625 C2.48128906 12.44164062 2.40007812 11.25828125 2.31640625 10.0390625 C2.18915064 7.08481099 2.18915064 7.08481099 1 5 C0.34 5 -0.32 5 -1 5 C-0.67 6.32 -0.34 7.64 0 9 C-1.98 9.99 -1.98 9.99 -4 11 C-4.33 10.34 -4.66 9.68 -5 9 C-4.00390625 6.8359375 -4.00390625 6.8359375 -2.5625 4.375 C-2.08941406 3.55773437 -1.61632812 2.74046875 -1.12890625 1.8984375 C-0.75636719 1.27195312 -0.38382813 0.64546875 0 0 Z " fill="#4D4C4D" transform="translate(129,12)"/>
<path d="M0 0 C3.3 0 6.6 0 10 0 C10.07424001 4.91126203 10.12864411 9.82219634 10.16479492 14.73388672 C10.17986754 16.40419201 10.2003292 18.07445781 10.22631836 19.74462891 C10.26276973 22.14756013 10.27974131 24.54996744 10.29296875 26.953125 C10.30845261 27.69806213 10.32393646 28.44299927 10.33988953 29.21051025 C10.34125473 33.43052156 10.02302019 35.94559898 7 39 C7 37.02 7 35.04 7 33 C7.66 33 8.32 33 9 33 C9 22.44 9 11.88 9 1 C4.545 1.495 4.545 1.495 0 2 C0 1.34 0 0.68 0 0 Z " fill="#26B1D7" transform="translate(158,126)"/>
<path d="M0 0 C4.18344837 3.50830973 8.18711815 7.08406729 12 11 C12.763125 11.763125 13.52625 12.52625 14.3125 13.3125 C14.869375 13.869375 15.42625 14.42625 16 15 C15.278125 14.690625 14.55625 14.38125 13.8125 14.0625 C11.19692691 13.07439461 8.74881018 12.4712246 6 12 C6 10.68 6 9.36 6 8 C5.01 8.33 4.02 8.66 3 9 C2.34 8.67 1.68 8.34 1 8 C0.40644386 5.35139573 0.25790731 2.70802678 0 0 Z " fill="#D9F7F9" transform="translate(39,192)"/>
<path d="M0 0 C1 3 1 3 1 6 C0.01 6.495 0.01 6.495 -1 7 C-3.4858382 12.06728555 -4.84609907 15.4617028 -3 21 C-4.65 21.99 -6.3 22.98 -8 24 C-9.10728079 20.03403308 -8.95384772 18.03035089 -7.12890625 14.35546875 C-6.71962891 13.51435547 -6.31035156 12.67324219 -5.88867188 11.80664062 C-5.45103516 10.94232422 -5.01339844 10.07800781 -4.5625 9.1875 C-3.9118457 7.86202148 -3.9118457 7.86202148 -3.24804688 6.50976562 C-2.17753189 4.33344395 -1.09466141 2.16424939 0 0 Z " fill="#27B8DE" transform="translate(156,130)"/>
<path d="M0 0 C3.96 0 7.92 0 12 0 C12 0.33 12 0.66 12 1 C10.02 1 8.04 1 6 1 C6 1.99 6 2.98 6 4 C7.32 3.67 8.64 3.34 10 3 C9.01 4.485 9.01 4.485 8 6 C8.33 6.99 8.66 7.98 9 9 C8.01 9.495 8.01 9.495 7 10 C6.34 9.67 5.68 9.34 5 9 C4.67 9.66 4.34 10.32 4 11 C3.67 9.68 3.34 8.36 3 7 C2.01 7.495 2.01 7.495 1 8 C1 6.02 1 4.04 1 2 C1.33 2.66 1.66 3.32 2 4 C2.66 4 3.32 4 4 4 C4 3.34 4 2.68 4 2 C2.68 1.34 1.36 0.68 0 0 Z " fill="#434243" transform="translate(191,12)"/>
<path d="M0 0 C3.73846747 2.08504225 6.74371483 4.39273117 9.8125 7.375 C10.60269531 8.12523438 11.39289063 8.87546875 12.20703125 9.6484375 C14.28313046 12.37133886 14.39542717 13.65952573 14 17 C13.67 15.68 13.34 14.36 13 13 C11.35 12.67 9.7 12.34 8 12 C7.87625 11.1028125 7.87625 11.1028125 7.75 10.1875 C6.77052189 7.33068885 5.56298332 6.53778999 3 5 C0.85266073 4.29485154 0.85266073 4.29485154 -1 4 C-0.67 2.68 -0.34 1.36 0 0 Z " fill="#2EBDDF" transform="translate(188,103)"/>
<path d="M0 0 C-0.47501758 2.21674869 -1.0198699 4.03857099 -2.0625 6.0625 C-3.21778046 8.09134681 -3.21778046 8.09134681 -3 11 C-3.66 10.34 -4.32 9.68 -5 9 C-5 7.68 -5 6.36 -5 5 C-7.97 4.505 -7.97 4.505 -11 4 C-7.2060585 0.99101192 -4.96966376 0 0 0 Z " fill="#3E3D3D" transform="translate(99,12)"/>
<path d="M0 0 C5.28663545 2.15381444 8.77870367 6.42236838 12 11 C10.68 10.67 9.36 10.34 8 10 C7.67 10.66 7.34 11.32 7 12 C5.68 12 4.36 12 3 12 C3.33 9.36 3.66 6.72 4 4 C3.34 4 2.68 4 2 4 C2 3.34 2 2.68 2 2 C1.34 2 0.68 2 0 2 C0 1.34 0 0.68 0 0 Z " fill="#0FBBEF" transform="translate(176,92)"/>
<path d="M0 0 C2.475 0.495 2.475 0.495 5 1 C5 1.99 5 2.98 5 4 C5.99 3.34 6.98 2.68 8 2 C8.99 2 9.98 2 11 2 C10.67 3.98 10.34 5.96 10 8 C9.34 8 8.68 8 8 8 C8 7.34 8 6.68 8 6 C6.68 5.67 5.36 5.34 4 5 C4.33 6.32 4.66 7.64 5 9 C2.525 8.01 2.525 8.01 0 7 C0 4.69 0 2.38 0 0 Z " fill="#393939" transform="translate(104,56)"/>
<path d="M0 0 C2.375 0.6875 2.375 0.6875 5 2 C6.3125 4.625 6.3125 4.625 7 7 C7.99 6.01 8.98 5.02 10 4 C10 5.65 10 7.3 10 9 C9.21625 8.979375 8.4325 8.95875 7.625 8.9375 C5.01885039 8.81315937 5.01885039 8.81315937 3 10 C1 5.125 1 5.125 1 4 C0.34 3.67 -0.32 3.34 -1 3 C-0.67 2.01 -0.34 1.02 0 0 Z " fill="#312F30" transform="translate(162,27)"/>
<path d="M0 0 C1.21881834 3.98261767 0.46199417 6.10134888 -1 10 C-1.59316478 12.13539321 -2 13.78825616 -2 16 C-3.65 16 -5.3 16 -7 16 C-5.35433477 10.31497465 -2.70967216 5.23318364 0 0 Z " fill="#CAF5FA" transform="translate(154,188)"/>
<path d="M0 0 C0.66 0 1.32 0 2 0 C0.4719611 5.09882455 -1.71036856 9.65665659 -4.125 14.375 C-4.49753906 15.11105469 -4.87007812 15.84710938 -5.25390625 16.60546875 C-6.1656122 18.40550358 -7.08229932 20.20301402 -8 22 C-9 19 -9 19 -7.63671875 15.8203125 C-6.99694837 14.58333442 -6.34675732 13.35170318 -5.6875 12.125 C-3.59834466 8.14765016 -1.57858204 4.21489418 0 0 Z " fill="#2DB7DA" transform="translate(158,176)"/>
<path d="M0 0 C7.48291572 6.15034169 7.48291572 6.15034169 10 10 C8.35 10.33 6.7 10.66 5 11 C5 9.35 5 7.7 5 6 C2.525 5.01 2.525 5.01 0 4 C0 2.68 0 1.36 0 0 Z " fill="#CBF5FD" transform="translate(60,212)"/>
<path d="M0 0 C0.66 0.33 1.32 0.66 2 1 C1.67558396 2.66842534 1.34060811 4.33480481 1 6 C0.7834375 7.0828125 0.7834375 7.0828125 0.5625 8.1875 C0 10 0 10 -2 12 C-2.99 12 -3.98 12 -5 12 C-3.68938409 7.76570244 -2.05643741 3.92592596 0 0 Z " fill="#22BAE2" transform="translate(130,185)"/>
<path d="M0 0 C2.31 0.66 4.62 1.32 7 2 C7.33 3.32 7.66 4.64 8 6 C9.32 6.33 10.64 6.66 12 7 C12 7.66 12 8.32 12 9 C12.66 9.66 13.32 10.32 14 11 C11 11 11 11 9.0625 9.35546875 C8.381875 8.64003906 7.70125 7.92460938 7 7.1875 C6.319375 6.47980469 5.63875 5.77210937 4.9375 5.04296875 C4.298125 4.36878906 3.65875 3.69460937 3 3 C2.00334259 1.99666855 1.00469843 0.99527939 0 0 Z " fill="#D0F6FC" transform="translate(188,102)"/>
<path d="M0 0 C0.99 0 1.98 0 3 0 C2.67 1.32 2.34 2.64 2 4 C1.34 4 0.68 4 0 4 C0.33 5.65 0.66 7.3 1 9 C-0.65 9 -2.3 9 -4 9 C-2.94124926 5.59687262 -1.99097846 2.98646769 0 0 Z M1 6 C3 7 3 7 3 7 Z " fill="#EAE9EA" transform="translate(168,41)"/>
<path d="M0 0 C0.33 0 0.66 0 1 0 C1 3.96 1 7.92 1 12 C-0.32 11.67 -1.64 11.34 -3 11 C-3.75 9.4375 -3.75 9.4375 -4 7 C-2.86915563 4.49713591 -1.47860484 2.32992278 0 0 Z " fill="#2A2829" transform="translate(99,12)"/>
<path d="M0 0 C1.32 0 2.64 0 4 0 C4 0.66 4 1.32 4 2 C4.5775 1.773125 5.155 1.54625 5.75 1.3125 C8 1 8 1 12 4 C7.71 4 3.42 4 -1 4 C-0.67 2.68 -0.34 1.36 0 0 Z " fill="#2D302E" transform="translate(41,61)"/>
<path d="M0 0 C0.66 0.33 1.32 0.66 2 1 C0.02 4.63 -1.96 8.26 -4 12 C-4.99 11.67 -5.98 11.34 -7 11 C-6.21258141 9.53936857 -5.4199095 8.08156827 -4.625 6.625 C-4.18414062 5.81289063 -3.74328125 5.00078125 -3.2890625 4.1640625 C-2 2 -2 2 0 0 Z " fill="#E3E1E2" transform="translate(125,16)"/>
<path d="M0 0 C-0.3125 2.375 -0.3125 2.375 -1 5 C-1.99 5.66 -2.98 6.32 -4 7 C-5.65 5.35 -7.3 3.7 -9 2 C-2.25 0 -2.25 0 0 0 Z " fill="#403E3F" transform="translate(119,23)"/>
<path d="M0 0 C0.66 0.33 1.32 0.66 2 1 C1.7834375 1.7734375 1.7834375 1.7734375 1.5625 2.5625 C0.84190099 5.68509571 0.42733561 8.82550692 0 12 C-0.66 11.67 -1.32 11.34 -2 11 C-1.67 10.34 -1.34 9.68 -1 9 C-1.99 8.67 -2.98 8.34 -4 8 C-2.68 5.36 -1.36 2.72 0 0 Z " fill="#413F40" transform="translate(68,12)"/>
<path d="M0 0 C2.475 0.99 2.475 0.99 5 2 C5.33 1.34 5.66 0.68 6 0 C7.32 1.65 8.64 3.3 10 5 C7.69 5.33 5.38 5.66 3 6 C2.67 5.01 2.34 4.02 2 3 C1.34 3 0.68 3 0 3 C0 2.01 0 1.02 0 0 Z " fill="#DAF4F7" transform="translate(50,207)"/>
<path d="M0 0 C0.28875 0.61875 0.5775 1.2375 0.875 1.875 C1.93720042 4.13325765 1.93720042 4.13325765 4 6 C3.625 8.125 3.625 8.125 3 10 C2.67 9.67 2.34 9.34 2 9 C1.34 9.66 0.68 10.32 0 11 C-0.66 10.34 -1.32 9.68 -2 9 C-1.625 7.0625 -1.625 7.0625 -1 5 C-1 4.01 -1 3.02 -1 2 C-0.67 1.34 -0.34 0.68 0 0 Z " fill="#3B393A" transform="translate(169,24)"/>
<path d="M0 0 C4.92980953 2.00844092 8.09403383 5.64105074 11 10 C8.69 10 6.38 10 4 10 C4 8.68 4 7.36 4 6 C2.70766393 4.62689293 1.37562854 3.28965176 0 2 C0 1.34 0 0.68 0 0 Z " fill="#2FBBDF" transform="translate(159,75)"/>
<path d="M0 0 C4 0 4 0 6 1 C4.6875 3.9375 4.6875 3.9375 3 7 C2.01 7.33 1.02 7.66 0 8 C0 5.36 0 2.72 0 0 Z " fill="#19B9E7" transform="translate(139,208)"/>
<path d="M0 0 C0.78375 0.804375 1.5675 1.60875 2.375 2.4375 C6.43820536 5.89513149 10.84620904 5.88796107 16 6 C16 6.33 16 6.66 16 7 C12.04 7 8.08 7 4 7 C3.67 6.01 3.34 5.02 3 4 C2.01 4 1.02 4 0 4 C0 2.68 0 1.36 0 0 Z " fill="#C9F9FD" transform="translate(70,222)"/>
<path d="M0 0 C1 3 1 3 0.00390625 5.48046875 C-0.47175781 6.37378906 -0.94742188 7.26710937 -1.4375 8.1875 C-1.91058594 9.08855469 -2.38367188 9.98960937 -2.87109375 10.91796875 C-3.24363281 11.60503906 -3.61617187 12.29210937 -4 13 C-4.97591583 9.61682513 -4.85856655 7.4342662 -4 4 C-3.01 4 -2.02 4 -1 4 C-0.67 2.68 -0.34 1.36 0 0 Z " fill="#39B9DF" transform="translate(140,215)"/>
<path d="M0 0 C2.31 0.66 4.62 1.32 7 2 C7.33 3.65 7.66 5.3 8 7 C8.66 7 9.32 7 10 7 C9.67 7.66 9.34 8.32 9 9 C5.42589203 6.31941902 2.68058098 3.57410797 0 0 Z " fill="#C7F3FB" transform="translate(159,74)"/>
<path d="M0 0 C1.65 0.33 3.3 0.66 5 1 C3.68 1.33 2.36 1.66 1 2 C1.09539062 2.77085938 1.19078125 3.54171875 1.2890625 4.3359375 C1.39992188 5.33882812 1.51078125 6.34171875 1.625 7.375 C1.74101563 8.37273438 1.85703125 9.37046875 1.9765625 10.3984375 C1.98429687 11.25695312 1.99203125 12.11546875 2 13 C1.34 13.66 0.68 14.32 0 15 C0 14.34 0 13.68 0 13 C-0.99 12.67 -1.98 12.34 -3 12 C-2.34 11.34 -1.68 10.68 -1 10 C-0.53837573 7.56747339 -0.53837573 7.56747339 -0.375 4.875 C-0.30023438 3.96492188 -0.22546875 3.05484375 -0.1484375 2.1171875 C-0.09945312 1.41851562 -0.05046875 0.71984375 0 0 Z " fill="#D8D8D8" transform="translate(102,53)"/>
<path d="M0 0 C1.98 0 3.96 0 6 0 C6.33 0.99 6.66 1.98 7 3 C7.66 3.33 8.32 3.66 9 4 C8.67 4.99 8.34 5.98 8 7 C2.25 3.375 2.25 3.375 0 0 Z " fill="#18B8E5" transform="translate(68,219)"/>
<path d="M0 0 C0.99 0 1.98 0 3 0 C3.39253254 4.44870215 2.15305957 7.14243493 0 11 C-1.37432457 7.18243176 -0.67975039 3.92744671 0 0 Z " fill="#F5F8EE" transform="translate(148,134)"/>
<path d="M0 0 C0.66 0.33 1.32 0.66 2 1 C2.625 3.5625 2.625 3.5625 3 6 C2.01 6.33 1.02 6.66 0 7 C-0.99 6.01 -1.98 5.02 -3 4 C-2.67 3.01 -2.34 2.02 -2 1 C-1.34 0.67 -0.68 0.34 0 0 Z " fill="#DAF3F6" transform="translate(187,95)"/>
<path d="M0 0 C4.31320068 1.75722991 7.9031084 4.8062168 10 9 C7.5625 8.1875 7.5625 8.1875 5 7 C4.67 6.01 4.34 5.02 4 4 C3.34 4 2.68 4 2 4 C2 3.34 2 2.68 2 2 C1.34 2 0.68 2 0 2 C0 1.34 0 0.68 0 0 Z " fill="#2BB7D9" transform="translate(176,92)"/>
<path d="M0 0 C1.65 0 3.3 0 5 0 C4.67 0.99 4.34 1.98 4 3 C4.66 3 5.32 3 6 3 C6.33 2.01 6.66 1.02 7 0 C7.33 0.66 7.66 1.32 8 2 C7.67 2.66 7.34 3.32 7 4 C5.02 4 3.04 4 1 4 C0.67 2.68 0.34 1.36 0 0 Z " fill="#28292A" transform="translate(108,61)"/>
<path d="M0 0 C3.465 1.485 3.465 1.485 7 3 C6.67 3.99 6.34 4.98 6 6 C3.03 5.505 3.03 5.505 0 5 C0 3.35 0 1.7 0 0 Z " fill="#EFF0F1" transform="translate(85,61)"/>
<path d="M0 0 C1.0625 1.875 1.0625 1.875 2 4 C1.67 4.66 1.34 5.32 1 6 C0.01 6.33 -0.98 6.66 -2 7 C-3.68538601 8.99665314 -3.68538601 8.99665314 -5 11 C-4.67 8.69 -4.34 6.38 -4 4 C-3.01 3.67 -2.02 3.34 -1 3 C-0.67 2.01 -0.34 1.02 0 0 Z " fill="#2E2C2D" transform="translate(165,40)"/>
<path d="M0 0 C0.99 0 1.98 0 3 0 C3.33 0.66 3.66 1.32 4 2 C4.66 1.67 5.32 1.34 6 1 C6.33 1.99 6.66 2.98 7 4 C6.34 4.66 5.68 5.32 5 6 C4.01 6 3.02 6 2 6 C0 3 0 3 0 0 Z " fill="#333132" transform="translate(156,37)"/>
<path d="M0 0 C0.66 0.66 1.32 1.32 2 2 C-0.38957269 5.24299151 -2.2047869 7.50902342 -6 9 C-4.68775452 5.06326356 -3.08089673 2.77280706 0 0 Z " fill="#ECEBEC" transform="translate(93,26)"/>
<path d="M0 0 C0.96516243 3.00272755 1.22393475 5.04215769 0 8 C-0.99 8.33 -1.98 8.66 -3 9 C-2.44271087 5.65626525 -1.64826111 2.96687001 0 0 Z " fill="#F5F7F4" transform="translate(164,172)"/>
<path d="M0 0 C1.32 1.65 2.64 3.3 4 5 C3.34 5.66 2.68 6.32 2 7 C-0.125 6.625 -0.125 6.625 -2 6 C-1.34 4.02 -0.68 2.04 0 0 Z " fill="#434142" transform="translate(155,38)"/>
<path d="M0 0 C1.32 0 2.64 0 4 0 C3.34 1.98 2.68 3.96 2 6 C1.01 5.67 0.02 5.34 -1 5 C-0.67 3.35 -0.34 1.7 0 0 Z " fill="#F4FAF2" transform="translate(119,196)"/>
<path d="M0 0 C1.65 0.99 3.3 1.98 5 3 C4.67 3.99 4.34 4.98 4 6 C2.35 5.67 0.7 5.34 -1 5 C-0.67 3.35 -0.34 1.7 0 0 Z " fill="#3A3839" transform="translate(117,16)"/>
<path d="M0 0 C0.33 0 0.66 0 1 0 C1.22036864 3.85645121 0.60355101 6.49223216 -1 10 C-1.99 9.67 -2.98 9.34 -4 9 C-2.68 6.03 -1.36 3.06 0 0 Z " fill="#D8FBFC" transform="translate(140,218)"/>
<path d="M0 0 C1.32 0 2.64 0 4 0 C4 1.65 4 3.3 4 5 C2.68 5 1.36 5 0 5 C0 3.35 0 1.7 0 0 Z " fill="#1ABEDA" transform="translate(83,174)"/>
<path d="M0 0 C2.86724686 0.57344937 3.8614515 0.8614515 6 3 C6.125 5.625 6.125 5.625 6 8 C5.67 6.68 5.34 5.36 5 4 C3.35 3.67 1.7 3.34 0 3 C0 2.01 0 1.02 0 0 Z " fill="#27B8EA" transform="translate(196,112)"/>
<path d="M0 0 C0.66 1.32 1.32 2.64 2 4 C1.01 5.32 0.02 6.64 -1 8 C-1.66 7.01 -2.32 6.02 -3 5 C-2 2 -2 2 0 0 Z " fill="#3A3A3A" transform="translate(66,33)"/>
<path d="M0 0 C0.66 0 1.32 0 2 0 C2 0.66 2 1.32 2 2 C2.99 1.67 3.98 1.34 5 1 C5.66 1.66 6.32 2.32 7 3 C6.625 5.125 6.625 5.125 6 7 C1.125 3.375 1.125 3.375 0 0 Z " fill="#BCF4FA" transform="translate(175,89)"/>
<path d="M0 0 C2 4 2 4 2 6 C0.02 6.66 -1.96 7.32 -4 8 C-2.68 5.36 -1.36 2.72 0 0 Z " fill="#EBEBEB" transform="translate(131,34)"/>
<path d="M0 0 C1.98 0.495 1.98 0.495 4 1 C3.67 1.33 3.34 1.66 3 2 C5.475 2.99 5.475 2.99 8 4 C4.23375329 5.25541557 2.62811066 4.37061958 -1 3 C-0.67 2.01 -0.34 1.02 0 0 Z " fill="#2D2B2C" transform="translate(104,20)"/>
<path d="M0 0 C1.65 0 3.3 0 5 0 C5 1.65 5 3.3 5 5 C3.68 4.67 2.36 4.34 1 4 C1.33 3.67 1.66 3.34 2 3 C1.34 3 0.68 3 0 3 C0 2.01 0 1.02 0 0 Z " fill="#2F2E2F" transform="translate(197,13)"/>
<path d="M0 0 C-0.33 0.99 -0.66 1.98 -1 3 C-3.31 3 -5.62 3 -8 3 C-6.23110084 -0.53779831 -3.70375662 0 0 0 Z " fill="#0BBBF6" transform="translate(176,116)"/>
<path d="M0 0 C1.09658936 3.28976808 0.79953138 4.71303767 0 8 C-0.66 8 -1.32 8 -2 8 C-2.33 8.66 -2.66 9.32 -3 10 C-3.33 9.34 -3.66 8.68 -4 8 C-3.22265625 6.0546875 -3.22265625 6.0546875 -2.0625 3.875 C-1.49208984 2.78832031 -1.49208984 2.78832031 -0.91015625 1.6796875 C-0.60980469 1.12539063 -0.30945312 0.57109375 0 0 Z " fill="#414141" transform="translate(61,24)"/>
<path d="M0 0 C1.76462683 3.08809695 2 4.23312136 2 8 C1.34 8 0.68 8 0 8 C0 7.01 0 6.02 0 5 C-0.66 5 -1.32 5 -2 5 C-1.34 3.35 -0.68 1.7 0 0 Z " fill="#06BAE7" transform="translate(146,152)"/>
<path d="M0 0 C1.32 0.66 2.64 1.32 4 2 C3.01 2.99 2.02 3.98 1 5 C0.01 4.67 -0.98 4.34 -2 4 C-1.34 2.68 -0.68 1.36 0 0 Z " fill="#474546" transform="translate(166,18)"/>
</svg>
