<?xml version="1.0" encoding="UTF-8"?>
<svg version="1.1" xmlns="http://www.w3.org/2000/svg" width="1754" height="725">
<path d="M0 0 C578.82 0 1157.64 0 1754 0 C1754 239.25 1754 478.5 1754 725 C1175.18 725 596.36 725 0 725 C0 485.75 0 246.5 0 0 Z " fill="#FEFEFE" transform="translate(0,0)"/>
<path d="M0 0 C-0.71542969 0.30550781 -1.43085937 0.61101562 -2.16796875 0.92578125 C-11.10244776 5.02893785 -17.76968885 10.4488999 -25 17 C-26.05659902 17.93567857 -27.11388177 18.87058567 -28.171875 19.8046875 C-34.55881782 25.49392242 -40.42619788 31.50680784 -46 38 C-46.88259009 39.00800728 -47.7654131 40.01581066 -48.6484375 41.0234375 C-59.41115854 53.2531069 -59.41115854 53.2531069 -68 67 C-66.92363281 66.61328125 -65.84726562 66.2265625 -64.73828125 65.828125 C-54.15772262 62.0461329 -43.53661775 58.59482405 -32.73828125 55.48046875 C-30.7420929 54.90397328 -28.74600313 54.32713642 -26.75 53.75 C-25.71987793 53.45230713 -24.68975586 53.15461426 -23.62841797 52.84790039 C-16.229386 50.69273772 -8.89058725 48.38413403 -1.5625 46 C7.83271523 42.94864402 17.2772137 40.17953232 26.80273438 37.56542969 C32.49992084 35.99702361 38.15849968 34.35357783 43.79516602 32.58032227 C71.79450534 23.78186038 100.50126384 16.97724232 129 10 C129.8156543 9.79826172 130.63130859 9.59652344 131.47167969 9.38867188 C172.40898542 -0.71800059 172.40898542 -0.71800059 190 0 C186.37337908 2.0816064 182.53056476 2.97847569 178.5 3.9375 C177.78803467 4.11224854 177.07606934 4.28699707 176.3425293 4.46704102 C173.1458962 5.25049785 169.94586138 6.01244864 166.73828125 6.75 C153.26907248 9.91499432 141.19630189 15.63757383 129 22 C128.06671875 22.48210937 127.1334375 22.96421875 126.171875 23.4609375 C111.50704788 31.24319239 97.92716563 40.19446869 84.91943359 50.48925781 C83.17422965 51.86286784 81.41554038 53.21460799 79.64453125 54.5546875 C71.30379864 60.8749942 63.24969198 67.51630062 55.19042969 74.18896484 C51.57382064 77.17915721 47.946648 80.15615778 44.3125 83.125 C43.66563232 83.65714111 43.01876465 84.18928223 42.35229492 84.73754883 C41.73717041 85.23923584 41.1220459 85.74092285 40.48828125 86.2578125 C39.95759033 86.6923877 39.42689941 87.12696289 38.88012695 87.57470703 C36.3329513 89.50567853 33.67026779 91.2448174 31 93 C32.62119751 93.10489746 32.62119751 93.10489746 34.27514648 93.21191406 C53.99127253 94.50582657 73.55846981 95.83236197 93.00976562 99.45410156 C96.1938094 100.03538193 99.38382372 100.5640962 102.578125 101.0859375 C128.86903709 105.45497575 154.63653582 111.82854253 180 120 C182.26284677 120.71929782 184.52587658 121.43801999 186.7890625 122.15625 C192.75103615 124.05389409 198.70336076 125.98006106 204.65283203 127.91650391 C207.6901415 128.89969715 210.73250392 129.86466815 213.77734375 130.82421875 C241.49394262 139.67086902 268.53888199 150.94685059 295 163 C296.02689941 163.46631836 297.05379883 163.93263672 298.11181641 164.41308594 C300.74174472 165.60755537 303.37111444 166.80323778 306 168 C302.01504681 169.32831773 299.39629636 168.0628404 295.5625 166.8125 C278.61823916 161.59916074 261.36853057 159.16270237 243.77148438 157.29858398 C242.08342215 157.11672175 240.39661882 156.92174337 238.71289062 156.70336914 C229.76934741 155.61645328 220.74470905 155.8013544 211.75 155.8125 C210.85339661 155.81310425 209.95679321 155.8137085 209.03302002 155.81433105 C195.57630956 155.83896769 182.35692074 156.27045883 169 158 C167.85418457 158.13954102 166.70836914 158.27908203 165.52783203 158.42285156 C161.66263883 158.89393605 157.79978641 159.38066604 153.9375 159.875 C152.76687012 160.02420898 151.59624023 160.17341797 150.39013672 160.32714844 C133.13018109 162.64873235 116.08527032 166.34855499 99.03720093 169.86325073 C96.17078405 170.45382093 93.30385647 171.04185183 90.43676758 171.62915039 C80.11549747 173.74291489 80.11549747 173.74291489 69.79638672 175.8671875 C66.42765801 176.56178919 63.05779937 177.25056858 59.6875 177.9375 C58.7912793 178.1243335 57.89505859 178.31116699 56.97167969 178.50366211 C43.84881863 181.16219412 30.98285417 182.41499242 17.625 182.375 C16.90421265 182.37412384 16.18342529 182.37324768 15.4407959 182.37234497 C-1.10358191 182.3061253 -14.7634265 180.21309685 -29 171 C-30.04414062 170.32517578 -30.04414062 170.32517578 -31.109375 169.63671875 C-37.4139244 164.9083067 -42.42284147 156.70056505 -44 149 C-44.12060878 146.17551072 -44.18508833 143.38656513 -44.1875 140.5625 C-44.19974609 139.81162109 -44.21199219 139.06074219 -44.22460938 138.28710938 C-44.2357534 134.06352352 -43.9399833 130.85696284 -42 127 C-43.010625 127.165 -44.02125 127.33 -45.0625 127.5 C-54.79742544 128.70184265 -71.9562088 130.5218956 -81 126 C-84.40863673 145.70961723 -81.99909983 163.08731839 -72.7421875 180.62890625 C-71 184 -71 184 -70 187 C-72.97269573 185.60169948 -75.57271435 183.97524202 -78.23828125 182.05859375 C-79.05200195 181.47867676 -79.86572266 180.89875977 -80.70410156 180.30126953 C-81.56487305 179.68622559 -82.42564453 179.07118164 -83.3125 178.4375 C-91.64959588 172.53091565 -100.13620518 167.07653703 -109 162 C-108.54625 163.2375 -108.0925 164.475 -107.625 165.75 C-104.85944409 174.07288154 -103.87789334 182.27407048 -104 191 C-104.969375 190.50371094 -105.93875 190.00742187 -106.9375 189.49609375 C-129.82063185 177.85820522 -153.68332934 167.86581639 -179 163 C-179.81388184 162.83161621 -180.62776367 162.66323242 -181.46630859 162.48974609 C-191.65587673 160.40281697 -201.68531072 158.94141824 -212.0859375 158.65625 C-213.27231056 158.61735153 -213.27231056 158.61735153 -214.48265076 158.57766724 C-218.41621859 158.4516292 -222.33908147 158.37512124 -226.2746582 158.38623047 C-237.86245478 158.21136847 -243.55247457 154.64983451 -252 147 C-253.66946348 145.73576718 -255.3567253 144.49444695 -257.06640625 143.28515625 C-257.81857422 142.74439453 -258.57074219 142.20363281 -259.34570312 141.64648438 C-260.07724609 141.12376953 -260.80878906 140.60105469 -261.5625 140.0625 C-263.08485018 138.97035138 -264.60699307 137.87791375 -266.12890625 136.78515625 C-266.77931885 136.31988525 -267.42973145 135.85461426 -268.09985352 135.37524414 C-269.04042603 134.69449829 -269.04042603 134.69449829 -270 134 C-270.72960937 133.49597656 -271.45921875 132.99195313 -272.2109375 132.47265625 C-274 131 -274 131 -274.49609375 128.65234375 C-274.26960832 118.15851863 -271.88553938 108.24995502 -265 100 C-255.29074177 94.92131108 -241.77221418 94.66524543 -231.0625 93.1875 C-207.20340814 89.84930438 -183.8756216 85.73090799 -160.77172852 78.80078125 C-153.32642487 76.64975545 -145.78919941 74.87392665 -138.1875 73.375 C-136.98480469 73.13523437 -135.78210938 72.89546875 -134.54296875 72.6484375 C-131 72 -131 72 -127.66894531 71.70117188 C-123.50844323 70.90605862 -121.21606624 69.54481182 -117.75390625 67.1328125 C-117.18602386 66.74253372 -116.61814148 66.35225494 -116.03305054 65.95014954 C-114.20098052 64.68696278 -112.38196538 63.40625773 -110.5625 62.125 C-109.28869538 61.24233786 -108.0140309 60.36091535 -106.73852539 59.48071289 C-104.24559905 57.75755785 -101.75746471 56.02788319 -99.27441406 54.29052734 C-95.50733182 51.65536737 -91.72607072 49.04161618 -87.9375 46.4375 C-87.05964844 45.83264771 -87.05964844 45.83264771 -86.1640625 45.21557617 C-13.72673201 -4.57557734 -13.72673201 -4.57557734 0 0 Z " fill="#F1C07D" transform="translate(800,128)"/>
<path d="M0 0 C-4.26455195 3.60324966 -8.83237696 6.50089405 -13.5625 9.4375 C-20.28970553 13.6492931 -26.97944442 17.9105113 -33.625 22.25 C-44.40354649 29.27995065 -55.23686014 36.22289079 -66.08740234 43.14111328 C-68.6819981 44.79704388 -71.27307138 46.45831645 -73.86328125 48.12109375 C-92.35378249 59.94747549 -111.26759371 71.20048763 -130.56005859 81.67041016 C-133.34530943 83.18816842 -136.11937926 84.7255767 -138.89453125 86.26171875 C-164.12872883 100.14352252 -190.14049866 111.70002934 -217 122 C-218.28487305 122.49669189 -218.28487305 122.49669189 -219.59570312 123.00341797 C-231.79079219 127.67785137 -244.34017466 130.84705597 -257 134 C-258.56923101 134.39756783 -260.13825871 134.79593943 -261.70703125 135.1953125 C-265.46718013 136.14822986 -269.22861874 137.09222771 -273 138 C-273.64066406 138.15774902 -274.28132813 138.31549805 -274.94140625 138.47802734 C-347.81390496 155.66906736 -426.53015726 137.72380614 -489.359375 98.953125 C-499.39914149 92.63606109 -508.88804747 85.59329378 -518 78 C-518.53625 77.55398438 -519.0725 77.10796875 -519.625 76.6484375 C-529.98045174 68.00348449 -539.68035058 59.12951427 -548.125 48.5625 C-548.61121826 47.95873535 -549.09743652 47.3549707 -549.59838867 46.73291016 C-553 42.3663683 -553 42.3663683 -553 39 C-552.17435547 40.10408203 -552.17435547 40.10408203 -551.33203125 41.23046875 C-534.1919182 61.5861474 -503.27689478 68.831181 -478 71 C-474.83808573 71.14724961 -471.68067693 71.18615872 -468.515625 71.203125 C-467.18927032 71.21391838 -467.18927032 71.21391838 -465.83612061 71.22492981 C-415.56621379 71.53991999 -366.74860393 62.92295287 -318 51 C-315.73090675 50.4577991 -313.46139401 49.91734988 -311.19140625 49.37890625 C-306.09464828 48.16766484 -301.00214722 46.93972303 -295.91113281 45.70458984 C-293.01213913 45.00293807 -290.1118351 44.30701661 -287.2109375 43.61328125 C-286.23648682 43.38020264 -285.26203613 43.14712402 -284.25805664 42.90698242 C-282.23901704 42.42405817 -280.21997403 41.9411482 -278.20092773 41.45825195 C-271.90363157 39.94808002 -265.6121765 38.41566522 -259.32421875 36.8671875 C-239.2770032 31.93620952 -219.20111518 27.25991324 -199 23 C-197.33106689 22.64446045 -197.33106689 22.64446045 -195.62841797 22.28173828 C-182.71955498 19.54444192 -169.80597149 17.24267616 -156.7331543 15.4309082 C-150.89598755 14.6161984 -145.10959476 13.66268814 -139.32421875 12.5390625 C-130.55114242 10.84800867 -121.73427959 9.64009753 -112.875 8.5 C-112.0546225 8.39327972 -111.234245 8.28655945 -110.38900757 8.17660522 C-73.89046801 3.4395954 -36.85111113 -0.50946237 0 0 Z " fill="#EA7D33" transform="translate(1286,278)"/>
<path d="M0 0 C-0.71542969 0.30550781 -1.43085937 0.61101562 -2.16796875 0.92578125 C-11.10244776 5.02893785 -17.76968885 10.4488999 -25 17 C-26.05659902 17.93567857 -27.11388177 18.87058567 -28.171875 19.8046875 C-34.55881782 25.49392242 -40.42619788 31.50680784 -46 38 C-46.88259009 39.00800728 -47.7654131 40.01581066 -48.6484375 41.0234375 C-59.41115854 53.2531069 -59.41115854 53.2531069 -68 67 C-66.92363281 66.61328125 -65.84726562 66.2265625 -64.73828125 65.828125 C-54.15772262 62.0461329 -43.53661775 58.59482405 -32.73828125 55.48046875 C-30.7421658 54.90372092 -28.7460729 54.32689507 -26.75 53.75 C-25.73583008 53.45810791 -24.72166016 53.16621582 -23.67675781 52.86547852 C-14.69273673 50.25642608 -5.79774745 47.39478486 3.06542969 44.40136719 C4.0609082 44.07297852 5.05638672 43.74458984 6.08203125 43.40625 C6.96093018 43.11041016 7.8398291 42.81457031 8.74536133 42.50976562 C11 42 11 42 14 43 C13.38181396 43.26103516 12.76362793 43.52207031 12.12670898 43.79101562 C-21.82454388 58.18445628 -60.61527476 78.0081147 -75.82348633 114.05224609 C-76.98241343 117.00871623 -78.02279807 119.97809172 -79 123 C-79.26490234 123.74733398 -79.52980469 124.49466797 -79.80273438 125.26464844 C-81.9652292 131.7189031 -82.47452999 137.59282271 -82.375 144.375 C-82.36339844 145.39086182 -82.35179687 146.40672363 -82.33984375 147.45336914 C-82.0623404 160.16853165 -78.60424276 169.52047681 -72.7421875 180.62890625 C-71 184 -71 184 -70 187 C-72.97269573 185.60169948 -75.57271435 183.97524202 -78.23828125 182.05859375 C-79.05200195 181.47867676 -79.86572266 180.89875977 -80.70410156 180.30126953 C-81.56487305 179.68622559 -82.42564453 179.07118164 -83.3125 178.4375 C-91.64959588 172.53091565 -100.13620518 167.07653703 -109 162 C-108.54625 163.2375 -108.0925 164.475 -107.625 165.75 C-104.85944409 174.07288154 -103.87789334 182.27407048 -104 191 C-104.969375 190.50371094 -105.93875 190.00742187 -106.9375 189.49609375 C-129.82063185 177.85820522 -153.68332934 167.86581639 -179 163 C-179.81388184 162.83161621 -180.62776367 162.66323242 -181.46630859 162.48974609 C-191.65587673 160.40281697 -201.68531072 158.94141824 -212.0859375 158.65625 C-213.27231056 158.61735153 -213.27231056 158.61735153 -214.48265076 158.57766724 C-218.41621859 158.4516292 -222.33908147 158.37512124 -226.2746582 158.38623047 C-237.86245478 158.21136847 -243.55247457 154.64983451 -252 147 C-253.66946348 145.73576718 -255.3567253 144.49444695 -257.06640625 143.28515625 C-257.81857422 142.74439453 -258.57074219 142.20363281 -259.34570312 141.64648438 C-260.07724609 141.12376953 -260.80878906 140.60105469 -261.5625 140.0625 C-263.08485018 138.97035138 -264.60699307 137.87791375 -266.12890625 136.78515625 C-266.77931885 136.31988525 -267.42973145 135.85461426 -268.09985352 135.37524414 C-269.04042603 134.69449829 -269.04042603 134.69449829 -270 134 C-270.72960937 133.49597656 -271.45921875 132.99195313 -272.2109375 132.47265625 C-274 131 -274 131 -274.49609375 128.65234375 C-274.26960832 118.15851863 -271.88553938 108.24995502 -265 100 C-255.29074177 94.92131108 -241.77221418 94.66524543 -231.0625 93.1875 C-207.20340814 89.84930438 -183.8756216 85.73090799 -160.77172852 78.80078125 C-153.32642487 76.64975545 -145.78919941 74.87392665 -138.1875 73.375 C-136.98480469 73.13523437 -135.78210938 72.89546875 -134.54296875 72.6484375 C-131 72 -131 72 -127.66894531 71.70117188 C-123.50844323 70.90605862 -121.21606624 69.54481182 -117.75390625 67.1328125 C-117.18602386 66.74253372 -116.61814148 66.35225494 -116.03305054 65.95014954 C-114.20098052 64.68696278 -112.38196538 63.40625773 -110.5625 62.125 C-109.28869538 61.24233786 -108.0140309 60.36091535 -106.73852539 59.48071289 C-104.24559905 57.75755785 -101.75746471 56.02788319 -99.27441406 54.29052734 C-95.50733182 51.65536737 -91.72607072 49.04161618 -87.9375 46.4375 C-87.05964844 45.83264771 -87.05964844 45.83264771 -86.1640625 45.21557617 C-13.72673201 -4.57557734 -13.72673201 -4.57557734 0 0 Z " fill="#F9C119" transform="translate(800,128)"/>
<path d="M0 0 C0.76606567 -0.00067474 1.53213135 -0.00134949 2.32141113 -0.00204468 C16.15529617 0.01716606 29.65752145 0.90628713 43.3125 3.25 C44.25915527 3.41097168 45.20581055 3.57194336 46.18115234 3.73779297 C95.83841652 12.55765511 145.12986817 38.16483314 174.55419922 80.01611328 C188.3125 99.91484531 188.3125 99.91484531 188.3125 107.25 C182.45514081 105.56684075 176.66119039 103.72075043 170.890625 101.76171875 C170.2265564 101.53643494 169.56248779 101.31115112 168.8782959 101.07904053 C167.48933648 100.60773504 166.10037983 100.1364214 164.71142578 99.6651001 C151.78135681 95.28713622 138.83846821 91.30225226 125.62207031 87.86767578 C122.79073167 87.11045731 119.98862706 86.2735901 117.18505859 85.42016602 C93.08683995 78.08938305 68.44722245 73.01032225 43.76123047 68.1328125 C39.9944925 67.38819341 36.2333107 66.61855534 32.47265625 65.84375 C-1.67532131 58.97713916 -36.58027064 55.62929369 -71.30578613 53.41340637 C-73.12746951 53.28842298 -74.94821627 53.14971689 -76.76843262 53.00492859 C-85.60653642 52.31764263 -94.41143086 52.04278539 -103.2734375 51.93359375 C-104.71074925 51.91294974 -106.14805595 51.89195179 -107.58535767 51.87062073 C-111.31697426 51.81616684 -115.04863837 51.76642894 -118.78033447 51.71777344 C-122.60880621 51.6669879 -126.43721136 51.61160376 -130.265625 51.55664062 C-137.7395265 51.4500013 -145.21348444 51.34835875 -152.6875 51.25 C-147.5696906 47.35081172 -142.00699272 44.26662506 -136.4375 41.0625 C-135.852034 40.72507782 -135.26656799 40.38765564 -134.6633606 40.04000854 C-126.09525294 35.11017748 -117.48405066 30.36611135 -108.54736328 26.13720703 C-106.59242649 25.20464727 -104.65372929 24.24279317 -102.71484375 23.27734375 C-70.40032817 7.37125491 -35.9019516 0.028685 0 0 Z " fill="#FDC04E" transform="translate(1438.6875,226.75)"/>
<path d="M0 0 C-3.62662092 2.0816064 -7.46943524 2.97847569 -11.5 3.9375 C-12.21196533 4.11224854 -12.92393066 4.28699707 -13.6574707 4.46704102 C-16.8541038 5.25049785 -20.05413862 6.01244864 -23.26171875 6.75 C-36.73092752 9.91499432 -48.80369811 15.63757383 -61 22 C-61.93328125 22.48210937 -62.8665625 22.96421875 -63.828125 23.4609375 C-78.49295212 31.24319239 -92.07283437 40.19446869 -105.08056641 50.48925781 C-106.82577035 51.86286784 -108.58445962 53.21460799 -110.35546875 54.5546875 C-118.69620136 60.8749942 -126.75030802 67.51630062 -134.80957031 74.18896484 C-138.42617936 77.17915721 -142.053352 80.15615778 -145.6875 83.125 C-146.33436768 83.65714111 -146.98123535 84.18928223 -147.64770508 84.73754883 C-157.77839637 93 -157.77839637 93 -161 93 C-161.495 94.485 -161.495 94.485 -162 96 C-163.72265625 97.25390625 -163.72265625 97.25390625 -166.0625 98.5625 C-169.32287189 100.42955057 -172.5412188 102.3266853 -175.6953125 104.3671875 C-189.15317083 113.06066997 -202.65559441 119.37116506 -218 124 C-218.73476563 124.22429687 -219.46953125 124.44859375 -220.2265625 124.6796875 C-236.22120737 129.10373821 -252.65139956 128.41066506 -269 127 C-270.91274563 122.33985609 -268.66455155 118.53093418 -266.87817383 114.13208008 C-254.04740814 84.29350489 -223.49311913 63.71938424 -195.1875 50.125 C-194.42348877 49.75560303 -193.65947754 49.38620605 -192.87231445 49.00561523 C-187.38772958 46.44023536 -181.83586858 44.60014519 -176 43 C-176 42.34 -176 41.68 -176 41 C-162.58257725 37.01721716 -149.13845418 33.16989898 -135.61181641 29.57397461 C-130.32739119 28.1686518 -125.05164356 26.73880666 -119.78688049 25.26174927 C-109.70068176 22.43473022 -99.57435275 19.78449384 -89.42407227 17.19775391 C-86.69933609 16.50301789 -83.97560456 15.80444377 -81.25195312 15.10546875 C-47.30948588 6.41833093 -47.30948588 6.41833093 -33.125 3.8125 C-32.26624268 3.65233398 -31.40748535 3.49216797 -30.52270508 3.32714844 C-10.08971063 -0.41182492 -10.08971063 -0.41182492 0 0 Z " fill="#F4CE62" transform="translate(990,128)"/>
<path d="M0 0 C0.87309814 0.00136963 1.74619629 0.00273926 2.64575195 0.00415039 C9.67754094 0.17000981 17.99818602 1.24818602 23.25 6.5 C25.90656878 6.60183014 28.53101425 6.64072051 31.1875 6.625 C31.95570068 6.62306641 32.72390137 6.62113281 33.51538086 6.61914062 C39.14950682 6.57646234 44.65669462 6.210261 50.25 5.5 C49.78498083 10.24319553 49.20797979 13.69688313 46.25 17.5 C41.28181625 20.89290598 38.27512719 21.61157643 32.25 21.5 C32.30800781 22.29921875 32.36601562 23.0984375 32.42578125 23.921875 C32.90511612 35.59025526 29.64210205 44.59313404 22.1171875 53.5390625 C15.2142606 60.78857987 6.07836826 65.49091744 -3.75 67.5 C-5.25693037 67.51266328 -6.76492377 67.47131074 -8.26953125 67.38671875 C-9.12740234 67.35642578 -9.98527344 67.32613281 -10.86914062 67.29492188 C-12.65390284 67.22373847 -14.43799529 67.13282175 -16.22070312 67.02148438 C-21.06548518 66.88741038 -24.01103041 67.18276796 -27.82421875 70.33203125 C-30.07484717 72.47177164 -30.73865832 73.46597497 -31.75 76.5 C-27.51115947 77.49525963 -23.32589873 77.75041316 -18.9921875 77.9296875 C-17.46351727 78.003402 -15.9348721 78.07763778 -14.40625 78.15234375 C-12.02394281 78.2651128 -9.64167589 78.37430144 -7.25878906 78.47412109 C17.67700249 79.53864364 17.67700249 79.53864364 25.25 87.5 C28.50905593 92.67148805 27.86378854 98.62983089 27.25 104.5 C24.47473872 115.42590726 17.77630814 123.94883631 8.25 129.875 C6.59677782 130.77514398 4.93044005 131.65175239 3.25 132.5 C2.54359375 132.87769531 1.8371875 133.25539063 1.109375 133.64453125 C-9.27104046 138.77707 -20.1034144 139.7763915 -31.5 139.875 C-32.45793457 139.88885742 -33.41586914 139.90271484 -34.40283203 139.91699219 C-43.89884644 139.85476619 -53.22518382 138.07098456 -60.15234375 131.0859375 C-63.8013334 126.96099267 -65.50992519 123.62066079 -66.125 118.1875 C-65.4136128 111.19219256 -62.07482526 106.09777815 -57.03125 101.30859375 C-52.27477501 97.53762129 -46.99432958 94.53619081 -41.75 91.5 C-42.69101562 90.89671875 -43.63203125 90.2934375 -44.6015625 89.671875 C-48.16253727 87.21542094 -49.81759176 85.36481648 -51.75 81.5 C-52.54791478 76.36018532 -52.54791478 76.36018532 -51.75 73.5 C-49.41766622 71.14574153 -46.68053912 69.75487144 -43.75 68.25 C-42.242866 67.44551631 -40.74240771 66.6283593 -39.25 65.796875 C-38.24453125 65.27625488 -38.24453125 65.27625488 -37.21875 64.74511719 C-36.7340625 64.33422852 -36.249375 63.92333984 -35.75 63.5 C-35.75 59.39858539 -35.78058517 58.99640643 -38.125 56.0625 C-43.76995811 48.94853233 -43.5550192 41.18208882 -42.75 32.5 C-40.07439375 21.15923238 -32.40096616 12.11562752 -22.625 6 C-15.19348364 1.78280732 -8.53703442 -0.0598486 0 0 Z " fill="#B12B31" transform="translate(320.75,377.5)"/>
<path d="M0 0 C2.44363664 11.60386115 4.58277526 23.23474834 6.5 34.9375 C8.01911123 44.20729598 9.60792878 53.44899599 11.41015625 62.66772461 C13.04576169 71.09320202 14.52060096 79.54606135 16 88 C18.22156598 100.68903859 20.52946006 113.35664855 23 126 C19.37515001 126.08681476 15.75056557 126.14032721 12.125 126.1875 C11.09246094 126.21263672 10.05992187 126.23777344 8.99609375 126.26367188 C7.51689453 126.27817383 7.51689453 126.27817383 6.0078125 126.29296875 C5.09660645 126.3086792 4.18540039 126.32438965 3.24658203 126.34057617 C2.50520996 126.22818604 1.76383789 126.1157959 1 126 C-4.90280317 117.14579524 -4.78350853 103.91759389 -6.0625 93.5625 C-6.15337891 92.83095703 -6.24425781 92.09941406 -6.33789062 91.34570312 C-6.55916368 89.56387277 -6.77966329 87.78194639 -7 86 C-35.01714961 82.06950352 -35.01714961 82.06950352 -61.47772217 88.49743652 C-70.38031025 95.88045997 -75.72299985 106.89186529 -80.25976562 117.32714844 C-81.76698959 120.66164631 -83.35900746 123.40472412 -86 126 C-88.29003906 126.56762695 -88.29003906 126.56762695 -90.765625 126.48828125 C-91.65507812 126.47216797 -92.54453125 126.45605469 -93.4609375 126.43945312 C-94.38132813 126.39755859 -95.30171875 126.35566406 -96.25 126.3125 C-97.18585938 126.28994141 -98.12171875 126.26738281 -99.0859375 126.24414062 C-101.39225674 126.18530595 -103.69530838 126.10317146 -106 126 C-102.88287474 120.2992428 -99.32381324 115.04323883 -95.5625 109.75 C-94.30252106 107.96415119 -93.04342678 106.17767793 -91.78515625 104.390625 C-91.15109863 103.49021484 -90.51704102 102.58980469 -89.86376953 101.66210938 C-87.04172037 97.63124428 -84.26919289 93.56727869 -81.5 89.5 C-76.53393345 82.21583323 -71.50535307 74.97812618 -66.44140625 67.76171875 C-61.26729284 60.38803731 -56.12112495 52.99519085 -50.98364258 45.59594727 C-47.69981852 40.86933371 -44.40609039 36.15040151 -41.0859375 31.44921875 C-40.46074219 30.56234375 -39.83554688 29.67546875 -39.19140625 28.76171875 C-38.02769115 27.1124967 -36.86126992 25.46517882 -35.69140625 23.8203125 C-28.37634003 14.10889953 -28.37634003 14.10889953 -24 3 C-15.85956596 0.82576642 -8.4342927 -0.45636453 0 0 Z " fill="#B12B32" transform="translate(233,347)"/>
<path d="M0 0 C-0.71542969 0.30550781 -1.43085937 0.61101562 -2.16796875 0.92578125 C-11.10244776 5.02893785 -17.76968885 10.4488999 -25 17 C-26.05659902 17.93567857 -27.11388177 18.87058567 -28.171875 19.8046875 C-34.55881782 25.49392242 -40.42619788 31.50680784 -46 38 C-46.88259009 39.00800728 -47.7654131 40.01581066 -48.6484375 41.0234375 C-53.57999472 46.70067465 -58.23946664 52.51410235 -62.625 58.625 C-63.05095459 59.21700195 -63.47690918 59.80900391 -63.91577148 60.41894531 C-65.69077973 62.93765168 -67.01936429 65.05809288 -68 68 C-70.37890625 69.03979492 -70.37890625 69.03979492 -73.5625 69.98046875 C-74.73852783 70.33544434 -75.91455566 70.69041992 -77.1262207 71.05615234 C-77.75662262 71.24022644 -78.38702454 71.42430054 -79.03652954 71.61395264 C-81.02419039 72.19456623 -83.00695988 72.78970386 -84.98901367 73.38916016 C-87.70022438 74.20858431 -90.4127699 75.02331506 -93.12646484 75.83447266 C-98.53991821 77.45765987 -103.92943493 79.1539324 -109.3125 80.875 C-110.29017334 81.18719482 -111.26784668 81.49938965 -112.27514648 81.82104492 C-126.25693429 86.32585284 -140.12482251 91.17895246 -154 96 C-152.67935547 96.38200562 -152.67935547 96.38200562 -151.33203125 96.77172852 C-150.17058594 97.11647217 -149.00914062 97.46121582 -147.8125 97.81640625 C-146.66394531 98.15357666 -145.51539063 98.49074707 -144.33203125 98.83813477 C-137.19898932 101.32539638 -129.46561366 106.30765567 -125.87109375 113.1484375 C-125.58363281 113.75945312 -125.29617188 114.37046875 -125 115 C-136.65631958 119.74155373 -147.08805129 118.33154051 -158.9375 115 C-193.55403106 106.24342901 -230.30681481 114.39136544 -263 127 C-263 127.66 -263 128.32 -263 129 C-266.63 129.33 -270.26 129.66 -274 130 C-274.47474447 118.92262898 -272.29747525 108.74351873 -265 100 C-255.29074177 94.92131108 -241.77221418 94.66524543 -231.0625 93.1875 C-207.20340814 89.84930438 -183.8756216 85.73090799 -160.77172852 78.80078125 C-153.32642487 76.64975545 -145.78919941 74.87392665 -138.1875 73.375 C-136.98480469 73.13523437 -135.78210938 72.89546875 -134.54296875 72.6484375 C-131 72 -131 72 -127.66894531 71.70117188 C-123.50844323 70.90605862 -121.21606624 69.54481182 -117.75390625 67.1328125 C-117.18602386 66.74253372 -116.61814148 66.35225494 -116.03305054 65.95014954 C-114.20098052 64.68696278 -112.38196538 63.40625773 -110.5625 62.125 C-109.28869538 61.24233786 -108.0140309 60.36091535 -106.73852539 59.48071289 C-104.24559905 57.75755785 -101.75746471 56.02788319 -99.27441406 54.29052734 C-95.50733182 51.65536737 -91.72607072 49.04161618 -87.9375 46.4375 C-87.05964844 45.83264771 -87.05964844 45.83264771 -86.1640625 45.21557617 C-13.72673201 -4.57557734 -13.72673201 -4.57557734 0 0 Z " fill="#FAB019" transform="translate(800,128)"/>
<path d="M0 0 C1.23105469 -0.01417969 2.46210937 -0.02835937 3.73046875 -0.04296875 C6.8125 0.1875 6.8125 0.1875 8.8125 2.1875 C9.39468384 4.7817688 9.39468384 4.7817688 9.86572266 8.10595703 C10.04575836 9.34709259 10.22579407 10.58822815 10.4112854 11.86697388 C10.5998896 13.22639533 10.78831098 14.58584216 10.9765625 15.9453125 C11.17475645 17.33261382 11.37368981 18.71980968 11.57333374 20.10690308 C12.09691937 23.75880523 12.61043248 27.41205572 13.12188721 31.06567383 C13.64551488 34.79334387 14.17861971 38.51965657 14.7109375 42.24609375 C15.7540914 49.55859776 16.78661203 56.87255154 17.8125 64.1875 C21.49104402 59.63032743 24.52038145 54.97140693 27.5 49.9375 C28.05018799 49.0088916 28.60037598 48.0802832 29.16723633 47.12353516 C38.06193158 31.86111641 45.93442077 15.99272778 53.8125 0.1875 C58.89619715 -0.01999784 62.99099605 0.54818866 67.8125 2.1875 C68.3075 2.6825 68.3075 2.6825 68.8125 3.1875 C68.42445329 8.51979702 66.90155577 12.70414812 64.4375 17.375 C64.08518311 18.05860596 63.73286621 18.74221191 63.36987305 19.4465332 C62.19856342 21.70146217 61.00794112 23.94527856 59.8125 26.1875 C59.40177246 26.96351563 58.99104492 27.73953125 58.56787109 28.5390625 C42.44946743 58.86215664 23.3352347 87.25494889 0.8125 113.1875 C-0.03441406 114.17105469 -0.88132812 115.15460938 -1.75390625 116.16796875 C-9.94078545 125.45668145 -19.01812689 134.92275888 -31.8125 136.6875 C-36.10695383 136.05128462 -38.5681142 134.55118052 -42.1875 132.1875 C-41.82753119 129.68889293 -41.5902767 128.50815718 -39.578125 126.90625 C-38.51851562 126.30296875 -38.51851562 126.30296875 -37.4375 125.6875 C-31.17380605 121.7477562 -26.0145085 116.73565744 -20.69628906 111.63330078 C-19.3878859 110.37952028 -18.06619473 109.13963485 -16.7421875 107.90234375 C-15.27934863 106.4998011 -13.85939272 105.05124099 -12.484375 103.5625 C-10.69039868 101.70750408 -9.04273551 100.29744941 -7.015625 98.75 C-3.11562453 95.39349028 -0.47305704 92.25644435 0.8125 87.1875 C0.92842697 76.0512659 -1.62276846 65.00236351 -3.80828857 54.13165283 C-4.62948385 49.92152356 -5.24334436 45.67919905 -5.875 41.4375 C-6.10666068 39.99716798 -6.33966331 38.55705095 -6.57421875 37.1171875 C-7.17440708 33.27139474 -7.69386612 29.42327879 -8.1875 25.5625 C-9.24189506 17.38647052 -10.6992571 9.29346302 -12.1875 1.1875 C-8.08770638 0.21135866 -4.20934446 0.02217779 0 0 Z " fill="#B12B31" transform="translate(597.1875,379.8125)"/>
<path d="M0 0 C-0.61818604 0.26103516 -1.23637207 0.52207031 -1.87329102 0.79101562 C-35.93472958 15.23116888 -74.85085994 35.13452301 -89.92114258 71.39404297 C-91.02188196 74.23934381 -92.03873015 77.10479199 -93 80 C-93.495 81.485 -93.495 81.485 -94 83 C-100.15102694 82.34427059 -106.05059479 81.19553684 -112.0625 79.75 C-112.97410889 79.53255127 -113.88571777 79.31510254 -114.82495117 79.09106445 C-122.71523072 77.16156076 -130.36102816 74.75753976 -138 72 C-138 71.34 -138 70.68 -138 70 C-139.32 69.34 -140.64 68.68 -142 68 C-142 67.34 -142 66.68 -142 66 C-142.57363281 65.73058594 -143.14726563 65.46117187 -143.73828125 65.18359375 C-146.05109876 63.9732592 -148.06633291 62.58093108 -150.1875 61.0625 C-156.68433085 56.68860731 -163.27409843 54.82190442 -171 54 C-167.74054461 51.82702974 -164.49807401 50.66765088 -160.82421875 49.42578125 C-160.111483 49.18126221 -159.39874725 48.93674316 -158.66441345 48.68481445 C-156.34037195 47.88927517 -154.01409706 47.10053135 -151.6875 46.3125 C-150.07663794 45.76398126 -148.4657982 45.21539694 -146.85498047 44.66674805 C-132.57655912 39.81484417 -118.22964322 35.22361383 -103.81640625 30.7890625 C-101.2733035 30.00563912 -98.7303108 29.22186938 -96.1875 28.4375 C-94.94436035 28.05416504 -93.7012207 27.67083008 -92.42041016 27.27587891 C-85.04303722 24.98675678 -77.73338039 22.57488682 -70.46777344 19.95458984 C-62.65114239 17.13641589 -54.71956267 14.78235535 -46.73828125 12.48046875 C-44.7421658 11.90372092 -42.7460729 11.32689507 -40.75 10.75 C-39.73583008 10.45810791 -38.72166016 10.16621582 -37.67675781 9.86547852 C-28.69273673 7.25642608 -19.79774745 4.39478486 -10.93457031 1.40136719 C-9.9390918 1.07297852 -8.94361328 0.74458984 -7.91796875 0.40625 C-7.03906982 0.11041016 -6.1601709 -0.18542969 -5.25463867 -0.49023438 C-3 -1 -3 -1 0 0 Z " fill="#E76A25" transform="translate(814,171)"/>
<path d="M0 0 C-1.51612612 8.47833686 -3.73529962 16.69609861 -6 25 C3.24 24.67 12.48 24.34 22 24 C20.99741327 29.01293367 20.4313333 30.47592796 17 34 C10.79769978 37.69498736 5.28179446 38.15075438 -1.8125 38.0625 C-2.50537109 38.05798828 -3.19824219 38.05347656 -3.91210938 38.04882812 C-5.60811068 38.03713156 -7.30406703 38.01919924 -9 38 C-9.32871094 39.60488281 -9.32871094 39.60488281 -9.6640625 41.2421875 C-11.7028911 51.10493856 -13.86644027 60.93517843 -16.125 70.75 C-16.37846191 71.85585449 -16.63192383 72.96170898 -16.89306641 74.10107422 C-18.91157568 82.82130076 -18.91157568 82.82130076 -20.16015625 86.96875 C-20.91387874 89.68916235 -21.29756138 91.94153906 -21.3125 94.75 C-21.33763672 95.85601562 -21.33763672 95.85601562 -21.36328125 96.984375 C-20.89077557 99.60601942 -20.1527433 100.45346158 -18 102 C-11.05893575 103.55396961 -5.36757662 101.22205623 0.75 98.09375 C3 97 3 97 5 97 C3.8725091 104.01549892 1.36338455 108.29399527 -4 113 C-12.19858044 118.21045314 -20.48001778 118.89156961 -30 118 C-34.7012535 116.27413601 -38.50243859 113.4074613 -41 109 C-44.07451099 99.77646704 -41.15085699 89.97133437 -38.875 80.875 C-38.55663536 79.56570747 -38.23943224 78.25613202 -37.92333984 76.94628906 C-37.27738548 74.27675255 -36.62477025 71.60898151 -35.96679688 68.94238281 C-35.03353269 65.1517258 -34.13066592 61.35426999 -33.234375 57.5546875 C-32.69806634 55.28642294 -32.16161535 53.01819203 -31.625 50.75 C-31.37476074 49.69151855 -31.12452148 48.63303711 -30.86669922 47.54248047 C-30.6348291 46.57455566 -30.40295898 45.60663086 -30.1640625 44.609375 C-29.96248535 43.76342773 -29.7609082 42.91748047 -29.55322266 42.04589844 C-29 40 -29 40 -28 38 C-32.62 38 -37.24 38 -42 38 C-39.92987345 31.78962034 -38.48803894 29.23762452 -33 26 C-30.22705993 25.25958145 -27.89642216 25.10162885 -25 25 C-24.90203125 24.27554687 -24.8040625 23.55109375 -24.703125 22.8046875 C-23.36347473 14.14315561 -20.68662689 8.83922157 -13.86328125 3.2578125 C-9.50867384 0.31822427 -5.0968845 -0.08697755 0 0 Z " fill="#B12B32" transform="translate(558,357)"/>
<path d="M0 0 C1.560914 1.560914 1.20767604 3.0419933 1.25 5.21484375 C1.17427281 11.89658524 -0.39606072 18.10536465 -2 24.5625 C-2.31744085 25.87678505 -2.63382176 27.19132649 -2.94921875 28.50610352 C-3.78382554 31.97314194 -4.63186411 35.43674153 -5.48388672 38.89953613 C-6.32810841 42.33532672 -7.1640265 45.7731323 -8 49.2109375 C-8.16455688 49.88761475 -8.32911377 50.56429199 -8.49865723 51.26147461 C-8.83178663 52.63161282 -9.16483504 54.00177072 -9.49780273 55.37194824 C-9.83420446 56.7555782 -10.1709591 58.1391224 -10.50805664 59.52258301 C-14.01554282 73.9214272 -17.30344847 88.36643546 -20.51837158 102.83337402 C-21.03879887 105.17453835 -21.56010035 107.51550693 -22.08154297 109.85644531 C-24.3933897 120.23637075 -26.69880133 130.61770887 -29 141 C-35.6 141 -42.2 141 -49 141 C-50.42251279 138.15497442 -49.62373667 136.55206389 -48.91796875 133.46484375 C-48.65040771 132.28374023 -48.38284668 131.10263672 -48.10717773 129.88574219 C-47.80091397 128.56959267 -47.49434466 127.25351421 -47.1875 125.9375 C-46.87219835 124.56288946 -46.55718247 123.18821334 -46.24243164 121.81347656 C-43.37929962 109.37825996 -40.33207228 96.98741215 -37.28491211 84.59628296 C-34.37584902 72.76408121 -31.57639099 60.9214888 -28.98291016 49.01538086 C-27.51088591 42.25880018 -25.94587986 35.531798 -24.3125 28.8125 C-22.23688861 20.25551377 -20.50923906 11.67505702 -19 3 C-12.45249507 0.70358908 -6.95123699 -0.44134838 0 0 Z " fill="#B12A31" transform="translate(465,332)"/>
<path d="M0 0 C0 0.66 0 1.32 0 2 C0.86109375 2.23976562 1.7221875 2.47953125 2.609375 2.7265625 C17.73319075 8.40670528 28.05407989 23.16819336 34.91796875 37.06640625 C36 40 36 40 35 43 C34.43418213 42.68885254 33.86836426 42.37770508 33.28540039 42.05712891 C7.30984992 27.87918699 -19.69871467 16.87279084 -49 12 C-50.69382812 11.69255859 -50.69382812 11.69255859 -52.421875 11.37890625 C-73.5813725 8.08692434 -95.70665251 9.76047042 -117 11 C-114.75255791 8.44590593 -112.89353921 7.38637789 -109.66796875 6.3515625 C-108.79785156 6.07078857 -107.92773438 5.79001465 -107.03125 5.50073242 C-106.0928125 5.21174072 -105.154375 4.92274902 -104.1875 4.625 C-103.21425781 4.32118408 -102.24101563 4.01736816 -101.23828125 3.7043457 C-94.38172651 1.61289821 -87.48653862 -0.21048331 -80.5 -1.8125 C-79.6546167 -2.0069873 -78.8092334 -2.20147461 -77.93823242 -2.40185547 C-51.44203984 -8.21155 -26.03774753 -7.50589809 0 0 Z " fill="#EF8D21" transform="translate(653,245)"/>
<path d="M0 0 C0.33 0.66 0.66 1.32 1 2 C2.77208883 2.58648404 2.77208883 2.58648404 4.921875 2.94140625 C10.12388824 3.99517375 15.16095677 5.4395363 20.25 6.9375 C28.12070249 9.22440375 35.97819682 11.3033663 44 13 C43.84015625 13.92425781 43.6803125 14.84851563 43.515625 15.80078125 C40.83498514 34.72210623 43.42577392 50.89244217 52.2578125 67.62890625 C54 71 54 71 55 74 C52.06181489 72.61400138 49.47444309 71.01557088 46.83203125 69.12890625 C45.62752319 68.27594971 45.62752319 68.27594971 44.39868164 67.40576172 C42.64614951 66.15667104 40.89404672 64.9069778 39.14233398 63.65673828 C34.86753734 60.62989223 30.59901626 57.69959751 26.078125 55.05078125 C12.79818082 47.2367321 12.79818082 47.2367321 9.953125 37.91796875 C8.32635912 32.93766501 5.1948393 29.09078336 2 25 C1.48953125 24.31292969 0.9790625 23.62585938 0.453125 22.91796875 C-4.6339136 16.53398714 -11.26858438 12.4612127 -18 8 C-19.34247496 7.01230635 -20.68027417 6.01789072 -22 5 C-21.16597656 4.95101562 -20.33195313 4.90203125 -19.47265625 4.8515625 C-12.77862499 4.40682732 -6.50250641 3.6531796 0 2 C0 1.34 0 0.68 0 0 Z " fill="#FBB017" transform="translate(675,241)"/>
<path d="M0 0 C0.495 0.495 0.495 0.495 1 1 C0.52733215 7.67726559 -0.84943496 13.85844496 -2.5625 20.3125 C-5.09702894 30.13056382 -7.37277085 39.9891169 -9.54504395 49.89199829 C-14.52884691 72.60274989 -14.52884691 72.60274989 -16.8125 82.125 C-16.99498291 82.92325195 -17.17746582 83.72150391 -17.36547852 84.54394531 C-18.64978742 89.76652495 -18.64978742 89.76652495 -22 92 C-23.99291992 92.22705078 -23.99291992 92.22705078 -26.23046875 92.1953125 C-27.03291016 92.18886719 -27.83535156 92.18242187 -28.66210938 92.17578125 C-29.91217773 92.15064453 -29.91217773 92.15064453 -31.1875 92.125 C-32.4549707 92.11146484 -32.4549707 92.11146484 -33.74804688 92.09765625 C-35.83215243 92.07410703 -37.91611217 92.03823647 -40 92 C-39.16768375 86.26088913 -37.75491136 80.68819009 -36.375 75.0625 C-33.77739032 64.37270553 -31.32376527 53.65595897 -28.92416382 42.92053223 C-27.27003201 35.52590898 -25.58570329 28.14847575 -23.6875 20.8125 C-22.08851685 14.58813213 -20.91538597 8.35952357 -20 2 C-13.4473755 -0.43818586 -6.93998781 -0.43249199 0 0 Z " fill="#B12A31" transform="translate(407,381)"/>
<path d="M0 0 C0.495 0.495 0.495 0.495 1 1 C0.89515742 8.65706269 -0.75156995 15.99087939 -2.625 23.375 C-3.16803829 25.57810786 -3.71100405 27.7812336 -4.25390625 29.984375 C-4.5389502 31.12841797 -4.82399414 32.27246094 -5.11767578 33.45117188 C-6.62242984 39.50349754 -8.09346463 45.56392247 -9.5625 51.625 C-9.85688965 52.83188477 -10.1512793 54.03876953 -10.45458984 55.28222656 C-11.86823886 61.12090381 -13.22503195 66.96220117 -14.44921875 72.84375 C-14.67085693 73.9064209 -14.89249512 74.9690918 -15.12084961 76.06396484 C-15.52940391 78.05172343 -15.9279453 80.04157601 -16.31469727 82.03369141 C-16.58431274 83.35119385 -16.58431274 83.35119385 -16.859375 84.6953125 C-17.00858398 85.45859863 -17.15779297 86.22188477 -17.31152344 87.00830078 C-18.14477186 89.41881166 -18.94191367 90.4936021 -21 92 C-23.0847168 92.34057617 -23.0847168 92.34057617 -25.44921875 92.29296875 C-26.29677734 92.28330078 -27.14433594 92.27363281 -28.01757812 92.26367188 C-28.89865234 92.23853516 -29.77972656 92.21339844 -30.6875 92.1875 C-31.58017578 92.17396484 -32.47285156 92.16042969 -33.39257812 92.14648438 C-35.59566166 92.11114079 -37.79752582 92.06180493 -40 92 C-38.58054562 85.5204536 -37.06392104 79.07097947 -35.5 72.625 C-32.77380334 61.29943854 -30.08449713 49.96513123 -27.42504883 38.62371826 C-26.97939161 36.72653213 -26.53199795 34.82975295 -26.08276367 32.93341064 C-23.65117674 22.66215363 -21.34097408 12.4808985 -20 2 C-13.26899933 0.23449163 -6.96874933 -0.5351004 0 0 Z " fill="#B12A31" transform="translate(503,381)"/>
<path d="M0 0 C0.82306641 0.00870117 1.64613281 0.01740234 2.49414062 0.02636719 C18.77806514 0.41529412 18.77806514 0.41529412 23.49609375 5.21484375 C25.25338749 8.40101895 24.9250496 10.55340203 24.3828125 14.06640625 C22.50320956 20.30711038 17.30128469 23.97491577 12.0078125 27.33203125 C5.45715717 30.27651774 -0.87148629 30.69229537 -7.9375 30.625 C-8.75734375 30.63273437 -9.5771875 30.64046875 -10.421875 30.6484375 C-17.67069353 30.6251294 -22.82208568 29.39480738 -28.3125 24.375 C-29.8672669 21.26546621 -29.59894437 18.81233239 -29.3125 15.375 C-26.07595763 9.03137695 -20.93135025 4.04561394 -14.15625 1.72265625 C-9.38256079 0.2223261 -4.97850441 -0.08809699 0 0 Z " fill="#FDFBFB" transform="translate(304.3125,472.625)"/>
<path d="M0 0 C4.00831585 2.04059716 6.64010766 4.1904595 9 8 C10.48630729 17.01157485 8.42849201 25.71514832 3.4921875 33.32421875 C-0.43110971 38.26027408 -4.8003406 41.55845318 -11 43 C-15.96652988 43.28866567 -19.72031725 42.77314166 -24 40.1875 C-28.34610605 35.43394651 -28.38627554 31.3557412 -28.234375 25.08984375 C-27.50906326 15.52781733 -23.15794918 9.32456754 -16 3 C-10.57404629 -0.2072151 -6.18954908 -0.91585198 0 0 Z " fill="#FDFCFC" transform="translate(325,390)"/>
<path d="M0 0 C0.97324219 0.00644531 1.94648437 0.01289062 2.94921875 0.01953125 C5.3125 0.1875 5.3125 0.1875 6.3125 1.1875 C8.16141946 1.42113881 10.01738031 1.60053635 11.875 1.75 C13.39287109 1.87568359 13.39287109 1.87568359 14.94140625 2.00390625 C16.11509766 2.09478516 16.11509766 2.09478516 17.3125 2.1875 C16.9825 3.5075 16.6525 4.8275 16.3125 6.1875 C14.3325 6.5175 12.3525 6.8475 10.3125 7.1875 C10.374375 8.239375 10.43625 9.29125 10.5 10.375 C10.25605925 15.33512863 8.68518528 17.50659603 5.625 21.25390625 C2.63393605 23.75488033 0.40393361 23.97652797 -3.4375 24.4375 C-4.60796875 24.58703125 -5.7784375 24.7365625 -6.984375 24.890625 C-8.32242188 25.03757812 -8.32242188 25.03757812 -9.6875 25.1875 C-10.0175 26.1775 -10.3475 27.1675 -10.6875 28.1875 C-9.66269531 28.21328125 -8.63789062 28.2390625 -7.58203125 28.265625 C-6.22131301 28.32193058 -4.86063757 28.37927737 -3.5 28.4375 C-2.48969727 28.45876953 -2.48969727 28.45876953 -1.45898438 28.48046875 C3.35030295 28.71506813 5.97328575 29.70808973 9.3125 33.1875 C10.06915991 37.05487286 9.50489223 38.81751495 7.6875 42.3125 C4.25777324 46.4642745 0.63497453 49.19705691 -4.6875 50.1875 C-16.37808766 51.1628768 -16.37808766 51.1628768 -20.75 49.31640625 C-22.125 48.125 -22.125 48.125 -23.6875 45.1875 C-23.8125 41.625 -23.8125 41.625 -22.6875 38.1875 C-20.25 35.75 -20.25 35.75 -17.6875 34.1875 C-17.0275 34.1875 -16.3675 34.1875 -15.6875 34.1875 C-16.1825 33.424375 -16.6775 32.66125 -17.1875 31.875 C-18.6875 29.1875 -18.6875 29.1875 -18.6875 26.1875 C-16.1875 24.5 -16.1875 24.5 -13.6875 23.1875 C-14.0175 22.548125 -14.3475 21.90875 -14.6875 21.25 C-16.03916789 17.1105171 -16.54079563 13.49075813 -15.6875 9.1875 C-11.9347876 2.7420946 -7.44298541 -0.10930953 0 0 Z " fill="#EF872A" transform="translate(665.6875,561.8125)"/>
<path d="M0 0 C-0.46461738 7.8695773 -1.83942525 15.14591239 -3.875 22.75 C-6.22120884 31.79265069 -8.32097841 40.80956604 -10 50 C-8.02 49.505 -8.02 49.505 -6 49 C-6.3125 51.375 -6.3125 51.375 -7 54 C-10.44107266 56.29404844 -11.96839809 56.26293056 -16 56 C-17.96822886 54.03177114 -17.66248381 50.65191291 -18 48 C-18.44730469 48.40992188 -18.89460937 48.81984375 -19.35546875 49.2421875 C-23.77676213 53.18270058 -27.08541163 55.58363023 -33.0625 56.4375 C-36 56 -36 56 -38.375 54.125 C-40.74078331 49.57541672 -40.89896605 46.02445367 -40 41 C-36.827929 31.69924844 -31.43004218 24.88587195 -23.015625 19.80078125 C-20.66968343 18.86876958 -18.89183018 18.76620379 -16.375 18.8125 C-15.59898437 18.81894531 -14.82296875 18.82539062 -14.0234375 18.83203125 C-12 19 -12 19 -10 20 C-9.896875 19.0925 -9.79375 18.185 -9.6875 17.25 C-9.16440667 13.66938932 -8.42907435 10.15282358 -7.625 6.625 C-7.39039063 5.58601562 -7.15578125 4.54703125 -6.9140625 3.4765625 C-6.61242187 2.65929687 -6.31078125 1.84203125 -6 1 C-3 0 -3 0 0 0 Z " fill="#EF882B" transform="translate(983,543)"/>
<path d="M0 0 C2.27616178 3.72671628 2.7171503 7.66749082 3.2890625 11.9140625 C3.39721283 12.68374359 3.50536316 13.45342468 3.61679077 14.24642944 C3.84370642 15.87490597 4.06706539 17.50388151 4.28710938 19.13330078 C4.62119413 21.59693443 4.96988882 24.05817504 5.3203125 26.51953125 C5.53995149 28.10925243 5.7587282 29.69909303 5.9765625 31.2890625 C6.13120468 32.37400497 6.13120468 32.37400497 6.28897095 33.48086548 C7.03658322 39.12562353 7 44.17643747 7 50 C-6.2 50 -19.4 50 -33 50 C-27.3745814 39.87424652 -27.3745814 39.87424652 -24.96972656 36.32226562 C-24.43277161 35.52534302 -23.89581665 34.72842041 -23.34259033 33.90734863 C-22.78094177 33.08198608 -22.21929321 32.25662354 -21.640625 31.40625 C-21.0507782 30.5335144 -20.4609314 29.66077881 -19.85321045 28.76159668 C-18.6179028 26.93526898 -17.38084019 25.11012718 -16.14208984 23.28613281 C-14.23803911 20.4823874 -12.33927798 17.67511831 -10.44140625 14.8671875 C-9.23728072 13.08833751 -8.03286422 11.30968443 -6.828125 9.53125 C-6.25837952 8.6896936 -5.68863403 7.84813721 -5.10162354 6.9810791 C-4.57727722 6.20937378 -4.05293091 5.43766846 -3.51269531 4.64257812 C-3.05034485 3.96134888 -2.58799438 3.28011963 -2.1116333 2.57824707 C-1 1 -1 1 0 0 Z " fill="#FDFBFB" transform="translate(216,369)"/>
<path d="M0 0 C0.99 0.66 1.98 1.32 3 2 C1.56327384 11.81132732 -0.65118989 21.37671974 -3 31 C-1.35 30.67 0.3 30.34 2 30 C1.63802104 32.62434747 1.17343943 33.82013689 -0.6875 35.75 C-3.62847746 37.33971755 -5.70394793 37.29298241 -9 37 C-10 36 -10 36 -10.09765625 34.15234375 C-10.06510417 32.1015625 -10.03255208 30.05078125 -10 28 C-10.67095703 28.72316406 -10.67095703 28.72316406 -11.35546875 29.4609375 C-15.7066549 34.00695288 -18.65944582 36.73275567 -25.125 37.25 C-28 37 -28 37 -31 35 C-33.2410741 28.27677771 -32.43742769 23.22630183 -29.5 16.9375 C-22.80818517 4.5639556 -14.28232695 -1.58692522 0 0 Z " fill="#EF882B" transform="translate(936,562)"/>
<path d="M0 0 C2.125 1.6875 2.125 1.6875 4.125 4.6875 C5.02438179 12.58312543 5.14939879 20.08840182 0.6171875 26.88671875 C-3.26652787 31.57361086 -7.59232856 35.11939052 -13.7890625 35.94140625 C-17.57242723 36.16103978 -19.4414795 35.95138205 -22.75 33.9375 C-27.00829772 29.42871417 -27.30821343 25.61441838 -27.1953125 19.57421875 C-26.48927506 13.21127155 -23.46206586 7.14714736 -18.875 2.6875 C-12.87335343 -1.38504589 -6.89431677 -3.14740548 0 0 Z " fill="#EF872A" transform="translate(637.875,563.3125)"/>
<path d="M0 0 C1.98 0 3.96 0 6 0 C7.55909158 4.32293573 8.51639951 8.47707987 9.21875 13.015625 C9.37386047 13.99943146 9.37386047 13.99943146 9.53210449 15.00311279 C9.85957365 17.08468678 10.18020715 19.16723415 10.5 21.25 C12.32561269 33.15758711 12.32561269 33.15758711 14.65039062 44.97558594 C15 47 15 47 15 51 C12.69 51 10.38 51 8 51 C6.4027357 45.14336425 5.69221683 40.22995144 5 34 C-1.93 34 -8.86 34 -16 34 C-16.99 36.475 -16.99 36.475 -18 39 C-19.32442456 41.14982968 -20.72651361 43.25303725 -22.1875 45.3125 C-22.92355469 46.38113281 -23.65960938 47.44976563 -24.41796875 48.55078125 C-27 51 -27 51 -30.80078125 51.35546875 C-31.85652344 51.23816406 -32.91226562 51.12085938 -34 51 C-29.90602048 44.241212 -25.47112133 37.81419445 -20.8125 31.4375 C-16.17848064 25.08597696 -11.67496968 18.66636665 -7.3125 12.125 C-6.5551355 10.99276001 -6.5551355 10.99276001 -5.7824707 9.83764648 C-3.65263745 6.62256189 -1.67628779 3.47934154 0 0 Z " fill="#EF882C" transform="translate(383,548)"/>
<path d="M0 0 C6.40460969 12.4871999 12.26277897 25.19395601 18 38 C20.89646354 28.51772272 23.20459709 18.9889918 25.2487793 9.29052734 C25.44769775 8.37480957 25.64661621 7.4590918 25.8515625 6.515625 C26.11187256 5.28247559 26.11187256 5.28247559 26.37744141 4.02441406 C27 2 27 2 29 0 C31.625 -0.125 31.625 -0.125 34 0 C31.73938688 11.08493628 29.08618114 22.06728954 26.4296875 33.0625 C24.90780972 39.36486446 23.43308898 45.67680914 22 52 C20.02 52 18.04 52 16 52 C13.73769878 47.07129302 11.47741306 42.14166877 9.21899414 37.21118164 C8.45034289 35.5338441 7.68114047 33.85675903 6.91137695 32.17993164 C5.80535368 29.77035548 4.70131252 27.35987981 3.59765625 24.94921875 C3.25283707 24.19912033 2.90801788 23.44902191 2.55274963 22.67619324 C1.24143161 19.80793633 -0.00184119 16.99447643 -1 14 C-2.65257086 17.83754677 -3.71200942 21.6240167 -4.65625 25.69140625 C-4.95660156 26.96564453 -5.25695312 28.23988281 -5.56640625 29.55273438 C-6.03518883 31.56239988 -6.50230422 33.57244131 -6.96826172 35.58276367 C-7.42258052 37.53662056 -7.88308921 39.48903488 -8.34375 41.44140625 C-8.61380859 42.60357666 -8.88386719 43.76574707 -9.16210938 44.96313477 C-9.87708035 47.55448789 -10.6863275 49.66994853 -12 52 C-13.65 52 -15.3 52 -17 52 C-16.3377931 46.70234478 -15.2528412 41.63859492 -13.93359375 36.46875 C-13.52642537 34.83730628 -13.11953267 33.20579374 -12.71289062 31.57421875 C-12.07537218 29.0324978 -11.43533612 26.49147998 -10.7902832 23.95166016 C-10.16411353 21.47995035 -9.54821505 19.0058529 -8.93359375 16.53125 C-8.73986679 15.78000854 -8.54613983 15.02876709 -8.34654236 14.25476074 C-7.22518844 9.70718765 -6.8091916 5.68424984 -7 1 C-4.53721199 -0.231394 -2.7204945 -0.07159196 0 0 Z " fill="#EF892D" transform="translate(440,547)"/>
<path d="M0 0 C-1.48679477 4.59746469 -5.26890671 6.40388844 -9.1875 8.75 C-9.90365479 9.18538086 -10.61980957 9.62076172 -11.35766602 10.06933594 C-13.5621621 11.39663891 -15.77795989 12.70231261 -18 14 C-18.64259766 14.37769531 -19.28519531 14.75539062 -19.94726562 15.14453125 C-32.97639001 22.71160455 -50.66587157 31.48938708 -66 31 C-63.39724378 20.58897511 -55.86851355 14.38569028 -47 9 C-37.89853477 4.46648327 -28.67837379 1.99600585 -18.625 0.875 C-17.88838135 0.79008301 -17.1517627 0.70516602 -16.39282227 0.61767578 C-10.9002502 0.01857377 -5.52771276 -0.17548294 0 0 Z " fill="#E89849" transform="translate(825,223)"/>
<path d="M0 0 C5.45291685 3.26867371 10.71236679 6.81436872 14.125 12.3125 C14.125 12.9725 14.125 13.6325 14.125 14.3125 C2.29285777 19.12557481 -8.64335357 17.57936326 -20.75 14.4375 C-30.11440782 12.13231172 -39.27069561 10.23172385 -48.875 9.3125 C-45.89065016 6.01400807 -42.99087746 4.12708676 -39 2.1875 C-37.99195313 1.68992188 -36.98390625 1.19234375 -35.9453125 0.6796875 C-25.03629945 -4.17801551 -10.97873046 -5.36523385 0 0 Z " fill="#FEFCF9" transform="translate(660.875,228.6875)"/>
<path d="M0 0 C2 2 2 2 2.22705078 4.33837891 C2.21134033 5.76802979 2.21134033 5.76802979 2.1953125 7.2265625 C2.18564453 8.7734375 2.18564453 8.7734375 2.17578125 10.3515625 C2.15902344 11.43179688 2.14226563 12.51203125 2.125 13.625 C2.11597656 14.71296875 2.10695313 15.8009375 2.09765625 16.921875 C2.07403409 19.61480152 2.04109556 22.30729255 2 25 C3.98355733 21.56501573 5.96108444 18.12659767 7.9375 14.6875 C8.78344727 13.22280273 8.78344727 13.22280273 9.64648438 11.72851562 C10.18466797 10.79072266 10.72285156 9.85292969 11.27734375 8.88671875 C11.77484131 8.02264404 12.27233887 7.15856934 12.78491211 6.26831055 C14.11324729 3.94228084 14.11324729 3.94228084 15 1 C16.98 0.67 18.96 0.34 21 0 C21.66 8.58 22.32 17.16 23 26 C30.74270998 14.35869019 30.74270998 14.35869019 34 1 C35.98 0.67 37.96 0.34 40 0 C40.40631208 5.71791905 39.2019639 9.65338603 36.5625 14.625 C36.20486572 15.31215088 35.84723145 15.99930176 35.47875977 16.70727539 C32.98208563 21.39617759 30.33311547 25.98357875 27.4375 30.4375 C26.75558594 31.48808594 26.07367187 32.53867187 25.37109375 33.62109375 C23 36 23 36 16 37 C15.505 25.12 15.505 25.12 15 13 C14.09636719 14.56492187 13.19273437 16.12984375 12.26171875 17.7421875 C11.07066923 19.7866662 9.87924343 21.83092572 8.6875 23.875 C7.79514648 25.42380859 7.79514648 25.42380859 6.88476562 27.00390625 C6.01948242 28.48310547 6.01948242 28.48310547 5.13671875 29.9921875 C4.60780029 30.90339355 4.07888184 31.81459961 3.53393555 32.75341797 C2 35 2 35 -1 37 C-2.32 37 -3.64 37 -5 37 C-4.67 26.44 -4.34 15.88 -4 5 C-5.98 5.66 -7.96 6.32 -10 7 C-9.63206382 4.33246269 -9.18001672 3.18001672 -7.25 1.25 C-4.57322385 -0.23709786 -3.01858275 -0.39718194 0 0 Z " fill="#EF872A" transform="translate(518,562)"/>
<path d="M0 0 C1.27230469 -0.01160156 1.27230469 -0.01160156 2.5703125 -0.0234375 C4.875 0.375 4.875 0.375 6.6484375 1.62890625 C8.60359006 4.41219668 8.41053707 6.77686251 8.28125 10.08984375 C7.58614358 13.99981739 5.81263074 15.8045731 2.875 18.375 C-1.32895232 20.61258753 -5.3225419 21.82523045 -10.125 21.375 C-10.455 19.725 -10.785 18.075 -11.125 16.375 C-10.20267578 16.21064453 -10.20267578 16.21064453 -9.26171875 16.04296875 C-8.45347656 15.88441406 -7.64523437 15.72585938 -6.8125 15.5625 C-6.01199219 15.41167969 -5.21148438 15.26085937 -4.38671875 15.10546875 C-1.83227177 14.28045738 -0.7521927 13.49035051 0.875 11.375 C1.6019226 8.26660979 1.6019226 8.26660979 1.875 5.375 C-3.86461154 6.33086022 -3.86461154 6.33086022 -8.4375 9.625 C-8.994375 10.5325 -9.55125 11.44 -10.125 12.375 C-10.7025 13.24125 -11.28 14.1075 -11.875 15 C-13.62584117 19.72727116 -13.75354141 24.37932024 -13.125 29.375 C-12.465 30.035 -11.805 30.695 -11.125 31.375 C-5.58549553 31.16194214 -2.61812433 29.43849386 1.875 26.375 C2.865 26.705 3.855 27.035 4.875 27.375 C4.54460927 30.45864682 3.89842865 31.35347097 1.5625 33.5 C-3.92849133 37.33092419 -8.42632005 38.46976808 -15.125 37.375 C-17.94924288 35.18477082 -19.54008603 33.54482793 -21.125 30.375 C-21.94795152 22.88930641 -20.81630841 16.04496602 -16.3203125 9.9140625 C-11.6653696 4.48622342 -7.56170561 -0.06937345 0 0 Z " fill="#EF892D" transform="translate(1004.125,561.625)"/>
<path d="M0 0 C2.5625 1.5625 2.5625 1.5625 4 4 C4.65756316 7.48508476 4.69741057 9.7604418 2.9296875 12.90234375 C-0.59423196 17.45648011 -4.39636697 19.7573052 -10 21 C-13 21.1875 -13 21.1875 -15 21 C-15.33 19.35 -15.66 17.7 -16 16 C-15.09507812 15.85304688 -15.09507812 15.85304688 -14.171875 15.703125 C-10.39114528 14.99576267 -7.57260523 14.39537028 -4.375 12.1875 C-2.71609521 10.03921513 -2.71609521 10.03921513 -3.25 7.25 C-3.4975 6.5075 -3.745 5.765 -4 5 C-8.8642194 5.41693309 -10.89876673 7.32748692 -14 11 C-17.34432794 16.8525739 -18.36804441 21.25251909 -18 28 C-17.34 28.99 -16.68 29.98 -16 31 C-10.03570884 30.58866958 -6.91760734 29.62966256 -2 26 C-1.34 26 -0.68 26 0 26 C-0.15182632 28.65696068 -0.47324024 30.44234524 -2.33203125 32.41015625 C-7.52369593 36.74285938 -10.66377598 37.39891038 -17.29296875 37.35546875 C-20 37 -20 37 -23.125 34.6875 C-26.12805036 30.38312782 -26.33325648 27.16547537 -26 22 C-24.43966203 14.15536509 -20.37026389 7.74594048 -14.3046875 2.546875 C-9.82916954 -0.40904849 -5.17228303 -0.96855493 0 0 Z " fill="#EF892C" transform="translate(499,562)"/>
<path d="M0 0 C2.625 1.4375 2.625 1.4375 4 4 C4.50482882 8.09299672 4.13708031 11.53049458 1.5703125 14.84765625 C-2.72770956 18.73497843 -7.00973115 20.86998831 -12.875 21.125 C-13.926875 21.063125 -13.926875 21.063125 -15 21 C-15.33 19.35 -15.66 17.7 -16 16 C-15.09507812 15.85304688 -15.09507812 15.85304688 -14.171875 15.703125 C-10.39114528 14.99576267 -7.57260523 14.39537028 -4.375 12.1875 C-2.71609521 10.03921513 -2.71609521 10.03921513 -3.25 7.25 C-3.4975 6.5075 -3.745 5.765 -4 5 C-7.35446138 5.28752526 -8.90853218 5.92637956 -11.5625 8.0625 C-16.59535721 14.12773818 -18.45851131 18.98016941 -18.3359375 26.8984375 C-18.17640592 29.21467891 -18.17640592 29.21467891 -16 31 C-10.67910959 31.72557596 -8.24564912 30.04579176 -4 27 C-1.625 26.25 -1.625 26.25 0 26 C-0.22187564 29.88282378 -0.96247304 30.96330697 -3.8125 33.75 C-8.74314809 37.23045748 -14.03478991 37.97825192 -20 37 C-23.23045631 34.44255542 -25.65303228 32.2047822 -26.30859375 28.0390625 C-26.7585373 19.61284689 -23.83730317 12.2746732 -18.18359375 5.9765625 C-12.54323002 0.98185595 -7.5807631 -1.06908198 0 0 Z " fill="#EF882C" transform="translate(898,562)"/>
<path d="M0 0 C1.051875 -0.02126953 1.051875 -0.02126953 2.125 -0.04296875 C4 0.1875 4 0.1875 6 2.1875 C6.37220129 9.44542516 4.51192644 15.89529845 1 22.1875 C-1.19757175 24.38507175 -5.95840086 23.99561388 -9 24.1875 C-12.3 24.1875 -15.6 24.1875 -19 24.1875 C-17.68 17.5875 -16.36 10.9875 -15 4.1875 C-12.03 3.1975 -9.06 2.2075 -6 1.1875 C-3.77109005 0.07304502 -2.46944894 0.02269714 0 0 Z " fill="#B22D34" transform="translate(506,339.8125)"/>
<path d="M0 0 C1.53309378 1.53309378 1.16922657 2.93181814 1.1875 5.0625 C1.1224892 10.89489763 0.25620017 17.03166878 -3 22 C-9.19882559 24.52721351 -16.41654401 24.25213236 -23 24 C-21.87723429 16.94090922 -20.62436599 9.96156852 -19 3 C-12.52393814 1.00003972 -6.80040943 -0.50373403 0 0 Z " fill="#B22D33" transform="translate(414,340)"/>
<path d="M0 0 C1.65 0 3.3 0 5 0 C5.24394087 5.76987907 4.34693273 10.82757248 3.03125 16.43359375 C2.8314856 17.31153091 2.63172119 18.18946808 2.42590332 19.0940094 C1.79100212 21.87684733 1.14567611 24.65714453 0.5 27.4375 C0.06571362 29.33252369 -0.36788736 31.2277046 -0.80078125 33.12304688 C-1.85799757 37.75089994 -2.92929887 42.37516595 -4 47 C2.6 47 9.2 47 16 47 C14 51 14 51 12 52 C9.0720296 52.12540112 6.17819443 52.18518339 3.25 52.1875 C2.45078125 52.19974609 1.6515625 52.21199219 0.828125 52.22460938 C-3.8532708 52.23615887 -7.59691544 51.79674257 -12 50 C-11.38128428 44.30113304 -10.37479239 38.86298656 -9.00390625 33.30078125 C-8.81030014 32.50270554 -8.61669403 31.70462982 -8.41722107 30.88237 C-8.01005297 29.2087298 -7.60068616 27.5356231 -7.18920898 25.86303711 C-6.56201966 23.31054516 -5.94362362 20.75603474 -5.32617188 18.20117188 C-4.92760451 16.56758109 -4.52853335 14.93411312 -4.12890625 13.30078125 C-3.94550186 12.54235428 -3.76209747 11.78392731 -3.57313538 11.0025177 C-2.63290387 7.20257713 -1.57041269 3.58881975 0 0 Z " fill="#F08A2E" transform="translate(853,547)"/>
<path d="M0 0 C1.2065625 0.0309375 1.2065625 0.0309375 2.4375 0.0625 C1.77116254 7.68475051 0.25684689 14.9823737 -1.4375 22.4375 C-1.69402344 23.5925 -1.95054687 24.7475 -2.21484375 25.9375 C-3.80977651 33.03855742 -5.59578612 40.05534574 -7.5625 47.0625 C-0.9625 47.0625 5.6375 47.0625 12.4375 47.0625 C12.1075 48.3825 11.7775 49.7025 11.4375 51.0625 C2.61505905 52.00105755 -5.74005905 52.00105755 -14.5625 51.0625 C-14.0757012 43.04866146 -12.70128734 35.52874004 -10.75 27.75 C-10.48227783 26.66074219 -10.21455566 25.57148437 -9.9387207 24.44921875 C-3.8991168 0.09510041 -3.8991168 0.09510041 0 0 Z " fill="#EF872A" transform="translate(595.5625,546.9375)"/>
<path d="M0 0 C-0.66 2.97 -1.32 5.94 -2 9 C1.63 9 5.26 9 9 9 C7 13 7 13 5 14 C3.45976004 14.06950541 1.91665012 14.08452357 0.375 14.0625 C-0.85089844 14.04896484 -0.85089844 14.04896484 -2.1015625 14.03515625 C-3.04128906 14.01775391 -3.04128906 14.01775391 -4 14 C-4.03738281 14.59425781 -4.07476563 15.18851563 -4.11328125 15.80078125 C-4.57639201 21.63960907 -5.67211859 26.95250409 -7.37890625 32.5546875 C-8.16411796 35.22565715 -8.16411796 35.22565715 -8 39 C-5.69 39.33 -3.38 39.66 -1 40 C-1.57344937 42.86724686 -1.8614515 43.8614515 -4 46 C-6.09375 46.265625 -6.09375 46.265625 -8.5 46.25 C-9.2940625 46.25515625 -10.088125 46.2603125 -10.90625 46.265625 C-13 46 -13 46 -15 44 C-16.51192243 34.98120691 -14.09534485 22.19068969 -10 14 C-11.32 14 -12.64 14 -14 14 C-13.75 12.125 -13.75 12.125 -13 10 C-12.360625 9.690625 -11.72125 9.38125 -11.0625 9.0625 C-8.23120365 7.60395339 -8.06949705 5.92329192 -7 3 C-4.60616624 -0.15550814 -4.27173145 0 0 0 Z " fill="#EF8A2E" transform="translate(742,553)"/>
<path d="M0 0 C0.99 0.66 1.98 1.32 3 2 C2.67 3.32 2.34 4.64 2 6 C1.27554688 5.94199219 0.55109375 5.88398437 -0.1953125 5.82421875 C-5.0500194 5.59766576 -8.13132287 5.51038198 -12.4375 7.9375 C-16.55021824 12.85269985 -19.18343762 17.87385187 -19.375 24.375 C-19.27508511 28.09235567 -19.27508511 28.09235567 -17 31 C-12.70178709 31.81870722 -10.29965244 30.77177756 -6.75 28.5 C-6.08484375 28.0359375 -5.4196875 27.571875 -4.734375 27.09375 C-3 26 -3 26 -1 26 C-1 29.12606952 -1.24102492 31.23309829 -3.49609375 33.51171875 C-8.09958808 36.7443536 -12.13014528 37.73157031 -17.73046875 37.421875 C-21.09332121 36.79676645 -22.77929759 35.56768716 -25 33 C-27.84016143 28.48156137 -26.99927645 24.00477951 -26 19 C-24.1519331 11.25849143 -19.63192394 5.58270147 -13.1875 1 C-8.80426206 -0.37513347 -4.55802552 -0.60407567 0 0 Z " fill="#EF8729" transform="translate(792,562)"/>
<path d="M0 0 C0.88945313 0.00257813 1.77890625 0.00515625 2.6953125 0.0078125 C3.57960938 0.00523437 4.46390625 0.00265625 5.375 0 C7.8203125 0.1328125 7.8203125 0.1328125 10.8203125 1.1328125 C10.4903125 2.7828125 10.1603125 4.4328125 9.8203125 6.1328125 C6.5203125 6.1328125 3.2203125 6.1328125 -0.1796875 6.1328125 C-0.97814757 8.43220974 -0.97814757 8.43220974 -1.1796875 11.1328125 C0.10675525 13.28745027 0.10675525 13.28745027 2.0703125 15.1328125 C2.71484375 15.82117188 3.359375 16.50953125 4.0234375 17.21875 C4.61640625 17.85039063 5.209375 18.48203125 5.8203125 19.1328125 C8.1341711 22.16975192 8.83732071 23.31641863 8.7578125 27.1328125 C7.41147387 31.44109612 5.52622285 34.10926629 1.6328125 36.4453125 C-3.60709654 37.72617915 -8.33810857 38.03481034 -13.2421875 35.6328125 C-13.8815625 35.1378125 -14.5209375 34.6428125 -15.1796875 34.1328125 C-14.8496875 32.8128125 -14.5196875 31.4928125 -14.1796875 30.1328125 C-10.1796875 30.1328125 -10.1796875 30.1328125 -8.1796875 31.1328125 C-6.63944754 31.20231791 -5.09633762 31.21733607 -3.5546875 31.1953125 C-2.73742187 31.18628906 -1.92015625 31.17726563 -1.078125 31.16796875 C-0.45164062 31.15636719 0.17484375 31.14476562 0.8203125 31.1328125 C1.28355056 28.35338411 1.50146547 26.81705975 0.8203125 24.1328125 C-1.06602219 21.82025901 -3.09512183 19.90227076 -5.33203125 17.9296875 C-7.95056279 15.38312406 -8.15581892 13.34762971 -8.5546875 9.7578125 C-8.08452157 5.21287515 -6.62406178 3.98912288 -3.1796875 1.1328125 C-2.1796875 0.1328125 -2.1796875 0.1328125 0 0 Z " fill="#EF882B" transform="translate(809.1796875,561.8671875)"/>
<path d="M0 0 C0.88945313 0.00257813 1.77890625 0.00515625 2.6953125 0.0078125 C3.57960938 0.00523437 4.46390625 0.00265625 5.375 0 C7.8203125 0.1328125 7.8203125 0.1328125 10.8203125 1.1328125 C10.4903125 2.7828125 10.1603125 4.4328125 9.8203125 6.1328125 C6.5203125 6.1328125 3.2203125 6.1328125 -0.1796875 6.1328125 C-0.98433161 8.42618029 -0.98433161 8.42618029 -1.1796875 11.1328125 C0.13872927 13.3554762 0.13872927 13.3554762 2.1328125 15.2578125 C7.71857318 21.08150619 7.71857318 21.08150619 8.1953125 26.0078125 C8.10881935 29.14463065 7.79022415 30.18407413 6.1328125 33.0078125 C1.75674156 37.02906688 -2.24982403 37.50829831 -8.01953125 37.40234375 C-10.9319923 37.03894445 -12.8794164 35.91366755 -15.1796875 34.1328125 C-14.8496875 32.8128125 -14.5196875 31.4928125 -14.1796875 30.1328125 C-10.1796875 30.1328125 -10.1796875 30.1328125 -8.1796875 31.1328125 C-4.6796875 31.3828125 -4.6796875 31.3828125 -1.1796875 31.1328125 C1.02911445 29.31658257 1.02911445 29.31658257 1.19140625 26.76953125 C0.70444886 23.30957085 -0.5596512 22.26911965 -3.1171875 19.9453125 C-8.05605877 15.38970461 -8.05605877 15.38970461 -8.5546875 10.3203125 C-8.53479916 6.67411725 -8.24577442 6.21245571 -5.7421875 3.1953125 C-4.8965625 2.5146875 -4.0509375 1.8340625 -3.1796875 1.1328125 C-2.1796875 0.1328125 -2.1796875 0.1328125 0 0 Z " fill="#EF872A" transform="translate(711.1796875,561.8671875)"/>
<path d="M0 0 C1.875 1 1.875 1 3 3 C3.77508127 10.49245231 2.24072403 17.55991821 -2.5625 23.5 C-5.36562881 26.37500391 -6.05008784 26.92084065 -10 27.25 C-10.99 27.1675 -11.98 27.085 -13 27 C-16.00901366 22.48647951 -15.68271465 18.2893145 -15 13 C-12.36063576 5.35530757 -9.00885095 -1.15006608 0 0 Z " fill="#FEFBF9" transform="translate(633,567)"/>
<path d="M0 0 C1 1 1 1 1.0625 4.5625 C1.041875 5.696875 1.02125 6.83125 1 8 C1.42410156 7.4225 1.84820313 6.845 2.28515625 6.25 C7.135506 0.10977702 7.135506 0.10977702 11.9375 -0.5 C13.4534375 -0.2525 13.4534375 -0.2525 15 0 C15.33 0.99 15.66 1.98 16 3 C12.5682243 6.94018692 12.5682243 6.94018692 9.625 7.25 C5.91268867 8.31066038 4.59237776 10.3163794 2.4140625 13.421875 C0.24285186 17.38043583 -0.91502098 21.52067165 -2.12109375 25.85546875 C-3.18966559 29.67858134 -4.55179632 33.30708061 -6 37 C-7.98 37 -9.96 37 -12 37 C-11.74605469 35.93523438 -11.49210938 34.87046875 -11.23046875 33.7734375 C-9.03731731 24.53804688 -6.94373426 15.29163877 -5 6 C-6.98 6.33 -8.96 6.66 -11 7 C-8.89646294 0.85119935 -6.43894704 -0.41993133 0 0 Z " fill="#EF892D" transform="translate(1028,562)"/>
<path d="M0 0 C1.50013861 4.22766336 0.75499908 7.43292312 -0.7109375 11.515625 C-3.7237182 17.32207507 -8.58143841 22.3876256 -14 26 C-16.625 26.1875 -16.625 26.1875 -19 26 C-20 25 -20 25 -20.1875 21.875 C-19.80544313 13.97915793 -17.22225549 8.76786428 -12 3 C-8.0494348 -0.24148939 -5.03246487 -0.29602735 0 0 Z " fill="#FEFBF9" transform="translate(970,567)"/>
<path d="M0 0 C1.8871875 0.061875 1.8871875 0.061875 3.8125 0.125 C2.19173718 10.72393579 -1.48910493 18.50841006 -10.1875 25.125 C-12.7286182 26.0151092 -14.45935024 26.125 -17.1875 26.125 C-17.91599449 17.38306606 -15.67024805 11.9430176 -10.125 5.25 C-7.08582729 1.78356959 -4.73534946 -0.15525736 0 0 Z " fill="#FEFBF9" transform="translate(928.1875,566.875)"/>
<path d="M0 0 C1.98 0 3.96 0 6 0 C6.15078235 4.93920458 5.67770067 9.1974631 4.50390625 13.9921875 C4.19259766 15.27351562 3.88128906 16.55484375 3.56054688 17.875 C3.39675537 18.53113281 3.23296387 19.18726563 3.06420898 19.86328125 C2.55913022 21.88851193 2.06674737 23.91652497 1.57617188 25.9453125 C-0.85647741 35.85647741 -0.85647741 35.85647741 -2 37 C-3.99958364 37.04080783 -6.00045254 37.04254356 -8 37 C-7.28978435 29.1576187 -5.32355501 21.62400397 -3.4375 14 C-3.10440674 12.63942346 -2.771721 11.27874709 -2.43945312 9.91796875 C-1.63029564 6.61097729 -0.817033 3.30505287 0 0 Z " fill="#EF892D" transform="translate(756,562)"/>
<path d="M0 0 C1.4540625 0.0309375 1.4540625 0.0309375 2.9375 0.0625 C1.95913063 8.0646853 0.38038727 15.80805305 -1.5625 23.625 C-1.77608154 24.49350586 -1.98966309 25.36201172 -2.2097168 26.25683594 C-2.41894775 27.08086914 -2.62817871 27.90490234 -2.84375 28.75390625 C-3.03001953 29.48810791 -3.21628906 30.22230957 -3.40820312 30.97875977 C-4.08955307 33.14865595 -4.99299574 35.05887535 -6.0625 37.0625 C-8.0425 37.0625 -10.0225 37.0625 -12.0625 37.0625 C-11.79566406 35.86625 -11.52882813 34.67 -11.25390625 33.4375 C-10.35563279 29.39803944 -9.47118175 25.35568752 -8.58984375 21.3125 C-8.05996207 18.89581881 -7.53001288 16.47915242 -7 14.0625 C-6.73123047 12.82371094 -6.46246094 11.58492187 -6.18554688 10.30859375 C-5.92708984 9.13425781 -5.66863281 7.95992187 -5.40234375 6.75 C-5.16894287 5.68136719 -4.93554199 4.61273437 -4.69506836 3.51171875 C-3.77554239 -0.0485609 -3.80244351 0.07760089 0 0 Z " fill="#EF892D" transform="translate(693.0625,561.9375)"/>
<path d="M0 0 C3.375 0.6875 3.375 0.6875 4.375 1.6875 C4.77918441 5.81018097 4.56457243 8.27802356 2.8125 12.0625 C0.375 14.6875 0.375 14.6875 -3.1875 15.75 C-6.625 15.6875 -6.625 15.6875 -8.5625 14.625 C-10.11460556 11.79468985 -10.00731703 9.87347524 -9.625 6.6875 C-7.36172788 1.94540604 -5.55615118 -0.47897855 0 0 Z " fill="#FDF9F5" transform="translate(665.625,566.3125)"/>
<path d="M0 0 C2.57005181 2.57005181 2.57173288 4.25139178 3.125 7.8125 C3.29257812 8.85019531 3.46015625 9.88789062 3.6328125 10.95703125 C4 14 4 14 4 19 C-1.28 19 -6.56 19 -12 19 C-8.43628959 12.30454408 -4.44855646 6.14080272 0 0 Z " fill="#FEFAF6" transform="translate(383,558)"/>
<path d="M0 0 C1.73443359 0.00966797 1.73443359 0.00966797 3.50390625 0.01953125 C6.4375 0.1875 6.4375 0.1875 8.4375 1.1875 C8.23787128 4.78081694 7.65011372 5.98578955 5 8.5 C0.4500361 10.65524606 -3.5907223 10.95651597 -8.5625 10.1875 C-9.2225 9.5275 -9.8825 8.8675 -10.5625 8.1875 C-10.375 5.1875 -10.375 5.1875 -9.5625 2.1875 C-5.96639031 -0.20990646 -4.26157673 -0.05237692 0 0 Z " fill="#FEFCFA" transform="translate(659.5625,596.8125)"/>
<path d="M0 0 C0.8125 2.1875 0.8125 2.1875 1 5 C-1.07110606 8.03762222 -2.69176259 9.7007871 -6.33984375 10.53515625 C-8.56701885 10.78496578 -10.7600925 10.9463203 -13 11 C-13.33 11.99 -13.66 12.98 -14 14 C-15 11 -15 11 -13.9609375 8.84375 C-6.25287913 -2.54746927 -6.25287913 -2.54746927 0 0 Z " fill="#FDF5EE" transform="translate(895,567)"/>
<path d="M0 0 C0.8971875 0.309375 0.8971875 0.309375 1.8125 0.625 C2.625 2.8125 2.625 2.8125 2.8125 5.625 C0.74139394 8.66262222 -0.87926259 10.3257871 -4.52734375 11.16015625 C-6.75451885 11.40996578 -8.9475925 11.5713203 -11.1875 11.625 C-11.5175 12.615 -11.8475 13.605 -12.1875 14.625 C-12.5175 13.965 -12.8475 13.305 -13.1875 12.625 C-11.21338388 7.6897097 -6.22882235 -1.06779812 0 0 Z " fill="#FDF7F1" transform="translate(494.1875,566.375)"/>
<path d="M0 0 C-3.72626615 2.15273925 -7.73042832 3.06247949 -11.875 4.0625 C-12.56980469 4.23587891 -13.26460937 4.40925781 -13.98046875 4.58789062 C-17.96776318 5.56781892 -21.93708815 6.38228456 -26 7 C-24.94921875 4.58203125 -24.94921875 4.58203125 -23 2 C-19.70703125 1.07421875 -19.70703125 1.07421875 -15.8125 0.6875 C-15.14210693 0.61611816 -14.47171387 0.54473633 -13.78100586 0.47119141 C-9.1681499 0.00962641 -4.62864718 -0.18892437 0 0 Z " fill="#F9F37D" transform="translate(990,128)"/>
<path d="M0 0 C-2.24435445 1.03516348 -4.49406867 2.05314977 -6.75 3.0625 C-7.70132813 3.50432617 -7.70132813 3.50432617 -8.671875 3.95507812 C-13.45095438 6.07081639 -13.45095438 6.07081639 -16.453125 5.68359375 C-16.96359375 5.45800781 -17.4740625 5.23242188 -18 5 C-13.05425653 1.53797957 -5.9489102 -1.98297007 0 0 Z " fill="#F09B3D" transform="translate(814,171)"/>
</svg>
