<?xml version="1.0" encoding="UTF-8"?>
<svg version="1.1" xmlns="http://www.w3.org/2000/svg" width="293" height="292">
<path d="M0 0 C0.8223111 0.00054382 1.64462219 0.00108765 2.49185181 0.00164795 C15.09889134 0.04000779 26.90764241 0.79410835 39.0625 4.375 C39.78211914 4.56803711 40.50173828 4.76107422 41.24316406 4.95996094 C61.42327815 10.4099341 80.13436068 20.94856844 96.0625 34.375 C96.62001953 34.84292969 97.17753906 35.31085937 97.75195312 35.79296875 C105.02433539 41.98186141 111.32855604 48.73671699 117.0625 56.375 C117.78953125 57.33664063 118.5165625 58.29828125 119.265625 59.2890625 C130.37317769 74.62991324 137.96257274 91.1753961 143.0625 109.375 C143.28695801 110.14263672 143.51141602 110.91027344 143.74267578 111.70117188 C150.13049012 134.31099515 149.35628294 161.85820123 143.0625 184.375 C142.74104004 185.54023193 142.74104004 185.54023193 142.41308594 186.72900391 C135.77910699 209.99621245 123.36030123 230.63118313 107.0625 248.375 C106.42183594 249.09816406 105.78117188 249.82132813 105.12109375 250.56640625 C88.2737812 268.61979039 65.20439383 280.51105542 41.875 287.625 C40.66408691 287.99467896 40.66408691 287.99467896 39.42871094 288.37182617 C36.98351014 289.0886853 34.53220827 289.74790378 32.0625 290.375 C30.89642212 290.67301514 30.89642212 290.67301514 29.70678711 290.97705078 C21.12763179 292.84932281 12.44350827 292.74718822 3.7043457 292.74560547 C1.02944943 292.74995215 -1.64375634 292.78629509 -4.31835938 292.82421875 C-16.04540152 292.90105529 -26.63087858 291.45646915 -37.9375 288.375 C-39.33995972 287.99770752 -39.33995972 287.99770752 -40.77075195 287.61279297 C-42.89181088 287.00433122 -44.97609339 286.34243013 -47.0625 285.625 C-47.7956543 285.37532471 -48.52880859 285.12564941 -49.28417969 284.8684082 C-66.99492404 278.61251625 -82.75912146 268.59541198 -96.9375 256.375 C-97.66710937 255.76785156 -98.39671875 255.16070312 -99.1484375 254.53515625 C-125.39967626 232.35738557 -142.98723301 195.42755422 -145.9375 161.375 C-148.3542282 119.18455179 -136.68801271 80.51811651 -108.9375 48.375 C-87.4608677 24.39717699 -60.00836372 9.95239918 -28.9375 2.375 C-28.12514893 2.17632324 -27.31279785 1.97764648 -26.47583008 1.77294922 C-17.71903682 -0.09474384 -8.91241195 -0.02209883 0 0 Z " fill="#EE2E24" transform="translate(145.9375,-0.37499999999999994)"/>
<path d="M0 0 C0.8223111 0.00054382 1.64462219 0.00108765 2.49185181 0.00164795 C15.09889134 0.04000779 26.90764241 0.79410835 39.0625 4.375 C39.78211914 4.56803711 40.50173828 4.76107422 41.24316406 4.95996094 C61.42327815 10.4099341 80.13436068 20.94856844 96.0625 34.375 C96.62001953 34.84292969 97.17753906 35.31085937 97.75195312 35.79296875 C105.02433539 41.98186141 111.32855604 48.73671699 117.0625 56.375 C117.78953125 57.33664063 118.5165625 58.29828125 119.265625 59.2890625 C130.37317769 74.62991324 137.96257274 91.1753961 143.0625 109.375 C143.28695801 110.14263672 143.51141602 110.91027344 143.74267578 111.70117188 C150.13049012 134.31099515 149.35628294 161.85820123 143.0625 184.375 C142.74104004 185.54023193 142.74104004 185.54023193 142.41308594 186.72900391 C135.77910699 209.99621245 123.36030123 230.63118313 107.0625 248.375 C106.42183594 249.09816406 105.78117188 249.82132813 105.12109375 250.56640625 C88.2737812 268.61979039 65.20439383 280.51105542 41.875 287.625 C40.66408691 287.99467896 40.66408691 287.99467896 39.42871094 288.37182617 C36.98351014 289.0886853 34.53220827 289.74790378 32.0625 290.375 C30.89642212 290.67301514 30.89642212 290.67301514 29.70678711 290.97705078 C21.12763179 292.84932281 12.44350827 292.74718822 3.7043457 292.74560547 C1.02944943 292.74995215 -1.64375634 292.78629509 -4.31835938 292.82421875 C-16.04540152 292.90105529 -26.63087858 291.45646915 -37.9375 288.375 C-39.33995972 287.99770752 -39.33995972 287.99770752 -40.77075195 287.61279297 C-42.89181088 287.00433122 -44.97609339 286.34243013 -47.0625 285.625 C-47.7956543 285.37532471 -48.52880859 285.12564941 -49.28417969 284.8684082 C-66.99492404 278.61251625 -82.75912146 268.59541198 -96.9375 256.375 C-97.66710937 255.76785156 -98.39671875 255.16070312 -99.1484375 254.53515625 C-125.39967626 232.35738557 -142.98723301 195.42755422 -145.9375 161.375 C-148.3542282 119.18455179 -136.68801271 80.51811651 -108.9375 48.375 C-87.4608677 24.39717699 -60.00836372 9.95239918 -28.9375 2.375 C-28.12514893 2.17632324 -27.31279785 1.97764648 -26.47583008 1.77294922 C-17.71903682 -0.09474384 -8.91241195 -0.02209883 0 0 Z M-35.9375 9.375 C-36.60201172 9.55691895 -37.26652344 9.73883789 -37.95117188 9.92626953 C-52.46143748 14.01413137 -66.64026715 20.66370545 -78.9375 29.375 C-79.92621094 30.06722656 -80.91492188 30.75945313 -81.93359375 31.47265625 C-108.68827592 51.08839018 -129.2131307 79.39730803 -136.625 112 C-136.83705078 112.88945313 -137.04910156 113.77890625 -137.26757812 114.6953125 C-145.51381765 150.07350098 -139.61184756 188.08321993 -121.07519531 219.2277832 C-116.85377786 225.98841754 -112.18021688 232.36812328 -106.9375 238.375 C-106.09445313 239.35082031 -105.25140625 240.32664063 -104.3828125 241.33203125 C-87.98052386 259.97407256 -66.79084525 273.23002021 -43.375 281.1875 C-42.56144043 281.46553467 -41.74788086 281.74356934 -40.90966797 282.0300293 C-27.7299557 286.29894616 -15.064553 287.92980155 -1.3125 287.8125 C-0.57448151 287.81012329 0.16353699 287.80774658 0.92391968 287.80529785 C13.3229942 287.74307919 25.04490632 286.58121842 37.0625 283.375 C38.22523438 283.08625 39.38796875 282.7975 40.5859375 282.5 C62.46931791 276.44829974 81.51085941 264.66476202 98.0625 249.375 C99.38507813 248.17617188 99.38507813 248.17617188 100.734375 246.953125 C127.94257441 221.13133066 141.3722005 184.53447082 142.58374023 147.57836914 C142.97611092 116.52072005 132.74979839 84.61111965 113.0625 60.375 C112.65950684 59.86807617 112.25651367 59.36115234 111.84130859 58.83886719 C87.09901242 27.81561956 53.16773823 10.41183889 14.0625 5.375 C-2.86928278 4.44749395 -19.54110768 4.76871896 -35.9375 9.375 Z " fill="#FEFAFA" transform="translate(145.9375,-0.37499999999999994)"/>
<path d="M0 0 C2.5 0.9375 2.5 0.9375 4.375 3.0625 C6.72166459 9.05953173 3.93245842 14.89250515 1.625 20.5625 C-1.13693762 27.59528796 -3.04986072 34.50871634 -4.5 41.9375 C-2.58574219 41.68613281 -2.58574219 41.68613281 -0.6328125 41.4296875 C1.03638719 41.22338192 2.70566209 41.01768417 4.375 40.8125 C5.21675781 40.70035156 6.05851562 40.58820313 6.92578125 40.47265625 C8.13427734 40.32763672 8.13427734 40.32763672 9.3671875 40.1796875 C10.48262939 40.03829346 10.48262939 40.03829346 11.62060547 39.89404297 C13.5 39.9375 13.5 39.9375 15.5 41.9375 C15.24006913 47.34939406 13.49502258 51.50799333 10.9375 56.1875 C8.32393396 60.78665401 8.32393396 60.78665401 7.5 65.9375 C14.82461099 58.56711019 19.58413126 49.81011414 24.171875 40.5703125 C25.5 37.9375 25.5 37.9375 26.5 36.9375 C29.4375 36.6875 29.4375 36.6875 32.5 36.9375 C33.16 37.9275 33.82 38.9175 34.5 39.9375 C35.221875 39.256875 35.94375 38.57625 36.6875 37.875 C39.5 35.9375 39.5 35.9375 42.1875 36.0625 C44.5 36.9375 44.5 36.9375 46.5 38.9375 C46.4453125 41.44921875 46.4453125 41.44921875 45.5 43.9375 C43.2421875 45.01953125 43.2421875 45.01953125 40.375 45.75 C34.19287029 47.77600883 30.92087845 50.41764914 27.5 55.9375 C25.05558408 60.90455316 23.13581846 65.9814912 21.42578125 71.2421875 C20.5 73.9375 20.5 73.9375 19.5 74.9375 C17.50041636 74.97830783 15.49954746 74.98004356 13.5 74.9375 C12.84 73.2875 12.18 71.6375 11.5 69.9375 C11.09007813 70.43121094 10.68015625 70.92492187 10.2578125 71.43359375 C9.44957031 72.39458984 9.44957031 72.39458984 8.625 73.375 C7.82449219 74.33212891 7.82449219 74.33212891 7.0078125 75.30859375 C4.77572543 77.71994169 3.77077513 77.92644795 0.4375 78.0625 C-2.5 77.9375 -2.5 77.9375 -3.5 76.9375 C-4.64424278 65.84714691 -0.51163741 57.55442585 4.5 47.9375 C0.87 48.9275 -2.76 49.9175 -6.5 50.9375 C-8.93009817 63.85732424 -8.93009817 63.85732424 -10.19140625 76.93359375 C-10.5 78.9375 -10.5 78.9375 -12.5 80.9375 C-15.5 81.25 -15.5 81.25 -18.5 80.9375 C-23.4258116 73.5487826 -20.08428319 62.16531036 -18.5 53.9375 C-23.86048362 54.4951342 -28.83027067 55.03391163 -32.51855469 59.23876953 C-34.19584673 62.26468799 -35.56627494 65.29741463 -36.875 68.5 C-37.3704834 69.61576416 -37.8659668 70.73152832 -38.37646484 71.88110352 C-41.8997426 79.97814569 -44.89461063 88.22342318 -47.4140625 96.68359375 C-48.5 99.9375 -48.5 99.9375 -50.5 101.9375 C-53.22825177 101.72763448 -55.01896341 101.2526619 -57.3125 99.75 C-59.06263519 97.07874103 -58.71140602 95.0929657 -58.5 91.9375 C-57.5378418 89.04077148 -57.5378418 89.04077148 -56.19921875 86.05859375 C-55.71646484 84.97255859 -55.23371094 83.88652344 -54.73632812 82.76757812 C-53.9696582 81.08825195 -53.9696582 81.08825195 -53.1875 79.375 C-52.68798828 78.25158203 -52.18847656 77.12816406 -51.67382812 75.97070312 C-49.49849783 71.12158936 -47.31002554 66.45631789 -44.5 61.9375 C-45.49580078 62.47890625 -45.49580078 62.47890625 -46.51171875 63.03125 C-47.39472656 63.4953125 -48.27773438 63.959375 -49.1875 64.4375 C-50.49267578 65.13359375 -50.49267578 65.13359375 -51.82421875 65.84375 C-54.63520776 66.9927674 -56.49658425 67.23205566 -59.5 66.9375 C-60.5 65.9375 -60.5 65.9375 -60.875 62.5625 C-60.75125 61.36625 -60.6275 60.17 -60.5 58.9375 C-57.68442393 56.71613821 -54.8234871 55.6822652 -51.42578125 54.7109375 C-43.51731912 52.39653674 -37.50383979 50.2519047 -33.07470703 42.97973633 C-31.48422559 40.02371944 -29.97723695 37.03778423 -28.53076172 34.00878906 C-24.45534296 25.81934029 -10.31395912 -0.25784898 0 0 Z " fill="#FEF8F8" transform="translate(90.5,92.0625)"/>
<path d="M0 0 C2.90848258 0.22961705 4.58293802 0.66635042 6.875 2.5 C9.07082771 7.37961714 7.66950641 12.12090208 5.94921875 16.94921875 C5.0900401 19.11179534 4.22115241 21.27053405 3.34375 23.42578125 C1.06668768 29.48250225 -0.44603997 35.72339048 -2 42 C0.64 42 3.28 42 6 42 C6.495 43.98 6.495 43.98 7 46 C3.62383859 48.97102204 0.29622225 49.84698819 -4 51 C-4.11593506 51.87325928 -4.23187012 52.74651855 -4.35131836 53.64624023 C-4.78218748 56.876359 -5.2168239 60.10594152 -5.65405273 63.33520508 C-5.84274864 64.73474037 -6.02992769 66.13448103 -6.21557617 67.53442383 C-6.48220272 69.54301046 -6.75468276 71.55081738 -7.02734375 73.55859375 C-7.18968506 74.76829834 -7.35202637 75.97800293 -7.51928711 77.22436523 C-8 80 -8 80 -9 81 C-11.9375 81.1875 -11.9375 81.1875 -15 81 C-17 79 -17 79 -17.23046875 75.875 C-17.21628906 74.59625 -17.20210937 73.3175 -17.1875 72 C-17.18105469 71.33025146 -17.17460937 70.66050293 -17.16796875 69.97045898 C-17.08569384 64.60780639 -16.70036445 59.31526589 -16 54 C-20.19775617 54.1176941 -23.33835616 54.91305273 -27 57 C-34.50754887 65.76072318 -38.19836083 78.92403205 -42.2734375 89.5390625 C-46.60332592 100.76967311 -46.60332592 100.76967311 -48.9375 102.125 C-51 102 -51 102 -53.25 101.0625 C-55.42807875 98.49547862 -55.40475429 96.66434108 -55.32958984 93.36938477 C-54.68582841 88.74145536 -52.62689802 84.65005291 -50.6875 80.4375 C-50.28337891 79.53064453 -49.87925781 78.62378906 -49.46289062 77.68945312 C-48.67803449 75.92958872 -47.88773325 74.17213988 -47.09130859 72.41748047 C-45.68249476 69.2966584 -44.33623598 66.15247907 -43 63 C-43.51949219 63.28875 -44.03898438 63.5775 -44.57421875 63.875 C-51.67532148 67.65525432 -51.67532148 67.65525432 -56 67 C-57 66 -57 66 -57.4375 62.6875 C-57 59 -57 59 -54.4375 56.87890625 C-50.77858645 54.87897736 -47.61225363 54.1798528 -43.5625 53.25 C-31.82916171 49.65988766 -27.2423895 37.88799602 -21.6484375 27.87792969 C-15.78558659 17.64225336 -8.33223031 8.33223031 0 0 Z " fill="#FEF9F8" transform="translate(187,92)"/>
<path d="M0 0 C2.25 2.375 2.25 2.375 4 5 C4.99 5.66 5.98 6.32 7 7 C6.28503604 11.61476736 4.5467397 14.77166235 2.15625 18.71875 C0.92264714 21.15261511 0.4160801 23.31439206 0 26 C4.20013757 22.68658464 4.20013757 22.68658464 7.6875 18.6875 C8.120625 18.130625 8.55375 17.57375 9 17 C9.99 17 10.98 17 12 17 C11.59332557 23.50679094 6.65404061 28.67921637 2.0625 32.9375 C-1.40008297 35.26944363 -3.87048051 35.75222883 -8 36 C-8.66 34.68 -9.32 33.36 -10 32 C-10.49628906 32.433125 -10.99257812 32.86625 -11.50390625 33.3125 C-14.97160741 36.15509374 -17.26835709 37.86586547 -21.75 38.6875 C-25 38 -25 38 -27.4375 35.5 C-27.953125 34.675 -28.46875 33.85 -29 33 C-29.56847656 33.6496875 -30.13695312 34.299375 -30.72265625 34.96875 C-36.92604365 41.67959313 -36.92604365 41.67959313 -40.12109375 42.6328125 C-44.38491649 42.61508351 -44.38491649 42.61508351 -46 41 C-47.17322122 32.8544927 -44.69345442 27.10209022 -41 20 C-40.38994881 18.75550893 -39.78333819 17.50932699 -39.1796875 16.26171875 C-34.34691119 6.34691119 -34.34691119 6.34691119 -32 4 C-29.5 3.75 -29.5 3.75 -27 4 C-26.34 4.66 -25.68 5.32 -25 6 C-25.19832868 11.52841205 -27.74812615 15.5655447 -30.5 20.1875 C-31.32513449 21.59635967 -32.14814109 23.00646831 -32.96875 24.41796875 C-33.33419922 25.03438232 -33.69964844 25.6507959 -34.07617188 26.28588867 C-35.14742275 28.15607219 -35.14742275 28.15607219 -36 31 C-31.32311513 27.68147507 -28.31719178 23.71350131 -25 19.125 C-9.68427569 -1.82722183 -9.68427569 -1.82722183 0 0 Z " fill="#FEF8F8" transform="translate(256,123)"/>
<path d="M0 0 C0.86882812 0.00386719 1.73765625 0.00773438 2.6328125 0.01171875 C4.875 0.3125 4.875 0.3125 6.875 2.3125 C7.1875 4.75 7.1875 4.75 6.875 7.3125 C5.375 9.125 5.375 9.125 3.875 10.3125 C2.885 9.9825 1.895 9.6525 0.875 9.3125 C0.545 8.6525 0.215 7.9925 -0.125 7.3125 C-1.775 7.6425 -3.425 7.9725 -5.125 8.3125 C-5.46339925 12.54249061 -5.55600356 14.67946352 -3.125 18.25 C-1.06656443 21.40197946 -0.40958995 23.50542083 -0.60546875 27.28515625 C-1.82142691 32.03013583 -5.39515228 35.23718925 -9.4375 37.75 C-14.49997163 38.80958709 -19.18383394 39.46795599 -23.75 36.75 C-25.69978576 33.29356161 -25.03384635 31.08770793 -24.125 27.3125 C-23.795 26.6525 -23.465 25.9925 -23.125 25.3125 C-20.64671717 25.73979014 -19.39547878 26.03075127 -17.625 27.875 C-15.98994057 29.77377024 -15.98994057 29.77377024 -12.125 29.3125 C-12.54379821 26.79971072 -12.93622323 24.66956613 -14.1328125 22.40625 C-15.86873618 18.74304098 -15.87593679 15.26139175 -15.125 11.3125 C-11.79760328 5.06822953 -7.43068263 -0.14417742 0 0 Z " fill="#FEF7F6" transform="translate(208.125,130.6875)"/>
<path d="M0 0 C2.5625 0.25 2.5625 0.25 5 1 C5.33 1.66 5.66 2.32 6 3 C6.598125 2.67 7.19625 2.34 7.8125 2 C10 1 10 1 13 1 C12.38983103 4.80498627 11.24839488 7.85566509 9.5625 11.3125 C7.4315595 15.85768522 6.01839826 20.09317203 5 25 C4.01 25 3.02 25 2 25 C2.04640625 24.34773438 2.0928125 23.69546875 2.140625 23.0234375 C2.39568208 16.84741238 1.64159523 14.12099329 -2 9 C-2.375 5.25 -2.375 5.25 -2 2 C-1.34 1.34 -0.68 0.68 0 0 Z " fill="#ED2920" transform="translate(204,137)"/>
<path d="M0 0 C0.66 0.33 1.32 0.66 2 1 C1.68546875 1.77601562 1.3709375 2.55203125 1.046875 3.3515625 C-2.17063576 11.47286978 -4.73477448 19.55918759 -7 28 C-11.95 28.495 -11.95 28.495 -17 29 C-11.75175223 19.0708826 -5.90812961 9.54669208 0 0 Z " fill="#ED2A22" transform="translate(182,109)"/>
<path d="M0 0 C1 2 1 2 0.36328125 4.109375 C0.01652344 4.98078125 -0.33023438 5.8521875 -0.6875 6.75 C-2.90193466 12.43672847 -4.296033 18.16892454 -5.58203125 24.12890625 C-7 27 -7 27 -10.44921875 28.40234375 C-14 29 -14 29 -17 29 C-15.26629783 23.93147072 -12.43223131 19.58731363 -9.625 15.0625 C-9.14289063 14.27681641 -8.66078125 13.49113281 -8.1640625 12.68164062 C-5.52446768 8.39588544 -2.82280932 4.16732277 0 0 Z " fill="#ED261E" transform="translate(83,109)"/>
<path d="M0 0 C-0.98082796 8.02388176 -5.25805749 16.25805749 -11 22 C-13.25 22.8125 -13.25 22.8125 -15 23 C-14.26195478 16.48383763 -8.22859467 0 0 0 Z " fill="#ED261E" transform="translate(253,130)"/>
<path d="M0 0 C1 1 1 1 1.25 3.875 C1 7 1 7 -0.125 8.8125 C-2.73088847 10.46289603 -4.9427079 10.8048537 -8 11 C-10 9 -10 9 -10.375 6.625 C-10 4 -10 4 -8.375 1.6875 C-5.3770462 -0.44262507 -3.60277895 -0.40030877 0 0 Z " fill="#FEF6F5" transform="translate(113,115)"/>
<path d="M0 0 C0.66 0.66 1.32 1.32 2 2 C1.85362273 5.43986596 1.58459664 7.35276801 -0.75 9.9375 C-3.61024392 11.28817074 -5.03539493 10.96149354 -8 10 C-9 9 -9 9 -9.25 6.125 C-9 3 -9 3 -7.875 1.125 C-5.15781176 -0.50531294 -3.10347254 -0.33015665 0 0 Z " fill="#FEF5F4" transform="translate(236,111)"/>
<path d="M0 0 C0.33 0.66 0.66 1.32 1 2 C1.66 2 2.32 2 3 2 C2.67 4.97 2.34 7.94 2 11 C1.01 11 0.02 11 -1 11 C-0.67 7.37 -0.34 3.74 0 0 Z " fill="#EC160D" transform="translate(207,151)"/>
<path d="M0 0 C1 2 1 2 0.22265625 4.6015625 C-0.16019531 5.59929687 -0.54304688 6.59703125 -0.9375 7.625 C-1.31777344 8.62789062 -1.69804688 9.63078125 -2.08984375 10.6640625 C-2.39019531 11.43492188 -2.69054687 12.20578125 -3 13 C-3.99 12.01 -4.98 11.02 -6 10 C-4.02 6.7 -2.04 3.4 0 0 Z " fill="#ED2B23" transform="translate(83,109)"/>
<path d="M0 0 C2.27477677 3.53854164 1.99082706 5.70947373 1.125 9.75 C0.92132813 10.73484375 0.71765625 11.7196875 0.5078125 12.734375 C0.34023437 13.48203125 0.17265625 14.2296875 0 15 C-0.33 15 -0.66 15 -1 15 C-1.02703381 13.06257659 -1.04641125 11.12504521 -1.0625 9.1875 C-1.07410156 8.10855469 -1.08570313 7.02960938 -1.09765625 5.91796875 C-1 3 -1 3 0 0 Z " fill="#EC1A10" transform="translate(181,155)"/>
<path d="M0 0 C-1.75 4.875 -1.75 4.875 -4 6 C-4 5.01 -4 4.02 -4 3 C-4.99 2.67 -5.98 2.34 -7 2 C-4 0 -4 0 0 0 Z " fill="#EE3830" transform="translate(95,140)"/>
<path d="M0 0 C0.66 0 1.32 0 2 0 C2.0825 0.61875 2.165 1.2375 2.25 1.875 C2.81258459 4.18437567 2.81258459 4.18437567 5.0625 5.25 C5.701875 5.4975 6.34125 5.745 7 6 C4.69 6 2.38 6 0 6 C0 4.02 0 2.04 0 0 Z " fill="#EF4038" transform="translate(86,128)"/>
</svg>
