<?xml version="1.0" encoding="UTF-8"?>
<svg version="1.1" xmlns="http://www.w3.org/2000/svg" width="300" height="118">
<path d="M0 0 C99 0 198 0 300 0 C300 38.94 300 77.88 300 118 C201 118 102 118 0 118 C0 79.06 0 40.12 0 0 Z " fill="#FEFDFD" transform="translate(0,0)"/>
<path d="M0 0 C2 1 2 1 3 3 C4.99145391 4.01691264 6.99187074 5.01642648 9 6 C11.45553446 8.45553446 11.40630497 9.34394066 11.5625 12.75 C11.18016959 26.7323691 1.26102872 37.24109146 -8.27832031 46.42626953 C-12.69080439 50.45957531 -17.29731679 54.0991056 -23 56 C-23 55.01 -23 54.02 -23 53 C-23.7425 52.773125 -24.485 52.54625 -25.25 52.3125 C-28.73058231 50.65131299 -30.07222253 49.35576078 -32 46 C-33.88454161 38.1396897 -29.96729261 31.55656544 -26 25 C-19.12291441 14.73349365 -10.31904282 6.69983782 0 0 Z " fill="#FDFBFA" transform="translate(200,28)"/>
<path d="M0 0 C4.45736671 0.0964798 7.49485986 0.74801405 11.25 3.3125 C15.27992064 7.56576564 14.91565233 11.82717213 14.79296875 17.44140625 C12.47579846 33.96166351 -1.90483363 48.2451406 -14.32421875 58.421875 C-26.07334679 66.97357528 -38.93672157 73.23309194 -53.75 71.3125 C-57.0320623 69.69846936 -59.09316614 67.62616772 -60.75 64.3125 C-60.87283119 61.98156388 -60.92554232 59.64663961 -60.9375 57.3125 C-60.95167969 56.054375 -60.96585938 54.79625 -60.98046875 53.5 C-60.75 50.3125 -60.75 50.3125 -58.75 48.3125 C-58.64042969 48.93898437 -58.53085938 49.56546875 -58.41796875 50.2109375 C-58.25941406 51.02820313 -58.10085937 51.84546875 -57.9375 52.6875 C-57.78667969 53.49960938 -57.63585937 54.31171875 -57.48046875 55.1484375 C-56.87455058 57.67070641 -56.87455058 57.67070641 -53.75 59.3125 C-43.21257356 61.02957635 -34.20865337 56.82523442 -25.625 51.0625 C-13.83602335 42.31523047 -2.11039617 31.80026792 2.25 17.3125 C2.79493722 13.56545381 3.15612904 10.01200616 2.25 6.3125 C-0.56724552 3.63700268 -2.92740305 2.84341624 -6.75 2.3125 C-4.26997407 -0.16752593 -3.42167487 0.01555307 0 0 Z " fill="#D06309" transform="translate(207.75,29.6875)"/>
<path d="M0 0 C5.35640582 4.7031856 5.35640582 4.7031856 5.92578125 8.9765625 C5.90064453 10.41128906 5.90064453 10.41128906 5.875 11.875 C5.87113281 12.83664063 5.86726563 13.79828125 5.86328125 14.7890625 C5.5625 17.25 5.5625 17.25 3.5625 19.25 C2.9746875 17.579375 2.9746875 17.579375 2.375 15.875 C1.22758236 13.23327101 0.80667355 12.40599977 -1.6875 10.8125 C-12.00156836 8.7028042 -20.37655393 13.22199594 -29.0625 18.5 C-41.65652336 26.85966918 -53.55165058 38.59245173 -58.4375 53.25 C-58.95779311 57.8046971 -59.07094014 61.18672548 -56.6875 65.1875 C-54.62051685 67.08223455 -52.94109737 68.07709619 -50.4375 69.25 C-52.49882142 69.35864945 -54.56181321 69.43588321 -56.625 69.5 C-58.34783203 69.56960937 -58.34783203 69.56960937 -60.10546875 69.640625 C-64.12349772 69.16957823 -65.62592362 68.10652165 -68.4375 65.25 C-71.48792045 60.68361303 -70.98681358 55.52481889 -70.4375 50.25 C-66.05384241 32.35468894 -49.69737689 16.42346415 -34.44702148 7.0559082 C-24.45792769 1.20289011 -11.43983353 -5.82391525 0 0 Z " fill="#CE182F" transform="translate(227.4375,11.75)"/>
<path d="M0 0 C9.6402439 -0.56707317 9.6402439 -0.56707317 14 3 C16.03120707 6.04681061 16.24659875 6.60118324 16.1953125 10.01171875 C16.18886719 10.76904297 16.18242187 11.52636719 16.17578125 12.30664062 C16.15902344 13.09232422 16.14226562 13.87800781 16.125 14.6875 C16.11597656 15.48478516 16.10695313 16.28207031 16.09765625 17.10351562 C16.07411585 19.069139 16.03824547 21.03460775 16 23 C4.192413 23.85977575 4.192413 23.85977575 0.25 20.8125 C-2 18 -2 18 -2.75 15.5 C-1.8421976 12.47399198 -0.36462636 10.84941492 2.1328125 8.9375 C5.44444658 7.27475485 8.36181001 7.68636293 12 8 C11.67 7.01 11.34 6.02 11 5 C8.70370006 3.85185003 6.92301914 3.69230191 4.375 3.4375 C3.55773437 3.35371094 2.74046875 3.26992188 1.8984375 3.18359375 C1.27195313 3.12300781 0.64546875 3.06242187 0 3 C0 2.01 0 1.02 0 0 Z " fill="#D77B30" transform="translate(249,42)"/>
<path d="M0 0 C1.32 0 2.64 0 4 0 C4 1.65 4 3.3 4 5 C6.64 5 9.28 5 12 5 C12 5.99 12 6.98 12 8 C9.36 8 6.72 8 4 8 C4.33 13.28 4.66 18.56 5 24 C7.79173055 24.02690104 10.58320348 24.04679053 13.375 24.0625 C14.56609375 24.07506836 14.56609375 24.07506836 15.78125 24.08789062 C20.02392222 24.23040151 20.02392222 24.23040151 24 23 C24.03525132 21.11341126 24.03525132 21.11341126 23 19 C21.20305842 18.03735273 19.40493967 17.07640065 17.58984375 16.1484375 C16 15 16 15 15.0625 11.75 C15.041875 10.8425 15.02125 9.935 15 9 C17.21368294 6.78631706 18.93016625 5.13447079 22.11328125 4.734375 C24.07746787 4.74833014 26.0402625 4.86713644 28 5 C28 5.99 28 6.98 28 8 C25.36 8.33 22.72 8.66 20 9 C20 10.32 20 11.64 20 13 C21.76363513 14.36049559 21.76363513 14.36049559 24 15.375 C26.203125 16.640625 26.203125 16.640625 28 18 C28.75 21.125 28.75 21.125 28 24 C23.82969833 28.17030167 19.28002056 28.20695443 13.625 28.3125 C11.66433594 28.36857422 11.66433594 28.36857422 9.6640625 28.42578125 C5.48638393 27.9403154 3.92335431 26.95072654 1 24 C-0.25248502 21.49502996 -0.11374406 19.79146726 -0.09765625 16.9921875 C-0.09443359 16.00605469 -0.09121094 15.01992188 -0.08789062 14.00390625 C-0.07951172 12.97136719 -0.07113281 11.93882813 -0.0625 10.875 C-0.05798828 9.83472656 -0.05347656 8.79445313 -0.04882812 7.72265625 C-0.03701952 5.14838038 -0.02055075 2.57421854 0 0 Z " fill="#D57427" transform="translate(268,37)"/>
<path d="M0 0 C0.98291016 0.00644531 1.96582031 0.01289062 2.97851562 0.01953125 C4.00267578 0.03628906 5.02683594 0.05304687 6.08203125 0.0703125 C7.11779297 0.07933594 8.15355469 0.08835938 9.22070312 0.09765625 C11.7788781 0.1212339 14.33658873 0.1541422 16.89453125 0.1953125 C17.22453125 1.1853125 17.55453125 2.1753125 17.89453125 3.1953125 C17.11078125 3.7728125 16.32703125 4.3503125 15.51953125 4.9453125 C12.58630889 7.16499555 12.58630889 7.16499555 10.89453125 11.1953125 C6.60453125 11.1953125 2.31453125 11.1953125 -2.10546875 11.1953125 C-2.10546875 10.5353125 -2.10546875 9.8753125 -2.10546875 9.1953125 C3.64453125 9.0703125 3.64453125 9.0703125 5.89453125 10.1953125 C5.89453125 9.5353125 5.89453125 8.8753125 5.89453125 8.1953125 C3.91453125 8.1953125 1.93453125 8.1953125 -0.10546875 8.1953125 C-0.10546875 7.2053125 -0.10546875 6.2153125 -0.10546875 5.1953125 C-0.76546875 4.8653125 -1.42546875 4.5353125 -2.10546875 4.1953125 C-2.41484375 4.9790625 -2.72421875 5.7628125 -3.04296875 6.5703125 C-4.10546875 9.1953125 -4.10546875 9.1953125 -5.10546875 11.1953125 C-7.08546875 11.1953125 -9.06546875 11.1953125 -11.10546875 11.1953125 C-10.79609375 10.4528125 -10.48671875 9.7103125 -10.16796875 8.9453125 C-9.06783332 6.33030632 -9.06783332 6.33030632 -8.66796875 4.0078125 C-7.35082653 -0.23631242 -3.74464545 -0.0432907 0 0 Z " fill="#CF182E" transform="translate(107.10546875,37.8046875)"/>
<path d="M0 0 C9.57 0 19.14 0 29 0 C27.02 2.97 25.04 5.94 23 9 C19.625 9.5625 19.625 9.5625 17 9 C18.12451727 6.0280615 19.22293791 3.66559313 21 1 C17.5935305 2.13548983 17.38485019 2.63925891 15.625 5.5625 C14.33984375 7.4765625 14.33984375 7.4765625 13 9 C10.1875 9.4375 10.1875 9.4375 8 9 C8 8.34 8 7.68 8 7 C3.38 7 -1.24 7 -6 7 C-5.67 5.68 -5.34 4.36 -5 3 C-2.36 3 0.28 3 3 3 C3 2.34 3 1.68 3 1 C2.01 0.67 1.02 0.34 0 0 Z " fill="#D1273C" transform="translate(129,40)"/>
<path d="M0 0 C5.94 0 11.88 0 18 0 C16.64843385 6.75783076 16.64843385 6.75783076 14 9 C10.92501301 9.4944859 7.91650755 9.37483248 4.8125 9.25 C3.96751953 9.23195313 3.12253906 9.21390625 2.25195312 9.1953125 C0.16748427 9.14820586 -1.91640144 9.07646233 -4 9 C-2.79310745 5.89656201 -1.49403054 2.98806107 0 0 Z " fill="#D1253A" transform="translate(102,55)"/>
<path d="M0 0 C0.73798828 0.03351562 1.47597656 0.06703125 2.23632812 0.1015625 C2.98591797 0.11960938 3.73550781 0.13765625 4.5078125 0.15625 C6.35536523 0.20332141 8.20225971 0.27506484 10.04882812 0.3515625 C10.37882812 1.0115625 10.70882812 1.6715625 11.04882812 2.3515625 C10.55382812 2.9496875 10.05882813 3.5478125 9.54882812 4.1640625 C7.76606395 6.32186244 7.76606395 6.32186244 8.04882812 9.3515625 C1.99414063 9.546875 1.99414063 9.546875 0.04882812 9.3515625 C-0.61117187 8.6915625 -1.27117188 8.0315625 -1.95117188 7.3515625 C-2.28117187 8.0115625 -2.61117187 8.6715625 -2.95117188 9.3515625 C-5.59117188 9.3515625 -8.23117188 9.3515625 -10.95117188 9.3515625 C-8.61898261 2.89319222 -7.431654 -0.13450957 0 0 Z " fill="#D01E33" transform="translate(49.951171875,54.6484375)"/>
<path d="M0 0 C6.0546875 -0.1953125 6.0546875 -0.1953125 8 0 C8.66 0.66 9.32 1.32 10 2 C10.66 1.34 11.32 0.68 12 0 C15.125 -0.125 15.125 -0.125 18 0 C15.63636364 6.54545455 15.63636364 6.54545455 13 9 C9.3125 9.25 9.3125 9.25 6 9 C5.67 8.01 5.34 7.02 5 6 C4.34 6 3.68 6 3 6 C2.67 6.99 2.34 7.98 2 9 C-0.31 9 -2.62 9 -5 9 C-3.35 6.03 -1.7 3.06 0 0 Z " fill="#CF1B31" transform="translate(81,55)"/>
<path d="M0 0 C1.27617187 0.02320313 2.55234375 0.04640625 3.8671875 0.0703125 C5.78917969 0.09738281 5.78917969 0.09738281 7.75 0.125 C9.23113281 0.15980469 9.23113281 0.15980469 10.7421875 0.1953125 C9.7521875 3.1653125 8.7621875 6.1353125 7.7421875 9.1953125 C1.8021875 9.1953125 -4.1378125 9.1953125 -10.2578125 9.1953125 C-10.2578125 7.1953125 -10.2578125 7.1953125 -7.8828125 4.6953125 C-7.0165625 3.8703125 -6.1503125 3.0453125 -5.2578125 2.1953125 C-3.2578125 0.1953125 -3.2578125 0.1953125 0 0 Z " fill="#D22A3F" transform="translate(18.2578125,54.8046875)"/>
<path d="M0 0 C0 0.99 0 1.98 0 3 C-2.64 3.33 -5.28 3.66 -8 4 C-8 5.32 -8 6.64 -8 8 C-6.23636487 9.36049559 -6.23636487 9.36049559 -4 10.375 C-1.796875 11.640625 -1.796875 11.640625 0 13 C0.75 16.125 0.75 16.125 0 19 C-2.57681442 21.80688713 -4.03042458 22.00229101 -7.890625 22.29296875 C-9.34404009 22.27314945 -10.79731167 22.23754845 -12.25 22.1875 C-12.99507813 22.17396484 -13.74015625 22.16042969 -14.5078125 22.14648438 C-16.33885416 22.11127204 -18.16952169 22.05746851 -20 22 C-20 21.34 -20 20.68 -20 20 C-19.01257813 19.93941406 -18.02515625 19.87882812 -17.0078125 19.81640625 C-15.72648437 19.73261719 -14.44515625 19.64882813 -13.125 19.5625 C-11.84882813 19.48128906 -10.57265625 19.40007813 -9.2578125 19.31640625 C-6.11699848 19.20793973 -6.11699848 19.20793973 -4 18 C-3.96474868 16.11341126 -3.96474868 16.11341126 -5 14 C-6.79694158 13.03735273 -8.59506033 12.07640065 -10.41015625 11.1484375 C-12 10 -12 10 -12.9375 6.75 C-12.958125 5.8425 -12.97875 4.935 -13 4 C-8.62340682 -0.37659318 -5.88808394 -0.39919213 0 0 Z " fill="#D06009" transform="translate(296,42)"/>
<path d="M0 0 C1.77503906 0.03480469 1.77503906 0.03480469 3.5859375 0.0703125 C5.36871094 0.09738281 5.36871094 0.09738281 7.1875 0.125 C8.10273438 0.14820313 9.01796875 0.17140625 9.9609375 0.1953125 C9.4629538 3.93019027 9.08601994 6.00768885 6.9609375 9.1953125 C5.08154297 9.53588867 5.08154297 9.53588867 2.828125 9.48828125 C2.02246094 9.47861328 1.21679688 9.46894531 0.38671875 9.45898438 C-0.45503906 9.43384766 -1.29679688 9.40871094 -2.1640625 9.3828125 C-3.01355469 9.36927734 -3.86304688 9.35574219 -4.73828125 9.34179688 C-6.83881087 9.30639469 -8.93901543 9.25258651 -11.0390625 9.1953125 C-3.3917015 0.21797567 -3.3917015 0.21797567 0 0 Z " fill="#D22B40" transform="translate(140.0390625,54.8046875)"/>
<path d="M0 0 C6.27 0 12.54 0 19 0 C18.01 0.495 18.01 0.495 17 1 C16.29788106 2.65204456 15.63028587 4.31923769 15 6 C14 7 14 7 10.4375 7.0625 C9.303125 7.041875 8.16875 7.02125 7 7 C7.99 5.02 8.98 3.04 10 1 C7.47411298 3.36292656 6.11179163 4.66462511 5 8 C7.97 8 10.94 8 14 8 C14 8.66 14 9.32 14 10 C8.72 9.67 3.44 9.34 -2 9 C-1.39729952 5.98649762 -0.74535599 2.98142397 0 0 Z " fill="#D01E34" transform="translate(18,40)"/>
<path d="M0 0 C0 0.99 0 1.98 0 3 C-2.64 3.33 -5.28 3.66 -8 4 C-8 5.32 -8 6.64 -8 8 C-6.23636487 9.36049559 -6.23636487 9.36049559 -4 10.375 C-1.796875 11.640625 -1.796875 11.640625 0 13 C0.75 16.125 0.75 16.125 0 19 C-1.4375 20.875 -1.4375 20.875 -4 22 C-7.0179637 22.23374934 -9.98010124 22.17422493 -13 22 C-13 21.34 -13 20.68 -13 20 C-10.03 19.34 -7.06 18.68 -4 18 C-5.23992393 13.04030427 -6.76880415 12.55634749 -11 10 C-12 9 -12 9 -12.3125 6.125 C-12 3 -12 3 -10.5 1.125 C-6.87739877 -0.50517055 -3.95453342 -0.19772667 0 0 Z " fill="#D26812" transform="translate(244,42)"/>
<path d="M0 0 C4.95 0 9.9 0 15 0 C15 0.66 15 1.32 15 2 C14.01 2.66 13.02 3.32 12 4 C11.34 5.65 10.68 7.3 10 9 C5.38 9.33 0.76 9.66 -4 10 C-4 9.01 -4 8.02 -4 7 C-1.36 7 1.28 7 4 7 C1.03 6.505 1.03 6.505 -2 6 C-1.34 4.02 -0.68 2.04 0 0 Z " fill="#DC5B6C" transform="translate(82,40)"/>
<path d="M0 0 C1.18851563 0.00902344 2.37703125 0.01804688 3.6015625 0.02734375 C4.51679687 0.03894531 5.43203125 0.05054688 6.375 0.0625 C5.16810745 3.16593799 3.86903054 6.07443893 2.375 9.0625 C-2.245 9.0625 -6.865 9.0625 -11.625 9.0625 C-11.625 8.0725 -11.625 7.0825 -11.625 6.0625 C-9.645 6.0625 -7.665 6.0625 -5.625 6.0625 C-5.625 6.7225 -5.625 7.3825 -5.625 8.0625 C-4.635 7.0725 -3.645 6.0825 -2.625 5.0625 C-3.285 4.7325 -3.945 4.4025 -4.625 4.0625 C-3.305 4.0625 -1.985 4.0625 -0.625 4.0625 C-0.625 3.4025 -0.625 2.7425 -0.625 2.0625 C-1.615 2.5575 -1.615 2.5575 -2.625 3.0625 C-4.62460012 3.102492 -6.62547242 3.10596799 -8.625 3.0625 C-8.625 2.4025 -8.625 1.7425 -8.625 1.0625 C-5.74084117 -0.37957941 -3.20778472 -0.03144887 0 0 Z " fill="#CD132A" transform="translate(46.625,39.9375)"/>
<path d="M0 0 C2.97 0.33 5.94 0.66 9 1 C8.67 1.99 8.34 2.98 8 4 C5.69 4 3.38 4 1 4 C1 4.66 1 5.32 1 6 C6.58135637 5.93483728 6.58135637 5.93483728 10.8125 2.9375 C11.204375 2.298125 11.59625 1.65875 12 1 C12.99 1 13.98 1 15 1 C15.125 3.875 15.125 3.875 15 7 C13 9 13 9 10.375 9.125 C9.59125 9.08375 8.8075 9.0425 8 9 C8 8.34 8 7.68 8 7 C3.38 7 -1.24 7 -6 7 C-5.67 5.68 -5.34 4.36 -5 3 C-2.36 3 0.28 3 3 3 C3 2.34 3 1.68 3 1 C2.01 0.67 1.02 0.34 0 0 Z " fill="#D01C33" transform="translate(129,40)"/>
<path d="M0 0 C1.65 0 3.3 0 5 0 C5 1.32 5 2.64 5 4 C7.64 3.67 10.28 3.34 13 3 C13 3.66 13 4.32 13 5 C12.01 5.495 12.01 5.495 11 6 C10.67 6.99 10.34 7.98 10 9 C9.34 9 8.68 9 8 9 C8 8.34 8 7.68 8 7 C6.02 7 4.04 7 2 7 C1.67 7.99 1.34 8.98 1 10 C0.01 10.495 0.01 10.495 -1 11 C-1 10.34 -1 9.68 -1 9 C-3.97 9 -6.94 9 -10 9 C-9 5 -9 5 -7 2 C-6.34 2 -5.68 2 -5 2 C-5.66 3.65 -6.32 5.3 -7 7 C-4.12635209 7.41746608 -4.12635209 7.41746608 -1 7 C0.9354148 4.60943058 0.9354148 4.60943058 2 2 C1.34 1.34 0.68 0.68 0 0 Z " fill="#F9E8EA" transform="translate(33,39)"/>
<path d="M0 0 C0 2.97 0 5.94 0 9 C-6.625 9.25 -6.625 9.25 -10 7 C-10.375 4.5 -10.375 4.5 -10 2 C-6.3558226 -0.4294516 -4.28758728 -0.16179575 0 0 Z " fill="#FCF7F2" transform="translate(261,53)"/>
<path d="M0 0 C1.258125 0.0825 2.51625 0.165 3.8125 0.25 C3.16580586 1.59313399 2.49346422 2.92391178 1.8125 4.25 C1.255625 5.61125 1.255625 5.61125 0.6875 7 C-1.1875 9.25 -1.1875 9.25 -3.16015625 9.56640625 C-5.1720341 9.56285796 -7.18234369 9.41435707 -9.1875 9.25 C-5.85094858 0.01031913 -5.85094858 0.01031913 0 0 Z " fill="#CF1A31" transform="translate(128.1875,54.75)"/>
<path d="M0 0 C1.258125 0.0825 2.51625 0.165 3.8125 0.25 C1.3375 4.705 1.3375 4.705 -1.1875 9.25 C-3.8275 9.25 -6.4675 9.25 -9.1875 9.25 C-5.85094858 0.01031913 -5.85094858 0.01031913 0 0 Z " fill="#D01E34" transform="translate(37.1875,54.75)"/>
<path d="M0 0 C2.64 0 5.28 0 8 0 C5.59259259 6.66666667 5.59259259 6.66666667 3 9 C0.24636362 9.34352295 -2.20703942 9.18314496 -5 9 C-3.35 6.03 -1.7 3.06 0 0 Z " fill="#CF1A30" transform="translate(70,55)"/>
<path d="M0 0 C3.63 0.33 7.26 0.66 11 1 C9.02 3.97 9.02 3.97 7 7 C6.34 6.67 5.68 6.34 5 6 C4.67 6.66 4.34 7.32 4 8 C1.36 8 -1.28 8 -4 8 C-2.87548273 5.0280615 -1.77706209 2.66559313 0 0 Z " fill="#D2283D" transform="translate(43,56)"/>
<path d="M0 0 C2.7885289 -0.22107787 5.34653181 -0.28107535 8.125 -0.1875 C8.87910156 -0.17396484 9.63320312 -0.16042969 10.41015625 -0.14648438 C12.27374127 -0.11109985 14.13695978 -0.05729167 16 0 C16 0.33 16 0.66 16 1 C13.03 1 10.06 1 7 1 C6.34 2.98 5.68 4.96 5 7 C0.545 7.495 0.545 7.495 -4 8 C-2.87548273 5.0280615 -1.77706209 2.66559313 0 0 Z " fill="#CE142B" transform="translate(102,56)"/>
<path d="M0 0 C0 0.99 0 1.98 0 3 C-2.64 3.33 -5.28 3.66 -8 4 C-8 5.32 -8 6.64 -8 8 C-7.34 8.33 -6.68 8.66 -6 9 C-6.33 10.32 -6.66 11.64 -7 13 C-9.4375 11.875 -9.4375 11.875 -12 10 C-12.8125 6.8125 -12.8125 6.8125 -13 4 C-8.62340682 -0.37659318 -5.88808394 -0.39919213 0 0 Z " fill="#D26A16" transform="translate(296,42)"/>
<path d="M0 0 C2.97 0 5.94 0 9 0 C6.33333333 2.66666667 3.66666667 5.33333333 1 8 C1.66 8.33 2.32 8.66 3 9 C0.36 9 -2.28 9 -5 9 C-5 7.35 -5 5.7 -5 4 C-4.0409375 3.8453125 -4.0409375 3.8453125 -3.0625 3.6875 C-2.381875 3.460625 -1.70125 3.23375 -1 3 C-0.67 2.01 -0.34 1.02 0 0 Z " fill="#CF1C33" transform="translate(68,40)"/>
<path d="M0 0 C6.27 0 12.54 0 19 0 C18.01 0.495 18.01 0.495 17 1 C16.29788106 2.65204456 15.63028587 4.31923769 15 6 C14 7 14 7 10.4375 7.0625 C9.303125 7.041875 8.16875 7.02125 7 7 C7.99 5.02 8.98 3.04 10 1 C9.01 1.33 8.02 1.66 7 2 C4.66700175 2.03954234 2.33291811 2.04401732 0 2 C0 1.34 0 0.68 0 0 Z " fill="#D1273C" transform="translate(18,40)"/>
<path d="M0 0 C2.97 0 5.94 0 9 0 C7.21328523 3.19327746 5.39920247 6.2279485 3 9 C-0.375 9.5625 -0.375 9.5625 -3 9 C-3 7.35 -3 5.7 -3 4 C-2.01 4 -1.02 4 0 4 C0 2.68 0 1.36 0 0 Z " fill="#CF1D33" transform="translate(55,40)"/>
<path d="M0 0 C0.33 0 0.66 0 1 0 C1 3.96 1 7.92 1 12 C-1.10353495 12.0810206 -3.20795952 12.13919907 -5.3125 12.1875 C-7.07013672 12.23970703 -7.07013672 12.23970703 -8.86328125 12.29296875 C-12 12 -12 12 -13.91796875 10.61328125 C-15 9 -15 9 -15 7 C-14.44828125 7.14308594 -13.8965625 7.28617188 -13.328125 7.43359375 C-10.81285231 8.0455309 -8.28957492 8.56126811 -5.75 9.0625 C-4.85796875 9.23910156 -3.9659375 9.41570313 -3.046875 9.59765625 C-2.37140625 9.73042969 -1.6959375 9.86320312 -1 10 C-1.01160156 9.36191406 -1.02320313 8.72382812 -1.03515625 8.06640625 C-1.04417969 7.24011719 -1.05320312 6.41382813 -1.0625 5.5625 C-1.07410156 4.73878906 -1.08570313 3.91507813 -1.09765625 3.06640625 C-1 1 -1 1 0 0 Z " fill="#CE5B02" transform="translate(263,52)"/>
<path d="M0 0 C1.98 0 3.96 0 6 0 C6 0.66 6 1.32 6 2 C8.31 2 10.62 2 13 2 C12.34 3.32 11.68 4.64 11 6 C6.71 6 2.42 6 -2 6 C-2 5.34 -2 4.68 -2 4 C3.75 3.875 3.75 3.875 6 5 C6 4.34 6 3.68 6 3 C4.02 3 2.04 3 0 3 C0 2.01 0 1.02 0 0 Z " fill="#D12338" transform="translate(107,43)"/>
<path d="M0 0 C3.63 0 7.26 0 11 0 C10.67 0.99 10.34 1.98 10 3 C11.32 3.66 12.64 4.32 14 5 C11.29120665 6.35439668 8.99066732 6.06501451 6 6 C6 5.34 6 4.68 6 4 C3.69 3.67 1.38 3.34 -1 3 C-0.67 2.01 -0.34 1.02 0 0 Z " fill="#E37C89" transform="translate(107,39)"/>
<path d="M0 0 C2.475 0.99 2.475 0.99 5 2 C5 3.33333333 5 4.66666667 5 6 C3.35 6 1.7 6 0 6 C0 6.66 0 7.32 0 8 C-2.31 8 -4.62 8 -7 8 C-6.02133662 6.85373678 -5.04205413 5.70800212 -4.0625 4.5625 C-3.51722656 3.92441406 -2.97195312 3.28632812 -2.41015625 2.62890625 C-1.63204305 1.73008851 -0.84063472 0.84063472 0 0 Z " fill="#CE162C" transform="translate(136,56)"/>
<path d="M0 0 C1.27617187 0.02320313 2.55234375 0.04640625 3.8671875 0.0703125 C5.78917969 0.09738281 5.78917969 0.09738281 7.75 0.125 C9.23113281 0.15980469 9.23113281 0.15980469 10.7421875 0.1953125 C10.7421875 0.8553125 10.7421875 1.5153125 10.7421875 2.1953125 C9.86175781 2.19789062 8.98132813 2.20046875 8.07421875 2.203125 C1.60313249 2.14572824 1.60313249 2.14572824 -4.12890625 4.59765625 C-5.24617987 6.0769126 -6.26041322 7.6327203 -7.2578125 9.1953125 C-8.2478125 9.1953125 -9.2378125 9.1953125 -10.2578125 9.1953125 C-10.2578125 7.1953125 -10.2578125 7.1953125 -7.8828125 4.6953125 C-7.0165625 3.8703125 -6.1503125 3.0453125 -5.2578125 2.1953125 C-3.2578125 0.1953125 -3.2578125 0.1953125 0 0 Z " fill="#D32B40" transform="translate(18.2578125,54.8046875)"/>
<path d="M0 0 C0.99 0 1.98 0 3 0 C3.125 2.875 3.125 2.875 3 6 C1 8 1 8 -1.625 8.125 C-2.40875 8.08375 -3.1925 8.0425 -4 8 C-4 7.34 -4 6.68 -4 6 C-6.64 6 -9.28 6 -12 6 C-12 5.67 -12 5.34 -12 5 C-11.38511719 4.97421875 -10.77023438 4.9484375 -10.13671875 4.921875 C-5.04764174 4.7663953 -5.04764174 4.7663953 -1.125 1.9375 C-0.75375 1.298125 -0.3825 0.65875 0 0 Z " fill="#CD1128" transform="translate(141,41)"/>
<path d="M0 0 C2.625 -0.1875 2.625 -0.1875 5 0 C4.45276317 3.37462715 3.9451 5.08235 2 8 C-1.125 8.1875 -1.125 8.1875 -4 8 C-2.87548273 5.0280615 -1.77706209 2.66559313 0 0 Z " fill="#CE162D" transform="translate(150,41)"/>
<path d="M0 0 C0.66 0 1.32 0 2 0 C2.47792208 5.37662338 2.47792208 5.37662338 0.5625 7.875 C-3.25144551 9.5494151 -6.89579485 9.23678107 -11 9 C-11 8.34 -11 7.68 -11 7 C-10.37351563 6.91363281 -9.74703125 6.82726563 -9.1015625 6.73828125 C-6.63217125 6.31373291 -4.35643158 5.85727584 -2 5 C-0.32386813 2.52985528 -0.32386813 2.52985528 0 0 Z " fill="#CF6008" transform="translate(242,55)"/>
<path d="M0 0 C1.98 0 3.96 0 6 0 C5.67 1.32 5.34 2.64 5 4 C0.38 4.33 -4.24 4.66 -9 5 C-9 4.01 -9 3.02 -9 2 C-6.36 2 -3.72 2 -1 2 C-0.67 1.34 -0.34 0.68 0 0 Z " fill="#CD1229" transform="translate(87,45)"/>
<path d="M0 0 C0.99 0.66 1.98 1.32 3 2 C1.68 4.31 0.36 6.62 -1 9 C4.28 9 9.56 9 15 9 C15 9.33 15 9.66 15 10 C9.39 10 3.78 10 -2 10 C-3 5 -3 5 -1.5625 2.1875 C-1.046875 1.465625 -0.53125 0.74375 0 0 Z " fill="#F8E0E3" transform="translate(99,55)"/>
<path d="M0 0 C0.66 0 1.32 0 2 0 C2 0.66 2 1.32 2 2 C2.99 2.33 3.98 2.66 5 3 C5 3.66 5 4.32 5 5 C9.29 5 13.58 5 18 5 C18 5.33 18 5.66 18 6 C15.5622037 6.05397335 13.12560315 6.09365616 10.6875 6.125 C9.65206055 6.15013672 9.65206055 6.15013672 8.59570312 6.17578125 C4.82864604 6.21217794 3.21568296 6.14378864 0 4 C0 2.68 0 1.36 0 0 Z " fill="#DC8A48" transform="translate(271,59)"/>
<path d="M0 0 C-0.33 1.32 -0.66 2.64 -1 4 C-0.34 4.33 0.32 4.66 1 5 C-0.65 5 -2.3 5 -4 5 C-4 5.66 -4 6.32 -4 7 C-5.32 7 -6.64 7 -8 7 C-6.13932792 2.84926997 -4.83061881 0 0 0 Z " fill="#CE152C" transform="translate(19,57)"/>
<path d="M0 0 C0.99 0 1.98 0 3 0 C1.87548273 2.9719385 0.77706209 5.33440687 -1 8 C0.65 8 2.3 8 4 8 C4 8.33 4 8.66 4 9 C-1.625 9.25 -1.625 9.25 -5 7 C-4.24172908 5.82512964 -3.46792245 4.66027408 -2.6875 3.5 C-2.25824219 2.8503125 -1.82898438 2.200625 -1.38671875 1.53125 C-0.70029297 0.77328125 -0.70029297 0.77328125 0 0 Z " fill="#F5D3D7" transform="translate(147,41)"/>
<path d="M0 0 C1.45823212 -0.0270043 2.91660675 -0.04639787 4.375 -0.0625 C5.18710938 -0.07410156 5.99921875 -0.08570313 6.8359375 -0.09765625 C9 0 9 0 11 1 C11 1.66 11 2.32 11 3 C7.37 3 3.74 3 0 3 C0 2.01 0 1.02 0 0 Z " fill="#D26B18" transform="translate(249,42)"/>
<path d="M0 0 C1.18851563 0.00902344 2.37703125 0.01804688 3.6015625 0.02734375 C4.51679687 0.03894531 5.43203125 0.05054688 6.375 0.0625 C6.045 0.7225 5.715 1.3825 5.375 2.0625 C3.725 1.7325 2.075 1.4025 0.375 1.0625 C0.045 1.7225 -0.285 2.3825 -0.625 3.0625 C-3.265 3.0625 -5.905 3.0625 -8.625 3.0625 C-8.625 2.4025 -8.625 1.7425 -8.625 1.0625 C-5.74084117 -0.37957941 -3.20778472 -0.03144887 0 0 Z " fill="#D63D4F" transform="translate(46.625,39.9375)"/>
<path d="M0 0 C0.99 0.33 1.98 0.66 3 1 C2.67 1.99 2.34 2.98 2 4 C3.98 4 5.96 4 8 4 C8 4.66 8 5.32 8 6 C5.36 5.67 2.72 5.34 0 5 C-0.33 5.66 -0.66 6.32 -1 7 C-1.66 7 -2.32 7 -3 7 C-1.125 2.25 -1.125 2.25 0 0 Z " fill="#F5D3D7" transform="translate(105,42)"/>
<path d="M0 0 C0.66 0 1.32 0 2 0 C2 1.32 2 2.64 2 4 C3.65 4.33 5.3 4.66 7 5 C7 5.33 7 5.66 7 6 C2.38 6 -2.24 6 -7 6 C-7 5.67 -7 5.34 -7 5 C-5.35 5 -3.7 5 -2 5 C-1.34 3.35 -0.68 1.7 0 0 Z " fill="#DE6170" transform="translate(109,58)"/>
<path d="M0 0 C0.99 0.33 1.98 0.66 3 1 C1.68 3.31 0.36 5.62 -1 8 C1.31 8 3.62 8 6 8 C6 8.33 6 8.66 6 9 C3.36 9 0.72 9 -2 9 C-2 8.34 -2 7.68 -2 7 C-2.66 6.67 -3.32 6.34 -4 6 C-2.68 4.02 -1.36 2.04 0 0 Z " fill="#F9E2E6" transform="translate(40,56)"/>
<path d="M0 0 C1.98 0 3.96 0 6 0 C6 0.66 6 1.32 6 2 C6.99 1.67 7.98 1.34 9 1 C11.6875 1.4375 11.6875 1.4375 14 2 C14 2.33 14 2.66 14 3 C9.38 3 4.76 3 0 3 C0 2.01 0 1.02 0 0 Z " fill="#D32F44" transform="translate(35,46)"/>
<path d="M0 0 C2.0625 0.4375 2.0625 0.4375 4 1 C3.67 1.66 3.34 2.32 3 3 C-1.29 3 -5.58 3 -10 3 C-10 2.34 -10 1.68 -10 1 C-9.36191406 1.01160156 -8.72382812 1.02320313 -8.06640625 1.03515625 C-7.24011719 1.04417969 -6.41382812 1.05320313 -5.5625 1.0625 C-4.32693359 1.07990234 -4.32693359 1.07990234 -3.06640625 1.09765625 C-1.00836062 1.23267348 -1.00836062 1.23267348 0 0 Z " fill="#CD1027" transform="translate(115,46)"/>
<path d="M0 0 C1.4540625 0.0309375 1.4540625 0.0309375 2.9375 0.0625 C2.6075 1.0525 2.2775 2.0425 1.9375 3.0625 C-2.6825 3.0625 -7.3025 3.0625 -12.0625 3.0625 C-12.0625 2.7325 -12.0625 2.4025 -12.0625 2.0625 C-10.01171875 1.83463542 -7.9609375 1.60677083 -5.91015625 1.37890625 C-3.00452994 0.88132542 -3.42063662 0.06980891 0 0 Z " fill="#EFB5BD" transform="translate(95.0625,36.9375)"/>
<path d="M0 0 C4.62 0 9.24 0 14 0 C14 0.66 14 1.32 14 2 C11.69 2.33 9.38 2.66 7 3 C7 2.34 7 1.68 7 1 C4.69 1 2.38 1 0 1 C0 0.67 0 0.34 0 0 Z " fill="#D01E33" transform="translate(83,40)"/>
<path d="M0 0 C2.64 0 5.28 0 8 0 C8 0.66 8 1.32 8 2 C6.906875 2.28875 5.81375 2.5775 4.6875 2.875 C0.95986155 3.81893204 0.95986155 3.81893204 -2 6 C-1.34 4.02 -0.68 2.04 0 0 Z " fill="#D1253B" transform="translate(70,55)"/>
<path d="M0 0 C2.64 0 5.28 0 8 0 C8 0.66 8 1.32 8 2 C6.906875 2.309375 5.81375 2.61875 4.6875 2.9375 C2.44592006 3.58337897 0.2130649 4.2623117 -2 5 C-1.34 3.35 -0.68 1.7 0 0 Z " fill="#D1273C" transform="translate(81,55)"/>
<path d="M0 0 C0.66 0 1.32 0 2 0 C1.34 1.65 0.68 3.3 0 5 C2.97 5.495 2.97 5.495 6 6 C6 6.33 6 6.66 6 7 C3.03 7 0.06 7 -3 7 C-2 3 -2 3 0 0 Z " fill="#F5D1D5" transform="translate(26,41)"/>
<path d="M0 0 C0.33 0.99 0.66 1.98 1 3 C-1 5 -1 5 -2.9453125 5.1953125 C-4.96354167 5.13020833 -6.98177083 5.06510417 -9 5 C-9 4.34 -9 3.68 -9 3 C-7.88625 2.87625 -6.7725 2.7525 -5.625 2.625 C-1.96896323 2.3534187 -1.96896323 2.3534187 0 0 Z " fill="#F5D3D7" transform="translate(139,41)"/>
<path d="M0 0 C3.63 0 7.26 0 11 0 C10.67 0.99 10.34 1.98 10 3 C6.7 2.67 3.4 2.34 0 2 C0 1.34 0 0.68 0 0 Z " fill="#E0707E" transform="translate(107,39)"/>
<path d="M0 0 C0.33 0.99 0.66 1.98 1 3 C0.01 4.485 0.01 4.485 -1 6 C1.31 6 3.62 6 6 6 C6 6.33 6 6.66 6 7 C3.36 7 0.72 7 -2 7 C-3 4 -3 4 -2 1 C-1.34 0.67 -0.68 0.34 0 0 Z " fill="#F8E1E4" transform="translate(29,58)"/>
<path d="M0 0 C2.16874252 0.50603992 3.99967627 0.99983813 6 2 C6 2.99 6 3.98 6 5 C4.125 4.75 4.125 4.75 2 4 C0.75 1.9375 0.75 1.9375 0 0 Z " fill="#D1640C" transform="translate(248,59)"/>
<path d="M0 0 C0.99 0 1.98 0 3 0 C3.33 0.99 3.66 1.98 4 3 C2.125 4.0625 2.125 4.0625 0 5 C-0.66 4.67 -1.32 4.34 -2 4 C-1.34 2.68 -0.68 1.36 0 0 Z " fill="#D32E42" transform="translate(121,38)"/>
<path d="M0 0 C2.64 0 5.28 0 8 0 C7.67 0.99 7.34 1.98 7 3 C4.69 2.67 2.38 2.34 0 2 C0 1.34 0 0.68 0 0 Z " fill="#D43045" transform="translate(124,55)"/>
<path d="M0 0 C2.64 0 5.28 0 8 0 C8 0.99 8 1.98 8 3 C5.125 3.1875 5.125 3.1875 2 3 C1.34 2.01 0.68 1.02 0 0 Z " fill="#D67729" transform="translate(288,42)"/>
<path d="M0 0 C0.66 0.33 1.32 0.66 2 1 C1.38125 1.598125 0.7625 2.19625 0.125 2.8125 C-2.13676954 5.00811144 -2.13676954 5.00811144 -4 8 C-4.66 7.67 -5.32 7.34 -6 7 C-4.77065985 3.31197956 -3.06140622 2.27643027 0 0 Z " fill="#F7D7DB" transform="translate(75,41)"/>
</svg>
