<?xml version="1.0" encoding="UTF-8"?>
<svg version="1.1" xmlns="http://www.w3.org/2000/svg" width="640" height="360">
<path d="M0 0 C211.2 0 422.4 0 640 0 C640 118.8 640 237.6 640 360 C428.8 360 217.6 360 0 360 C0 241.2 0 122.4 0 0 Z " fill="#FEFEFE" transform="translate(0,0)"/>
<path d="M0 0 C9.9 0 19.8 0 30 0 C30 38.28 30 76.56 30 116 C22.74 116 15.48 116 8 116 C8 85.31 8 54.62 8 23 C5.36 23 2.72 23 0 23 C0 15.41 0 7.82 0 0 Z " fill="#3773B9" transform="translate(129,41)"/>
<path d="M0 0 C9.59338742 7.13461565 18.74046268 14.74324308 27.79394531 22.54614258 C32.30466861 26.42638133 36.89226434 30.20281238 41.51171875 33.953125 C45.07952273 36.88802184 48.55120297 39.92671669 52 43 C47.86200932 48.25636655 43.34851838 52.31442895 38.125 56.48046875 C34.67642047 59.23558392 31.33943558 62.11432674 28 65 C22.89348147 69.40303408 17.72177134 73.71053443 12.48046875 77.953125 C9.42413623 80.47520097 6.47904973 83.10756563 3.55859375 85.78515625 C2 87 2 87 0 87 C-2.06111207 63.98140282 -2.06111207 63.98140282 1.17919922 57.72216797 C4.47251046 53.8067512 8.59550545 51.49822128 13 49 C15.07433874 47.40444293 17.02643689 45.72161888 19 44 C11.06527069 35.58592387 11.06527069 35.58592387 1.87426758 28.75708008 C0 27 0 27 -0.45410156 24.1809082 C-0.4331543 23.06546631 -0.41220703 21.95002441 -0.390625 20.80078125 C-0.37773437 19.59228516 -0.36484375 18.38378906 -0.3515625 17.13867188 C-0.31804687 15.87603516 -0.28453125 14.61339844 -0.25 13.3125 C-0.23195312 12.03826172 -0.21390625 10.76402344 -0.1953125 9.45117188 C-0.14810441 6.30003159 -0.08226384 3.1503886 0 0 Z " fill="#2EAA5B" transform="translate(164,69)"/>
<path d="M0 0 C6.27 0 12.54 0 19 0 C19 14.52 19 29.04 19 44 C20.65 44 22.3 44 24 44 C24 47.63 24 51.26 24 55 C17.4 55 10.8 55 4 55 C3.67 53.68 3.34 52.36 3 51 C1.96552734 51.97259766 1.96552734 51.97259766 0.91015625 52.96484375 C-2.53893638 55.37689376 -4.39588785 55.56732806 -8.5625 55.5625 C-9.67753906 55.58441406 -10.79257812 55.60632813 -11.94140625 55.62890625 C-15 55 -15 55 -17.33984375 52.58984375 C-20.92987927 46.98938834 -20.2219369 41.72269449 -20.25 35.1875 C-20.270625 33.99833984 -20.29125 32.80917969 -20.3125 31.58398438 C-20.32023437 29.86211914 -20.32023437 29.86211914 -20.328125 28.10546875 C-20.3374707 27.05512451 -20.34681641 26.00478027 -20.35644531 24.92260742 C-19.84739645 20.74875545 -18.14667561 18.1318479 -15.1875 15.2109375 C-12.33294964 13.63073998 -10.24925127 13.60063062 -7 13.625 C-5.96875 13.61726563 -4.9375 13.60953125 -3.875 13.6015625 C-0.70888632 14.04034456 0.66377097 14.87717651 3 17 C3.33 15.02 3.66 13.04 4 11 C2.68 11 1.36 11 0 11 C0 7.37 0 3.74 0 0 Z " fill="#6A7175" transform="translate(405,102)"/>
<path d="M0 0 C6.27 0 12.54 0 19 0 C19 6.27 19 12.54 19 19 C21.31 17.35 23.62 15.7 26 14 C30.38895001 12.98762347 34.9276581 12.93757131 39.00390625 15.02734375 C41.65262844 17.12717411 42.92898415 18.78695245 44 22 C44.25782805 25.74553837 44.23139543 29.49652768 44.25 33.25 C44.270625 34.27480469 44.29125 35.29960937 44.3125 36.35546875 C44.34787749 43.22754625 44.1086888 48.659523 39.21875 53.9140625 C36.21517673 55.38412125 33.83298435 55.39793338 30.5 55.375 C28.81390625 55.38660156 28.81390625 55.38660156 27.09375 55.3984375 C23.78334928 54.97209801 22.41454421 54.23700419 20 52 C19.67 52.99 19.34 53.98 19 55 C12.73 55 6.46 55 0 55 C0 51.37 0 47.74 0 44 C1.65 44 3.3 44 5 44 C5 33.11 5 22.22 5 11 C3.35 11 1.7 11 0 11 C0 7.37 0 3.74 0 0 Z " fill="#676E73" transform="translate(239,102)"/>
<path d="M0 0 C6.27 0 12.54 0 19 0 C19.33 6.27 19.66 12.54 20 19 C22.97 16.525 22.97 16.525 26 14 C28.8515625 13.44140625 28.8515625 13.44140625 31.625 13.5625 C32.54539062 13.58441406 33.46578125 13.60632813 34.4140625 13.62890625 C37.07502376 14.01076625 38.75191922 14.54218342 41 16 C43.29755922 19.44633882 43.23643976 20.71068391 43.1953125 24.76171875 C43.18886719 25.87998047 43.18242187 26.99824219 43.17578125 28.15039062 C43.15902344 29.31763672 43.14226562 30.48488281 43.125 31.6875 C43.11597656 32.86634766 43.10695313 34.04519531 43.09765625 35.25976562 C43.07406423 38.17338026 43.0411454 41.08658892 43 44 C44.32 44 45.64 44 47 44 C47 47.63 47 51.26 47 55 C40.07 55 33.14 55 26 55 C26 51.7 26 48.4 26 45 C26.66 45 27.32 45 28 45 C27.505 35.595 27.505 35.595 27 26 C24.36 26 21.72 26 19 26 C19 32.27 19 38.54 19 45 C19.99 45 20.98 45 22 45 C22 48.3 22 51.6 22 55 C14.74 55 7.48 55 0 55 C0 51.37 0 47.74 0 44 C1.65 44 3.3 44 5 44 C5 33.11 5 22.22 5 11 C3.35 11 1.7 11 0 11 C0 7.37 0 3.74 0 0 Z " fill="#686F74" transform="translate(287,102)"/>
<path d="M0 0 C1.175625 0.00193359 2.35125 0.00386719 3.5625 0.00585938 C13.3231415 0.15559649 13.3231415 0.15559649 18 3.5625 C19.3308911 6.22428221 19.11268993 8.24989396 19.09765625 11.2265625 C19.09443359 12.34804687 19.09121094 13.46953125 19.08789062 14.625 C19.07532227 16.3884375 19.07532227 16.3884375 19.0625 18.1875 C19.05798828 19.37085938 19.05347656 20.55421875 19.04882812 21.7734375 C19.03701467 24.70317507 19.02054258 27.63281272 19 30.5625 C20.32 30.5625 21.64 30.5625 23 30.5625 C23 34.1925 23 37.8225 23 41.5625 C17.06 41.5625 11.12 41.5625 5 41.5625 C5 40.2425 5 38.9225 5 37.5625 C4.16855469 38.2121875 3.33710938 38.861875 2.48046875 39.53125 C-1.18240412 41.96671084 -4.28696729 42.09752912 -8.6875 42.0625 C-9.99074219 42.0728125 -11.29398437 42.083125 -12.63671875 42.09375 C-16 41.5625 -16 41.5625 -17.93359375 40.03515625 C-19.43982804 36.54267895 -19.43550428 33.23445889 -19.375 29.5 C-19.38660156 28.78005859 -19.39820313 28.06011719 -19.41015625 27.31835938 C-19.38116363 22.1141842 -19.38116363 22.1141842 -17.6640625 19.62890625 C-14.79043588 17.7873568 -12.30743343 17.43988772 -8.98828125 17.46484375 C-7.85229492 17.46967773 -7.85229492 17.46967773 -6.69335938 17.47460938 C-5.90767578 17.48298828 -5.12199219 17.49136719 -4.3125 17.5 C-3.51521484 17.50451172 -2.71792969 17.50902344 -1.89648438 17.51367188 C0.06904257 17.5254415 2.03453085 17.54337652 4 17.5625 C4 15.2525 4 12.9425 4 10.5625 C1.36 10.5625 -1.28 10.5625 -4 10.5625 C-4 11.8825 -4 13.2025 -4 14.5625 C-8.62 14.5625 -13.24 14.5625 -18 14.5625 C-18.5927232 7.68691084 -18.5927232 7.68691084 -16.29296875 3.32421875 C-12.12540974 -1.33281619 -5.74481932 -0.1795256 0 0 Z " fill="#697075" transform="translate(487,115.4375)"/>
<path d="M0 0 C1.18271484 -0.00515625 2.36542969 -0.0103125 3.58398438 -0.015625 C4.81568359 -0.00015625 6.04738281 0.0153125 7.31640625 0.03125 C8.54423828 0.01578125 9.77207031 0.0003125 11.03710938 -0.015625 C12.22111328 -0.01046875 13.40511719 -0.0053125 14.625 0 C15.70450928 0.00451172 16.78401855 0.00902344 17.89624023 0.01367188 C21.66173276 0.66709286 23.30868872 1.71233958 25.87890625 4.53125 C26.4465332 7.37207031 26.4465332 7.37207031 26.3671875 10.609375 C26.35107422 11.76953125 26.33496094 12.9296875 26.31835938 14.125 C26.25551758 15.93484375 26.25551758 15.93484375 26.19140625 17.78125 C26.16884766 19.00328125 26.14628906 20.2253125 26.12304688 21.484375 C26.06412383 24.50123502 25.9818989 27.51562515 25.87890625 30.53125 C27.52890625 30.53125 29.17890625 30.53125 30.87890625 30.53125 C30.87890625 34.16125 30.87890625 37.79125 30.87890625 41.53125 C24.60890625 41.53125 18.33890625 41.53125 11.87890625 41.53125 C11.54890625 40.54125 11.21890625 39.55125 10.87890625 38.53125 C10.19957031 39.0159375 9.52023437 39.500625 8.8203125 40 C5.27580079 41.84521725 2.79702812 41.9971912 -1.18359375 42.03125 C-2.99537109 42.07765625 -2.99537109 42.07765625 -4.84375 42.125 C-8.12109375 41.53125 -8.12109375 41.53125 -10.51953125 39.4375 C-12.46421718 35.90860652 -12.68792188 33.54775244 -12.68359375 29.53125 C-12.70550781 28.335 -12.72742188 27.13875 -12.75 25.90625 C-11.9323649 21.51844425 -10.76327755 20.08700052 -7.12109375 17.53125 C-4.18443125 17.1353619 -1.89543084 17.0030974 1.00390625 17.15625 C1.71933594 17.17042969 2.43476563 17.18460938 3.171875 17.19921875 C6.30238349 17.28699002 8.89446101 17.53643492 11.87890625 18.53125 C11.54890625 16.22125 11.21890625 13.91125 10.87890625 11.53125 C8.56890625 11.53125 6.25890625 11.53125 3.87890625 11.53125 C3.54890625 12.52125 3.21890625 13.51125 2.87890625 14.53125 C-1.41109375 14.53125 -5.70109375 14.53125 -10.12109375 14.53125 C-10.61380023 5.1698269 -10.61380023 5.1698269 -8.47924805 2.40332031 C-5.47377053 0.01735887 -3.80649389 0.01592556 0 0 Z " fill="#697075" transform="translate(350.12109375,115.46875)"/>
<path d="M0 0 C6.6 0 13.2 0 20 0 C20.33 1.65 20.66 3.3 21 5 C22.299375 3.7625 22.299375 3.7625 23.625 2.5 C26.95446812 -0.67092202 27.6462063 0 33 0 C33 4.62 33 9.24 33 14 C26.565 14.495 26.565 14.495 20 15 C20 19.95 20 24.9 20 30 C21.32 30 22.64 30 24 30 C24 33.63 24 37.26 24 41 C16.08 41 8.16 41 0 41 C0 37.37 0 33.74 0 30 C1.65 30 3.3 30 5 30 C5 23.73 5 17.46 5 11 C3.35 11 1.7 11 0 11 C0 7.37 0 3.74 0 0 Z " fill="#697075" transform="translate(432,116)"/>
<path d="M0 0 C2.73377373 1.36688687 3.92288457 2.64957991 6 5 C7.55620285 9.66860854 7.22576168 14.35991937 7.25 19.25 C7.270625 20.27480469 7.29125 21.29960937 7.3125 22.35546875 C7.34784765 29.22174968 7.11696385 34.67206262 2.2109375 39.91015625 C-2.48002071 42.2224837 -7.92458306 41.59747783 -13 41 C-15.57487229 39.93596512 -16.92176449 38.90010104 -19 37 C-18.5 35.125 -18.5 35.125 -17 33 C-14.34822355 32.01505446 -11.79452693 31.54087618 -9 31 C-9 30.67 -9 30.34 -9 30 C-11.97 30 -14.94 30 -18 30 C-18.08120751 27.10359882 -18.14059421 24.20949088 -18.1875 21.3125 C-18.21263672 20.49587891 -18.23777344 19.67925781 -18.26367188 18.83789062 C-18.32254323 13.99081587 -18.03958892 10.99705943 -15 7 C-13.39496198 4.15320994 -13.39496198 4.15320994 -13 1 C-9.03476986 -0.98261507 -4.31072279 -0.55250109 0 0 Z " fill="#697074" transform="translate(276,116)"/>
<path d="M0 0 C2.64 0 5.28 0 8 0 C8 6.27 8 12.54 8 19 C8.66 19 9.32 19 10 19 C10 20.65 10 22.3 10 24 C7.69 24 5.38 24 3 24 C3 23.34 3 22.68 3 22 C2.01 22.66 1.02 23.32 0 24 C-3.0625 24.25 -3.0625 24.25 -6 24 C-8 22 -8 22 -8.265625 18.8125 C-8.26046875 17.554375 -8.2553125 16.29625 -8.25 15 C-8.25515625 13.741875 -8.2603125 12.48375 -8.265625 11.1875 C-8 8 -8 8 -6 6 C-2.375 5.875 -2.375 5.875 1 6 C1.33 5.34 1.66 4.68 2 4 C1.34 4 0.68 4 0 4 C0 2.68 0 1.36 0 0 Z " fill="#6E7578" transform="translate(501,177)"/>
<path d="M0 0 C1.71703125 0.00193359 1.71703125 0.00193359 3.46875 0.00390625 C6.5 0.4375 6.5 0.4375 8.39453125 1.796875 C9.91638764 4.05546046 9.71566674 5.77761017 9.5 8.4375 C7.52 8.4375 5.54 8.4375 3.5 8.4375 C3.5 7.1175 3.5 5.7975 3.5 4.4375 C1.19 4.4375 -1.12 4.4375 -3.5 4.4375 C-3.5 9.0575 -3.5 13.6775 -3.5 18.4375 C-1.19 18.4375 1.12 18.4375 3.5 18.4375 C3.5 17.4475 3.5 16.4575 3.5 15.4375 C2.18 15.4375 0.86 15.4375 -0.5 15.4375 C-0.5 13.7875 -0.5 12.1375 -0.5 10.4375 C2.8 10.4375 6.1 10.4375 9.5 10.4375 C9.86418665 18.69239729 9.86418665 18.69239729 8.39453125 21.69921875 C5.66287479 24.20558396 3.65395392 24.00411481 0 24 C-1.1446875 24.02191406 -2.289375 24.04382813 -3.46875 24.06640625 C-6.5 23.4375 -6.5 23.4375 -8.3828125 21.34375 C-9.72371243 17.85553479 -9.89895858 15.10854472 -9.875 11.375 C-9.88273437 10.16714844 -9.89046875 8.95929688 -9.8984375 7.71484375 C-9.07912138 0.97556706 -6.52584742 -0.11023391 0 0 Z " fill="#7C8285" transform="translate(403.5,177.5625)"/>
<path d="M0 0 C0.33 0 0.66 0 1 0 C1 6.6 1 13.2 1 20 C1.99 19.67 2.98 19.34 4 19 C5.32 20.65 6.64 22.3 8 24 C7.34 24.33 6.68 24.66 6 25 C5.91307926 29.27070558 5.85963485 33.54118458 5.8125 37.8125 C5.78736328 39.02744141 5.76222656 40.24238281 5.73632812 41.49414062 C5.72666016 42.65751953 5.71699219 43.82089844 5.70703125 45.01953125 C5.6913208 46.09307861 5.67561035 47.16662598 5.65942383 48.27270508 C5.76141924 51.04294669 5.76141924 51.04294669 7.51831055 52.8737793 C8.00726807 53.24543213 8.49622559 53.61708496 9 54 C6.36 53.67 3.72 53.34 1 53 C1.33 71.15 1.66 89.3 2 108 C2.66 108 3.32 108 4 108 C4 100.41 4 92.82 4 85 C4.33 85 4.66 85 5 85 C5.33 94.24 5.66 103.48 6 113 C4.35 113 2.7 113 1 113 C0.01 113.495 0.01 113.495 -1 114 C-2.59678322 114.01610171 -4.1945399 113.96535627 -5.7890625 113.87890625 C-6.73007813 113.83056641 -7.67109375 113.78222656 -8.640625 113.73242188 C-9.62546875 113.67634766 -10.6103125 113.62027344 -11.625 113.5625 C-12.61757812 113.51029297 -13.61015625 113.45808594 -14.6328125 113.40429688 C-17.08884568 113.27441051 -19.5444936 113.13943836 -22 113 C-22 112.67 -22 112.34 -22 112 C-14.74 112 -7.48 112 0 112 C0 75.04 0 38.08 0 0 Z " fill="#E6F0E9" transform="translate(159,45)"/>
<path d="M0 0 C2.79192205 -0.05380578 5.5828141 -0.09357669 8.375 -0.125 C9.1690625 -0.14175781 9.963125 -0.15851563 10.78125 -0.17578125 C12.85492015 -0.19335473 14.92883241 -0.10335168 17 0 C19 2 19 2 19.265625 4.3125 C19.26046875 5.199375 19.2553125 6.08625 19.25 7 C19.25515625 7.886875 19.2603125 8.77375 19.265625 9.6875 C19 12 19 12 17 14 C14.8359375 14.1953125 14.8359375 14.1953125 12.375 14.125 C11.55773437 14.10695312 10.74046875 14.08890625 9.8984375 14.0703125 C9.27195313 14.04710937 8.64546875 14.02390625 8 14 C8 15.32 8 16.64 8 18 C8.99 18 9.98 18 11 18 C11 19.65 11 21.3 11 23 C7.37 23 3.74 23 0 23 C0 21.68 0 20.36 0 19 C0.99 19 1.98 19 3 19 C3 14.05 3 9.1 3 4 C2.01 4 1.02 4 0 4 C0 2.68 0 1.36 0 0 Z " fill="#6D7477" transform="translate(213,178)"/>
<path d="M0 0 C2.75 -0.36328125 2.75 -0.36328125 6 -0.3125 C7.60875 -0.30669922 7.60875 -0.30669922 9.25 -0.30078125 C12 0 12 0 14 2 C14.30078125 4.93359375 14.30078125 4.93359375 14.3125 8.4375 C14.32925781 9.59121094 14.34601563 10.74492187 14.36328125 11.93359375 C14 15 14 15 12.79296875 16.8828125 C10.42873417 18.35595213 8.77507721 18.43337042 6 18.4375 C5.13375 18.45683594 4.2675 18.47617188 3.375 18.49609375 C1 18 1 18 -0.79296875 16.3203125 C-2.25927437 13.50158907 -2.36848154 11.60261019 -2.3125 8.4375 C-2.30863281 7.48746094 -2.30476562 6.53742188 -2.30078125 5.55859375 C-2 3 -2 3 0 0 Z " fill="#767C80" transform="translate(152,183)"/>
<path d="M0 0 C1.0725 -0.01675781 2.145 -0.03351563 3.25 -0.05078125 C4.1575 0.06910156 5.065 0.18898437 6 0.3125 C8.29783606 3.75925409 8.29754883 5.24578112 8.3125 9.3125 C8.32925781 10.364375 8.34601563 11.41625 8.36328125 12.5 C8 15.3125 8 15.3125 6.79296875 17.1640625 C4.42283405 18.68218799 2.80092031 18.71250822 0 18.6875 C-0.86625 18.69523437 -1.7325 18.70296875 -2.625 18.7109375 C-5 18.3125 -5 18.3125 -6.79296875 17.19921875 C-8.59148595 14.3879443 -8.36045285 12.05136936 -8.3125 8.75 C-8.30863281 7.59371094 -8.30476563 6.43742188 -8.30078125 5.24609375 C-7.73343967 -0.28732867 -4.86181536 0.01753058 0 0 Z " fill="#7A8083" transform="translate(353,182.6875)"/>
<path d="M0 0 C1.0725 0.00515625 2.145 0.0103125 3.25 0.015625 C4.85875 0.00789062 4.85875 0.00789062 6.5 0 C9.25 0.265625 9.25 0.265625 11.25 2.265625 C11.55078125 5.19921875 11.55078125 5.19921875 11.5625 8.703125 C11.57925781 9.85683594 11.59601563 11.01054687 11.61328125 12.19921875 C11.25 15.265625 11.25 15.265625 10.04296875 17.1484375 C7.67873417 18.62157713 6.02507721 18.69899542 3.25 18.703125 C2.38375 18.72246094 1.5175 18.74179688 0.625 18.76171875 C-1.75 18.265625 -1.75 18.265625 -3.54296875 16.62109375 C-5.0734121 13.63450041 -5.11590409 11.48454285 -5.0625 8.140625 C-5.05863281 7.08617187 -5.05476563 6.03171875 -5.05078125 4.9453125 C-4.62909983 1.18851435 -3.75800095 0.36298873 0 0 Z " fill="#7B8083" transform="translate(435.75,182.734375)"/>
<path d="M0 0 C3.3 0 6.6 0 10 0 C9.773125 0.763125 9.54625 1.52625 9.3125 2.3125 C9.1578125 3.6428125 9.1578125 3.6428125 9 5 C10.33378575 6.8354799 10.33378575 6.8354799 12 8 C12.82638376 5.10765685 13 3.11257569 13 0 C16.3 0 19.6 0 23 0 C23 1.32 23 2.64 23 4 C22.01 4.33 21.02 4.66 20 5 C16.88919744 8.84804479 14.46781722 13.00994968 14 18 C14.99 18 15.98 18 17 18 C17 19.65 17 21.3 17 23 C13.37 23 9.74 23 6 23 C6 21.35 6 19.7 6 18 C6.66 18 7.32 18 8 18 C6.85116495 13.49303172 5.46895501 9.92788297 3 6 C3 5.34 3 4.68 3 4 C2.01 4 1.02 4 0 4 C0 2.68 0 1.36 0 0 Z " fill="#747B7E" transform="translate(128,178)"/>
<path d="M0 0 C3 0 6 0 9 0 C10.7634375 -0.0309375 10.7634375 -0.0309375 12.5625 -0.0625 C16 0 16 0 17 1 C17.07258946 3.18639453 17.08373783 5.37500389 17.0625 7.5625 C17.05347656 8.76003906 17.04445313 9.95757812 17.03515625 11.19140625 C17.02355469 12.11824219 17.01195312 13.04507813 17 14 C17.99 14 18.98 14 20 14 C20 15.32 20 16.64 20 18 C16.7 18 13.4 18 10 18 C10 16.68 10 15.36 10 14 C10.66 14 11.32 14 12 14 C12 10.7 12 7.4 12 4 C10.35 4 8.7 4 7 4 C7 7.3 7 10.6 7 14 C7.66 14 8.32 14 9 14 C9 15.32 9 16.64 9 18 C5.7 18 2.4 18 -1 18 C-1 16.68 -1 15.36 -1 14 C-0.01 14 0.98 14 2 14 C2 10.7 2 7.4 2 4 C1.34 4 0.68 4 0 4 C0 2.68 0 1.36 0 0 Z " fill="#73797C" transform="translate(364,183)"/>
<path d="M0 0 C2.45840605 -0.02691685 4.91651882 -0.04679802 7.375 -0.0625 C8.07367188 -0.07087891 8.77234375 -0.07925781 9.4921875 -0.08789062 C14.7734375 -0.11328125 14.7734375 -0.11328125 17 1 C17 5.29 17 9.58 17 14 C17.99 14 18.98 14 20 14 C20 15.32 20 16.64 20 18 C16.7 18 13.4 18 10 18 C10 16.68 10 15.36 10 14 C10.66 14 11.32 14 12 14 C12 10.7 12 7.4 12 4 C10.35 4 8.7 4 7 4 C7 7.3 7 10.6 7 14 C7.66 14 8.32 14 9 14 C9 15.32 9 16.64 9 18 C5.7 18 2.4 18 -1 18 C-1 16.68 -1 15.36 -1 14 C-0.01 14 0.98 14 2 14 C2 10.7 2 7.4 2 4 C1.34 4 0.68 4 0 4 C0 2.68 0 1.36 0 0 Z " fill="#747A7D" transform="translate(282,183)"/>
<path d="M0 0 C1.45599609 0.00580078 1.45599609 0.00580078 2.94140625 0.01171875 C5.4375 0.3125 5.4375 0.3125 7.4375 2.3125 C7.70741906 5.00089385 7.52487357 7.60391936 7.4375 10.3125 C3.8075 10.3125 0.1775 10.3125 -3.5625 10.3125 C-3.5625 11.6325 -3.5625 12.9525 -3.5625 14.3125 C-1.5825 14.3125 0.3975 14.3125 2.4375 14.3125 C2.4375 13.6525 2.4375 12.9925 2.4375 12.3125 C4.0875 12.3125 5.7375 12.3125 7.4375 12.3125 C7.0625 14.75 7.0625 14.75 6.4375 17.3125 C3.9933206 18.5345897 2.22720128 18.54891068 -0.5 18.625 C-1.37527344 18.66238281 -2.25054687 18.69976562 -3.15234375 18.73828125 C-5.5625 18.3125 -5.5625 18.3125 -7.35546875 16.640625 C-8.81373503 13.82791723 -8.9632796 11.90800083 -8.9375 8.75 C-8.94523437 7.79996094 -8.95296875 6.84992188 -8.9609375 5.87109375 C-8.5625 3.3125 -8.5625 3.3125 -7.38671875 1.4921875 C-4.85439227 -0.14541978 -2.99327488 -0.05181435 0 0 Z " fill="#72777B" transform="translate(311.5625,182.6875)"/>
<path d="M0 0 C2.31 0 4.62 0 7 0 C7.33 4.29 7.66 8.58 8 13 C9.32 13 10.64 13 12 13 C12.33 10.03 12.66 7.06 13 4 C12.01 4 11.02 4 10 4 C10 2.68 10 1.36 10 0 C12.64 0 15.28 0 18 0 C18 4.29 18 8.58 18 13 C18.66 13 19.32 13 20 13 C20 14.65 20 16.3 20 18 C17.37472811 18.05382106 14.75055287 18.09358313 12.125 18.125 C11.37863281 18.14175781 10.63226563 18.15851563 9.86328125 18.17578125 C7.90805539 18.1933959 5.95257979 18.10320189 4 18 C2 16 2 16 1.8046875 13.1796875 C1.82789063 12.08914062 1.85109375 10.99859375 1.875 9.875 C1.89304687 8.77929688 1.91109375 7.68359375 1.9296875 6.5546875 C1.95289063 5.71164063 1.97609375 4.86859375 2 4 C1.34 4 0.68 4 0 4 C0 2.68 0 1.36 0 0 Z " fill="#7A8083" transform="translate(449,183)"/>
<path d="M0 0 C2.31 0 4.62 0 7 0 C7 4.29 7 8.58 7 13 C8.98 13 10.96 13 13 13 C13 10.03 13 7.06 13 4 C12.01 4 11.02 4 10 4 C10 2.68 10 1.36 10 0 C12.64 0 15.28 0 18 0 C18 4.62 18 9.24 18 14 C18.66 14 19.32 14 20 14 C20 15.32 20 16.64 20 18 C17.69 18 15.38 18 13 18 C13 17.34 13 16.68 13 16 C12.01 16.66 11.02 17.32 10 18 C6.9375 18.3125 6.9375 18.3125 4 18 C1.71937172 14.57905758 1.78074993 13.31812778 1.875 9.3125 C1.89304688 8.31863281 1.91109375 7.32476562 1.9296875 6.30078125 C1.95289063 5.54152344 1.97609375 4.78226563 2 4 C1.34 4 0.68 4 0 4 C0 2.68 0 1.36 0 0 Z " fill="#72797C" transform="translate(168,183)"/>
<path d="M0 0 C3 0 6 0 9 0 C10.7634375 -0.0309375 10.7634375 -0.0309375 12.5625 -0.0625 C16 0 16 0 17 1 C17.07258946 3.18639453 17.08373783 5.37500389 17.0625 7.5625 C17.05347656 8.76003906 17.04445313 9.95757812 17.03515625 11.19140625 C17.02355469 12.11824219 17.01195312 13.04507813 17 14 C17.66 14 18.32 14 19 14 C19 14.99 19 15.98 19 17 C16.36 17 13.72 17 11 17 C11.33 12.71 11.66 8.42 12 4 C10.35 4 8.7 4 7 4 C7 7.3 7 10.6 7 14 C7.66 14 8.32 14 9 14 C9 15.32 9 16.64 9 18 C6.03 18 3.06 18 0 18 C0 16.68 0 15.36 0 14 C0.66 14 1.32 14 2 14 C2 10.7 2 7.4 2 4 C1.34 4 0.68 4 0 4 C0 2.68 0 1.36 0 0 Z " fill="#71777A" transform="translate(471,183)"/>
<path d="M0 0 C1 1 1 1 1.11352539 2.85766602 C1.10828857 3.64842529 1.10305176 4.43918457 1.09765625 5.25390625 C1.09443359 6.10791016 1.09121094 6.96191406 1.08789062 7.84179688 C1.07951172 8.73962891 1.07113281 9.63746094 1.0625 10.5625 C1.05798828 11.46419922 1.05347656 12.36589844 1.04882812 13.29492188 C1.03700225 15.53001314 1.0205222 17.76497437 1 20 C0.34 20 -0.32 20 -1 20 C-1 23.3 -1 26.6 -1 30 C5.93 30 12.86 30 20 30 C20 30.33 20 30.66 20 31 C12.74 31 5.48 31 -2 31 C-2 27.37 -2 23.74 -2 20 C-2.66 20 -3.32 20 -4 20 C-4 23.3 -4 26.6 -4 30 C-4.33 30 -4.66 30 -5 30 C-5 26.7 -5 23.4 -5 20 C-5.99 20 -6.98 20 -8 20 C-8 13.73 -8 7.46 -8 1 C-5.05549278 0.01849759 -3.06481021 -0.1613058 0 0 Z " fill="#E9EBEB" transform="translate(314,127)"/>
<path d="M0 0 C1.08152344 -0.01417969 2.16304687 -0.02835938 3.27734375 -0.04296875 C6.0625 0.1875 6.0625 0.1875 8.0625 2.1875 C8.2578125 5.0078125 8.2578125 5.0078125 8.1875 8.3125 C8.16945312 9.40820312 8.15140625 10.50390625 8.1328125 11.6328125 C8.10960937 12.47585937 8.08640625 13.31890625 8.0625 14.1875 C8.7225 14.1875 9.3825 14.1875 10.0625 14.1875 C10.0625 15.5075 10.0625 16.8275 10.0625 18.1875 C7.43722811 18.24132106 4.81305287 18.28108313 2.1875 18.3125 C1.44113281 18.32925781 0.69476563 18.34601563 -0.07421875 18.36328125 C-2.02944461 18.3808959 -3.98492021 18.29070189 -5.9375 18.1875 C-7.9375 16.1875 -7.9375 16.1875 -8.0625 12.5625 C-8.02125 11.44875 -7.98 10.335 -7.9375 9.1875 C-7.2775 9.1875 -6.6175 9.1875 -5.9375 9.1875 C-5.6075 10.5075 -5.2775 11.8275 -4.9375 13.1875 C-2.6275 13.1875 -0.3175 13.1875 2.0625 13.1875 C2.3925 12.1975 2.7225 11.2075 3.0625 10.1875 C1.639375 10.249375 1.639375 10.249375 0.1875 10.3125 C-2.9375 10.1875 -2.9375 10.1875 -4.9375 8.1875 C-2.2975 8.1875 0.3425 8.1875 3.0625 8.1875 C3.0625 6.8675 3.0625 5.5475 3.0625 4.1875 C1.4125 4.1875 -0.2375 4.1875 -1.9375 4.1875 C-1.9375 4.8475 -1.9375 5.5075 -1.9375 6.1875 C-3.5875 6.1875 -5.2375 6.1875 -6.9375 6.1875 C-6.980221 4.52138095 -6.97813832 2.85367115 -6.9375 1.1875 C-5.13003866 -0.61996134 -2.43304219 0.01446517 0 0 Z " fill="#666C70" transform="translate(241.9375,182.8125)"/>
<path d="M0 0 C1.91015625 0.23046875 1.91015625 0.23046875 3.91015625 2.23046875 C4.10864696 4.77582016 4.188674 7.18763634 4.16015625 9.73046875 C4.16789062 10.42011719 4.175625 11.10976562 4.18359375 11.8203125 C4.16348918 16.97713582 4.16348918 16.97713582 1.91015625 19.23046875 C-0.25390625 19.42578125 -0.25390625 19.42578125 -2.71484375 19.35546875 C-3.53210938 19.33742187 -4.349375 19.319375 -5.19140625 19.30078125 C-5.81789063 19.27757812 -6.444375 19.254375 -7.08984375 19.23046875 C-7.11668362 16.25124282 -7.13660412 13.2722558 -7.15234375 10.29296875 C-7.16072266 9.44283203 -7.16910156 8.59269531 -7.17773438 7.71679688 C-7.18095703 6.90791016 -7.18417969 6.09902344 -7.1875 5.265625 C-7.19273682 4.51676025 -7.19797363 3.76789551 -7.20336914 2.99633789 C-6.93644184 -1.15567316 -3.37962539 0.06746984 0 0 Z " fill="#F2F3F4" transform="translate(265.08984375,126.76953125)"/>
<path d="M0 0 C6.6 0 13.2 0 20 0 C20.33 1.65 20.66 3.3 21 5 C22.299375 3.7625 22.299375 3.7625 23.625 2.5 C26.95446812 -0.67092202 27.6462063 0 33 0 C33 4.62 33 9.24 33 14 C31.1025 14.226875 29.205 14.45375 27.25 14.6875 C26.18265625 14.81511719 25.1153125 14.94273437 24.015625 15.07421875 C20.59442134 14.99001814 19.44579177 14.30925485 17 12 C18.32 10.68 19.64 9.36 21 8 C20.34 7.67 19.68 7.34 19 7 C19 5.02 19 3.04 19 1 C13.06 1 7.12 1 1 1 C1 4.3 1 7.6 1 11 C0.67 11 0.34 11 0 11 C0 7.37 0 3.74 0 0 Z " fill="#70777B" transform="translate(432,116)"/>
<path d="M0 0 C1.23556641 0.01740234 1.23556641 0.01740234 2.49609375 0.03515625 C3.32238281 0.04417969 4.14867187 0.05320312 5 0.0625 C5.63808594 0.07410156 6.27617187 0.08570312 6.93359375 0.09765625 C6.96043362 3.07688218 6.98035412 6.0558692 6.99609375 9.03515625 C7.00447266 9.88529297 7.01285156 10.73542969 7.02148438 11.61132812 C7.02470703 12.42021484 7.02792969 13.22910156 7.03125 14.0625 C7.03648682 14.81136475 7.04172363 15.56022949 7.04711914 16.33178711 C6.93359375 18.09765625 6.93359375 18.09765625 5.93359375 19.09765625 C4.12109375 19.23046875 4.12109375 19.23046875 1.93359375 19.22265625 C1.21171875 19.22523438 0.48984375 19.2278125 -0.25390625 19.23046875 C-2.06640625 19.09765625 -2.06640625 19.09765625 -3.06640625 18.09765625 C-3.166276 15.25430577 -3.20518506 12.44068462 -3.19140625 9.59765625 C-3.19527344 8.79972656 -3.19914062 8.00179687 -3.203125 7.1796875 C-3.19119143 0.15081245 -3.19119143 0.15081245 0 0 Z " fill="#F9F9FA" transform="translate(402.06640625,126.90234375)"/>
<path d="M0 0 C4.33333333 0 8.66666667 0 13 0 C13 1.65 13 3.3 13 5 C11.02 5 9.04 5 7 5 C7 7.97 7 10.94 7 14 C7.66 14 8.32 14 9 14 C9 15.32 9 16.64 9 18 C5.7 18 2.4 18 -1 18 C-1 16.68 -1 15.36 -1 14 C-0.01 14 0.98 14 2 14 C2 10.7 2 7.4 2 4 C1.34 4 0.68 4 0 4 C0 2.68 0 1.36 0 0 Z " fill="#757B7F" transform="translate(322,183)"/>
<path d="M0 0 C4.33333333 0 8.66666667 0 13 0 C13 1.65 13 3.3 13 5 C11.02 5 9.04 5 7 5 C7 7.97 7 10.94 7 14 C7.99 14 8.98 14 10 14 C10 15.32 10 16.64 10 18 C6.7 18 3.4 18 0 18 C0 16.68 0 15.36 0 14 C0.66 14 1.32 14 2 14 C2 10.7 2 7.4 2 4 C1.34 4 0.68 4 0 4 C0 2.68 0 1.36 0 0 Z " fill="#72787C" transform="translate(190,183)"/>
<path d="M0 0 C4.33333333 0 8.66666667 0 13 0 C13 1.65 13 3.3 13 5 C11.02 5 9.04 5 7 5 C7 7.97 7 10.94 7 14 C7.99 14 8.98 14 10 14 C10 15.32 10 16.64 10 18 C6.7 18 3.4 18 0 18 C0 16.68 0 15.36 0 14 C0.66 14 1.32 14 2 14 C2 10.7 2 7.4 2 4 C1.34 4 0.68 4 0 4 C0 2.68 0 1.36 0 0 Z " fill="#777D81" transform="translate(416,183)"/>
<path d="M0 0 C4.33333333 0 8.66666667 0 13 0 C13 1.65 13 3.3 13 5 C11.02 5 9.04 5 7 5 C7 7.97 7 10.94 7 14 C7.66 14 8.32 14 9 14 C9 15.32 9 16.64 9 18 C5.7 18 2.4 18 -1 18 C-1 16.68 -1 15.36 -1 14 C-0.01 14 0.98 14 2 14 C2 10.7 2 7.4 2 4 C1.34 4 0.68 4 0 4 C0 2.68 0 1.36 0 0 Z " fill="#71777B" transform="translate(254,183)"/>
<path d="M0 0 C1.65 0 3.3 0 5 0 C5 1.32 5 2.64 5 4 C6.32 4 7.64 4 9 4 C9 5.32 9 6.64 9 8 C7.68 8 6.36 8 5 8 C5 11.3 5 14.6 5 18 C6.32 18 7.64 18 9 18 C9 18.99 9 19.98 9 21 C5.625 21.625 5.625 21.625 2 22 C0 20 0 20 -0.1953125 17.1796875 C-0.17210937 16.08914062 -0.14890625 14.99859375 -0.125 13.875 C-0.10695313 12.77929688 -0.08890625 11.68359375 -0.0703125 10.5546875 C-0.04710937 9.71164063 -0.02390625 8.86859375 0 8 C-0.66 8 -1.32 8 -2 8 C-2 6.68 -2 5.36 -2 4 C-1.34 4 -0.68 4 0 4 C0 2.68 0 1.36 0 0 Z " fill="#6D7276" transform="translate(270,179)"/>
<path d="M0 0 C2.8203125 -0.29296875 2.8203125 -0.29296875 6.125 -0.1875 C7.76855469 -0.14689453 7.76855469 -0.14689453 9.4453125 -0.10546875 C10.28835937 -0.07066406 11.13140625 -0.03585938 12 0 C12.33 0.66 12.66 1.32 13 2 C11 4 11 4 7.375 4.125 C6.26125 4.08375 5.1475 4.0425 4 4 C3.67 7.3 3.34 10.6 3 14 C5.31 14 7.62 14 10 14 C10 14.99 10 15.98 10 17 C8.37581255 17.08090971 6.75048255 17.13914995 5.125 17.1875 C4.22007812 17.22230469 3.31515625 17.25710937 2.3828125 17.29296875 C1.20332031 17.14794922 1.20332031 17.14794922 0 17 C-2.23465229 13.64802157 -2.27108649 12.42208754 -2.25 8.5 C-2.25515625 7.5409375 -2.2603125 6.581875 -2.265625 5.59375 C-2 3 -2 3 0 0 Z " fill="#71777B" transform="translate(152,183)"/>
<path d="M0 0 C0.33 0 0.66 0 1 0 C1.33 18.81 1.66 37.62 2 57 C2.66 57 3.32 57 4 57 C4 49.41 4 41.82 4 34 C4.33 34 4.66 34 5 34 C5.33 43.24 5.66 52.48 6 62 C4.35 62 2.7 62 1 62 C0.01 62.495 0.01 62.495 -1 63 C-2.59678322 63.01610171 -4.1945399 62.96535627 -5.7890625 62.87890625 C-6.73007813 62.83056641 -7.67109375 62.78222656 -8.640625 62.73242188 C-9.62546875 62.67634766 -10.6103125 62.62027344 -11.625 62.5625 C-12.61757812 62.51029297 -13.61015625 62.45808594 -14.6328125 62.40429688 C-17.08884568 62.27441051 -19.5444936 62.13943836 -22 62 C-22 61.67 -22 61.34 -22 61 C-14.74 61 -7.48 61 0 61 C0 40.87 0 20.74 0 0 Z " fill="#DCE8E7" transform="translate(159,96)"/>
<path d="M0 0 C1.73056641 -0.02513672 1.73056641 -0.02513672 3.49609375 -0.05078125 C6.5625 0.3125 6.5625 0.3125 8.4609375 1.6640625 C9.9740531 3.92837024 9.77823901 5.65171893 9.5625 8.3125 C7.5825 8.3125 5.6025 8.3125 3.5625 8.3125 C3.5625 6.9925 3.5625 5.6725 3.5625 4.3125 C1.2525 4.6425 -1.0575 4.9725 -3.4375 5.3125 C-3.7675 8.2825 -4.0975 11.2525 -4.4375 14.3125 C-5.4275 14.3125 -6.4175 14.3125 -7.4375 14.3125 C-7.65892255 12.35560341 -7.8642568 10.39688048 -8.0625 8.4375 C-8.17851562 7.34695312 -8.29453125 6.25640625 -8.4140625 5.1328125 C-8.42179687 4.20210937 -8.42953125 3.27140625 -8.4375 2.3125 C-5.65940605 -0.46559395 -3.86994797 0.01294297 0 0 Z " fill="#747A7E" transform="translate(403.4375,177.6875)"/>
<path d="M0 0 C1.95766281 -0.08082094 3.91626728 -0.13910778 5.875 -0.1875 C7.51082031 -0.23970703 7.51082031 -0.23970703 9.1796875 -0.29296875 C10.11039062 -0.19628906 11.04109375 -0.09960938 12 0 C14.30569339 3.45854008 14.29761619 4.97937508 14.3125 9.0625 C14.32925781 10.12597656 14.34601563 11.18945312 14.36328125 12.28515625 C14.18345703 13.62900391 14.18345703 13.62900391 14 15 C11 17 11 17 7.8125 16.625 C6.884375 16.41875 5.95625 16.2125 5 16 C5 15.34 5 14.68 5 14 C6.32 14 7.64 14 9 14 C8.67 10.7 8.34 7.4 8 4 C5.36 3.34 2.72 2.68 0 2 C0 1.34 0 0.68 0 0 Z " fill="#6E7478" transform="translate(347,183)"/>
<path d="M0 0 C5.61 0 11.22 0 17 0 C15.68 1.32 14.36 2.64 13 4 C13.33 4.33 13.66 4.66 14 5 C14.04063832 6.66617115 14.042721 8.33388095 14 10 C12.906875 9.95875 11.81375 9.9175 10.6875 9.875 C6.91107771 9.67925334 6.91107771 9.67925334 4 12 C4 9.36 4 6.72 4 4 C2.68 4 1.36 4 0 4 C0 2.68 0 1.36 0 0 Z " fill="#72797D" transform="translate(213,178)"/>
<path d="M0 0 C1.2684375 0.0309375 1.2684375 0.0309375 2.5625 0.0625 C3.2225 0.0625 3.8825 0.0625 4.5625 0.0625 C6.22916667 0.0625 7.89583333 0.0625 9.5625 0.0625 C9.5625 2.0425 9.5625 4.0225 9.5625 6.0625 C8.634375 5.98 7.70625 5.8975 6.75 5.8125 C3.47144778 5.70946955 3.47144778 5.70946955 1.6875 8.0625 C1.31625 8.7225 0.945 9.3825 0.5625 10.0625 C-2.39925123 9.44972388 -3.81808783 8.80877478 -6.4375 7.0625 C-6.625 3.9375 -6.625 3.9375 -6.4375 1.0625 C-5.4475 1.0625 -4.4575 1.0625 -3.4375 1.0625 C-2.4375 0.0625 -2.4375 0.0625 0 0 Z " fill="#9D9FA1" transform="translate(553.4375,337.9375)"/>
<path d="M0 0 C2.64 0 5.28 0 8 0 C8 0.33 8 0.66 8 1 C5.69 1 3.38 1 1 1 C1 2.32 1 3.64 1 5 C1.66 5 2.32 5 3 5 C3 8.3 3 11.6 3 15 C2.01 15.33 1.02 15.66 0 16 C-0.66 16.66 -1.32 17.32 -2 18 C-2 17.01 -2 16.02 -2 15 C-3.32 15 -4.64 15 -6 15 C-6 11.7 -6 8.4 -6 5 C-4.35 5 -2.7 5 -1 5 C-0.67 3.35 -0.34 1.7 0 0 Z " fill="#EFF0F0" transform="translate(281,182)"/>
<path d="M0 0 C0 1.65 0 3.3 0 5 C1.32 5 2.64 5 4 5 C4 6.98 4 8.96 4 11 C3.67 11 3.34 11 3 11 C3 9.35 3 7.7 3 6 C2.01 6.495 2.01 6.495 1 7 C0.34786708 9.02463255 0.34786708 9.02463255 0 11 C-1.27875 11.061875 -2.5575 11.12375 -3.875 11.1875 C-4.59429687 11.22230469 -5.31359375 11.25710938 -6.0546875 11.29296875 C-6.69664063 11.19628906 -7.33859375 11.09960938 -8 11 C-10 8 -10 8 -9.75 5.4375 C-9 3 -9 3 -7 1 C-4.60938484 0.40234621 -2.46474039 0 0 0 Z " fill="#BABCBD" transform="translate(65,333)"/>
<path d="M0 0 C1.4540625 0.0309375 1.4540625 0.0309375 2.9375 0.0625 C3.2675 0.7225 3.5975 1.3825 3.9375 2.0625 C2.9475 2.0625 1.9575 2.0625 0.9375 2.0625 C0.9375 5.6925 0.9375 9.3225 0.9375 13.0625 C2.9175 13.0625 4.8975 13.0625 6.9375 13.0625 C7.2675 14.0525 7.5975 15.0425 7.9375 16.0625 C6.31331255 16.14340971 4.68798255 16.20164995 3.0625 16.25 C2.15757812 16.28480469 1.25265625 16.31960937 0.3203125 16.35546875 C-0.85917969 16.21044922 -0.85917969 16.21044922 -2.0625 16.0625 C-4.39618594 12.56197109 -4.30471979 11.06635663 -4.25 6.9375 C-4.24355469 5.86242187 -4.23710937 4.78734375 -4.23046875 3.6796875 C-3.9882707 -0.09409614 -3.84521597 0.0784738 0 0 Z " fill="#6B7175" transform="translate(435.0625,183.9375)"/>
<path d="M0 0 C0.66 0 1.32 0 2 0 C2 0.66 2 1.32 2 2 C2.66 2 3.32 2 4 2 C4 1.34 4 0.68 4 0 C6.31243792 -0.02685412 8.6249627 -0.04632841 10.9375 -0.0625 C12.22527344 -0.07410156 13.51304687 -0.08570313 14.83984375 -0.09765625 C18 0 18 0 19 1 C19.04063832 2.66617115 19.042721 4.33388095 19 6 C18.01 4.68 17.02 3.36 16 2 C16 3.65 16 5.3 16 7 C10.62694301 7.35233161 10.62694301 7.35233161 8 7 C6 5 6 5 5 3 C4.67 3.99 4.34 4.98 4 6 C3.34 6 2.68 6 2 6 C1.34 4.02 0.68 2.04 0 0 Z " fill="#9FA1A4" transform="translate(219,338)"/>
<path d="M0 0 C0.33 1.32 0.66 2.64 1 4 C1.66 4 2.32 4 3 4 C3 7.3 3 10.6 3 14 C1.35 14.33 -0.3 14.66 -2 15 C-2 14.01 -2 13.02 -2 12 C-3.65 12 -5.3 12 -7 12 C-7 12.66 -7 13.32 -7 14 C-8.98 14 -10.96 14 -13 14 C-13 12.68 -13 11.36 -13 10 C-9.37 10 -5.74 10 -2 10 C-2.04125 8.906875 -2.0825 7.81375 -2.125 6.6875 C-2 3 -2 3 0 0 Z " fill="#F0F1F2" transform="translate(321,183)"/>
<path d="M0 0 C0.66 0 1.32 0 2 0 C2.66 1.65 3.32 3.3 4 5 C4.99 3.35 5.98 1.7 7 0 C7.99 1.32 8.98 2.64 10 4 C10.33 3.67 10.66 3.34 11 3 C12.99958364 2.95919217 15.00045254 2.95745644 17 3 C17 4.98 17 6.96 17 9 C15.54207116 9.05399736 14.08357288 9.09279177 12.625 9.125 C11.81289063 9.14820313 11.00078125 9.17140625 10.1640625 9.1953125 C8 9 8 9 6 7 C5.01 7.33 4.02 7.66 3 8 C2.67 7.34 2.34 6.68 2 6 C1.67 6.99 1.34 7.98 1 9 C0.34 9 -0.32 9 -1 9 C-0.67 6.03 -0.34 3.06 0 0 Z " fill="#8E9295" transform="translate(525,335)"/>
<path d="M0 0 C2.33294775 -0.04241723 4.66702567 -0.04092937 7 0 C8 1 8 1 8 8 C2.72 7.67 -2.56 7.34 -8 7 C-8 6.67 -8 6.34 -8 6 C-10.97 5.505 -10.97 5.505 -14 5 C-14 4.67 -14 4.34 -14 4 C-9.71 4 -5.42 4 -1 4 C-0.67 2.68 -0.34 1.36 0 0 Z " fill="#EDEEEF" transform="translate(354,126)"/>
<path d="M0 0 C0.33 0 0.66 0 1 0 C1 3.63 1 7.26 1 11 C1.66 11 2.32 11 3 11 C3 12.65 3 14.3 3 16 C-0.3 16 -3.6 16 -7 16 C-7 14.68 -7 13.36 -7 12 C-7.99 12 -8.98 12 -10 12 C-10 8.7 -10 5.4 -10 2 C-8.35 2 -6.7 2 -5 2 C-4.97291433 3.60407328 -4.95356517 5.2082785 -4.9375 6.8125 C-4.92589844 7.70582031 -4.91429687 8.59914062 -4.90234375 9.51953125 C-5 12 -5 12 -6 15 C-3.36 15 -0.72 15 2 15 C2 14.01 2 13.02 2 12 C1.34 12 0.68 12 0 12 C0 8.04 0 4.08 0 0 Z " fill="#E0E1E2" transform="translate(488,185)"/>
<path d="M0 0 C2.64 0 5.28 0 8 0 C8 2.31 8 4.62 8 7 C3.71 7 -0.58 7 -5 7 C-5 6.67 -5 6.34 -5 6 C-7.97 5.67 -10.94 5.34 -14 5 C-14 4.67 -14 4.34 -14 4 C-9.38 4 -4.76 4 0 4 C0 2.68 0 1.36 0 0 Z " fill="#F0F1F2" transform="translate(483,126)"/>
<path d="M0 0 C0.99 0 1.98 0 3 0 C3 4.29 3 8.58 3 13 C3.66 13 4.32 13 5 13 C5 13.99 5 14.98 5 16 C2.36 16 -0.28 16 -3 16 C-3 15.01 -3 14.02 -3 13 C-2.34 13 -1.68 13 -1 13 C-1.01160156 12.14535156 -1.02320313 11.29070312 -1.03515625 10.41015625 C-1.04417969 9.30542969 -1.05320312 8.20070312 -1.0625 7.0625 C-1.07410156 5.96035156 -1.08570313 4.85820312 -1.09765625 3.72265625 C-1 1 -1 1 0 0 Z " fill="#656D70" transform="translate(485,184)"/>
<path d="M0 0 C4.33333333 0 8.66666667 0 13 0 C13 1.65 13 3.3 13 5 C11.02 5 9.04 5 7 5 C7 5.66 7 6.32 7 7 C5 8.625 5 8.625 3 10 C3 8.02 3 6.04 3 4 C2.01 4 1.02 4 0 4 C0 2.68 0 1.36 0 0 Z " fill="#71777B" transform="translate(416,183)"/>
<path d="M0 0 C1 3 1 3 0 8 C-4.29 8 -8.58 8 -13 8 C-13.33 6.35 -13.66 4.7 -14 3 C-9.25 2 -9.25 2 -7 2 C-7 3.65 -7 5.3 -7 7 C-6.01 7 -5.02 7 -4 7 C-4 5.02 -4 3.04 -4 1 C-2 0 -2 0 0 0 Z " fill="#9B9EA1" transform="translate(334,336)"/>
<path d="M0 0 C0 5.94 0 11.88 0 18 C-0.66 16.68 -1.32 15.36 -2 14 C-2.66 15.32 -3.32 16.64 -4 18 C-4 15.03 -4 12.06 -4 9 C-6.97 8.505 -6.97 8.505 -10 8 C-10 7.34 -10 6.68 -10 6 C-8.35 6 -6.7 6 -5 6 C-4.566875 4.7934375 -4.566875 4.7934375 -4.125 3.5625 C-2.56097561 0 -2.56097561 0 0 0 Z " fill="#636B6F" transform="translate(508,178)"/>
<path d="M0 0 C0 0.66 0 1.32 0 2 C-1.65 2.33 -3.3 2.66 -5 3 C-5 4.65 -5 6.3 -5 8 C-3.68 8 -2.36 8 -1 8 C0.77409808 6.07977297 0.77409808 6.07977297 2 4 C3.65 4.33 5.3 4.66 7 5 C6.67 6.65 6.34 8.3 6 10 C4.04196493 10.05389087 2.08351091 10.09274217 0.125 10.125 C-0.96554687 10.14820313 -2.05609375 10.17140625 -3.1796875 10.1953125 C-6 10 -6 10 -8 8 C-8.36487512 5.15397406 -8.40199375 3.6135694 -6.8125 1.1875 C-4.44017475 -0.36678206 -2.77958655 -0.22537188 0 0 Z " fill="#9A9DA0" transform="translate(374,334)"/>
<path d="M0 0 C0.66 0 1.32 0 2 0 C2 1.65 2 3.3 2 5 C3.32 5.33 4.64 5.66 6 6 C6 7.65 6 9.3 6 11 C5.34 11 4.68 11 4 11 C4 9.35 4 7.7 4 6 C3.34 6 2.68 6 2 6 C2 7.65 2 9.3 2 11 C-0.31 11 -2.62 11 -5 11 C-5.625 9.125 -5.625 9.125 -6 7 C-5.34 6.34 -4.68 5.68 -4 5 C-2.68 5 -1.36 5 0 5 C0 3.35 0 1.7 0 0 Z " fill="#939698" transform="translate(480,333)"/>
<path d="M0 0 C0.99 0 1.98 0 3 0 C3 1.32 3 2.64 3 4 C3.99 4 4.98 4 6 4 C6 6.97 6 9.94 6 13 C4.02 13 2.04 13 0 13 C0 8.71 0 4.42 0 0 Z " fill="#ECEDEE" transform="translate(175,183)"/>
<path d="M0 0 C0.99 0.33 1.98 0.66 3 1 C3 2.32 3 3.64 3 5 C3.99 5 4.98 5 6 5 C6 6.65 6 8.3 6 10 C2.37 10 -1.26 10 -5 10 C-5 8.68 -5 7.36 -5 6 C-3.68 6 -2.36 6 -1 6 C-1.020625 5.195625 -1.04125 4.39125 -1.0625 3.5625 C-1 1 -1 1 0 0 Z " fill="#82878A" transform="translate(218,191)"/>
<path d="M0 0 C0.433125 0.474375 0.86625 0.94875 1.3125 1.4375 C3.02309613 3.23686957 3.02309613 3.23686957 6 4 C6 6.97 6 9.94 6 13 C4.34385343 13.38218767 2.67542976 13.71395102 1 14 C0 13 0 13 -0.09765625 10.05859375 C-0.08605469 8.86363281 -0.07445312 7.66867188 -0.0625 6.4375 C-0.05347656 5.23996094 -0.04445313 4.04242188 -0.03515625 2.80859375 C-0.02355469 1.88175781 -0.01195312 0.95492187 0 0 Z " fill="#E9E9EA" transform="translate(456,183)"/>
<path d="M0 0 C0.99 0 1.98 0 3 0 C3 6.93 3 13.86 3 21 C2.01 21.33 1.02 21.66 0 22 C0 14.74 0 7.48 0 0 Z " fill="#FCFDFC" transform="translate(160,71)"/>
<path d="M0 0 C1.23556641 0.01740234 1.23556641 0.01740234 2.49609375 0.03515625 C3.32238281 0.04417969 4.14867187 0.05320313 5 0.0625 C5.63808594 0.07410156 6.27617187 0.08570313 6.93359375 0.09765625 C6.93359375 1.74765625 6.93359375 3.39765625 6.93359375 5.09765625 C3.81063337 6.94829944 1.55418607 7.39121779 -2.06640625 7.09765625 C-3.06640625 6.09765625 -3.06640625 6.09765625 -3.19140625 3.59765625 C-3.01865637 0.14265862 -3.01865637 0.14265862 0 0 Z " fill="#F4F4F4" transform="translate(355.06640625,140.90234375)"/>
<path d="M0 0 C3.3 0 6.6 0 10 0 C9.75 3.375 9.75 3.375 9 7 C6.9375 8.4375 6.9375 8.4375 5 9 C4.34 7.35 3.68 5.7 3 4 C2.01 4 1.02 4 0 4 C0 2.68 0 1.36 0 0 Z " fill="#6D7376" transform="translate(128,178)"/>
<path d="M0 0 C1.98 0 3.96 0 6 0 C6 3.3 6 6.6 6 10 C4.02 10 2.04 10 0 10 C0 6.7 0 3.4 0 0 Z " fill="#F2F3F3" transform="translate(436,187)"/>
<path d="M0 0 C1.98 0 3.96 0 6 0 C6 3.3 6 6.6 6 10 C4.02 10 2.04 10 0 10 C0 6.7 0 3.4 0 0 Z " fill="#F1F2F2" transform="translate(350,187)"/>
<path d="M0 0 C1.98 0 3.96 0 6 0 C6 3.3 6 6.6 6 10 C4.02 10 2.04 10 0 10 C0 6.7 0 3.4 0 0 Z " fill="#F0F1F1" transform="translate(155,187)"/>
<path d="M0 0 C2.97 0 5.94 0 9 0 C9.125 2.375 9.125 2.375 9 5 C7 7 7 7 3.375 7.125 C2.26125 7.08375 1.1475 7.0425 0 7 C0 4.69 0 2.38 0 0 Z " fill="#F3F4F4" transform="translate(482,141)"/>
<path d="M0 0 C1.485 0.99 1.485 0.99 3 2 C6.67573957 3.06402988 9.30618622 2.94983783 13 2 C12.01 2.495 12.01 2.495 11 3 C11 4.65 11 6.3 11 8 C7 8 7 8 4.375 7.4375 C1.9934896 6.75248427 1.9934896 6.75248427 0 8 C-1.125 2.25 -1.125 2.25 0 0 Z " fill="#9A9D9F" transform="translate(410,336)"/>
<path d="M0 0 C0.66 0 1.32 0 2 0 C2 3.63 2 7.26 2 11 C-1.27275026 11 -3.846632 10.70074844 -7 10 C-6.67 8.35 -6.34 6.7 -6 5 C-4.02 5 -2.04 5 0 5 C0 3.35 0 1.7 0 0 Z " fill="#A5A7A9" transform="translate(145,333)"/>
<path d="M0 0 C0.66 0 1.32 0 2 0 C2.33 1.98 2.66 3.96 3 6 C4.65 5.67 6.3 5.34 8 5 C8.38218767 6.65614657 8.71395102 8.32457024 9 10 C8 11 8 11 6.15234375 11.09765625 C4.1015625 11.06510417 2.05078125 11.03255208 0 11 C0 7.37 0 3.74 0 0 Z " fill="#A3A6A8" transform="translate(564,333)"/>
<path d="M0 0 C1.98 0 3.96 0 6 0 C6.02689216 1.47906892 6.04634621 2.95827483 6.0625 4.4375 C6.07410156 5.26121094 6.08570313 6.08492187 6.09765625 6.93359375 C6 9 6 9 5 10 C3.35 10 1.7 10 0 10 C0 6.7 0 3.4 0 0 Z " fill="#ECEDEE" transform="translate(498,187)"/>
<path d="M0 0 C0.33 0 0.66 0 1 0 C1 3.3 1 6.6 1 10 C3.31 10 5.62 10 8 10 C8 10.99 8 11.98 8 13 C4.7 13 1.4 13 -2 13 C-3.23621824 10.52756353 -2.98408601 9.22682061 -2.6875 6.5 C-2.60886719 5.7059375 -2.53023437 4.911875 -2.44921875 4.09375 C-2 2 -2 2 0 0 Z " fill="#697174" transform="translate(154,187)"/>
<path d="M0 0 C2.31 0 4.62 0 7 0 C7 3.96 7 7.92 7 12 C6.34 12 5.68 12 5 12 C4.01 12.495 4.01 12.495 3 13 C3 10.03 3 7.06 3 4 C2.01 4 1.02 4 0 4 C0 2.68 0 1.36 0 0 Z " fill="#6C7275" transform="translate(178,183)"/>
<path d="M0 0 C1.79133978 -0.05391993 3.58313899 -0.09275571 5.375 -0.125 C6.37273437 -0.14820313 7.37046875 -0.17140625 8.3984375 -0.1953125 C11 0 11 0 13 2 C13.26991906 4.68839385 13.08737357 7.29141936 13 10 C12.67 10 12.34 10 12 10 C12 7.69 12 5.38 12 3 C11.34 3 10.68 3 10 3 C9.34 4.32 8.68 5.64 8 7 C6.02 7 4.04 7 2 7 C2.33 5.35 2.66 3.7 3 2 C2.01 1.34 1.02 0.68 0 0 Z " fill="#7E8386" transform="translate(306,183)"/>
<path d="M0 0 C1.98 1.32 3.96 2.64 6 4 C5.67 6.64 5.34 9.28 5 12 C4.67 10.68 4.34 9.36 4 8 C2.68 7.67 1.36 7.34 0 7 C0 8.98 0 10.96 0 13 C-0.99 12.67 -1.98 12.34 -3 12 C-2.34 12 -1.68 12 -1 12 C-1.66 8.7 -2.32 5.4 -3 2 C-2.01 1.34 -1.02 0.68 0 0 Z " fill="#7C8286" transform="translate(137,184)"/>
<path d="M0 0 C0.33 0 0.66 0 1 0 C1 3.96 1 7.92 1 12 C1.66 12 2.32 12 3 12 C3 13.32 3 14.64 3 16 C-0.375 16.125 -0.375 16.125 -4 16 C-4.66 15.34 -5.32 14.68 -6 14 C-5.38125 13.54625 -4.7625 13.0925 -4.125 12.625 C-1.04042995 8.81464877 -0.69126624 4.76609884 0 0 Z " fill="#7D8386" transform="translate(249,185)"/>
<path d="M0 0 C1.65 0 3.3 0 5 0 C5 3.3 5 6.6 5 10 C4.34 10 3.68 10 3 10 C2.67 10.66 2.34 11.32 2 12 C2 11.34 2 10.68 2 10 C1.34 10 0.68 10 0 10 C0 6.7 0 3.4 0 0 Z " fill="#F7F8F8" transform="translate(289,187)"/>
<path d="M0 0 C2.31 0 4.62 0 7 0 C7.125 3.375 7.125 3.375 7 7 C6.34 7.66 5.68 8.32 5 9 C4.60235737 10.98821313 4.26224651 12.98944339 4 15 C3.67 15 3.34 15 3 15 C3 11.37 3 7.74 3 4 C2.01 4 1.02 4 0 4 C0 2.68 0 1.36 0 0 Z " fill="#646C6F" transform="translate(449,183)"/>
<path d="M0 0 C0.33 0 0.66 0 1 0 C1 1.98 1 3.96 1 6 C1.99 6 2.98 6 4 6 C4 7.32 4 8.64 4 10 C0.7 10 -2.6 10 -6 10 C-6 8.68 -6 7.36 -6 6 C-4.68 6 -3.36 6 -2 6 C-2 5.34 -2 4.68 -2 4 C-1.34 4 -0.68 4 0 4 C0 2.68 0 1.36 0 0 Z " fill="#797F82" transform="translate(369,191)"/>
<path d="M0 0 C0.66 0.33 1.32 0.66 2 1 C2 1.99 2 2.98 2 4 C2.99 4 3.98 4 5 4 C5 5.32 5 6.64 5 8 C1.7 8 -1.6 8 -5 8 C-5 6.68 -5 5.36 -5 4 C-4.360625 3.71125 -3.72125 3.4225 -3.0625 3.125 C-0.84793921 2.17176549 -0.84793921 2.17176549 0 0 Z " fill="#777D80" transform="translate(258,193)"/>
<path d="M0 0 C1.65 0 3.3 0 5 0 C5 3.3 5 6.6 5 10 C3.35 10 1.7 10 0 10 C0 6.7 0 3.4 0 0 Z " fill="#F6F6F6" transform="translate(371,187)"/>
<path d="M0 0 C1.32 0.33 2.64 0.66 4 1 C6.68149993 0.61432869 6.68149993 0.61432869 9 0 C9 1.65 9 3.3 9 5 C7.02 5 5.04 5 3 5 C3 7.97 3 10.94 3 14 C2.67 14 2.34 14 2 14 C1.34 9.38 0.68 4.76 0 0 Z " fill="#7C8084" transform="translate(326,183)"/>
<path d="M0 0 C0.99 0 1.98 0 3 0 C3 0.99 3 1.98 3 3 C4.32 3 5.64 3 7 3 C7 4.32 7 5.64 7 7 C3.7 7 0.4 7 -3 7 C-3 5.68 -3 4.36 -3 3 C-2.01 3 -1.02 3 0 3 C0 2.01 0 1.02 0 0 Z " fill="#7A8083" transform="translate(284,194)"/>
<path d="M0 0 C2.64 0 5.28 0 8 0 C8 6.27 8 12.54 8 19 C8.66 19.33 9.32 19.66 10 20 C9.01 20 8.02 20 7 20 C6.67 14.39 6.34 8.78 6 3 C3.48916886 4.25541557 3.12874554 5.50063488 2 8 C2 6.68 2 5.36 2 4 C1.34 4 0.68 4 0 4 C0 2.68 0 1.36 0 0 Z " fill="#92979A" transform="translate(501,177)"/>
<path d="M0 0 C0.33 1.32 0.66 2.64 1 4 C-0.98 4.33 -2.96 4.66 -5 5 C-2.03 5.495 -2.03 5.495 1 6 C0.67 7.32 0.34 8.64 0 10 C-2.31 9.67 -4.62 9.34 -7 9 C-7.66 7.35 -8.32 5.7 -9 4 C-8 3 -8 3 -6.15234375 2.90234375 C-4.1015625 2.93489583 -2.05078125 2.96744792 0 3 C0 2.01 0 1.02 0 0 Z " fill="#8A9093" transform="translate(244,187)"/>
<path d="M0 0 C0.33 0 0.66 0 1 0 C1.33 2.31 1.66 4.62 2 7 C2.33 5.02 2.66 3.04 3 1 C3.33 1 3.66 1 4 1 C4.0825 1.78375 4.165 2.5675 4.25 3.375 C4.72806339 6.14749104 4.72806339 6.14749104 7.0625 7.3125 C7.701875 7.539375 8.34125 7.76625 9 8 C8.34 8.66 7.68 9.32 7 10 C6.01 10 5.02 10 4 10 C4 11.65 4 13.3 4 15 C3.67 15 3.34 15 3 15 C2.67 13.35 2.34 11.7 2 10 C1.67 11.65 1.34 13.3 1 15 C0.67 15 0.34 15 0 15 C0 10.05 0 5.1 0 0 Z " fill="#61686C" transform="translate(216,182)"/>
<path d="M0 0 C1.32 0 2.64 0 4 0 C5.29721449 3.89164348 5.13033993 6.89429226 5 11 C4.67 11.66 4.34 12.32 4 13 C3.34 13 2.68 13 2 13 C2 10.03 2 7.06 2 4 C1.34 4 0.68 4 0 4 C0 2.68 0 1.36 0 0 Z " fill="#696F73" transform="translate(322,183)"/>
<path d="M0 0 C1.65322266 0.01740234 1.65322266 0.01740234 3.33984375 0.03515625 C4.99693359 0.04869141 4.99693359 0.04869141 6.6875 0.0625 C7.54214844 0.07410156 8.39679688 0.08570313 9.27734375 0.09765625 C9.27734375 0.42765625 9.27734375 0.75765625 9.27734375 1.09765625 C6.63734375 1.09765625 3.99734375 1.09765625 1.27734375 1.09765625 C1.27734375 1.75765625 1.27734375 2.41765625 1.27734375 3.09765625 C2.59734375 3.42765625 3.91734375 3.75765625 5.27734375 4.09765625 C3.95734375 4.09765625 2.63734375 4.09765625 1.27734375 4.09765625 C1.27734375 4.75765625 1.27734375 5.41765625 1.27734375 6.09765625 C-0.37265625 6.09765625 -2.02265625 6.09765625 -3.72265625 6.09765625 C-3.76537725 4.4315372 -3.76329457 2.7638274 -3.72265625 1.09765625 C-2.72265625 0.09765625 -2.72265625 0.09765625 0 0 Z " fill="#7B8083" transform="translate(238.72265625,182.90234375)"/>
<path d="M0 0 C0.33 0 0.66 0 1 0 C1.125 6.625 1.125 6.625 0 10 C0.33 10.33 0.66 10.66 1 11 C1.14115161 13.67058851 1.04247107 16.32432238 1 19 C0.34 18.67 -0.32 18.34 -1 18 C-0.67 16.35 -0.34 14.7 0 13 C-2.31 13 -4.62 13 -7 13 C-6.525625 12.4225 -6.05125 11.845 -5.5625 11.25 C-4.0515133 9.07417916 -3.45963849 7.57397552 -3 5 C-2.01 5 -1.02 5 0 5 C0 3.35 0 1.7 0 0 Z " fill="#8D9296" transform="translate(491,128)"/>
<path d="M0 0 C0.66 0 1.32 0 2 0 C2.33 1.32 2.66 2.64 3 4 C5.97 4.495 5.97 4.495 9 5 C8.01 5.66 7.02 6.32 6 7 C6.99 7.66 7.98 8.32 9 9 C5.625 9.125 5.625 9.125 2 9 C0 7 0 7 -0.125 3.375 C-0.08375 2.26125 -0.0425 1.1475 0 0 Z " fill="#7E8386" transform="translate(234,192)"/>
<path d="M0 0 C1.99954746 -0.04254356 4.00041636 -0.04080783 6 0 C7 1 7 1 7.0625 3.5625 C7.041875 4.366875 7.02125 5.17125 7 6 C6.01 4.68 5.02 3.36 4 2 C4 3.65 4 5.3 4 7 C1.36 7 -1.28 7 -4 7 C-2.68 6.67 -1.36 6.34 0 6 C0 4.02 0 2.04 0 0 Z " fill="#B3B5B7" transform="translate(231,338)"/>
<path d="M0 0 C0.33 0 0.66 0 1 0 C1 1.65 1 3.3 1 5 C2.65 5.33 4.3 5.66 6 6 C5.67 7.65 5.34 9.3 5 11 C3.35 11 1.7 11 0 11 C0 7.37 0 3.74 0 0 Z " fill="#999C9E" transform="translate(395,333)"/>
<path d="M0 0 C0.66 0 1.32 0 2 0 C2 0.66 2 1.32 2 2 C2.99 2 3.98 2 5 2 C4.67 4.97 4.34 7.94 4 11 C2.68 11 1.36 11 0 11 C0 7.37 0 3.74 0 0 Z " fill="#9B9D9F" transform="translate(314,333)"/>
<path d="M0 0 C0.33 0 0.66 0 1 0 C1 3.63 1 7.26 1 11 C-0.65 11 -2.3 11 -4 11 C-4.33 9.35 -4.66 7.7 -5 6 C-3.35 5.67 -1.7 5.34 0 5 C0 3.35 0 1.7 0 0 Z " fill="#9DA0A2" transform="translate(244,333)"/>
<path d="M0 0 C1.134375 0.020625 2.26875 0.04125 3.4375 0.0625 C2.7775 0.7225 2.1175 1.3825 1.4375 2.0625 C0.7775 1.7325 0.1175 1.4025 -0.5625 1.0625 C-0.5625 1.7225 -0.5625 2.3825 -0.5625 3.0625 C0.7575 3.3925 2.0775 3.7225 3.4375 4.0625 C2.1175 4.0625 0.7975 4.0625 -0.5625 4.0625 C-0.5625 7.0325 -0.5625 10.0025 -0.5625 13.0625 C-0.8925 13.0625 -1.2225 13.0625 -1.5625 13.0625 C-1.5625 10.4225 -1.5625 7.7825 -1.5625 5.0625 C-2.8825 5.0625 -4.2025 5.0625 -5.5625 5.0625 C-4.43693182 0.07784091 -4.43693182 0.07784091 0 0 Z " fill="#7C8286" transform="translate(498.5625,182.9375)"/>
<path d="M0 0 C0.66 0 1.32 0 2 0 C2.66 1.65 3.32 3.3 4 5 C4.99 3.35 5.98 1.7 7 0 C7.33 1.32 7.66 2.64 8 4 C7.34 4 6.68 4 6 4 C5.67 5.32 5.34 6.64 5 8 C4.34 8 3.68 8 3 8 C2.67 7.34 2.34 6.68 2 6 C1.67 6.99 1.34 7.98 1 9 C0.34 9 -0.32 9 -1 9 C-0.67 6.03 -0.34 3.06 0 0 Z " fill="#898C8F" transform="translate(525,335)"/>
<path d="M0 0 C0.99 0.33 1.98 0.66 3 1 C3.22174933 2.45635371 3.42698698 3.91522956 3.625 5.375 C3.74101562 6.18710938 3.85703125 6.99921875 3.9765625 7.8359375 C3.98429687 8.55007812 3.99203125 9.26421875 4 10 C2 12 2 12 -0.3828125 12.1953125 C-1.28773438 12.17210937 -2.19265625 12.14890625 -3.125 12.125 C-4.49011719 12.09792969 -4.49011719 12.09792969 -5.8828125 12.0703125 C-6.58148438 12.04710937 -7.28015625 12.02390625 -8 12 C-8 11.67 -8 11.34 -8 11 C-4.535 10.505 -4.535 10.505 -1 10 C0.04005702 6.61981469 0.08004482 3.5219721 0 0 Z M1 4 C2 6 2 6 2 6 Z " fill="#7C8184" transform="translate(442,189)"/>
<path d="M0 0 C2.31 0 4.62 0 7 0 C6.67 0.99 6.34 1.98 6 3 C5.34 2.67 4.68 2.34 4 2 C4 5.96 4 9.92 4 14 C3.67 14 3.34 14 3 14 C3 10.7 3 7.4 3 4 C1.68 4 0.36 4 -1 4 C-0.67 2.68 -0.34 1.36 0 0 Z " fill="#7B8285" transform="translate(373,183)"/>
<path d="M0 0 C1.2065625 0.0309375 1.2065625 0.0309375 2.4375 0.0625 C2.4375 2.0425 2.4375 4.0225 2.4375 6.0625 C0.4575 6.0625 -1.5225 6.0625 -3.5625 6.0625 C-3.605221 4.39638095 -3.60313832 2.72867115 -3.5625 1.0625 C-2.5625 0.0625 -2.5625 0.0625 0 0 Z " fill="#A5A8AA" transform="translate(310.5625,337.9375)"/>
<path d="M0 0 C1.2065625 0.0309375 1.2065625 0.0309375 2.4375 0.0625 C2.4375 2.0425 2.4375 4.0225 2.4375 6.0625 C0.4575 6.0625 -1.5225 6.0625 -3.5625 6.0625 C-3.605221 4.39638095 -3.60313832 2.72867115 -3.5625 1.0625 C-2.5625 0.0625 -2.5625 0.0625 0 0 Z " fill="#A2A5A8" transform="translate(171.5625,337.9375)"/>
<path d="M0 0 C2.31 0 4.62 0 7 0 C6.67 1.98 6.34 3.96 6 6 C5.34 6 4.68 6 4 6 C3.67 7.32 3.34 8.64 3 10 C3 8.02 3 6.04 3 4 C2.01 4 1.02 4 0 4 C0 2.68 0 1.36 0 0 Z " fill="#697074" transform="translate(416,183)"/>
<path d="M0 0 C1.66611905 -0.042721 3.33382885 -0.04063832 5 0 C6 1 6 1 6.0625 3.5625 C6.041875 4.366875 6.02125 5.17125 6 6 C4.02 6 2.04 6 0 6 C0 4.02 0 2.04 0 0 Z " fill="#EDEDEF" transform="translate(221,182)"/>
<path d="M0 0 C1.2065625 0.0309375 1.2065625 0.0309375 2.4375 0.0625 C2.4375 2.0425 2.4375 4.0225 2.4375 6.0625 C0.7875 6.0625 -0.8625 6.0625 -2.5625 6.0625 C-2.94468767 4.40635343 -3.27645102 2.73792976 -3.5625 1.0625 C-2.5625 0.0625 -2.5625 0.0625 0 0 Z " fill="#A1A4A6" transform="translate(405.5625,337.9375)"/>
<path d="M0 0 C1.2065625 0.0309375 1.2065625 0.0309375 2.4375 0.0625 C2.4375 2.0425 2.4375 4.0225 2.4375 6.0625 C0.7875 6.0625 -0.8625 6.0625 -2.5625 6.0625 C-2.94468767 4.40635343 -3.27645102 2.73792976 -3.5625 1.0625 C-2.5625 0.0625 -2.5625 0.0625 0 0 Z " fill="#9FA2A4" transform="translate(94.5625,337.9375)"/>
<path d="M0 0 C1.2065625 0.0309375 1.2065625 0.0309375 2.4375 0.0625 C2.4375 2.0425 2.4375 4.0225 2.4375 6.0625 C0.7875 6.0625 -0.8625 6.0625 -2.5625 6.0625 C-2.94468767 4.40635343 -3.27645102 2.73792976 -3.5625 1.0625 C-2.5625 0.0625 -2.5625 0.0625 0 0 Z " fill="#A0A3A6" transform="translate(157.5625,337.9375)"/>
<path d="M0 0 C2.31 0 4.62 0 7 0 C7.33 1.32 7.66 2.64 8 4 C7.01 4.66 6.02 5.32 5 6 C2.3125 5.125 2.3125 5.125 0 4 C0 2.68 0 1.36 0 0 Z " fill="#6A7074" transform="translate(364,183)"/>
<path d="M0 0 C0.66 0 1.32 0 2 0 C2.185625 1.2065625 2.185625 1.2065625 2.375 2.4375 C2.58125 3.283125 2.7875 4.12875 3 5 C3.66 5.33 4.32 5.66 5 6 C5 7.66666667 5 9.33333333 5 11 C3.35 11 1.7 11 0 11 C0 7.37 0 3.74 0 0 Z " fill="#909396" transform="translate(148,333)"/>
<path d="M0 0 C3.3 0 6.6 0 10 0 C10.33 0.66 10.66 1.32 11 2 C9.35 2 7.7 2 6 2 C6 2.66 6 3.32 6 4 C4.02 4 2.04 4 0 4 C0 2.68 0 1.36 0 0 Z " fill="#E6E8EA" transform="translate(308,193)"/>
<path d="M0 0 C0.99 0.33 1.98 0.66 3 1 C3 5.33333333 3 9.66666667 3 14 C2.01 13.67 1.02 13.34 0 13 C0 8.71 0 4.42 0 0 Z " fill="#646B6F" transform="translate(346,186)"/>
<path d="M0 0 C1.65 0.33 3.3 0.66 5 1 C4.67 2.65 4.34 4.3 4 6 C2.35 5.67 0.7 5.34 -1 5 C-0.67 3.35 -0.34 1.7 0 0 Z " fill="#B9BABC" transform="translate(321,338)"/>
<path d="M0 0 C1.32 0 2.64 0 4 0 C4 1.98 4 3.96 4 6 C2.35 6 0.7 6 -1 6 C-1.625 4.125 -1.625 4.125 -2 2 C-1.34 1.34 -0.68 0.68 0 0 Z " fill="#BBBCBF" transform="translate(476,338)"/>
<path d="M0 0 C1.32 0 2.64 0 4 0 C4 2.64 4 5.28 4 8 C2.68 8 1.36 8 0 8 C0 5.36 0 2.72 0 0 Z " fill="#646B6F" transform="translate(493,188)"/>
<path d="M0 0 C0.99 0 1.98 0 3 0 C3 3.3 3 6.6 3 10 C2.01 10 1.02 10 0 10 C0 6.7 0 3.4 0 0 Z " fill="#C0C1C3" transform="translate(349,335)"/>
<path d="M0 0 C0 4.62 0 9.24 0 14 C-0.66 14 -1.32 14 -2 14 C-2 10.04 -2 6.08 -2 2 C-2.66 1.67 -3.32 1.34 -4 1 C-2 0 -2 0 0 0 Z " fill="#71767A" transform="translate(465,116)"/>
<path d="M0 0 C1.98 0 3.96 0 6 0 C6 0.66 6 1.32 6 2 C5.34 2 4.68 2 4 2 C4 4.64 4 7.28 4 10 C3.34 10 2.68 10 2 10 C2 7.36 2 4.72 2 2 C1.34 2 0.68 2 0 2 C0 1.34 0 0.68 0 0 Z " fill="#94979A" transform="translate(460,334)"/>
<path d="M0 0 C1.98 0 3.96 0 6 0 C6 0.66 6 1.32 6 2 C5.34 2 4.68 2 4 2 C4 4.64 4 7.28 4 10 C3.34 10 2.68 10 2 10 C2 7.36 2 4.72 2 2 C1.34 2 0.68 2 0 2 C0 1.34 0 0.68 0 0 Z " fill="#93979A" transform="translate(205,334)"/>
<path d="M0 0 C1.32 0.33 2.64 0.66 4 1 C4 3.97 4 6.94 4 10 C3.67 9.01 3.34 8.02 3 7 C2.01 7 1.02 7 0 7 C0 4.69 0 2.38 0 0 Z " fill="#666D71" transform="translate(284,187)"/>
<path d="M0 0 C1.98 0.495 1.98 0.495 4 1 C4 2.65 4 4.3 4 6 C2.35 5.67 0.7 5.34 -1 5 C-0.67 3.35 -0.34 1.7 0 0 Z " fill="#979A9C" transform="translate(72,338)"/>
<path d="M0 0 C0.99 0 1.98 0 3 0 C3.33 2.31 3.66 4.62 4 7 C3.01 7.66 2.02 8.32 1 9 C0.01 7.35 -0.98 5.7 -2 4 C-1.34 4 -0.68 4 0 4 C0 2.68 0 1.36 0 0 Z " fill="#E3E4E6" transform="translate(138,178)"/>
<path d="M0 0 C8.57142857 -0.28571429 8.57142857 -0.28571429 12 2 C11 3 11 3 8.71484375 3.09765625 C7.34005859 3.08025391 7.34005859 3.08025391 5.9375 3.0625 C5.01839844 3.05347656 4.09929687 3.04445312 3.15234375 3.03515625 C2.44207031 3.02355469 1.73179687 3.01195312 1 3 C0.67 2.01 0.34 1.02 0 0 Z " fill="#7B8083" transform="translate(305,198)"/>
<path d="M0 0 C0.99 0.33 1.98 0.66 3 1 C3.33 4.63 3.66 8.26 4 12 C2.35 12 0.7 12 -1 12 C-0.34 11.34 0.32 10.68 1 10 C0.72382467 8.05925139 0.72382467 8.05925139 0 6 C-1.11111111 2.22222222 -1.11111111 2.22222222 0 0 Z " fill="#656E71" transform="translate(474,187)"/>
<path d="M0 0 C1.65 0 3.3 0 5 0 C4.67 0.99 4.34 1.98 4 3 C3.77674186 5.05893621 3.59294241 7.12233653 3.4375 9.1875 C3.35371094 10.27417969 3.26992187 11.36085937 3.18359375 12.48046875 C3.12300781 13.31191406 3.06242188 14.14335937 3 15 C2.67 15 2.34 15 2 15 C2 11.37 2 7.74 2 4 C1.34 4 0.68 4 0 4 C0 2.68 0 1.36 0 0 Z " fill="#8E9397" transform="translate(168,183)"/>
<path d="M0 0 C2.31 0 4.62 0 7 0 C6.34 0.66 5.68 1.32 5 2 C4.53603307 4.89223503 4.53603307 4.89223503 4.375 8.125 C4.30023438 9.22070312 4.22546875 10.31640625 4.1484375 11.4453125 C4.09945313 12.28835937 4.05046875 13.13140625 4 14 C3.67 14 3.34 14 3 14 C3 10.7 3 7.4 3 4 C1.68 3.67 0.36 3.34 -1 3 C-0.01 2.67 0.98 2.34 2 2 C1.34 1.34 0.68 0.68 0 0 Z " fill="#858A8D" transform="translate(480,183)"/>
<path d="M0 0 C1.32 0 2.64 0 4 0 C4 2.31 4 4.62 4 7 C2.35 6.01 0.7 5.02 -1 4 C-0.67 2.68 -0.34 1.36 0 0 Z " fill="#F7F8F8" transform="translate(405,113)"/>
<path d="M0 0 C1.98 0 3.96 0 6 0 C6 1.98 6 3.96 6 6 C5.34 6 4.68 6 4 6 C4 4.68 4 3.36 4 2 C3.01 2 2.02 2 1 2 C0.67 3.32 0.34 4.64 0 6 C0 4.02 0 2.04 0 0 Z " fill="#96999A" transform="translate(467,338)"/>
<path d="M0 0 C1.98 0 3.96 0 6 0 C6 1.98 6 3.96 6 6 C5.34 6 4.68 6 4 6 C4 4.68 4 3.36 4 2 C3.01 2 2.02 2 1 2 C0.67 3.32 0.34 4.64 0 6 C0 4.02 0 2.04 0 0 Z " fill="#96999B" transform="translate(212,338)"/>
<path d="M0 0 C2.31 0 4.62 0 7 0 C6 3 6 3 5 4 C3.33382885 4.04063832 1.66611905 4.042721 0 4 C0 2.68 0 1.36 0 0 Z " fill="#6F7579" transform="translate(449,183)"/>
<path d="M0 0 C2.64 0 5.28 0 8 0 C7.67 0.99 7.34 1.98 7 3 C6.34 3 5.68 3 5 3 C5 4.65 5 6.3 5 8 C4.731875 7.38125 4.46375 6.7625 4.1875 6.125 C3.04443152 3.7004767 3.04443152 3.7004767 0 2 C0 1.34 0 0.68 0 0 Z " fill="#666D70" transform="translate(223,179)"/>
<path d="M0 0 C1.98 0 3.96 0 6 0 C6 1.98 6 3.96 6 6 C5.34 5.34 4.68 4.68 4 4 C3.01 4.33 2.02 4.66 1 5 C0.67 3.35 0.34 1.7 0 0 Z " fill="#C2C5C7" transform="translate(536,338)"/>
<path d="M0 0 C0 0.99 0 1.98 0 3 C-2.31 3.33 -4.62 3.66 -7 4 C-7 3.01 -7 2.02 -7 1 C-4.53721199 -0.231394 -2.7204945 -0.07159196 0 0 Z " fill="#71777A" transform="translate(279,197)"/>
<path d="M0 0 C1.98 0 3.96 0 6 0 C5.67 1.32 5.34 2.64 5 4 C3.35 4 1.7 4 0 4 C0 2.68 0 1.36 0 0 Z " fill="#E5E7E9" transform="translate(239,193)"/>
<path d="M0 0 C-0.33 1.32 -0.66 2.64 -1 4 C-4 4 -4 4 -6.1875 2 C-6.785625 1.34 -7.38375 0.68 -8 0 C-4.71303767 -0.79953138 -3.28976808 -1.09658936 0 0 Z " fill="#EBF5EE" transform="translate(199,91)"/>
<path d="M0 0 C0.33 0.66 0.66 1.32 1 2 C1.66 2 2.32 2 3 2 C3.33 1.34 3.66 0.68 4 0 C5.09658936 3.28976808 4.79953138 4.71303767 4 8 C3.67 6.68 3.34 5.36 3 4 C2.34 4 1.68 4 1 4 C0.67 5.32 0.34 6.64 0 8 C-1.125 2.25 -1.125 2.25 0 0 Z " fill="#797D80" transform="translate(162,336)"/>
<path d="M0 0 C3.96 0 7.92 0 12 0 C10.68 0.99 9.36 1.98 8 3 C8 3.33 8 3.66 8 4 C6.35 4 4.7 4 3 4 C3.33 3.34 3.66 2.68 4 2 C2.68 1.34 1.36 0.68 0 0 Z " fill="#787E80" transform="translate(433,183)"/>
<path d="M0 0 C0.99 0 1.98 0 3 0 C3 1.98 3 3.96 3 6 C0.525 5.01 0.525 5.01 -2 4 C-1.34 2.68 -0.68 1.36 0 0 Z " fill="#BDBFC1" transform="translate(560,338)"/>
<path d="M0 0 C1.32 0.33 2.64 0.66 4 1 C4 2.65 4 4.3 4 6 C3.67 5.34 3.34 4.68 3 4 C2.34 4 1.68 4 1 4 C0.67 4.66 0.34 5.32 0 6 C0 4.02 0 2.04 0 0 Z M-3 6 C0 7 0 7 0 7 Z " fill="#636A6E" transform="translate(137,191)"/>
<path d="M0 0 C0.99 0.33 1.98 0.66 3 1 C1.68 2.65 0.36 4.3 -1 6 C-1.99 5.67 -2.98 5.34 -4 5 C-4 4.34 -4 3.68 -4 3 C-2.1875 1.3125 -2.1875 1.3125 0 0 Z " fill="#3AAC64" transform="translate(185,135)"/>
<path d="M0 0 C2.0625 0.4375 2.0625 0.4375 4 1 C3.67 1.99 3.34 2.98 3 4 C2.01 3.67 1.02 3.34 0 3 C0 3.66 0 4.32 0 5 C0.99 5.33 1.98 5.66 3 6 C1.68 6 0.36 6 -1 6 C-1.042721 4.33388095 -1.04063832 2.66617115 -1 1 C-0.67 0.67 -0.34 0.34 0 0 Z " fill="#898C8F" transform="translate(425,338)"/>
<path d="M0 0 C0 3.96 0 7.92 0 12 C-0.33 12 -0.66 12 -1 12 C-1.33 10.02 -1.66 8.04 -2 6 C-2.33 6 -2.66 6 -3 6 C-3 4.35 -3 2.7 -3 1 C-1 0 -1 0 0 0 Z " fill="#636A6E" transform="translate(446,186)"/>
<path d="M0 0 C-0.75 6.75 -0.75 6.75 -3 9 C-3.33 6.36 -3.66 3.72 -4 1 C-1 0 -1 0 0 0 Z " fill="#6C7376" transform="translate(381,184)"/>
<path d="M0 0 C0.66 0 1.32 0 2 0 C2 3.3 2 6.6 2 10 C1.67 9.34 1.34 8.68 1 8 C0.34 7.67 -0.32 7.34 -1 7 C-0.67 4.69 -0.34 2.38 0 0 Z " fill="#747A7E" transform="translate(230,180)"/>
<path d="M0 0 C0.66 0.33 1.32 0.66 2 1 C2 2.65 2 4.3 2 6 C0.68 6 -0.64 6 -2 6 C-1.125 1.125 -1.125 1.125 0 0 Z " fill="#646B6F" transform="translate(410,179)"/>
<path d="M0 0 C1.32 0 2.64 0 4 0 C3.67 0.99 3.34 1.98 3 3 C2.67 2.67 2.34 2.34 2 2 C1.67 2.99 1.34 3.98 1 5 C1.99 5.33 2.98 5.66 4 6 C2.35 5.67 0.7 5.34 -1 5 C-0.67 3.35 -0.34 1.7 0 0 Z " fill="#7E8184" transform="translate(579,338)"/>
<path d="M0 0 C0 1.32 0 2.64 0 4 C-2.31 4 -4.62 4 -7 4 C-7 3.34 -7 2.68 -7 2 C-2.25 0 -2.25 0 0 0 Z " fill="#7C8083" transform="translate(511,197)"/>
<path d="M0 0 C3.625 -0.1875 3.625 -0.1875 7 0 C7 0.99 7 1.98 7 3 C4.03 3 1.06 3 -2 3 C-1.34 2.01 -0.68 1.02 0 0 Z " fill="#626A6E" transform="translate(155,197)"/>
<path d="M0 0 C0.33 0 0.66 0 1 0 C1.33 2.31 1.66 4.62 2 7 C0.35 7.33 -1.3 7.66 -3 8 C-2.01 5.36 -1.02 2.72 0 0 Z " fill="#6A7176" transform="translate(218,191)"/>
<path d="M0 0 C2.97 0.33 5.94 0.66 9 1 C9 1.33 9 1.66 9 2 C7.824375 2.185625 7.824375 2.185625 6.625 2.375 C3.85942178 2.79117993 3.85942178 2.79117993 2 5 C1.34 3.35 0.68 1.7 0 0 Z " fill="#646B6E" transform="translate(305,184)"/>
<path d="M0 0 C0.33 1.32 0.66 2.64 1 4 C3.97 4.495 3.97 4.495 7 5 C7 5.66 7 6.32 7 7 C4.69 6.67 2.38 6.34 0 6 C0 4.02 0 2.04 0 0 Z " fill="#C3C6C7" transform="translate(547,339)"/>
<path d="M0 0 C1.98 0 3.96 0 6 0 C6 0.99 6 1.98 6 3 C4.02 3 2.04 3 0 3 C0 2.01 0 1.02 0 0 Z " fill="#EFF0F1" transform="translate(308,187)"/>
<path d="M0 0 C0.99 0 1.98 0 3 0 C2.67 2.97 2.34 5.94 2 9 C-0.29013653 5.5647952 -0.17842973 4.014669 0 0 Z " fill="#BEBFC1" transform="translate(316,335)"/>
<path d="M0 0 C0 0.99 0 1.98 0 3 C-2.31 3 -4.62 3 -7 3 C-7 2.34 -7 1.68 -7 1 C-4.50935112 0.31292445 -2.62113708 0 0 0 Z " fill="#687073" transform="translate(469,197)"/>
</svg>
