<?xml version="1.0" encoding="UTF-8"?>
<svg version="1.1" xmlns="http://www.w3.org/2000/svg" width="288" height="346">
<path d="M0 0 C0 0.66 0 1.32 0 2 C3.63 2.66 7.26 3.32 11 4 C11 4.66 11 5.32 11 6 C22.24564228 10.09189252 22.24564228 10.09189252 34 12 C34 12.66 34 13.32 34 14 C36.97 14.33 39.94 14.66 43 15 C43 15.66 43 16.32 43 17 C43.59167969 17.04898438 44.18335938 17.09796875 44.79296875 17.1484375 C49.19104472 17.56456867 52.96928897 18.04965595 57 20 C57 20.66 57 21.32 57 22 C57.556875 22.03738281 58.11375 22.07476562 58.6875 22.11328125 C63.44910729 22.52348728 67.42689568 23.37239664 71.83984375 25.1796875 C75.23684243 26.469687 78.74213397 27.31771958 82.25390625 28.23828125 C84.84068753 28.95580949 87.34564518 29.79107308 89.875 30.6875 C94.35296823 32.21480702 97.45624016 32.51458661 102 31 C102.66 31.33 103.32 31.66 104 32 C104 32.99 104 33.98 104 35 C103.01 35.99 103.01 35.99 102 37 C101.28072705 39.31765729 100.6090107 41.65095874 100 44 C99.34 44 98.68 44 98 44 C97.80664062 45.07378906 97.61328125 46.14757812 97.4140625 47.25390625 C97.15122282 48.69013733 96.88819176 50.1263334 96.625 51.5625 C96.49867188 52.26697266 96.37234375 52.97144531 96.2421875 53.69726562 C95.40718633 58.22714697 94.33276044 62.59030133 93 67 C92.34 67 91.68 67 91 67 C90.7214492 68.43700005 90.7214492 68.43700005 90.43727112 69.9030304 C88.68845461 78.92350188 86.93753319 87.94356254 85.18454075 96.96322346 C84.28334147 101.60052104 83.38288898 106.23796105 82.48413086 110.87573242 C81.61704016 115.3499475 80.74800393 119.82378065 79.87760735 124.29735374 C79.54558678 126.00567302 79.214272 127.71412962 78.8836689 129.42272377 C78.42112993 131.81253614 77.95610255 134.20185155 77.49047852 136.59106445 C77.35381271 137.30028549 77.21714691 138.00950653 77.07633972 138.74021912 C75.53339996 146.62517841 75.53339996 146.62517841 72.6875 148.625 C70 150 70 150 67.875 150.5 C65.918368 150.85226491 65.918368 150.85226491 64.65209961 152.36474609 C61.49040405 155.49420329 57.39946504 157.42426128 53.5625 159.625 C52.70333984 160.12773437 51.84417969 160.63046875 50.95898438 161.1484375 C50.12818359 161.62796875 49.29738281 162.1075 48.44140625 162.6015625 C47.68545166 163.03807129 46.92949707 163.47458008 46.15063477 163.92431641 C44.08995351 164.95500793 42.2274181 165.46615351 40 166 C38.98565504 166.98544624 37.98808231 167.98822267 37 169 C35.00832607 170.27587343 32.98392033 171.50142163 30.9375 172.6875 C29.34228516 173.62142578 29.34228516 173.62142578 27.71484375 174.57421875 C25 176 25 176 23 176 C23.55551431 169.94054799 24.90095848 164.71977584 26.95703125 159.0078125 C27.25642609 158.15580765 27.55582092 157.3038028 27.86428833 156.42597961 C28.83955715 153.65628448 29.8259999 150.89071232 30.8125 148.125 C31.4891333 146.20868666 32.16498862 144.29209845 32.84008789 142.37524414 C34.88360525 136.58000578 36.94111156 130.7897913 39 125 C41.052304 119.22090983 43.1016841 113.44079028 45.14877319 107.65985107 C45.92707064 105.46688621 46.70989047 103.27557697 47.4934082 101.08447266 C47.96314884 99.76338029 48.43279959 98.44225596 48.90234375 97.12109375 C49.51323853 95.41070923 49.51323853 95.41070923 50.13647461 93.66577148 C51.10272197 91.1499132 51.10272197 91.1499132 51 89 C50.46890625 89.86882812 49.9378125 90.73765625 49.390625 91.6328125 C48.6771444 92.79691243 47.96359927 93.96097281 47.25 95.125 C46.90195313 95.69476563 46.55390625 96.26453125 46.1953125 96.8515625 C45.13882625 98.57324379 44.07225678 100.28810005 43 102 C42.64099609 102.57782227 42.28199219 103.15564453 41.91210938 103.75097656 C39.72789097 107.16913654 38.8397351 108.04006622 35 109 C34.34 109.99 33.68 110.98 33 112 C30.7629196 115.3556206 30.57482962 115.19278041 27 116 C26.2575 117.2375 26.2575 117.2375 25.5 118.5 C24 121 24 121 21.9375 121.5625 C20.9784375 121.7790625 20.9784375 121.7790625 20 122 C19.67 122.66 19.34 123.32 19 124 C18.67 124.66 18.34 125.32 18 126 C17.0409375 126.2165625 17.0409375 126.2165625 16.0625 126.4375 C13.72598147 126.81718646 13.72598147 126.81718646 12.5625 129.4375 C10.65710802 132.56234284 9.30203407 132.67918637 6 134 C4.98812105 135.65948148 3.9873454 137.32580562 3 139 C1.66666667 139.33333333 0.33333333 139.66666667 -1 140 C-2.03013277 141.64821244 -3.03114628 143.31503702 -4 145 C-4.99 145.33 -5.98 145.66 -7 146 C-7 146.33 -7 146.66 -7 147 C-8.41582115 146.98881386 -8.41582115 146.98881386 -9.86024475 146.97740173 C-18.81796907 146.91258185 -27.77470319 146.89597013 -36.73262882 146.92484188 C-41.33662555 146.93817772 -45.93935855 146.93536676 -50.54321289 146.89379883 C-54.99834213 146.85419874 -59.45149538 146.85943587 -63.90664482 146.89392281 C-65.59404086 146.89946038 -67.28156913 146.88966934 -68.96876717 146.86323357 C-80.26625658 146.69943885 -87.65335282 148.43688669 -96.97947693 154.97218323 C-99.56617045 156.70875017 -101.0335466 157.46157421 -104 158 C-105.0260674 158.97323466 -106.02351983 159.97702078 -107 161 C-108.61731798 162.08541207 -110.26618689 163.12472539 -111.9375 164.125 C-112.79214844 164.64320313 -113.64679688 165.16140625 -114.52734375 165.6953125 C-117 167 -117 167 -119.25390625 167.5546875 C-119.83011719 167.70164063 -120.40632813 167.84859375 -121 168 C-121.495 168.99 -121.495 168.99 -122 170 C-122.99 169.67 -123.98 169.34 -125 169 C-125 166.69 -125 164.38 -125 162 C-124.401875 161.896875 -123.80375 161.79375 -123.1875 161.6875 C-120.64568383 160.88864349 -119.82623514 159.89928455 -118 158 C-115.62835363 156.41890242 -113.65887072 155.1550284 -110.875 154.5 C-108.93284161 154.15640724 -108.93284161 154.15640724 -107.75390625 152.6953125 C-105.42560995 150.44479893 -102.85983597 149.00015192 -100.0625 147.375 C-99.02222656 146.76398438 -97.98195313 146.15296875 -96.91015625 145.5234375 C-94.51752709 144.27092022 -92.6316504 143.46925814 -90 143 C-89.88930176 142.27449951 -89.77860352 141.54899902 -89.66455078 140.80151367 C-88.9593572 137.82866418 -87.92942112 135.79271688 -86.3671875 133.17578125 C-85.81571045 132.24241943 -85.2642334 131.30905762 -84.69604492 130.34741211 C-83.79462769 128.84513062 -83.79462769 128.84513062 -82.875 127.3125 C-81.59687909 125.15410585 -80.31956351 122.99523465 -79.04296875 120.8359375 C-78.3782959 119.71541992 -77.71362305 118.59490234 -77.02880859 117.44042969 C-74.35491865 112.90607866 -71.72901435 108.34500606 -69.10742188 103.78027344 C-66.63118682 99.46890385 -64.14097274 95.16568005 -61.65087891 90.86230469 C-60.16788938 88.29108771 -58.69778727 85.712988 -57.23046875 83.1328125 C-56.44601412 81.77563588 -55.66092325 80.41882668 -54.875 79.0625 C-54.23304687 77.93972656 -53.59109375 76.81695312 -52.9296875 75.66015625 C-49.83782995 71.39789918 -46.10116547 69.8526041 -41.1875 68.3125 C-40.39730469 68.06113281 -39.60710937 67.80976562 -38.79296875 67.55078125 C-38.20128906 67.36902344 -37.60960938 67.18726562 -37 67 C-37 66.34 -37 65.68 -37 65 C-36.24074219 64.87882812 -35.48148437 64.75765625 -34.69921875 64.6328125 C-33.70535156 64.46523437 -32.71148437 64.29765625 -31.6875 64.125 C-30.70136719 63.96257812 -29.71523437 63.80015625 -28.69921875 63.6328125 C-25.79940173 63.11914546 -25.79940173 63.11914546 -23 61 C-19.99580359 59.9986012 -17.12290635 59.48578543 -14 59 C-14 58.34 -14 57.68 -14 57 C-4.58997722 54.88838269 -4.58997722 54.88838269 0 54 C0 53.34 0 52.68 0 52 C6.91144538 50.2417626 13.44607892 49.60106765 20.5625 49.375 C21.57119141 49.33632812 22.57988281 49.29765625 23.61914062 49.2578125 C26.0792564 49.16453797 28.53938366 49.07874484 31 49 C26.89926489 48.14916874 22.79397752 47.3226295 18.6875 46.5 C17.53958984 46.26152344 16.39167969 46.02304688 15.20898438 45.77734375 C8.03864992 44.3554644 1.3077242 43.66635628 -6 44 C-6 43.34 -6 42.68 -6 42 C-13.09326321 40.27669093 -19.70968976 39.7505217 -27 40 C-27 39.34 -27 38.68 -27 38 C-27.92337158 37.82871582 -28.84674316 37.65743164 -29.7980957 37.48095703 C-33.22642115 36.84161308 -36.65346561 36.1961041 -40.07983398 35.54638672 C-41.56244115 35.26656387 -43.04551458 34.98919974 -44.52905273 34.71435547 C-46.66257318 34.31865064 -48.79425522 33.91410596 -50.92578125 33.5078125 C-52.20880127 33.26691895 -53.49182129 33.02602539 -54.8137207 32.77783203 C-58 32 -58 32 -61 30 C-59.76663962 26.29991886 -58.10523894 25.64330433 -54.77734375 23.83984375 C-52.88273154 22.94458743 -51.02613599 22.506534 -49 22 C-48.505 21.505 -48.01 21.01 -47.5 20.5 C-45.69851305 18.69851305 -44.42864387 18.60716097 -42 18 C-41.58621094 17.56945312 -41.17242187 17.13890625 -40.74609375 16.6953125 C-38.42335442 14.44012487 -35.85907269 12.99970848 -33.0625 11.375 C-32.02222656 10.76398437 -30.98195313 10.15296875 -29.91015625 9.5234375 C-27.49305981 8.25811185 -25.61722783 7.58425587 -23 7 C-22.505 6.505 -22.01 6.01 -21.5 5.5 C-19.69851305 3.69851305 -18.42864387 3.60716097 -16 3 C-15.566875 2.505 -15.13375 2.01 -14.6875 1.5 C-10.65634181 -2.08325173 -4.89807431 -1.07518704 0 0 Z M61 54 C61.33 54.66 61.66 55.32 62 56 C62.33 55.34 62.66 54.68 63 54 C62.34 54 61.68 54 61 54 Z M12 83 C11.67 83.66 11.34 84.32 11 85 C11.99 84.67 12.98 84.34 14 84 C13.34 83.67 12.68 83.34 12 83 Z M53 84 C54 86 54 86 54 86 Z M52 86 C53 88 53 88 53 88 Z M5 87 C4.67 87.66 4.34 88.32 4 89 C4.99 88.67 5.98 88.34 7 88 C6.34 87.67 5.68 87.34 5 87 Z M0 90 C0.33 90.66 0.66 91.32 1 92 C1.33 91.34 1.66 90.68 2 90 C1.34 90 0.68 90 0 90 Z M-2 91 C-1 93 -1 93 -1 93 Z M-4 92 C-4.33 92.66 -4.66 93.32 -5 94 C-4.34 94 -3.68 94 -3 94 C-3.33 93.34 -3.66 92.68 -4 92 Z M-7 94 C-6.67 94.66 -6.34 95.32 -6 96 C-5.67 95.34 -5.34 94.68 -5 94 C-5.66 94 -6.32 94 -7 94 Z M-9 95 C-8 97 -8 97 -8 97 Z M-11 96 C-11.33 96.66 -11.66 97.32 -12 98 C-11.34 98 -10.68 98 -10 98 C-10.33 97.34 -10.66 96.68 -11 96 Z M-14 98 C-13 100 -13 100 -13 100 Z M-16 99 C-15 101 -15 101 -15 101 Z M-18 100 C-18 103 -18 103 -18 103 Z M-21 102 C-20 104 -20 104 -20 104 Z M-23 103 C-22 105 -22 105 -22 105 Z M-28 106 C-27 108 -27 108 -27 108 Z M-30 107 C-29 109 -29 109 -29 109 Z M-33 109 C-32 111 -32 111 -32 111 Z M-35 110 C-34 112 -34 112 -34 112 Z M-37 111 C-36 113 -36 113 -36 113 Z M-41 113 C-40.34 113.66 -39.68 114.32 -39 115 C-39 114.34 -39 113.68 -39 113 C-39.66 113 -40.32 113 -41 113 Z M-42 114 C-41 116 -41 116 -41 116 Z M-49 118 C-48 120 -48 120 -48 120 Z M-55 121 C-55 121.99 -55 122.98 -55 124 C-54.34 123.34 -53.68 122.68 -53 122 C-53.66 121.67 -54.32 121.34 -55 121 Z " fill="#91AF37" transform="translate(155,47)"/>
<path d="M0 0 C2.93915496 0.07395411 4.21109826 0.71565291 6.75561523 2.06933594 C9.34094225 2.51998226 9.34094225 2.51998226 12.00561523 2.69433594 C12.89764648 2.76910156 13.78967773 2.84386719 14.70874023 2.92089844 C15.72194336 2.994375 15.72194336 2.994375 16.75561523 3.06933594 C16.75561523 3.72933594 16.75561523 4.38933594 16.75561523 5.06933594 C17.53936523 4.86308594 18.32311523 4.65683594 19.13061523 4.44433594 C19.99686523 4.32058594 20.86311523 4.19683594 21.75561523 4.06933594 C22.74561523 5.05933594 22.74561523 5.05933594 23.75561523 6.06933594 C24.74561523 5.73933594 25.73561523 5.40933594 26.75561523 5.06933594 C26.75561523 5.72933594 26.75561523 6.38933594 26.75561523 7.06933594 C26.09561523 7.06933594 25.43561523 7.06933594 24.75561523 7.06933594 C24.75561523 7.72933594 24.75561523 8.38933594 24.75561523 9.06933594 C23.14686523 9.19308594 23.14686523 9.19308594 21.50561523 9.31933594 C17.39061523 10.14233594 16.47055286 11.06351214 13.75561523 14.06933594 C12.76561523 14.06933594 11.77561523 14.06933594 10.75561523 14.06933594 C10.09561523 14.72933594 9.43561523 15.38933594 8.75561523 16.06933594 C8.09561523 16.72933594 7.43561523 17.38933594 6.75561523 18.06933594 C5.76561523 18.06933594 4.77561523 18.06933594 3.75561523 18.06933594 C2.61092773 19.24496094 2.61092773 19.24496094 1.44311523 20.44433594 C-1.45463456 23.2746962 -3.45389725 23.89007315 -7.24438477 25.06933594 C-8.23438477 26.55433594 -8.23438477 26.55433594 -9.24438477 28.06933594 C-11.23724414 28.44299707 -13.23802005 28.77674108 -15.24438477 29.06933594 C-15.90438477 29.72933594 -16.56438477 30.38933594 -17.24438477 31.06933594 C-18.23438477 31.39933594 -19.22438477 31.72933594 -20.24438477 32.06933594 C-21.49909496 32.73262114 -22.73896147 33.42435934 -23.96704102 34.13574219 C-24.67022461 34.53857422 -25.3734082 34.94140625 -26.09790039 35.35644531 C-27.57517829 36.20937411 -29.05173735 37.06354909 -30.52758789 37.91894531 C-31.22948242 38.32048828 -31.93137695 38.72203125 -32.65454102 39.13574219 C-33.29528564 39.50642822 -33.93603027 39.87711426 -34.59619141 40.2590332 C-36.24438477 41.06933594 -36.24438477 41.06933594 -38.24438477 41.06933594 C-38.57438477 42.05933594 -38.90438477 43.04933594 -39.24438477 44.06933594 C-41.34431697 44.81447317 -43.01869575 45.06933594 -45.24438477 45.06933594 C-45.57438477 46.05933594 -45.90438477 47.04933594 -46.24438477 48.06933594 C-48.49438477 50.81933594 -48.49438477 50.81933594 -51.24438477 53.06933594 C-54.05688477 52.88183594 -54.05688477 52.88183594 -56.24438477 52.06933594 C-56.90438477 53.05933594 -57.56438477 54.04933594 -58.24438477 55.06933594 C-59.72938477 55.56433594 -59.72938477 55.56433594 -61.24438477 56.06933594 C-61.71875977 56.74996094 -62.19313477 57.43058594 -62.68188477 58.13183594 C-63.19750977 58.77121094 -63.71313477 59.41058594 -64.24438477 60.06933594 C-65.56438477 60.06933594 -66.88438477 60.06933594 -68.24438477 60.06933594 C-68.57438477 61.05933594 -68.90438477 62.04933594 -69.24438477 63.06933594 C-74.19438477 64.05933594 -74.19438477 64.05933594 -79.24438477 65.06933594 C-79.57438477 66.71933594 -79.90438477 68.36933594 -80.24438477 70.06933594 C-82.22438477 69.73933594 -84.20438477 69.40933594 -86.24438477 69.06933594 C-86.57438477 70.71933594 -86.90438477 72.36933594 -87.24438477 74.06933594 C-89.22438477 73.73933594 -91.20438477 73.40933594 -93.24438477 73.06933594 C-93.57438477 74.71933594 -93.90438477 76.36933594 -94.24438477 78.06933594 C-95.89438477 78.06933594 -97.54438477 78.06933594 -99.24438477 78.06933594 C-99.24438477 79.05933594 -99.24438477 80.04933594 -99.24438477 81.06933594 C-100.89438477 81.06933594 -102.54438477 81.06933594 -104.24438477 81.06933594 C-104.90438477 82.38933594 -105.56438477 83.70933594 -106.24438477 85.06933594 C-107.38907227 84.97652344 -107.38907227 84.97652344 -108.55688477 84.88183594 C-111.72218845 85.10267108 -112.22924694 85.76632128 -114.24438477 88.06933594 C-114.90438477 88.06933594 -115.56438477 88.06933594 -116.24438477 88.06933594 C-118.05075212 89.65893921 -119.16364625 90.90785891 -120.24438477 93.06933594 C-117.2894047 94.54682597 -114.61434708 94.23498931 -111.31616211 94.2746582 C-110.60385941 94.2845578 -109.8915567 94.2944574 -109.15766907 94.30465698 C-106.79858751 94.33629452 -104.43948579 94.36103824 -102.08032227 94.38574219 C-100.4464973 94.40630978 -98.81267768 94.4273062 -97.17886353 94.44871521 C-92.87496261 94.50395607 -88.57101351 94.55335644 -84.26702881 94.6015625 C-79.87662458 94.65176284 -75.48629048 94.70745655 -71.09594727 94.76269531 C-62.47881902 94.87030151 -53.86163218 94.97174099 -45.24438477 95.06933594 C-45.24438477 96.05933594 -45.24438477 97.04933594 -45.24438477 98.06933594 C-46.18826553 98.06187851 -47.1321463 98.05442108 -48.10462952 98.04673767 C-57.06235383 97.98191779 -66.01908796 97.96530607 -74.97701359 97.99417782 C-79.58101032 98.00751366 -84.18374331 98.0047027 -88.78759766 97.96313477 C-93.2427269 97.92353468 -97.69588015 97.9287718 -102.15102959 97.96325874 C-103.83842562 97.96879631 -105.5259539 97.95900528 -107.21315193 97.9325695 C-118.51064135 97.76877479 -125.89773758 99.50622263 -135.22386169 106.04151917 C-137.81055522 107.77808611 -139.27793137 108.53091015 -142.24438477 109.06933594 C-143.27045216 110.0425706 -144.2679046 111.04635672 -145.24438477 112.06933594 C-146.86170275 113.154748 -148.51057166 114.19406133 -150.18188477 115.19433594 C-151.46385742 115.97164062 -151.46385742 115.97164062 -152.77172852 116.76464844 C-155.24438477 118.06933594 -155.24438477 118.06933594 -157.49829102 118.62402344 C-158.07450195 118.77097656 -158.65071289 118.91792969 -159.24438477 119.06933594 C-159.73938477 120.05933594 -159.73938477 120.05933594 -160.24438477 121.06933594 C-161.23438477 120.73933594 -162.22438477 120.40933594 -163.24438477 120.06933594 C-163.24438477 117.75933594 -163.24438477 115.44933594 -163.24438477 113.06933594 C-162.64625977 112.96621094 -162.04813477 112.86308594 -161.43188477 112.75683594 C-158.89006859 111.95797943 -158.07061991 110.96862048 -156.24438477 109.06933594 C-153.87273839 107.48823836 -151.90325548 106.22436434 -149.11938477 105.56933594 C-147.17722637 105.22574317 -147.17722637 105.22574317 -145.99829102 103.76464844 C-143.66999472 101.51413487 -141.10422074 100.06948786 -138.30688477 98.44433594 C-137.26661133 97.83332031 -136.22633789 97.22230469 -135.15454102 96.59277344 C-132.76191186 95.34025616 -130.87603517 94.53859408 -128.24438477 94.06933594 C-128.13368652 93.34383545 -128.02298828 92.61833496 -127.90893555 91.87084961 C-127.20374197 88.89800012 -126.17380589 86.86205282 -124.61157227 84.24511719 C-123.78435669 82.84507446 -123.78435669 82.84507446 -122.94042969 81.41674805 C-122.33948486 80.41522705 -121.73854004 79.41370605 -121.11938477 78.38183594 C-119.84126385 76.22344179 -118.56394827 74.06457059 -117.28735352 71.90527344 C-116.62268066 70.78475586 -115.95800781 69.66423828 -115.27319336 68.50976562 C-112.59930342 63.9754146 -109.97339911 59.414342 -107.35180664 54.84960938 C-104.87557158 50.53823979 -102.3853575 46.23501599 -99.89526367 41.93164062 C-98.41227414 39.36042364 -96.94217203 36.78232394 -95.47485352 34.20214844 C-94.69039889 32.84497182 -93.90530802 31.48816262 -93.11938477 30.13183594 C-92.47743164 29.0090625 -91.83547852 27.88628906 -91.17407227 26.72949219 C-88.08221471 22.46723512 -84.34555023 20.92194004 -79.43188477 19.38183594 C-78.64168945 19.13046875 -77.85149414 18.87910156 -77.03735352 18.62011719 C-76.44567383 18.43835938 -75.85399414 18.25660156 -75.24438477 18.06933594 C-75.24438477 17.40933594 -75.24438477 16.74933594 -75.24438477 16.06933594 C-74.48512695 15.94816406 -73.72586914 15.82699219 -72.94360352 15.70214844 C-71.94973633 15.53457031 -70.95586914 15.36699219 -69.93188477 15.19433594 C-68.45268555 14.95070313 -68.45268555 14.95070313 -66.94360352 14.70214844 C-64.0437865 14.1884814 -64.0437865 14.1884814 -61.24438477 12.06933594 C-58.24018835 11.06793713 -55.36729112 10.55512137 -52.24438477 10.06933594 C-52.24438477 9.40933594 -52.24438477 8.74933594 -52.24438477 8.06933594 C-42.83436199 5.95771863 -42.83436199 5.95771863 -38.24438477 5.06933594 C-38.24438477 4.40933594 -38.24438477 3.74933594 -38.24438477 3.06933594 C-30.81230426 1.1264116 -23.71976397 0.65273152 -16.05688477 0.44433594 C-14.90768555 0.40566406 -13.75848633 0.36699219 -12.57446289 0.32714844 C-8.38311401 0.19123904 -4.19254611 0.08959915 0 0 Z M-49.24438477 47.06933594 C-49.57438477 47.72933594 -49.90438477 48.38933594 -50.24438477 49.06933594 C-49.58438477 49.06933594 -48.92438477 49.06933594 -48.24438477 49.06933594 C-48.57438477 48.40933594 -48.90438477 47.74933594 -49.24438477 47.06933594 Z M-52.24438477 49.06933594 C-51.24438477 51.06933594 -51.24438477 51.06933594 -51.24438477 51.06933594 Z M-54.24438477 50.06933594 C-53.24438477 52.06933594 -53.24438477 52.06933594 -53.24438477 52.06933594 Z M-66.24438477 57.06933594 C-65.24438477 59.06933594 -65.24438477 59.06933594 -65.24438477 59.06933594 Z M-71.24438477 60.06933594 C-70.24438477 62.06933594 -70.24438477 62.06933594 -70.24438477 62.06933594 Z " fill="#B3C043" transform="translate(193.244384765625,95.9306640625)"/>
<path d="M0 0 C0 0.66 0 1.32 0 2 C3.63 2.66 7.26 3.32 11 4 C11 4.66 11 5.32 11 6 C22.24564228 10.09189252 22.24564228 10.09189252 34 12 C34 12.66 34 13.32 34 14 C36.97 14.33 39.94 14.66 43 15 C43 15.66 43 16.32 43 17 C43.59167969 17.04898438 44.18335938 17.09796875 44.79296875 17.1484375 C49.19104472 17.56456867 52.96928897 18.04965595 57 20 C57 20.66 57 21.32 57 22 C57.556875 22.03738281 58.11375 22.07476562 58.6875 22.11328125 C63.57340354 22.53419524 67.66988294 23.442152 72.203125 25.30078125 C74.42711169 26.16620216 76.64617603 26.632215 79 27 C76.74708218 29.25291782 75.27098691 29.75351097 72.27832031 30.77172852 C71.29679993 31.10870255 70.31527954 31.44567657 69.30401611 31.79286194 C68.23947205 32.15125656 67.17492798 32.50965118 66.078125 32.87890625 C64.98538269 33.25103745 63.89264038 33.62316864 62.76678467 34.00657654 C60.45096367 34.79362657 58.13413951 35.57773006 55.81640625 36.35913086 C52.2759011 37.5537605 48.73934242 38.7595425 45.203125 39.96679688 C42.95335316 40.72983972 40.70336015 41.49223081 38.453125 42.25390625 C37.39667786 42.6143251 36.34023071 42.97474396 35.25177002 43.34608459 C27.36304561 45.99506541 21.55127022 47.42475575 13.3125 45.5625 C6.7980551 44.20155405 0.67518112 43.61815701 -6 44 C-6 43.34 -6 42.68 -6 42 C-13.09326321 40.27669093 -19.70968976 39.7505217 -27 40 C-27 39.34 -27 38.68 -27 38 C-27.92337158 37.82871582 -28.84674316 37.65743164 -29.7980957 37.48095703 C-33.22642115 36.84161308 -36.65346561 36.1961041 -40.07983398 35.54638672 C-41.56244115 35.26656387 -43.04551458 34.98919974 -44.52905273 34.71435547 C-46.66257318 34.31865064 -48.79425522 33.91410596 -50.92578125 33.5078125 C-52.20880127 33.26691895 -53.49182129 33.02602539 -54.8137207 32.77783203 C-58 32 -58 32 -61 30 C-59.76663962 26.29991886 -58.10523894 25.64330433 -54.77734375 23.83984375 C-52.88273154 22.94458743 -51.02613599 22.506534 -49 22 C-48.505 21.505 -48.01 21.01 -47.5 20.5 C-45.69851305 18.69851305 -44.42864387 18.60716097 -42 18 C-41.58621094 17.56945312 -41.17242187 17.13890625 -40.74609375 16.6953125 C-38.42335442 14.44012487 -35.85907269 12.99970848 -33.0625 11.375 C-32.02222656 10.76398437 -30.98195313 10.15296875 -29.91015625 9.5234375 C-27.49305981 8.25811185 -25.61722783 7.58425587 -23 7 C-22.505 6.505 -22.01 6.01 -21.5 5.5 C-19.69851305 3.69851305 -18.42864387 3.60716097 -16 3 C-15.566875 2.505 -15.13375 2.01 -14.6875 1.5 C-10.65634181 -2.08325173 -4.89807431 -1.07518704 0 0 Z " fill="#AEC445" transform="translate(155,47)"/>
<path d="M0 0 C1.54751451 4.01938331 0.5179779 7.74278251 -0.3125 11.8125 C-0.44333984 12.49892578 -0.57417969 13.18535156 -0.70898438 13.89257812 C-1.58020764 18.34128822 -2.70012155 22.65761128 -4 27 C-4.66 27 -5.32 27 -6 27 C-6.18570053 27.95800003 -6.37140106 28.91600006 -6.56272888 29.9030304 C-8.31154539 38.92350188 -10.06246681 47.94356254 -11.81545925 56.96322346 C-12.71665853 61.60052104 -13.61711102 66.23796105 -14.51586914 70.87573242 C-15.38295984 75.3499475 -16.25199607 79.82378065 -17.12239265 84.29735374 C-17.45441322 86.00567302 -17.785728 87.71412962 -18.1163311 89.42272377 C-18.57887007 91.81253614 -19.04389745 94.20185155 -19.50952148 96.59106445 C-19.64618729 97.30028549 -19.78285309 98.00950653 -19.92366028 98.74021912 C-21.46660004 106.62517841 -21.46660004 106.62517841 -24.3125 108.625 C-27 110 -27 110 -29.125 110.5 C-31.081632 110.85226491 -31.081632 110.85226491 -32.34790039 112.36474609 C-35.50959595 115.49420329 -39.60053496 117.42426128 -43.4375 119.625 C-44.29666016 120.12773437 -45.15582031 120.63046875 -46.04101562 121.1484375 C-46.87181641 121.62796875 -47.70261719 122.1075 -48.55859375 122.6015625 C-49.31454834 123.03807129 -50.07050293 123.47458008 -50.84936523 123.92431641 C-52.91004649 124.95500793 -54.7725819 125.46615351 -57 126 C-58.01434496 126.98544624 -59.01191769 127.98822267 -60 129 C-61.99167393 130.27587343 -64.01607967 131.50142163 -66.0625 132.6875 C-67.65771484 133.62142578 -67.65771484 133.62142578 -69.28515625 134.57421875 C-72 136 -72 136 -74 136 C-73.44512311 129.97787846 -72.12321058 124.78967586 -70.078125 119.11328125 C-69.78146439 118.26938843 -69.48480377 117.42549561 -69.17915344 116.55603027 C-68.21027437 113.8054696 -67.23021912 111.05903747 -66.25 108.3125 C-65.57597149 106.40546405 -64.90272183 104.49815265 -64.23022461 102.59057617 C-62.84810325 98.67352798 -61.46169557 94.75803817 -60.07177734 90.84375 C-58.07331001 85.21263063 -56.09049346 79.5761131 -54.11328125 73.9375 C-53.65872055 72.64128975 -53.65872055 72.64128975 -53.19497681 71.31889343 C-52.60427592 69.63435001 -52.01360735 67.94979525 -51.42297363 66.26522827 C-50.05644181 62.37001162 -48.68662638 58.47595173 -47.31640625 54.58203125 C-46.96126701 53.57275574 -46.96126701 53.57275574 -46.59895325 52.54309082 C-46.06603024 51.0287056 -45.5330258 49.51434904 -45 48 C-44.67 48.99 -44.34 49.98 -44 51 C-38.55297825 47.12013814 -33.58688161 42.87984714 -28.65234375 38.37109375 C-23.6066619 33.86044738 -18.32244592 29.61886914 -13.0078125 25.4296875 C-10.35651586 23.31118731 -9.10033939 22.30101816 -8 19 C-7.01 19 -6.02 19 -5 19 C-4.92652344 18.03900391 -4.92652344 18.03900391 -4.8515625 17.05859375 C-3.69657423 3.69657423 -3.69657423 3.69657423 0 0 Z " fill="#ABC443" transform="translate(252,87)"/>
<path d="M0 0 C3.76640268 1.17385017 6.35511602 0.86600299 10.04296875 -0.36328125 C11.03296875 0.13171875 11.03296875 0.13171875 12.04296875 0.63671875 C12.04296875 1.62671875 12.04296875 2.61671875 12.04296875 3.63671875 C11.38296875 4.29671875 10.72296875 4.95671875 10.04296875 5.63671875 C9.3236958 7.95437604 8.65197945 10.28767749 8.04296875 12.63671875 C7.05296875 10.65671875 7.05296875 10.65671875 6.04296875 8.63671875 C2.20671024 14.39110652 1.28653857 20.94260888 0.04296875 27.63671875 C-1.27703125 27.96671875 -2.59703125 28.29671875 -3.95703125 28.63671875 C-3.95703125 29.62671875 -3.95703125 30.61671875 -3.95703125 31.63671875 C-5.95116336 33.57326954 -7.93471953 35.32181817 -10.08203125 37.07421875 C-11.36481925 38.14555091 -12.64736418 39.21717419 -13.9296875 40.2890625 C-14.59371582 40.83933105 -15.25774414 41.38959961 -15.94189453 41.95654297 C-19.16692592 44.64550178 -22.34062226 47.39355206 -25.51953125 50.13671875 C-36.54345391 59.63671875 -36.54345391 59.63671875 -38.95703125 59.63671875 C-38.95703125 57.98671875 -38.95703125 56.33671875 -38.95703125 54.63671875 C-38.29703125 54.63671875 -37.63703125 54.63671875 -36.95703125 54.63671875 C-36.86292969 53.37859375 -36.76882812 52.12046875 -36.671875 50.82421875 C-36.04066572 45.16219388 -34.36328486 40.00651033 -32.51953125 34.63671875 C-32.20693359 33.68410156 -31.89433594 32.73148438 -31.57226562 31.75 C-29.2161274 24.76626682 -29.2161274 24.76626682 -26.95703125 23.63671875 C-45.07303521 19.67074335 -45.07303521 19.67074335 -63.421875 17.09375 C-64.25847656 16.94292969 -65.09507812 16.79210937 -65.95703125 16.63671875 C-66.28703125 15.97671875 -66.61703125 15.31671875 -66.95703125 14.63671875 C-60.99827801 12.5545245 -55.03917416 10.47333605 -49.07983398 8.39282227 C-47.05566595 7.68601864 -45.03157611 6.97899101 -43.00756836 6.27172852 C-40.08598396 5.25086462 -37.16411243 4.23082625 -34.2421875 3.2109375 C-33.34806656 2.89831467 -32.45394562 2.58569183 -31.5327301 2.26359558 C-29.82780904 1.66883479 -28.12195539 1.07673889 -26.41506958 0.48764038 C-24.75938157 -0.08552429 -23.10662901 -0.66723136 -21.45675659 -1.25692749 C-20.66721588 -1.53332062 -19.87767517 -1.80971375 -19.06420898 -2.09448242 C-18.3681102 -2.34211838 -17.67201141 -2.58975433 -16.95481873 -2.84489441 C-11.09644271 -4.36502859 -5.48317588 -1.9346834 0 0 Z " fill="#7AA041" transform="translate(246.95703125,78.36328125)"/>
<path d="M0 0 C0.94552734 0.16242188 0.94552734 0.16242188 1.91015625 0.328125 C2.57015625 1.318125 3.23015625 2.308125 3.91015625 3.328125 C4.24015625 3.328125 4.57015625 3.328125 4.91015625 3.328125 C4.91015625 8.278125 4.91015625 13.228125 4.91015625 18.328125 C9.7560083 18.49844759 9.7560083 18.49844759 14.60302734 18.62597656 C16.43359375 18.71875 16.43359375 18.71875 19.91015625 19.328125 C21.2890625 21.22265625 21.2890625 21.22265625 21.91015625 23.328125 C22.42578125 24.1325 22.94140625 24.936875 23.47265625 25.765625 C26.56394038 31.27617498 26.06176046 37.24061831 26.03515625 43.390625 C26.04095703 44.73737305 26.04095703 44.73737305 26.046875 46.11132812 C26.04558594 46.97822266 26.04429687 47.84511719 26.04296875 48.73828125 C26.04184082 49.52340088 26.04071289 50.30852051 26.03955078 51.11743164 C25.91015625 53.328125 25.91015625 53.328125 24.91015625 57.328125 C21.94015625 57.328125 18.97015625 57.328125 15.91015625 57.328125 C14.93698815 54.4086207 14.71720165 52.27367549 14.59375 49.22265625 C14.55185547 48.23974609 14.50996094 47.25683594 14.46679688 46.24414062 C14.42748047 45.21998047 14.38816406 44.19582031 14.34765625 43.140625 C14.30447266 42.10486328 14.26128906 41.06910156 14.21679688 40.00195312 C14.11071259 37.4441431 14.00865479 34.88623655 13.91015625 32.328125 C12.43184404 32.13400319 10.95246309 31.94800369 9.47265625 31.765625 C8.64894531 31.66121094 7.82523438 31.55679687 6.9765625 31.44921875 C6.29464844 31.40925781 5.61273438 31.36929687 4.91015625 31.328125 C3.27402481 32.96425644 3.70506664 34.8767635 3.62890625 37.1328125 C3.59152344 38.10863281 3.55414063 39.08445312 3.515625 40.08984375 C3.48082031 41.11722656 3.44601563 42.14460938 3.41015625 43.203125 C3.34126118 45.22149545 3.26851314 47.23973908 3.19140625 49.2578125 C3.1459668 50.60721924 3.1459668 50.60721924 3.09960938 51.98388672 C2.91015625 54.328125 2.91015625 54.328125 1.91015625 57.328125 C-1.05984375 57.328125 -4.02984375 57.328125 -7.08984375 57.328125 C-7.11297291 50.04390952 -7.13076176 42.7597019 -7.14165592 35.47545719 C-7.1468835 32.09340687 -7.15397886 28.7113816 -7.1652832 25.3293457 C-7.17818642 21.44482723 -7.18307299 17.56031903 -7.1875 13.67578125 C-7.19266129 12.45601089 -7.19782257 11.23624054 -7.20314026 9.97950745 C-7.20321579 8.85842087 -7.20329132 7.73733429 -7.20336914 6.58227539 C-7.20558975 5.58966202 -7.20781036 4.59704865 -7.21009827 3.57435608 C-6.96518529 -1.00036724 -3.93092194 0.14268319 0 0 Z M-6.08984375 1.328125 C-6.08984375 1.658125 -6.08984375 1.988125 -6.08984375 2.328125 C-3.77984375 2.328125 -1.46984375 2.328125 0.91015625 2.328125 C0.91015625 1.998125 0.91015625 1.668125 0.91015625 1.328125 C-1.39984375 1.328125 -3.70984375 1.328125 -6.08984375 1.328125 Z " fill="#8C943E" transform="translate(148.08984375,228.671875)"/>
<path d="M0 0 C1.98 0 3.96 0 6 0 C6.33 0.66 6.66 1.32 7 2 C7.886875 1.835 8.77375 1.67 9.6875 1.5 C15.41790827 0.65938226 21.22424581 0.9218319 27 1 C27.29777344 1.60972656 27.59554687 2.21945313 27.90234375 2.84765625 C29.00191695 5.09086949 29.00191695 5.09086949 30.5625 7.4375 C33.67220611 12.98088914 33.15149434 19.0010707 33.125 25.1875 C33.13080078 26.55938477 33.13080078 26.55938477 33.13671875 27.95898438 C33.13542969 28.83232422 33.13414062 29.70566406 33.1328125 30.60546875 C33.13168457 31.40106201 33.13055664 32.19665527 33.12939453 33.01635742 C33 35 33 35 32 37 C30.52093108 37.02689216 29.04172517 37.04634621 27.5625 37.0625 C26.32693359 37.07990234 26.32693359 37.07990234 25.06640625 37.09765625 C23 37 23 37 22 36 C21.84259395 34.29436222 21.74906608 32.58272756 21.68359375 30.87109375 C21.64169922 29.83662109 21.59980469 28.80214844 21.55664062 27.73632812 C21.51732422 26.64771484 21.47800781 25.55910156 21.4375 24.4375 C21.39431641 23.34501953 21.35113281 22.25253906 21.30664062 21.12695312 C21.20017932 18.41810436 21.09816484 15.70916008 21 13 C19.52093108 12.97310784 18.04172517 12.95365379 16.5625 12.9375 C15.73878906 12.92589844 14.91507813 12.91429687 14.06640625 12.90234375 C12.00836062 12.76732652 12.00836062 12.76732652 11 14 C10.85485432 15.59772471 10.77287775 17.20129681 10.71875 18.8046875 C10.68136719 19.78050781 10.64398438 20.75632812 10.60546875 21.76171875 C10.57066406 22.78910156 10.53585938 23.81648438 10.5 24.875 C10.43110493 26.89337045 10.35835689 28.91161408 10.28125 30.9296875 C10.23581055 32.27909424 10.23581055 32.27909424 10.18945312 33.65576172 C10 36 10 36 9 39 C6.03 39 3.06 39 0 39 C-0.97846955 35.0861218 -1.12919458 31.98567118 -1.1328125 27.96875 C-1.13376923 27.29581909 -1.13472595 26.62288818 -1.13571167 25.92956543 C-1.13639032 24.51082261 -1.13455806 23.09207664 -1.13037109 21.67333984 C-1.12501833 19.50741572 -1.13032671 17.34169896 -1.13671875 15.17578125 C-1.13605791 13.79427038 -1.13477663 12.41275963 -1.1328125 11.03125 C-1.13168457 9.77892578 -1.13055664 8.52660156 -1.12939453 7.23632812 C-1.02435958 4.60926534 -0.78415855 2.48874947 0 0 Z M7 3 C8 6 8 6 8 6 Z " fill="#919946" transform="translate(198,247)"/>
<path d="M0 0 C1.3782057 1.68889947 2.70863389 3.38270569 3.9765625 5.15625 C4.61464844 6.03796875 4.61464844 6.03796875 5.265625 6.9375 C8.25872405 11.67477907 7.9102173 17.26598611 7.3515625 22.65625 C6.32423706 25.39239399 5.0586861 27.217502 3.3515625 29.65625 C2.9184375 30.605 2.4853125 31.55375 2.0390625 32.53125 C0.3515625 34.65625 0.3515625 34.65625 -2.6484375 35.40625 C-3.98126043 35.49738319 -5.31470967 35.57948869 -6.6484375 35.65625 C-7.57140625 35.78 -8.494375 35.90375 -9.4453125 36.03125 C-10.41984375 36.155 -11.394375 36.27875 -12.3984375 36.40625 C-13.32140625 36.52484375 -14.244375 36.6434375 -15.1953125 36.765625 C-17.6484375 36.65625 -17.6484375 36.65625 -19.28515625 35.4140625 C-19.73503906 34.83398438 -20.18492188 34.25390625 -20.6484375 33.65625 C-21.15503906 33.04007812 -21.66164063 32.42390625 -22.18359375 31.7890625 C-26.79077617 25.73256182 -29.31513631 21.5232959 -28.6484375 13.65625 C-27.84645565 10.89329318 -26.80364286 8.28850897 -25.6484375 5.65625 C-25.3390625 4.893125 -25.0296875 4.13 -24.7109375 3.34375 C-23.28954153 1.08623876 -21.92883248 0.06338335 -19.6484375 -1.34375 C-16.58984375 -1.890625 -16.58984375 -1.890625 -13.2109375 -2.09375 C-12.09847656 -2.17109375 -10.98601562 -2.2484375 -9.83984375 -2.328125 C-2.89770891 -2.36211342 -2.89770891 -2.36211342 0 0 Z M-13.6484375 8.65625 C-13.6484375 8.98625 -13.6484375 9.31625 -13.6484375 9.65625 C-11.9984375 9.65625 -10.3484375 9.65625 -8.6484375 9.65625 C-8.6484375 9.32625 -8.6484375 8.99625 -8.6484375 8.65625 C-10.2984375 8.65625 -11.9484375 8.65625 -13.6484375 8.65625 Z M-11.6484375 9.96875 C-12.5353125 10.02675781 -13.4221875 10.08476562 -14.3359375 10.14453125 C-17.01620684 10.45764057 -17.01620684 10.45764057 -18.6484375 13.65625 C-19.19793723 18.25113374 -19.19793723 18.25113374 -17.44140625 22.3203125 C-15.1488956 24.02845769 -13.48089141 24.25306256 -10.6484375 24.53125 C-9.7821875 24.63179688 -8.9159375 24.73234375 -8.0234375 24.8359375 C-5.60120594 24.8665897 -5.60120594 24.8665897 -3.890625 23.33984375 C-2.00291626 20.78134543 -1.77233781 18.81570781 -1.6484375 15.65625 C-2.97273023 12.33819858 -2.97273023 12.33819858 -4.6484375 9.65625 C-6.9964937 9.65625 -9.30642581 9.79514158 -11.6484375 9.96875 Z " fill="#919845" transform="translate(92.6484375,249.34375)"/>
<path d="M0 0 C0.99 0.33 1.98 0.66 3 1 C2.70351562 1.82757813 2.40703125 2.65515625 2.1015625 3.5078125 C0.91851829 7.25831435 0.1074657 11.01834388 -0.625 14.875 C-0.7590625 15.56335938 -0.893125 16.25171875 -1.03125 16.9609375 C-1.35772223 18.63993755 -1.67936553 20.31987536 -2 22 C-3.32 22.33 -4.64 22.66 -6 23 C-6 23.99 -6 24.98 -6 26 C-7.99413211 27.93655079 -9.97768828 29.68509942 -12.125 31.4375 C-13.407788 32.50883216 -14.69033293 33.58045544 -15.97265625 34.65234375 C-16.96869873 35.47774658 -16.96869873 35.47774658 -17.98486328 36.31982422 C-21.20989467 39.00878303 -24.38359101 41.75683331 -27.5625 44.5 C-38.58642266 54 -38.58642266 54 -41 54 C-41 52.35 -41 50.7 -41 49 C-40.34 49 -39.68 49 -39 49 C-38.90847656 47.74316406 -38.81695312 46.48632812 -38.72265625 45.19140625 C-38.08916157 39.48995417 -36.33207079 34.3285856 -34.4375 28.9375 C-34.10814453 27.97650391 -33.77878906 27.01550781 -33.43945312 26.02539062 C-32.63452834 23.68060973 -31.82128851 21.33908854 -31 19 C-29.35 19 -27.7 19 -26 19 C-25.93409668 18.40525879 -25.86819336 17.81051758 -25.80029297 17.19775391 C-24.67260513 14.10091256 -23.03166341 13.45096152 -20.1953125 11.8359375 C-19.21949219 11.27132812 -18.24367187 10.70671875 -17.23828125 10.125 C-16.21089844 9.5475 -15.18351562 8.97 -14.125 8.375 C-12.1065647 7.2165049 -10.08832682 6.05766575 -8.0703125 4.8984375 C-7.17070801 4.38974121 -6.27110352 3.88104492 -5.34423828 3.35693359 C-3.52355669 2.30305437 -1.75038207 1.16692138 0 0 Z " fill="#67843F" transform="translate(249,84)"/>
<path d="M0 0 C2.4895334 1.51696384 3.68344117 3.06582643 4.83984375 5.71875 C4.75980456 9.00035699 3.64344897 10.62563872 1.77734375 13.28125 C1.44734375 13.94125 1.11734375 14.60125 0.77734375 15.28125 C0.22175781 15.14203125 -0.33382812 15.0028125 -0.90625 14.859375 C-1.67066406 14.66859375 -2.43507812 14.4778125 -3.22265625 14.28125 C-4.03863281 14.06984375 -4.85460937 13.8584375 -5.6953125 13.640625 C-6.54996094 13.43953125 -7.40460938 13.2384375 -8.28515625 13.03125 C-9.14238281 12.81984375 -9.99960938 12.6084375 -10.8828125 12.390625 C-13.26287836 12.04232295 -13.26287836 12.04232295 -15.0078125 13.515625 C-16.99637869 16.40575979 -16.58586599 18.89129241 -16.22265625 22.28125 C-15.38932292 24.44791667 -15.38932292 24.44791667 -13.22265625 25.28125 C-7.96317621 25.11428238 -5.31643534 24.61692185 -1.22265625 21.28125 C1.77734375 22.28125 1.77734375 22.28125 2.77734375 24.28125 C3.43734375 24.28125 4.09734375 24.28125 4.77734375 24.28125 C4.97089913 28.44269068 4.90581493 31.63244226 2.77734375 35.28125 C-2.49513097 37.93124164 -7.465927 37.52867389 -13.22265625 37.28125 C-14.29386719 37.25417969 -14.29386719 37.25417969 -15.38671875 37.2265625 C-17.22265625 37.09375 -17.22265625 37.09375 -20.22265625 36.28125 C-21.91015625 34.09375 -21.91015625 34.09375 -23.22265625 31.28125 C-23.92390625 30.37375 -24.62515625 29.46625 -25.34765625 28.53125 C-28.05022454 23.8467983 -28.91316095 19.43946004 -27.74609375 14.1015625 C-23.33855765 1.26642991 -13.33120037 -4.31096813 0 0 Z M-11.22265625 10.28125 C-7.22265625 11.28125 -7.22265625 11.28125 -7.22265625 11.28125 Z M-3.22265625 23.28125 C-2.22265625 25.28125 -2.22265625 25.28125 -2.22265625 25.28125 Z M-11.22265625 26.28125 C-7.22265625 27.28125 -7.22265625 27.28125 -7.22265625 27.28125 Z " fill="#939A49" transform="translate(131.22265625,247.71875)"/>
<path d="M0 0 C3.35911017 4.15889831 3.35911017 4.15889831 3.125 6.5 C2.13794914 9.08151762 0.79797668 11.29990606 -0.6875 13.625 C-2.625 13.25 -2.625 13.25 -4.6875 12.625 C-5.0175 11.965 -5.3475 11.305 -5.6875 10.625 C-7.31168745 10.54409029 -8.93701745 10.48585005 -10.5625 10.4375 C-11.46742187 10.40269531 -12.37234375 10.36789062 -13.3046875 10.33203125 C-14.09101562 10.42871094 -14.87734375 10.52539062 -15.6875 10.625 C-18.13647847 14.29846771 -18.00287716 16.28856399 -17.6875 20.625 C-15.91586993 22.81165836 -15.91586993 22.81165836 -13.6640625 22.85546875 C-12.50003906 22.83419922 -12.50003906 22.83419922 -11.3125 22.8125 C-10.54164062 22.80605469 -9.77078125 22.79960937 -8.9765625 22.79296875 C-6.76200883 22.63046737 -4.82606631 22.1997397 -2.6875 21.625 C-0.0625 21.375 -0.0625 21.375 2.3125 21.625 C4.3125 24.625 4.3125 24.625 4.125 27 C3.1769144 30.06304579 2.37834948 32.14598062 0.3125 34.625 C-2.26350197 35.35300056 -4.04990723 35.55794256 -6.6875 35.625 C-7.75742187 35.67527344 -8.82734375 35.72554688 -9.9296875 35.77734375 C-19.15135001 36.03407155 -19.15135001 36.03407155 -21.41796875 34.3046875 C-21.83691406 33.75039063 -22.25585938 33.19609375 -22.6875 32.625 C-23.12191406 32.12742187 -23.55632813 31.62984375 -24.00390625 31.1171875 C-27.46087172 26.6307182 -29.48262742 22.35211986 -29.6875 16.625 C-28.74630083 10.66703169 -26.85017701 6.06518881 -22.6875 1.625 C-22.3575 0.965 -22.0275 0.305 -21.6875 -0.375 C-19.3692571 -0.80079972 -17.03010643 -1.1147104 -14.6875 -1.375 C-14.00558594 -1.47941406 -13.32367188 -1.58382812 -12.62109375 -1.69140625 C-3.71441775 -3.02656261 -3.71441775 -3.02656261 0 0 Z M-13.6875 8.625 C-13.6875 8.955 -13.6875 9.285 -13.6875 9.625 C-11.3775 9.625 -9.0675 9.625 -6.6875 9.625 C-6.6875 9.295 -6.6875 8.965 -6.6875 8.625 C-8.9975 8.625 -11.3075 8.625 -13.6875 8.625 Z M-13.6875 24.625 C-13.6875 24.955 -13.6875 25.285 -13.6875 25.625 C-12.0375 25.625 -10.3875 25.625 -8.6875 25.625 C-8.6875 25.295 -8.6875 24.965 -8.6875 24.625 C-10.3375 24.625 -11.9875 24.625 -13.6875 24.625 Z " fill="#929948" transform="translate(58.6875,249.375)"/>
<path d="M0 0 C0.99 1.32 1.98 2.64 3 4 C4.32 3.34 5.64 2.68 7 2 C7.495 2.99 7.495 2.99 8 4 C7.525625 4.45375 7.05125 4.9075 6.5625 5.375 C4.90972192 6.93258204 4.90972192 6.93258204 4 9 C6.95498007 10.47749003 9.63003769 10.16565337 12.92822266 10.20532227 C13.99667671 10.22017166 13.99667671 10.22017166 15.0867157 10.23532104 C17.44579726 10.26695858 19.80489897 10.2917023 22.1640625 10.31640625 C23.79788747 10.33697384 25.43170708 10.35797026 27.06552124 10.37937927 C31.36942216 10.43462013 35.67337126 10.4840205 39.97735596 10.53222656 C44.36776018 10.5824269 48.75809429 10.63812061 53.1484375 10.69335938 C61.76556575 10.80096558 70.38275258 10.90240506 79 11 C79 11.99 79 12.98 79 14 C78.05611923 13.99254257 77.11223846 13.98508514 76.13975525 13.97740173 C67.18203093 13.91258185 58.22529681 13.89597013 49.26737118 13.92484188 C44.66337445 13.93817772 40.06064145 13.93536676 35.45678711 13.89379883 C31.00165787 13.85419874 26.54850462 13.85943587 22.09335518 13.89392281 C20.40595914 13.89946038 18.71843087 13.88966934 17.03123283 13.86323357 C5.73374342 13.69943885 -1.65335282 15.43688669 -10.97947693 21.97218323 C-13.56617045 23.70875017 -15.0335466 24.46157421 -18 25 C-19.0260674 25.97323466 -20.02351983 26.97702078 -21 28 C-22.61731798 29.08541207 -24.26618689 30.12472539 -25.9375 31.125 C-27.21947266 31.90230469 -27.21947266 31.90230469 -28.52734375 32.6953125 C-31 34 -31 34 -33.25390625 34.5546875 C-33.83011719 34.70164063 -34.40632813 34.84859375 -35 35 C-35.33 35.66 -35.66 36.32 -36 37 C-36.99 36.67 -37.98 36.34 -39 36 C-39 33.69 -39 31.38 -39 29 C-38.401875 28.896875 -37.80375 28.79375 -37.1875 28.6875 C-34.64568383 27.88864349 -33.82623514 26.89928455 -32 25 C-29.62835363 23.41890242 -27.65887072 22.1550284 -24.875 21.5 C-22.93284161 21.15640724 -22.93284161 21.15640724 -21.75390625 19.6953125 C-19.42560995 17.44479893 -16.85983597 16.00015192 -14.0625 14.375 C-13.02222656 13.76398438 -11.98195313 13.15296875 -10.91015625 12.5234375 C-8.51752709 11.27092022 -6.6316504 10.46925814 -4 10 C-3.896875 9.278125 -3.79375 8.55625 -3.6875 7.8125 C-2.94013068 4.75508007 -1.71954811 2.61670365 0 0 Z " fill="#DAE9BB" transform="translate(69,180)"/>
<path d="M0 0 C3.76640268 1.17385017 6.35511602 0.86600299 10.04296875 -0.36328125 C10.70296875 -0.03328125 11.36296875 0.29671875 12.04296875 0.63671875 C12.04296875 1.62671875 12.04296875 2.61671875 12.04296875 3.63671875 C11.38296875 4.29671875 10.72296875 4.95671875 10.04296875 5.63671875 C9.3236958 7.95437604 8.65197945 10.28767749 8.04296875 12.63671875 C7.38296875 11.31671875 6.72296875 9.99671875 6.04296875 8.63671875 C5.38296875 9.62671875 4.72296875 10.61671875 4.04296875 11.63671875 C3.71296875 10.31671875 3.38296875 8.99671875 3.04296875 7.63671875 C-1.63044378 7.63671875 -6.48072164 11.69789063 -10.45703125 13.94921875 C-11.52824219 14.54412109 -12.59945312 15.13902344 -13.703125 15.75195312 C-14.72535156 16.32880859 -15.74757812 16.90566406 -16.80078125 17.5 C-18.21133789 18.29337769 -18.21133789 18.29337769 -19.65039062 19.1027832 C-22.20131645 20.5853313 -22.20131645 20.5853313 -23.95703125 23.63671875 C-25.27703125 23.30671875 -26.59703125 22.97671875 -27.95703125 22.63671875 C-27.29703125 22.30671875 -26.63703125 21.97671875 -25.95703125 21.63671875 C-25.6137618 19.63840016 -25.28302024 17.63792896 -24.95703125 15.63671875 C-24.07107884 12.84234685 -23.01783814 10.11879687 -21.95703125 7.38671875 C-21.68375 6.66742188 -21.41046875 5.948125 -21.12890625 5.20703125 C-19.14304315 0.00874256 -19.14304315 0.00874256 -17.95703125 -2.36328125 C-11.76912873 -4.42591542 -5.89741023 -2.08084182 0 0 Z " fill="#7A9845" transform="translate(246.95703125,78.36328125)"/>
<path d="M0 0 C1.23556641 0.01740234 1.23556641 0.01740234 2.49609375 0.03515625 C3.32238281 0.04417969 4.14867187 0.05320313 5 0.0625 C5.63808594 0.07410156 6.27617187 0.08570313 6.93359375 0.09765625 C8.08389703 3.54856608 8.06306509 6.24405437 8.06640625 9.8828125 C8.06736298 10.53970566 8.0683197 11.19659882 8.06930542 11.87339783 C8.06998488 13.25943091 8.06814689 14.6454672 8.06396484 16.03149414 C8.05860466 18.15583408 8.06392205 20.27996342 8.0703125 22.40429688 C8.06965184 23.75130255 8.06837094 25.0983081 8.06640625 26.4453125 C8.06527832 27.67258057 8.06415039 28.89984863 8.06298828 30.16430664 C7.93359375 33.09765625 7.93359375 33.09765625 6.93359375 35.09765625 C5.45452483 35.12454841 3.97531892 35.14400246 2.49609375 35.16015625 C1.67238281 35.17175781 0.84867188 35.18335938 0 35.1953125 C-2.06640625 35.09765625 -2.06640625 35.09765625 -3.06640625 34.09765625 C-3.16723389 31.66105179 -3.20613228 29.25340924 -3.19921875 26.81640625 C-3.20017548 26.08772339 -3.2011322 25.35904053 -3.20211792 24.60827637 C-3.2027996 23.06485915 -3.20094613 21.52143908 -3.19677734 19.97802734 C-3.19142887 17.60768225 -3.19672267 15.23752666 -3.203125 12.8671875 C-3.20246422 11.37109333 -3.20118305 9.87499928 -3.19921875 8.37890625 C-3.20124298 7.66536987 -3.20326721 6.9518335 -3.20535278 6.2166748 C-3.17626344 0.15010697 -3.17626344 0.15010697 0 0 Z " fill="#7C8522" transform="translate(183.06640625,248.90234375)"/>
<path d="M0 0 C-0.29648438 0.82757813 -0.59296875 1.65515625 -0.8984375 2.5078125 C-2.08148171 6.25831435 -2.8925343 10.01834388 -3.625 13.875 C-3.7590625 14.56335938 -3.893125 15.25171875 -4.03125 15.9609375 C-4.35772223 17.63993755 -4.67936553 19.31987536 -5 21 C-13.13709505 20.28621973 -21.01731928 18.67226118 -29 17 C-27.50201012 12.99346717 -25.28907248 11.63849794 -21.66015625 9.51171875 C-20.59732422 8.88845703 -19.53449219 8.26519531 -18.43945312 7.62304688 C-17.32505859 6.98431641 -16.21066406 6.34558594 -15.0625 5.6875 C-13.95197266 5.02943359 -12.84144531 4.37136719 -11.69726562 3.69335938 C-3.38116776 -1.12705592 -3.38116776 -1.12705592 0 0 Z " fill="#597233" transform="translate(252,85)"/>
<path d="M0 0 C0.66 0.33 1.32 0.66 2 1 C1.01 2.65 0.02 4.3 -1 6 C-0.01 6.33 0.98 6.66 2 7 C-0.81876457 10.11547663 -3.98372278 12.52558183 -8.125 13.5 C-10.07483787 13.84926273 -10.07483787 13.84926273 -11.30859375 15.3359375 C-13.34166882 17.3361453 -15.49165456 18.6611707 -17.9375 20.125 C-19.21947266 20.90230469 -19.21947266 20.90230469 -20.52734375 21.6953125 C-23 23 -23 23 -25.25390625 23.5546875 C-25.83011719 23.70164063 -26.40632813 23.84859375 -27 24 C-27.33 24.66 -27.66 25.32 -28 26 C-28.99 25.67 -29.98 25.34 -31 25 C-31 22.69 -31 20.38 -31 18 C-30.401875 17.896875 -29.80375 17.79375 -29.1875 17.6875 C-26.64568383 16.88864349 -25.82623514 15.89928455 -24 14 C-21.62835363 12.41890242 -19.65887072 11.1550284 -16.875 10.5 C-14.93458729 10.15691318 -14.93458729 10.15691318 -13.76171875 8.703125 C-11.39412235 6.4142735 -8.77298304 4.91752587 -5.9375 3.25 C-4.87402344 2.61578125 -3.81054688 1.9815625 -2.71484375 1.328125 C-1.81894531 0.88984375 -0.92304687 0.4515625 0 0 Z " fill="#C9E299" transform="translate(61,191)"/>
<path d="M0 0 C2.05078125 0.03255208 4.1015625 0.06510417 6.15234375 0.09765625 C7.80555156 3.07343031 8.90241854 5.68201177 9.15234375 9.09765625 C7.77734375 11.78515625 7.77734375 11.78515625 6.15234375 14.09765625 C5.82234375 14.75765625 5.49234375 15.41765625 5.15234375 16.09765625 C2.84234375 15.76765625 0.53234375 15.43765625 -1.84765625 15.09765625 C-4.41766413 10.4111713 -3.88462042 6.16725886 -2.84765625 1.09765625 C-1.84765625 0.09765625 -1.84765625 0.09765625 0 0 Z M0.15234375 14.09765625 C4.15234375 15.09765625 4.15234375 15.09765625 4.15234375 15.09765625 Z " fill="#989F51" transform="translate(182.84765625,229.90234375)"/>
<path d="M0 0 C1.23556641 0.01740234 1.23556641 0.01740234 2.49609375 0.03515625 C3.32238281 0.04417969 4.14867187 0.05320313 5 0.0625 C5.63808594 0.07410156 6.27617187 0.08570313 6.93359375 0.09765625 C8.08389703 3.54856608 8.06306509 6.24405437 8.06640625 9.8828125 C8.06736298 10.53970566 8.0683197 11.19659882 8.06930542 11.87339783 C8.06998488 13.25943091 8.06814689 14.6454672 8.06396484 16.03149414 C8.05860466 18.15583408 8.06392205 20.27996342 8.0703125 22.40429688 C8.06965184 23.75130255 8.06837094 25.0983081 8.06640625 26.4453125 C8.06527832 27.67258057 8.06415039 28.89984863 8.06298828 30.16430664 C7.93359375 33.09765625 7.93359375 33.09765625 6.93359375 35.09765625 C5.45452483 35.12454841 3.97531892 35.14400246 2.49609375 35.16015625 C1.67238281 35.17175781 0.84867188 35.18335938 0 35.1953125 C-2.06640625 35.09765625 -2.06640625 35.09765625 -3.06640625 34.09765625 C-3.16723389 31.66105179 -3.20613228 29.25340924 -3.19921875 26.81640625 C-3.20017548 26.08772339 -3.2011322 25.35904053 -3.20211792 24.60827637 C-3.2027996 23.06485915 -3.20094613 21.52143908 -3.19677734 19.97802734 C-3.19142887 17.60768225 -3.19672267 15.23752666 -3.203125 12.8671875 C-3.20246422 11.37109333 -3.20118305 9.87499928 -3.19921875 8.37890625 C-3.20124298 7.66536987 -3.20326721 6.9518335 -3.20535278 6.2166748 C-3.17626344 0.15010697 -3.17626344 0.15010697 0 0 Z M-1.06640625 2.09765625 C-1.06640625 12.32765625 -1.06640625 22.55765625 -1.06640625 33.09765625 C1.24359375 33.09765625 3.55359375 33.09765625 5.93359375 33.09765625 C5.93359375 22.86765625 5.93359375 12.63765625 5.93359375 2.09765625 C3.62359375 2.09765625 1.31359375 2.09765625 -1.06640625 2.09765625 Z " fill="#979E50" transform="translate(183.06640625,248.90234375)"/>
<path d="M0 0 C2.12890625 0.40625 2.12890625 0.40625 4 1 C4.59217644 4.01237582 5.04241949 6.92458712 5 10 C2.85065086 13.07049877 1.54925112 13.81691629 -2 15 C-4.6875 14.1875 -4.6875 14.1875 -7 12 C-7.44415526 8.63091984 -7.28528873 5.37908655 -7 2 C-6.01 2.33 -5.02 2.66 -4 3 C-3.360625 2.505 -2.72125 2.01 -2.0625 1.5 C-1.381875 1.005 -0.70125 0.51 0 0 Z M-2 5 C-2 6.32 -2 7.64 -2 9 C-1.34 8.67 -0.68 8.34 0 8 C-0.33 7.01 -0.66 6.02 -1 5 C-1.33 5 -1.66 5 -2 5 Z M1 5 C2 9 2 9 2 9 Z M-6 9 C-5 11 -5 11 -5 11 Z " fill="#C2C699" transform="translate(119,296)"/>
<path d="M0 0 C2.475 0.99 2.475 0.99 5 2 C5 3.32 5 4.64 5 6 C5.33 4.68 5.66 3.36 6 2 C6.99 2 7.98 2 9 2 C9.05391993 3.79133978 9.09275571 5.58313899 9.125 7.375 C9.14820312 8.37273437 9.17140625 9.37046875 9.1953125 10.3984375 C9 13 9 13 7 15 C6.4225 14.505 5.845 14.01 5.25 13.5 C2.89599371 11.63019987 2.89599371 11.63019987 -1 12 C-1.02698189 10.37509046 -1.04638757 8.75005367 -1.0625 7.125 C-1.07410156 6.22007812 -1.08570312 5.31515625 -1.09765625 4.3828125 C-1 2 -1 2 0 0 Z " fill="#AFB479" transform="translate(78,296)"/>
<path d="M0 0 C2.475 0.99 2.475 0.99 5 2 C5 3.32 5 4.64 5 6 C5.33 4.68 5.66 3.36 6 2 C6.99 2 7.98 2 9 2 C9.05391993 3.79133978 9.09275571 5.58313899 9.125 7.375 C9.14820313 8.37273437 9.17140625 9.37046875 9.1953125 10.3984375 C9 13 9 13 7 15 C6.4225 14.505 5.845 14.01 5.25 13.5 C2.89599371 11.63019987 2.89599371 11.63019987 -1 12 C-1.02698189 10.37509046 -1.04638757 8.75005367 -1.0625 7.125 C-1.07410156 6.22007812 -1.08570313 5.31515625 -1.09765625 4.3828125 C-1 2 -1 2 0 0 Z " fill="#B0B57A" transform="translate(37,296)"/>
<path d="M0 0 C3.0625 0.375 3.0625 0.375 5 1.9375 C6.52076219 5.42630737 6.00385898 7.74404394 5.0625 11.375 C4.0725 12.035 3.0825 12.695 2.0625 13.375 C-1.38757001 12.22497666 -2.70543569 11.22280619 -4.9375 8.375 C-5.3125 5.25 -5.3125 5.25 -4.9375 2.375 C-2.9375 0.375 -2.9375 0.375 0 0 Z M-1.9375 3.375 C-0.9375 7.375 -0.9375 7.375 -0.9375 7.375 Z M2.0625 4.375 C3.0625 6.375 3.0625 6.375 3.0625 6.375 Z " fill="#B2B77E" transform="translate(204.9375,297.625)"/>
<path d="M0 0 C2.31 0 4.62 0 7 0 C8.125 1.6875 8.125 1.6875 9 4 C8.36971413 5.68076231 7.70211894 7.34795544 7 9 C7.28739925 11.24240782 7.28739925 11.24240782 8 13 C7.01 13.33 6.02 13.66 5 14 C4.67 13.01 4.34 12.02 4 11 C2.02 11.99 2.02 11.99 0 13 C0 8.71 0 4.42 0 0 Z M3 4 C3 4.66 3 5.32 3 6 C3.66 5.67 4.32 5.34 5 5 C4.34 4.67 3.68 4.34 3 4 Z " fill="#C0C496" transform="translate(180,296)"/>
<path d="M0 0 C1.98 0.66 3.96 1.32 6 2 C6.99 2 7.98 2 9 2 C9.05391993 3.79133978 9.09275571 5.58313899 9.125 7.375 C9.14820313 8.37273437 9.17140625 9.37046875 9.1953125 10.3984375 C9 13 9 13 7 15 C4.7522025 12.94766315 3.9977758 11.99332739 3 9 C2.67 10.32 2.34 11.64 2 13 C1.34 13 0.68 13 0 13 C0 8.71 0 4.42 0 0 Z " fill="#B3B880" transform="translate(127,296)"/>
<path d="M0 0 C2.31 0 4.62 0 7 0 C8.125 6.75 8.125 6.75 7 9 C7.165 9.66 7.33 10.32 7.5 11 C8 13 8 13 7 15 C6.34 15 5.68 15 5 15 C3.9375 13.125 3.9375 13.125 3 11 C3.33 10.34 3.66 9.68 4 9 C3.34 9 2.68 9 2 9 C2 10.32 2 11.64 2 13 C1.34 13 0.68 13 0 13 C0 8.71 0 4.42 0 0 Z " fill="#A9AE6E" transform="translate(67,296)"/>
<path d="M0 0 C0.66 0 1.32 0 2 0 C2.67057887 1.7902061 3.3363469 3.58221489 4 5.375 C4.556875 6.87160156 4.556875 6.87160156 5.125 8.3984375 C6 11 6 11 6 13 C-0.625 14 -0.625 14 -4 14 C-4.33 13.34 -4.66 12.68 -5 12 C-4.00390625 9.43359375 -4.00390625 9.43359375 -2.5625 6.4375 C-0.8272121 3.35441638 -0.8272121 3.35441638 0 0 Z " fill="#B0B57A" transform="translate(142,296)"/>
<path d="M0 0 C2.66246807 1.33123403 2.94601652 2.6764378 4.125 5.375 C4.47820312 6.16648437 4.83140625 6.95796875 5.1953125 7.7734375 C6 10 6 10 6 13 C-0.625 14.125 -0.625 14.125 -4 13 C-3.27991594 8.39146203 -1.68704061 4.32762591 0 0 Z " fill="#8E9641" transform="translate(166,296)"/>
<path d="M0 0 C2.31 0 4.62 0 7 0 C7.87867729 3.73437848 8.08912219 7.16774573 8 11 C7.01 11.33 6.02 11.66 5 12 C4.67 11.01 4.34 10.02 4 9 C2.02 9.99 2.02 9.99 0 11 C0 7.37 0 3.74 0 0 Z M3 2 C3 2.66 3 3.32 3 4 C3.66 4 4.32 4 5 4 C5 3.34 5 2.68 5 2 C4.34 2 3.68 2 3 2 Z " fill="#969D4E" transform="translate(213,298)"/>
<path d="M0 0 C0.99 0 1.98 0 3 0 C4.32 3.96 5.64 7.92 7 12 C2.80104745 13.04973814 0.20594226 12.72795155 -4 12 C-2.66666667 8 -1.33333333 4 0 0 Z " fill="#BABE8B" transform="translate(92,297)"/>
<path d="M0 0 C2.64 0 5.28 0 8 0 C9.60725635 3.21451269 9.05748185 6.43612536 9 10 C3.375 11.125 3.375 11.125 0 10 C0 6.7 0 3.4 0 0 Z " fill="#CCD0AA" transform="translate(47,298)"/>
<path d="M0 0 C0.99 0.33 1.98 0.66 3 1 C3 7.93 3 14.86 3 22 C5.31 22 7.62 22 10 22 C10.33 23.32 10.66 24.64 11 26 C8.03 26 5.06 26 2 26 C1.00544091 23.01632274 0.80440368 20.7995808 0.68359375 17.67578125 C0.64169922 16.64775391 0.59980469 15.61972656 0.55664062 14.56054688 C0.51732422 13.48869141 0.47800781 12.41683594 0.4375 11.3125 C0.39431641 10.22904297 0.35113281 9.14558594 0.30664062 8.02929688 C0.20053162 5.35299209 0.09847639 2.67659474 0 0 Z " fill="#AEB377" transform="translate(162,260)"/>
<path d="M0 0 C1.98 0 3.96 0 6 0 C7.3201891 3.96056731 6.58015738 6.39341035 5.1875 10.25 C4 12 4 12 1.9375 12.8125 C1.298125 12.874375 0.65875 12.93625 0 13 C-1 12 -1 12 -1.1328125 9.78515625 C-1.13023437 8.88667969 -1.12765625 7.98820312 -1.125 7.0625 C-1.12757813 6.16660156 -1.13015625 5.27070313 -1.1328125 4.34765625 C-1 2 -1 2 0 0 Z M2 4 C2 4.66 2 5.32 2 6 C2.66 6 3.32 6 4 6 C4 5.34 4 4.68 4 4 C3.34 4 2.68 4 2 4 Z " fill="#B6BB85" transform="translate(191,296)"/>
<path d="M0 0 C2.31 0 4.62 0 7 0 C8.60725635 3.21451269 8.05748185 6.43612536 8 10 C2.25 11.125 2.25 11.125 0 10 C-1.11421833 6.35346727 -0.94296589 3.66708957 0 0 Z " fill="#C6CAA0" transform="translate(99,298)"/>
<path d="M0 0 C2.31 0 4.62 0 7 0 C7 0.66 7 1.32 7 2 C6.34 2 5.68 2 5 2 C5 2.66 5 3.32 5 4 C5.66 4 6.32 4 7 4 C6.67 4.99 6.34 5.98 6 7 C6.33 7.33 6.66 7.66 7 8 C6.67 8.99 6.34 9.98 6 11 C4.02 11 2.04 11 0 11 C0 7.37 0 3.74 0 0 Z M3 2 C4 4 4 4 4 4 Z M3 6 C4 8 4 8 4 8 Z " fill="#9EA45C" transform="translate(57,298)"/>
<path d="M0 0 C2.31 0 4.62 0 7 0 C7 3.3 7 6.6 7 10 C3.71303767 10.79953138 2.28976808 11.09658936 -1 10 C-1.125 2.25 -1.125 2.25 0 0 Z " fill="#C2C699" transform="translate(223,298)"/>
<path d="M0 0 C0.66 0 1.32 0 2 0 C2 1.98 2 3.96 2 6 C2.66 6 3.32 6 4 6 C4 4.35 4 2.7 4 1 C4.33 1 4.66 1 5 1 C5.33 4.3 5.66 7.6 6 11 C4.02 11 2.04 11 0 11 C0 7.37 0 3.74 0 0 Z " fill="#B3B980" transform="translate(150,298)"/>
<path d="M0 0 C5.11365014 1.0681847 10.07227969 2.23107476 15 4 C14.34 4.66 13.68 5.32 13 6 C7.87602353 5.74800116 4.15130734 5.24320886 0 2 C0 1.34 0 0.68 0 0 Z " fill="#C5CC75" transform="translate(240,77)"/>
<path d="M0 0 C1.98 0 3.96 0 6 0 C5.814375 0.7425 5.62875 1.485 5.4375 2.25 C5.00158134 4.99006016 5.28005547 6.39020109 6 9 C5.67 9.66 5.34 10.32 5 11 C4.34 11 3.68 11 3 11 C1.9375 9.1875 1.9375 9.1875 1 7 C1.33 6.01 1.66 5.02 2 4 C1.01 3.67 0.02 3.34 -1 3 C-0.67 2.01 -0.34 1.02 0 0 Z " fill="#BABF8B" transform="translate(69,300)"/>
<path d="M0 0 C0.66 0.33 1.32 0.66 2 1 C0.515 3.475 0.515 3.475 -1 6 C-0.01 6.33 0.98 6.66 2 7 C1.01 7.99 0.02 8.98 -1 10 C-3.90542812 8.6975667 -5.8092961 7.29113732 -8 5 C-6.71475739 4.13619741 -5.42157581 3.28419631 -4.125 2.4375 C-3.04605469 1.72400391 -3.04605469 1.72400391 -1.9453125 0.99609375 C-1.30335937 0.66738281 -0.66140625 0.33867187 0 0 Z " fill="#DCEBBD" transform="translate(61,191)"/>
<path d="M0 0 C1.98 0 3.96 0 6 0 C4.68 0.33 3.36 0.66 2 1 C2 2.32 2 3.64 2 5 C2.99 5 3.98 5 5 5 C5 5.66 5 6.32 5 7 C4.34 7 3.68 7 3 7 C2.67 8.32 2.34 9.64 2 11 C1.34 11 0.68 11 0 11 C0 7.37 0 3.74 0 0 Z " fill="#9BA257" transform="translate(180,298)"/>
<path d="M0 0 C0.33 0.66 0.66 1.32 1 2 C1.66 2 2.32 2 3 2 C3.33 1.34 3.66 0.68 4 0 C4.66 2.97 5.32 5.94 6 9 C5.01 9.33 4.02 9.66 3 10 C2.67 9.01 2.34 8.02 2 7 C1.01 7.495 1.01 7.495 0 8 C0 5.36 0 2.72 0 0 Z " fill="#C2C699" transform="translate(215,300)"/>
<path d="M0 0 C0.99 0 1.98 0 3 0 C3 3.63 3 7.26 3 11 C2.01 11 1.02 11 0 11 C0 7.37 0 3.74 0 0 Z " fill="#AFB478" transform="translate(108,298)"/>
<path d="M0 0 C0.33 0 0.66 0 1 0 C1 10.89 1 21.78 1 33 C0.67 33 0.34 33 0 33 C0 22.11 0 11.22 0 0 Z " fill="#FDFDFC" transform="translate(178,250)"/>
<path d="M0 0 C0.66 0 1.32 0 2 0 C1.6875 3.375 1.6875 3.375 1 7 C0.01 7.66 -0.98 8.32 -2 9 C-2.99 8.67 -3.98 8.34 -5 8 C-5 7.01 -5 6.02 -5 5 C-4.34 5 -3.68 5 -3 5 C-2.67 4.01 -2.34 3.02 -2 2 C-1.34 2 -0.68 2 0 2 C0 1.34 0 0.68 0 0 Z " fill="#C5C99D" transform="translate(209,302)"/>
<path d="M0 0 C0.99 0 1.98 0 3 0 C3 3.3 3 6.6 3 10 C2.01 10.33 1.02 10.66 0 11 C0 7.37 0 3.74 0 0 Z " fill="#ACB274" transform="translate(174,298)"/>
<path d="M0 0 C0.33 0 0.66 0 1 0 C1 10.23 1 20.46 1 31 C0.67 31 0.34 31 0 31 C0 20.77 0 10.54 0 0 Z " fill="#FEFEFE" transform="translate(195,251)"/>
<path d="M0 0 C0.33 0 0.66 0 1 0 C1 10.23 1 20.46 1 31 C0.67 31 0.34 31 0 31 C0 20.77 0 10.54 0 0 Z " fill="#FFFFFE" transform="translate(192,251)"/>
<path d="M0 0 C1.65 0 3.3 0 5 0 C5 0.66 5 1.32 5 2 C5.66 2.33 6.32 2.66 7 3 C6.67 3.99 6.34 4.98 6 6 C4.0625 6.8125 4.0625 6.8125 2 7 C0 5 0 5 -0.125 2.375 C-0.08375 1.59125 -0.0425 0.8075 0 0 Z " fill="#C6DF93" transform="translate(51,197)"/>
<path d="M0 0 C0.639375 0.33 1.27875 0.66 1.9375 1 C4.1118245 2.35074272 4.1118245 2.35074272 7 1 C7 1.66 7 2.32 7 3 C6.34 3 5.68 3 5 3 C5 3.66 5 4.32 5 5 C3.02 5.33 1.04 5.66 -1 6 C-1.33 4.35 -1.66 2.7 -2 1 C-1.34 0.67 -0.68 0.34 0 0 Z " fill="#C4CC88" transform="translate(213,100)"/>
<path d="M0 0 C1.13732426 3.40401948 0.83989957 5.77456664 0.0625 9.25 C-0.13214844 10.14203125 -0.32679688 11.0340625 -0.52734375 11.953125 C-0.68332031 12.62859375 -0.83929688 13.3040625 -1 14 C-2.92162094 10.44768081 -3.4249581 8.07959774 -3 4 C-1.5 1.625 -1.5 1.625 0 0 Z " fill="#C5CA68" transform="translate(252,87)"/>
<path d="M0 0 C0.99 0 1.98 0 3 0 C3 0.66 3 1.32 3 2 C3.66 2 4.32 2 5 2 C4.67 2.99 4.34 3.98 4 5 C4.33 5.33 4.66 5.66 5 6 C4.67 6.66 4.34 7.32 4 8 C2.68 7.67 1.36 7.34 0 7 C0 4.69 0 2.38 0 0 Z M1 4 C2 6 2 6 2 6 Z " fill="#BBC08E" transform="translate(59,300)"/>
<path d="M0 0 C3 0 3 0 5.5625 0.5625 C7.99764861 1.25042261 7.99764861 1.25042261 10 0 C10 0.99 10 1.98 10 3 C3.375 4.125 3.375 4.125 0 3 C0 2.01 0 1.02 0 0 Z " fill="#ECEDDF" transform="translate(162,306)"/>
<path d="M0 0 C0 0.66 0 1.32 0 2 C-6.625 3 -6.625 3 -10 3 C-10.33 2.34 -10.66 1.68 -11 1 C-7.2297564 -1.56376565 -4.32597804 -0.83191885 0 0 Z " fill="#F5F5EE" transform="translate(148,307)"/>
<path d="M0 0 C2.31 0 4.62 0 7 0 C8.0625 1.8125 8.0625 1.8125 9 4 C8.67 4.99 8.34 5.98 8 7 C7.34 7 6.68 7 6 7 C6 6.01 6 5.02 6 4 C4.68 3.67 3.36 3.34 2 3 C3.32 3 4.64 3 6 3 C6 2.34 6 1.68 6 1 C4.02 1 2.04 1 0 1 C0 0.67 0 0.34 0 0 Z " fill="#CACEA6" transform="translate(180,296)"/>
<path d="M0 0 C0.99 0 1.98 0 3 0 C4.125 5.75 4.125 5.75 3 8 C2.01 8 1.02 8 0 8 C-0.79953138 4.71303767 -1.09658936 3.28976808 0 0 Z " fill="#B5BA83" transform="translate(92,297)"/>
<path d="M0 0 C1.27617188 0.02320313 2.55234375 0.04640625 3.8671875 0.0703125 C5.78917969 0.09738281 5.78917969 0.09738281 7.75 0.125 C9.23113281 0.15980469 9.23113281 0.15980469 10.7421875 0.1953125 C8.45500763 2.48249237 7.83580272 2.49053324 4.7421875 2.7578125 C2.36248903 2.97216034 0.89541414 3.11869918 -1.2578125 4.1953125 C-3.3828125 3.2578125 -3.3828125 3.2578125 -5.2578125 2.1953125 C-3.2578125 0.1953125 -3.2578125 0.1953125 0 0 Z " fill="#D8DBBE" transform="translate(118.2578125,246.8046875)"/>
<path d="M0 0 C0.33 0 0.66 0 1 0 C1 7.59 1 15.18 1 23 C0.67 23 0.34 23 0 23 C0 15.41 0 7.82 0 0 Z " fill="#FDFDFC" transform="translate(218,260)"/>
<path d="M0 0 C0.99 0.33 1.98 0.66 3 1 C2.01 1.495 2.01 1.495 1 2 C0.7834375 2.928125 0.7834375 2.928125 0.5625 3.875 C-0.10497845 6.39658526 -0.9818865 7.3855092 -3 9 C-3.66 9 -4.32 9 -5 9 C-3.50163895 5.88801935 -1.80066242 2.9465385 0 0 Z " fill="#ADB376" transform="translate(111,249)"/>
<path d="M0 0 C2.0625 0.75 2.0625 0.75 4 2 C4.33 2.99 4.66 3.98 5 5 C2.36 5 -0.28 5 -3 5 C-2.625 3.0625 -2.625 3.0625 -2 1 C-1.34 0.67 -0.68 0.34 0 0 Z " fill="#BFDD85" transform="translate(97,73)"/>
<path d="M0 0 C0.66 0 1.32 0 2 0 C2 3.63 2 7.26 2 11 C1.34 11 0.68 11 0 11 C0 7.37 0 3.74 0 0 Z " fill="#939A49" transform="translate(31,298)"/>
<path d="M0 0 C0.33 0 0.66 0 1 0 C1 7.26 1 14.52 1 22 C0.67 22 0.34 22 0 22 C0 14.74 0 7.48 0 0 Z " fill="#FDFDFB" transform="translate(152,261)"/>
<path d="M0 0 C0.33 0 0.66 0 1 0 C1 7.26 1 14.52 1 22 C0.67 22 0.34 22 0 22 C0 14.74 0 7.48 0 0 Z " fill="#FDFDFC" transform="translate(209,261)"/>
<path d="M0 0 C0.33 0 0.66 0 1 0 C1 7.26 1 14.52 1 22 C0.67 22 0.34 22 0 22 C0 14.74 0 7.48 0 0 Z " fill="#FDFDFC" transform="translate(161,261)"/>
<path d="M0 0 C0.99 0.33 1.98 0.66 3 1 C3.5625 2.9375 3.5625 2.9375 4 5 C4.66 5.66 5.32 6.32 6 7 C4.125 7.625 4.125 7.625 2 8 C0 6 0 6 -0.125 2.875 C-0.08375 1.92625 -0.0425 0.9775 0 0 Z " fill="#AAAF70" transform="translate(200,300)"/>
<path d="M0 0 C0.86625 0.3403125 0.86625 0.3403125 1.75 0.6875 C1.42 1.6775 1.09 2.6675 0.75 3.6875 C-2.3125 4.875 -2.3125 4.875 -5.25 5.6875 C-5.58 4.6975 -5.91 3.7075 -6.25 2.6875 C-2.80384615 -0.38942308 -2.80384615 -0.38942308 0 0 Z " fill="#B3B880" transform="translate(121.25,296.3125)"/>
<path d="M0 0 C0.66 0.33 1.32 0.66 2 1 C1.67 3.97 1.34 6.94 1 10 C0.34 10 -0.32 10 -1 10 C-0.67 6.7 -0.34 3.4 0 0 Z " fill="#AEB534" transform="translate(248,96)"/>
<path d="M0 0 C2 1 2 1 2.6875 2.8125 C3.02688538 5.18819767 2.72856341 6.73335829 2 9 C1.34 9 0.68 9 0 9 C-0.84454356 5.62182575 -1.10844919 3.32534757 0 0 Z " fill="#BDC291" transform="translate(166,296)"/>
<path d="M0 0 C0.33 0 0.66 0 1 0 C1 6.6 1 13.2 1 20 C0.67 20 0.34 20 0 20 C0 13.4 0 6.8 0 0 Z " fill="#FEFEFE" transform="translate(232,262)"/>
<path d="M0 0 C0.33 0 0.66 0 1 0 C1 6.6 1 13.2 1 20 C0.67 20 0.34 20 0 20 C0 13.4 0 6.8 0 0 Z " fill="#FEFEFD" transform="translate(175,262)"/>
<path d="M0 0 C0.66 0.33 1.32 0.66 2 1 C1.34 3.97 0.68 6.94 0 10 C-0.66 10 -1.32 10 -2 10 C-1.85950482 8.52031676 -1.71245174 7.04125484 -1.5625 5.5625 C-1.48128906 4.73878906 -1.40007812 3.91507813 -1.31640625 3.06640625 C-1 1 -1 1 0 0 Z " fill="#ACB173" transform="translate(181,230)"/>
<path d="M0 0 C2 1 2 1 3.125 4.0625 C3.41375 5.031875 3.7025 6.00125 4 7 C2.68 7.33 1.36 7.66 0 8 C0 5.36 0 2.72 0 0 Z " fill="#D1E6A8" transform="translate(30,209)"/>
<path d="M0 0 C1.49080078 0.16628906 1.49080078 0.16628906 3.01171875 0.3359375 C3.77097656 0.43132812 4.53023437 0.52671875 5.3125 0.625 C5.3125 0.955 5.3125 1.285 5.3125 1.625 C0.6925 1.625 -3.9275 1.625 -8.6875 1.625 C-5.1388865 -0.74074234 -4.1110475 -0.48365265 0 0 Z " fill="#FEFEFD" transform="translate(175.6875,94.375)"/>
<path d="M0 0 C4.455 0.99 4.455 0.99 9 2 C5 4 5 4 2.8125 3.8125 C2.214375 3.544375 1.61625 3.27625 1 3 C0.67 2.01 0.34 1.02 0 0 Z " fill="#C1C965" transform="translate(240,77)"/>
<path d="M0 0 C4.95 0.99 4.95 0.99 10 2 C9.34 2.66 8.68 3.32 8 4 C4.375 3.625 4.375 3.625 1 3 C0.67 2.01 0.34 1.02 0 0 Z " fill="#DCE0A6" transform="translate(224,72)"/>
<path d="M0 0 C0.8723412 2.99480917 1.10829766 5.63575911 1.0625 8.75 C1.05347656 9.54921875 1.04445313 10.3484375 1.03515625 11.171875 C1.01775391 12.07679688 1.01775391 12.07679688 1 13 C0.34 12.67 -0.32 12.34 -1 12 C-1.02687279 10.18757948 -1.04633715 8.37504767 -1.0625 6.5625 C-1.07410156 5.55316406 -1.08570312 4.54382813 -1.09765625 3.50390625 C-1 1 -1 1 0 0 Z " fill="#FDFDFC" transform="translate(102,260)"/>
<path d="M0 0 C1.98 0 3.96 0 6 0 C5.625 1.9375 5.625 1.9375 5 4 C4.01 4.495 4.01 4.495 3 5 C3 4.34 3 3.68 3 3 C2.01 3 1.02 3 0 3 C0 2.01 0 1.02 0 0 Z " fill="#C8CCA4" transform="translate(69,300)"/>
<path d="M0 0 C0.33 0 0.66 0 1 0 C1.05391993 1.79133978 1.09275571 3.58313899 1.125 5.375 C1.14820313 6.37273437 1.17140625 7.37046875 1.1953125 8.3984375 C1 11 1 11 -1 13 C-1.66 12.01 -2.32 11.02 -3 10 C-2.34 9.67 -1.68 9.34 -1 9 C-0.53348793 6.87423218 -0.53348793 6.87423218 -0.375 4.4375 C-0.30023438 3.61121094 -0.22546875 2.78492188 -0.1484375 1.93359375 C-0.09945312 1.29550781 -0.05046875 0.65742188 0 0 Z " fill="#F3F4EC" transform="translate(45,298)"/>
<path d="M0 0 C0.33 0 0.66 0 1 0 C1.05391993 1.79133978 1.09275571 3.58313899 1.125 5.375 C1.14820312 6.37273437 1.17140625 7.37046875 1.1953125 8.3984375 C1 11 1 11 -1 13 C-1.66 12.01 -2.32 11.02 -3 10 C-2.34 9.67 -1.68 9.34 -1 9 C-0.53348793 6.87423218 -0.53348793 6.87423218 -0.375 4.4375 C-0.30023438 3.61121094 -0.22546875 2.78492188 -0.1484375 1.93359375 C-0.09945312 1.29550781 -0.05046875 0.65742188 0 0 Z " fill="#F3F3EB" transform="translate(86,298)"/>
<path d="M0 0 C2.5 -0.375 2.5 -0.375 5 0 C5.66 0.99 6.32 1.98 7 3 C3.93109813 4.53445094 1.29905734 3.54984289 -2 3 C-1.34 2.01 -0.68 1.02 0 0 Z " fill="#C5C99E" transform="translate(56,271)"/>
<path d="M0 0 C0.103125 0.639375 0.20625 1.27875 0.3125 1.9375 C0.539375 2.618125 0.76625 3.29875 1 4 C1.99 4.33 2.98 4.66 4 5 C2.625 6.5 2.625 6.5 1 8 C0.34 8 -0.32 8 -1 8 C-0.67 5.36 -0.34 2.72 0 0 Z " fill="#DEEDC1" transform="translate(179,215)"/>
<path d="M0 0 C2.31 0.66 4.62 1.32 7 2 C7 2.66 7 3.32 7 4 C6.34 4 5.68 4 5 4 C5 3.34 5 2.68 5 2 C2.69 2.66 0.38 3.32 -2 4 C-1.34 2.68 -0.68 1.36 0 0 Z " fill="#858D31" transform="translate(140,304)"/>
<path d="M0 0 C0.33 0 0.66 0 1 0 C1 3.3 1 6.6 1 10 C-1 8 -1 8 -1.1875 4.4375 C-1 1 -1 1 0 0 Z " fill="#FEFEFE" transform="translate(125,298)"/>
<path d="M0 0 C1.2077558 3.62326739 0.54311128 4.64146369 -1 8 C-1.66 7.67 -2.32 7.34 -3 7 C-1.125 2.25 -1.125 2.25 0 0 Z " fill="#FDFEFC" transform="translate(203,141)"/>
<path d="M0 0 C0.33 0 0.66 0 1 0 C1 2.64 1 5.28 1 8 C0.34 7.34 -0.32 6.68 -1 6 C-0.625 2.875 -0.625 2.875 0 0 Z " fill="#FDFDFC" transform="translate(172,298)"/>
<path d="M0 0 C3.3 0.33 6.6 0.66 10 1 C10 1.33 10 1.66 10 2 C6.7 1.67 3.4 1.34 0 1 C0 0.67 0 0.34 0 0 Z " fill="#FEFEFD" transform="translate(108,82)"/>
<path d="M0 0 C0.33 0 0.66 0 1 0 C1 3.3 1 6.6 1 10 C0.67 10 0.34 10 0 10 C0 6.7 0 3.4 0 0 Z " fill="#FEFFFE" transform="translate(34,298)"/>
<path d="M0 0 C2 3 2 3 1.625 5.6875 C1.41875 6.450625 1.2125 7.21375 1 8 C0.67 8 0.34 8 0 8 C0 5.36 0 2.72 0 0 Z " fill="#FDFDFB" transform="translate(137,298)"/>
<path d="M0 0 C0.66 0.66 1.32 1.32 2 2 C1.625 4.625 1.625 4.625 1 7 C0.67 7 0.34 7 0 7 C0 4.69 0 2.38 0 0 Z " fill="#FDFDFD" transform="translate(88,298)"/>
<path d="M0 0 C0.33 0 0.66 0 1 0 C1 3.3 1 6.6 1 10 C0.67 10 0.34 10 0 10 C0 6.7 0 3.4 0 0 Z " fill="#FEFEFD" transform="translate(178,298)"/>
<path d="M0 0 C2.97 0 5.94 0 9 0 C9 0.33 9 0.66 9 1 C6.03 1 3.06 1 0 1 C0 0.67 0 0.34 0 0 Z " fill="#FDFDFC" transform="translate(221,285)"/>
<path d="M0 0 C2.97 0 5.94 0 9 0 C9 0.33 9 0.66 9 1 C6.03 1 3.06 1 0 1 C0 0.67 0 0.34 0 0 Z " fill="#FDFDFC" transform="translate(181,285)"/>
<path d="M0 0 C2.97 0 5.94 0 9 0 C9 0.33 9 0.66 9 1 C6.03 1 3.06 1 0 1 C0 0.67 0 0.34 0 0 Z " fill="#FDFDFD" transform="translate(181,247)"/>
<path d="M0 0 C2.97 0 5.94 0 9 0 C9 0.33 9 0.66 9 1 C6.03 1 3.06 1 0 1 C0 0.67 0 0.34 0 0 Z " fill="#FDFDFC" transform="translate(212,246)"/>
<path d="M0 0 C2.97 0 5.94 0 9 0 C9 0.33 9 0.66 9 1 C6.03 1 3.06 1 0 1 C0 0.67 0 0.34 0 0 Z " fill="#FDFDFC" transform="translate(155,246)"/>
<path d="M0 0 C2.64 0 5.28 0 8 0 C8 0.33 8 0.66 8 1 C5.36 1 2.72 1 0 1 C0 0.67 0 0.34 0 0 Z " fill="#FDFDFC" transform="translate(118,286)"/>
<path d="M0 0 C2.64 0 5.28 0 8 0 C8 0.33 8 0.66 8 1 C5.36 1 2.72 1 0 1 C0 0.67 0 0.34 0 0 Z " fill="#FDFDFC" transform="translate(78,286)"/>
<path d="M0 0 C2.64 0 5.28 0 8 0 C8 0.33 8 0.66 8 1 C5.36 1 2.72 1 0 1 C0 0.67 0 0.34 0 0 Z " fill="#FDFDFC" transform="translate(44,286)"/>
<path d="M0 0 C2.64 0 5.28 0 8 0 C8 0.33 8 0.66 8 1 C5.36 1 2.72 1 0 1 C0 0.67 0 0.34 0 0 Z " fill="#FDFDFC" transform="translate(118,246)"/>
<path d="M0 0 C2.64 0 5.28 0 8 0 C8 0.33 8 0.66 8 1 C5.36 1 2.72 1 0 1 C0 0.67 0 0.34 0 0 Z " fill="#FDFDFC" transform="translate(78,246)"/>
<path d="M0 0 C2.64 0 5.28 0 8 0 C8 0.33 8 0.66 8 1 C5.36 1 2.72 1 0 1 C0 0.67 0 0.34 0 0 Z " fill="#FDFDFC" transform="translate(44,246)"/>
<path d="M0 0 C2.31 0 4.62 0 7 0 C7 0.33 7 0.66 7 1 C4.69 1 2.38 1 0 1 C0 0.67 0 0.34 0 0 Z " fill="#FFFFFF" transform="translate(223,296)"/>
<path d="M0 0 C2.31 0 4.62 0 7 0 C7 0.33 7 0.66 7 1 C4.69 1 2.38 1 0 1 C0 0.67 0 0.34 0 0 Z " fill="#FEFEFE" transform="translate(213,296)"/>
<path d="M0 0 C2.31 0 4.62 0 7 0 C7 0.33 7 0.66 7 1 C4.69 1 2.38 1 0 1 C0 0.67 0 0.34 0 0 Z " fill="#FFFFFF" transform="translate(99,296)"/>
<path d="M0 0 C2.31 0 4.62 0 7 0 C7 0.33 7 0.66 7 1 C4.69 1 2.38 1 0 1 C0 0.67 0 0.34 0 0 Z " fill="#FFFFFF" transform="translate(57,296)"/>
<path d="M0 0 C2.31 0 4.62 0 7 0 C7 0.33 7 0.66 7 1 C4.69 1 2.38 1 0 1 C0 0.67 0 0.34 0 0 Z " fill="#FFFFFE" transform="translate(48,296)"/>
<path d="M0 0 C0.66 1.32 1.32 2.64 2 4 C1.34 4 0.68 4 0 4 C-0.33 3.01 -0.66 2.02 -1 1 C-0.67 0.67 -0.34 0.34 0 0 Z " fill="#FEFEFD" transform="translate(64,273)"/>
<path d="M0 0 C0.33 0 0.66 0 1 0 C1 2.31 1 4.62 1 7 C0.67 7 0.34 7 0 7 C0 4.69 0 2.38 0 0 Z " fill="#FDFDFC" transform="translate(75,263)"/>
<path d="M0 0 C0.33 0 0.66 0 1 0 C1 2.31 1 4.62 1 7 C0.67 7 0.34 7 0 7 C0 4.69 0 2.38 0 0 Z " fill="#FDFDFC" transform="translate(62,263)"/>
<path d="M0 0 C0.33 0 0.66 0 1 0 C1 2.31 1 4.62 1 7 C0.67 7 0.34 7 0 7 C0 4.69 0 2.38 0 0 Z " fill="#FDFDFC" transform="translate(41,263)"/>
<path d="M0 0 C0.33 0 0.66 0 1 0 C1 2.31 1 4.62 1 7 C0.67 7 0.34 7 0 7 C0 4.69 0 2.38 0 0 Z " fill="#FDFDFC" transform="translate(115,263)"/>
<path d="M0 0 C0.33 0 0.66 0 1 0 C1 2.31 1 4.62 1 7 C0.67 7 0.34 7 0 7 C0 4.69 0 2.38 0 0 Z " fill="#FDFDFC" transform="translate(177,234)"/>
<path d="M0 0 C1.98 0 3.96 0 6 0 C6 0.33 6 0.66 6 1 C4.02 1 2.04 1 0 1 C0 0.67 0 0.34 0 0 Z " fill="#FEFEFE" transform="translate(150,310)"/>
<path d="M0 0 C1.98 0 3.96 0 6 0 C6 0.33 6 0.66 6 1 C4.02 1 2.04 1 0 1 C0 0.67 0 0.34 0 0 Z " fill="#FEFEFE" transform="translate(57,310)"/>
<path d="M0 0 C0.66 0 1.32 0 2 0 C1.67 1.32 1.34 2.64 1 4 C0.67 2.68 0.34 1.36 0 0 Z " fill="#FEFEFD" transform="translate(147,302)"/>
<path d="M0 0 C0.99 0.495 0.99 0.495 2 1 C1.67 1.99 1.34 2.98 1 4 C0.67 2.68 0.34 1.36 0 0 Z " fill="#FEFEFD" transform="translate(137,274)"/>
<path d="M0 0 C0.33 1.32 0.66 2.64 1 4 C0.34 3.01 -0.32 2.02 -1 1 C-0.67 0.67 -0.34 0.34 0 0 Z " fill="#FDFDFC" transform="translate(188,303)"/>
<path d="M0 0 C0.33 1.32 0.66 2.64 1 4 C0.34 3.01 -0.32 2.02 -1 1 C-0.67 0.67 -0.34 0.34 0 0 Z " fill="#FCFCFA" transform="translate(75,303)"/>
<path d="M0 0 C0.33 1.32 0.66 2.64 1 4 C0.34 3.01 -0.32 2.02 -1 1 C-0.67 0.67 -0.34 0.34 0 0 Z " fill="#FDFDFC" transform="translate(211,298)"/>
<path d="M0 0 C0.66 0 1.32 0 2 0 C1.67 0.99 1.34 1.98 1 3 C0.67 2.01 0.34 1.02 0 0 Z " fill="#FEFEFE" transform="translate(96,298)"/>
<path d="M0 0 C0.33 0 0.66 0 1 0 C1 1.65 1 3.3 1 5 C0.67 5 0.34 5 0 5 C0 3.35 0 1.7 0 0 Z " fill="#FEFEFD" transform="translate(28,267)"/>
<path d="M0 0 C0.33 0 0.66 0 1 0 C1 1.65 1 3.3 1 5 C0.67 5 0.34 5 0 5 C0 3.35 0 1.7 0 0 Z " fill="#FEFEFD" transform="translate(28,261)"/>
<path d="M0 0 C0.33 0 0.66 0 1 0 C1 1.65 1 3.3 1 5 C0.67 5 0.34 5 0 5 C0 3.35 0 1.7 0 0 Z " fill="#FDFEFD" transform="translate(231,257)"/>
<path d="M0 0 C0.33 0 0.66 0 1 0 C1 1.65 1 3.3 1 5 C0.67 5 0.34 5 0 5 C0 3.35 0 1.7 0 0 Z " fill="#FEFEFD" transform="translate(174,257)"/>
<path d="M0 0 C0.33 0 0.66 0 1 0 C1 1.65 1 3.3 1 5 C0.67 5 0.34 5 0 5 C0 3.35 0 1.7 0 0 Z " fill="#FEFEFD" transform="translate(233,181)"/>
<path d="M0 0 C0.33 0 0.66 0 1 0 C1 1.65 1 3.3 1 5 C0.67 5 0.34 5 0 5 C0 3.35 0 1.7 0 0 Z " fill="#FEFEFD" transform="translate(234,176)"/>
<path d="M0 0 C0.33 0 0.66 0 1 0 C1 1.65 1 3.3 1 5 C0.67 5 0.34 5 0 5 C0 3.35 0 1.7 0 0 Z " fill="#FEFEFD" transform="translate(235,171)"/>
<path d="M0 0 C0.33 0 0.66 0 1 0 C1 1.65 1 3.3 1 5 C0.67 5 0.34 5 0 5 C0 3.35 0 1.7 0 0 Z " fill="#FEFEFD" transform="translate(236,166)"/>
<path d="M0 0 C0.33 0 0.66 0 1 0 C1 1.65 1 3.3 1 5 C0.67 5 0.34 5 0 5 C0 3.35 0 1.7 0 0 Z " fill="#FEFEFD" transform="translate(237,161)"/>
<path d="M0 0 C0.33 0 0.66 0 1 0 C1 1.65 1 3.3 1 5 C0.67 5 0.34 5 0 5 C0 3.35 0 1.7 0 0 Z " fill="#FEFEFD" transform="translate(238,156)"/>
<path d="M0 0 C0.33 0 0.66 0 1 0 C1 1.65 1 3.3 1 5 C0.67 5 0.34 5 0 5 C0 3.35 0 1.7 0 0 Z " fill="#FEFEFD" transform="translate(239,150)"/>
<path d="M0 0 C0.33 0 0.66 0 1 0 C1 1.65 1 3.3 1 5 C0.67 5 0.34 5 0 5 C0 3.35 0 1.7 0 0 Z " fill="#FEFEFD" transform="translate(240,145)"/>
<path d="M0 0 C0.33 0 0.66 0 1 0 C1 1.65 1 3.3 1 5 C0.67 5 0.34 5 0 5 C0 3.35 0 1.7 0 0 Z " fill="#FEFEFD" transform="translate(241,140)"/>
<path d="M0 0 C0.33 0 0.66 0 1 0 C1 1.65 1 3.3 1 5 C0.67 5 0.34 5 0 5 C0 3.35 0 1.7 0 0 Z " fill="#FEFEFD" transform="translate(242,135)"/>
<path d="M0 0 C0.33 0 0.66 0 1 0 C1 1.65 1 3.3 1 5 C0.67 5 0.34 5 0 5 C0 3.35 0 1.7 0 0 Z " fill="#FEFEFD" transform="translate(243,130)"/>
<path d="M0 0 C0.33 0 0.66 0 1 0 C1 1.65 1 3.3 1 5 C0.67 5 0.34 5 0 5 C0 3.35 0 1.7 0 0 Z " fill="#FEFEFD" transform="translate(244,125)"/>
<path d="M0 0 C0.33 0 0.66 0 1 0 C1 1.65 1 3.3 1 5 C0.67 5 0.34 5 0 5 C0 3.35 0 1.7 0 0 Z " fill="#FEFEFD" transform="translate(245,119)"/>
<path d="M0 0 C0.33 0 0.66 0 1 0 C1 1.65 1 3.3 1 5 C0.67 5 0.34 5 0 5 C0 3.35 0 1.7 0 0 Z " fill="#FEFEFD" transform="translate(246,114)"/>
<path d="M0 0 C0.33 0 0.66 0 1 0 C1 1.65 1 3.3 1 5 C0.67 5 0.34 5 0 5 C0 3.35 0 1.7 0 0 Z " fill="#FEFEFD" transform="translate(251,102)"/>
<path d="M0 0 C0.33 0 0.66 0 1 0 C1 1.65 1 3.3 1 5 C0.67 5 0.34 5 0 5 C0 3.35 0 1.7 0 0 Z " fill="#FEFEFD" transform="translate(252,96)"/>
<path d="M0 0 C0.33 0 0.66 0 1 0 C1 1.65 1 3.3 1 5 C0.67 5 0.34 5 0 5 C0 3.35 0 1.7 0 0 Z " fill="#FEFEFD" transform="translate(253,91)"/>
<path d="M0 0 C1.65 0 3.3 0 5 0 C5 0.33 5 0.66 5 1 C3.35 1 1.7 1 0 1 C0 0.67 0 0.34 0 0 Z " fill="#FEFEFD" transform="translate(165,93)"/>
<path d="M0 0 C1.65 0 3.3 0 5 0 C5 0.33 5 0.66 5 1 C3.35 1 1.7 1 0 1 C0 0.67 0 0.34 0 0 Z " fill="#FEFEFD" transform="translate(160,92)"/>
<path d="M0 0 C1.65 0 3.3 0 5 0 C5 0.33 5 0.66 5 1 C3.35 1 1.7 1 0 1 C0 0.67 0 0.34 0 0 Z " fill="#FEFEFD" transform="translate(155,91)"/>
<path d="M0 0 C1.65 0 3.3 0 5 0 C5 0.33 5 0.66 5 1 C3.35 1 1.7 1 0 1 C0 0.67 0 0.34 0 0 Z " fill="#FEFEFD" transform="translate(144,89)"/>
<path d="M0 0 C1.65 0 3.3 0 5 0 C5 0.33 5 0.66 5 1 C3.35 1 1.7 1 0 1 C0 0.67 0 0.34 0 0 Z " fill="#FEFEFD" transform="translate(139,88)"/>
<path d="M0 0 C1.65 0 3.3 0 5 0 C5 0.33 5 0.66 5 1 C3.35 1 1.7 1 0 1 C0 0.67 0 0.34 0 0 Z " fill="#FEFEFD" transform="translate(134,87)"/>
<path d="M0 0 C1.65 0 3.3 0 5 0 C5 0.33 5 0.66 5 1 C3.35 1 1.7 1 0 1 C0 0.67 0 0.34 0 0 Z " fill="#FEFEFD" transform="translate(123,85)"/>
<path d="M0 0 C1.65 0 3.3 0 5 0 C5 0.33 5 0.66 5 1 C3.35 1 1.7 1 0 1 C0 0.67 0 0.34 0 0 Z " fill="#FEFEFD" transform="translate(118,84)"/>
<path d="M0 0 C1.65 0 3.3 0 5 0 C5 0.33 5 0.66 5 1 C3.35 1 1.7 1 0 1 C0 0.67 0 0.34 0 0 Z " fill="#FEFEFD" transform="translate(102,81)"/>
<path d="M0 0 C1.65 0 3.3 0 5 0 C5 0.33 5 0.66 5 1 C3.35 1 1.7 1 0 1 C0 0.67 0 0.34 0 0 Z " fill="#FEFEFC" transform="translate(97,80)"/>
<path d="M0 0 C1 4 1 4 1 4 Z " fill="#FDFDFB" transform="translate(211,304)"/>
<path d="M0 0 C0 3 0 3 0 3 Z " fill="#FEFEFD" transform="translate(198,303)"/>
<path d="M0 0 C4 1 4 1 4 1 Z " fill="#FDFDFC" transform="translate(183,229)"/>
<path d="M0 0 C1 4 1 4 1 4 Z " fill="#FEFEFC" transform="translate(232,187)"/>
<path d="" fill="#FEFEFD" transform="translate(0,0)"/>
<path d="M0 0 C0.99 0.495 0.99 0.495 2 1 C1.01 1.495 1.01 1.495 0 2 C0 1.34 0 0.68 0 0 Z " fill="#FEFEFE" transform="translate(114,297)"/>
<path d="M0 0 C3 1 3 1 3 1 Z " fill="#FFFFFF" transform="translate(174,296)"/>
<path d="M0 0 C3 1 3 1 3 1 Z " fill="#FFFFFF" transform="translate(133,296)"/>
<path d="M0 0 C3 1 3 1 3 1 Z " fill="#FFFFFF" transform="translate(108,296)"/>
<path d="M0 0 C3 1 3 1 3 1 Z " fill="#FEFEFD" transform="translate(126,285)"/>
<path d="M0 0 C3 1 3 1 3 1 Z " fill="#FDFDFD" transform="translate(115,285)"/>
<path d="M0 0 C3 1 3 1 3 1 Z " fill="#FDFDFD" transform="translate(86,285)"/>
<path d="M0 0 C3 1 3 1 3 1 Z " fill="#FDFEFD" transform="translate(52,285)"/>
<path d="M0 0 C3 1 3 1 3 1 Z " fill="#FDFEFC" transform="translate(41,285)"/>
<path d="M0 0 C0.66 0.66 1.32 1.32 2 2 C1.34 2 0.68 2 0 2 C0 1.34 0 0.68 0 0 Z " fill="#FEFEFE" transform="translate(68,279)"/>
<path d="" fill="#FEFEFD" transform="translate(0,0)"/>
<path d="" fill="#FDFEFD" transform="translate(0,0)"/>
<path d="" fill="#FDFDFC" transform="translate(0,0)"/>
<path d="" fill="#FFFFFE" transform="translate(0,0)"/>
<path d="" fill="#FDFDFD" transform="translate(0,0)"/>
<path d="" fill="#FDFEFD" transform="translate(0,0)"/>
<path d="M0 0 C0.66 0 1.32 0 2 0 C1.67 0.66 1.34 1.32 1 2 C0.67 1.34 0.34 0.68 0 0 Z " fill="#FDFEFC" transform="translate(86,260)"/>
<path d="" fill="#FEFEFD" transform="translate(0,0)"/>
<path d="" fill="#FEFEFD" transform="translate(0,0)"/>
<path d="" fill="#FDFDFC" transform="translate(0,0)"/>
<path d="M0 0 C3 1 3 1 3 1 Z " fill="#FEFEFD" transform="translate(75,247)"/>
<path d="M0 0 C3 1 3 1 3 1 Z " fill="#FDFEFD" transform="translate(41,247)"/>
<path d="" fill="#FEFEFD" transform="translate(0,0)"/>
<path d="" fill="#FEFEFD" transform="translate(0,0)"/>
<path d="" fill="#FEFEFD" transform="translate(0,0)"/>
<path d="" fill="#FEFEFD" transform="translate(0,0)"/>
<path d="" fill="#FEFEFD" transform="translate(0,0)"/>
<path d="" fill="#FEFEFD" transform="translate(0,0)"/>
<path d="" fill="#FEFEFD" transform="translate(0,0)"/>
<path d="" fill="#FEFEFD" transform="translate(0,0)"/>
<path d="" fill="#FEFEFD" transform="translate(0,0)"/>
<path d="" fill="#FEFEFD" transform="translate(0,0)"/>
<path d="" fill="#FEFEFD" transform="translate(0,0)"/>
<path d="" fill="#FEFEFD" transform="translate(0,0)"/>
<path d="" fill="#FEFEFD" transform="translate(0,0)"/>
<path d="" fill="#FEFEFD" transform="translate(0,0)"/>
<path d="" fill="#FEFEFD" transform="translate(0,0)"/>
<path d="" fill="#FEFEFD" transform="translate(0,0)"/>
<path d="" fill="#FEFEFD" transform="translate(0,0)"/>
<path d="" fill="#FEFEFD" transform="translate(0,0)"/>
<path d="" fill="#FEFEFD" transform="translate(0,0)"/>
<path d="M0 0 C3 1 3 1 3 1 Z " fill="#FEFEFD" transform="translate(106,116)"/>
<path d="M0 0 C3 1 3 1 3 1 Z " fill="#FEFEFD" transform="translate(109,115)"/>
<path d="M0 0 C3 1 3 1 3 1 Z " fill="#FEFEFD" transform="translate(112,114)"/>
<path d="M0 0 C3 1 3 1 3 1 Z " fill="#FEFEFD" transform="translate(115,113)"/>
<path d="M0 0 C3 1 3 1 3 1 Z " fill="#FEFEFD" transform="translate(126,109)"/>
<path d="M0 0 C3 1 3 1 3 1 Z " fill="#FEFEFD" transform="translate(129,108)"/>
<path d="M0 0 C3 1 3 1 3 1 Z " fill="#FEFEFD" transform="translate(135,106)"/>
<path d="M0 0 C3 1 3 1 3 1 Z " fill="#FEFEFD" transform="translate(138,105)"/>
<path d="M0 0 C3 1 3 1 3 1 Z " fill="#FEFEFD" transform="translate(164,96)"/>
<path d="M0 0 C3 1 3 1 3 1 Z " fill="#FEFEFD" transform="translate(246,77)"/>
<path d="M0 0 C3 1 3 1 3 1 Z " fill="#FEFEFD" transform="translate(243,76)"/>
<path d="M0 0 C3 1 3 1 3 1 Z " fill="#FEFEFD" transform="translate(240,75)"/>
<path d="M0 0 C3 1 3 1 3 1 Z " fill="#FEFEFD" transform="translate(237,74)"/>
<path d="M0 0 C3 1 3 1 3 1 Z " fill="#FEFEFD" transform="translate(234,73)"/>
<path d="M0 0 C3 1 3 1 3 1 Z " fill="#FEFEFD" transform="translate(231,72)"/>
<path d="M0 0 C3 1 3 1 3 1 Z " fill="#FEFEFD" transform="translate(212,68)"/>
<path d="M0 0 C3 1 3 1 3 1 Z " fill="#FEFEFD" transform="translate(201,64)"/>
<path d="M0 0 C3 1 3 1 3 1 Z " fill="#FEFEFD" transform="translate(198,63)"/>
<path d="M0 0 C3 1 3 1 3 1 Z " fill="#FEFEFD" transform="translate(192,61)"/>
<path d="M0 0 C3 1 3 1 3 1 Z " fill="#FEFEFD" transform="translate(189,60)"/>
<path d="M0 0 C3 1 3 1 3 1 Z " fill="#FEFEFD" transform="translate(178,56)"/>
<path d="M0 0 C3 1 3 1 3 1 Z " fill="#FEFEFD" transform="translate(175,55)"/>
<path d="M0 0 C3 1 3 1 3 1 Z " fill="#FEFEFD" transform="translate(172,54)"/>
<path d="M0 0 C3 1 3 1 3 1 Z " fill="#FEFEFD" transform="translate(169,53)"/>
<path d="M0 0 C3 1 3 1 3 1 Z " fill="#FEFEFD" transform="translate(166,52)"/>
<path d="M0 0 C3 1 3 1 3 1 Z " fill="#FEFEFD" transform="translate(155,48)"/>
<path d="M0 0 C3 1 3 1 3 1 Z " fill="#FEFEFC" transform="translate(146,45)"/>
<path d="M0 0 C2 1 2 1 2 1 Z " fill="#FEFEFE" transform="translate(191,310)"/>
<path d="M0 0 C2 1 2 1 2 1 Z " fill="#FEFEFE" transform="translate(180,310)"/>
<path d="M0 0 C2 1 2 1 2 1 Z " fill="#FEFEFE" transform="translate(170,310)"/>
<path d="M0 0 C2 1 2 1 2 1 Z " fill="#FEFEFE" transform="translate(162,310)"/>
<path d="M0 0 C2 1 2 1 2 1 Z " fill="#FEFEFE" transform="translate(127,310)"/>
<path d="M0 0 C2 1 2 1 2 1 Z " fill="#FEFEFE" transform="translate(67,310)"/>
<path d="M0 0 C2 1 2 1 2 1 Z " fill="#FEFEFE" transform="translate(37,310)"/>
<path d="M0 0 C2 1 2 1 2 1 Z " fill="#FEFEFE" transform="translate(31,310)"/>
<path d="M0 0 C2 1 2 1 2 1 Z " fill="#FDFDFD" transform="translate(202,309)"/>
<path d="M0 0 C2 1 2 1 2 1 Z " fill="#FDFDFD" transform="translate(120,309)"/>
<path d="" fill="#FDFDFC" transform="translate(0,0)"/>
<path d="" fill="#FEFEFE" transform="translate(0,0)"/>
<path d="" fill="#FFFFFE" transform="translate(0,0)"/>
<path d="" fill="#FDFDFC" transform="translate(0,0)"/>
<path d="" fill="#FEFEFD" transform="translate(0,0)"/>
<path d="" fill="#FCFCFA" transform="translate(0,0)"/>
<path d="" fill="#FFFFFF" transform="translate(0,0)"/>
<path d="" fill="#FDFDFC" transform="translate(0,0)"/>
<path d="" fill="#FDFEFD" transform="translate(0,0)"/>
<path d="" fill="#FDFEFC" transform="translate(0,0)"/>
<path d="" fill="#FDFDFD" transform="translate(0,0)"/>
<path d="" fill="#FDFEFC" transform="translate(0,0)"/>
<path d="" fill="#FEFEFD" transform="translate(0,0)"/>
<path d="" fill="#FEFEFD" transform="translate(0,0)"/>
<path d="" fill="#FDFDFD" transform="translate(0,0)"/>
<path d="" fill="#FDFDFC" transform="translate(0,0)"/>
<path d="" fill="#FFFFFE" transform="translate(0,0)"/>
<path d="M0 0 C2 1 2 1 2 1 Z " fill="#FDFDFD" transform="translate(206,296)"/>
<path d="M0 0 C2 1 2 1 2 1 Z " fill="#FDFDFD" transform="translate(202,296)"/>
<path d="M0 0 C2 1 2 1 2 1 Z " fill="#FFFFFF" transform="translate(150,296)"/>
<path d="M0 0 C2 1 2 1 2 1 Z " fill="#FDFDFD" transform="translate(116,296)"/>
<path d="M0 0 C2 1 2 1 2 1 Z " fill="#FFFFFF" transform="translate(84,296)"/>
<path d="M0 0 C2 1 2 1 2 1 Z " fill="#FFFFFF" transform="translate(43,296)"/>
<path d="M0 0 C2 1 2 1 2 1 Z " fill="#FFFFFF" transform="translate(31,296)"/>
<path d="M0 0 C2 1 2 1 2 1 Z " fill="#FDFDFD" transform="translate(113,284)"/>
<path d="M0 0 C2 1 2 1 2 1 Z " fill="#FDFDFD" transform="translate(55,284)"/>
<path d="" fill="#FEFEFE" transform="translate(0,0)"/>
<path d="" fill="#FEFEFE" transform="translate(0,0)"/>
<path d="" fill="#FEFEFE" transform="translate(0,0)"/>
<path d="" fill="#FEFEFE" transform="translate(0,0)"/>
<path d="" fill="#FEFEFE" transform="translate(0,0)"/>
<path d="" fill="#FEFEFD" transform="translate(0,0)"/>
<path d="" fill="#FEFEFE" transform="translate(0,0)"/>
<path d="" fill="#FEFEFD" transform="translate(0,0)"/>
<path d="" fill="#FDFEFD" transform="translate(0,0)"/>
<path d="" fill="#FDFEFD" transform="translate(0,0)"/>
<path d="" fill="#FDFDFC" transform="translate(0,0)"/>
<path d="" fill="#FDFDFB" transform="translate(0,0)"/>
<path d="" fill="#FDFDFC" transform="translate(0,0)"/>
<path d="" fill="#FDFDFC" transform="translate(0,0)"/>
<path d="M0 0 C2 1 2 1 2 1 Z " fill="#FDFDFC" transform="translate(56,269)"/>
<path d="" fill="#FDFDFC" transform="translate(0,0)"/>
<path d="" fill="#FDFDFC" transform="translate(0,0)"/>
<path d="" fill="#FDFDFC" transform="translate(0,0)"/>
<path d="" fill="#FDFEFD" transform="translate(0,0)"/>
<path d="" fill="#FDFDFC" transform="translate(0,0)"/>
<path d="" fill="#FEFEFE" transform="translate(0,0)"/>
<path d="" fill="#FEFEFD" transform="translate(0,0)"/>
<path d="" fill="#FEFEFD" transform="translate(0,0)"/>
<path d="" fill="#FEFEFD" transform="translate(0,0)"/>
<path d="" fill="#FEFEFE" transform="translate(0,0)"/>
<path d="" fill="#FDFDFC" transform="translate(0,0)"/>
<path d="" fill="#FEFEFE" transform="translate(0,0)"/>
<path d="M0 0 C2 1 2 1 2 1 Z " fill="#FEFEFD" transform="translate(39,248)"/>
<path d="M0 0 C2 1 2 1 2 1 Z " fill="#FDFDFD" transform="translate(221,247)"/>
<path d="M0 0 C2 1 2 1 2 1 Z " fill="#FDFDFD" transform="translate(210,247)"/>
<path d="M0 0 C2 1 2 1 2 1 Z " fill="#FDFDFC" transform="translate(164,247)"/>
<path d="" fill="#FEFEFD" transform="translate(0,0)"/>
<path d="" fill="#FEFEFD" transform="translate(0,0)"/>
<path d="" fill="#FDFEFC" transform="translate(0,0)"/>
<path d="M0 0 C2 1 2 1 2 1 Z " fill="#FEFEFD" transform="translate(34,214)"/>
<path d="M0 0 C2 1 2 1 2 1 Z " fill="#FEFEFC" transform="translate(195,212)"/>
<path d="" fill="#FEFFFE" transform="translate(0,0)"/>
<path d="" fill="#FEFEFC" transform="translate(0,0)"/>
<path d="" fill="#FEFEFD" transform="translate(0,0)"/>
<path d="M0 0 C2 1 2 1 2 1 Z " fill="#FEFEFC" transform="translate(32,208)"/>
<path d="M0 0 C2 1 2 1 2 1 Z " fill="#FEFEFD" transform="translate(51,204)"/>
<path d="M0 0 C2 1 2 1 2 1 Z " fill="#FEFEFC" transform="translate(44,201)"/>
<path d="M0 0 C2 1 2 1 2 1 Z " fill="#FEFEFC" transform="translate(221,197)"/>
<path d="M0 0 C2 1 2 1 2 1 Z " fill="#FDFEFD" transform="translate(63,190)"/>
<path d="" fill="#FEFEFC" transform="translate(0,0)"/>
<path d="" fill="#FEFFFE" transform="translate(0,0)"/>
<path d="" fill="#FEFEFC" transform="translate(0,0)"/>
<path d="" fill="#FEFEFE" transform="translate(0,0)"/>
<path d="" fill="#FEFFFD" transform="translate(0,0)"/>
<path d="" fill="#FEFEFE" transform="translate(0,0)"/>
<path d="" fill="#FEFFFD" transform="translate(0,0)"/>
<path d="" fill="#FEFEFD" transform="translate(0,0)"/>
<path d="" fill="#FEFEFE" transform="translate(0,0)"/>
<path d="" fill="#FEFEFC" transform="translate(0,0)"/>
<path d="" fill="#FEFEFD" transform="translate(0,0)"/>
<path d="" fill="#FEFEFD" transform="translate(0,0)"/>
<path d="" fill="#FEFEFD" transform="translate(0,0)"/>
<path d="" fill="#FEFEFD" transform="translate(0,0)"/>
<path d="" fill="#FEFEFD" transform="translate(0,0)"/>
<path d="" fill="#FEFEFE" transform="translate(0,0)"/>
<path d="" fill="#FEFEFD" transform="translate(0,0)"/>
<path d="" fill="#FEFEFD" transform="translate(0,0)"/>
<path d="" fill="#FEFEFD" transform="translate(0,0)"/>
<path d="" fill="#FEFEFD" transform="translate(0,0)"/>
<path d="" fill="#FEFEFD" transform="translate(0,0)"/>
<path d="" fill="#FEFEFD" transform="translate(0,0)"/>
<path d="" fill="#FEFEFD" transform="translate(0,0)"/>
<path d="" fill="#FEFEFE" transform="translate(0,0)"/>
<path d="" fill="#FEFEFD" transform="translate(0,0)"/>
<path d="" fill="#FEFEFD" transform="translate(0,0)"/>
<path d="" fill="#FEFEFD" transform="translate(0,0)"/>
<path d="" fill="#FEFEFE" transform="translate(0,0)"/>
<path d="" fill="#FEFEFD" transform="translate(0,0)"/>
<path d="" fill="#FEFEFD" transform="translate(0,0)"/>
<path d="" fill="#FEFEFD" transform="translate(0,0)"/>
<path d="" fill="#FEFEFD" transform="translate(0,0)"/>
<path d="M0 0 C2 1 2 1 2 1 Z " fill="#FEFEFC" transform="translate(124,110)"/>
<path d="M0 0 C2 1 2 1 2 1 Z " fill="#FEFEFC" transform="translate(150,101)"/>
<path d="M0 0 C2 1 2 1 2 1 Z " fill="#FEFEFD" transform="translate(153,100)"/>
<path d="M0 0 C2 1 2 1 2 1 Z " fill="#FEFEFD" transform="translate(257,83)"/>
<path d="M0 0 C2 1 2 1 2 1 Z " fill="#FFFFFE" transform="translate(95,79)"/>
<path d="M0 0 C2 1 2 1 2 1 Z " fill="#FEFEFC" transform="translate(249,78)"/>
<path d="M0 0 C2 1 2 1 2 1 Z " fill="#FDFDFC" transform="translate(257,77)"/>
<path d="M0 0 C2 1 2 1 2 1 Z " fill="#FEFEFC" transform="translate(229,71)"/>
<path d="M0 0 C2 1 2 1 2 1 Z " fill="#FEFEFC" transform="translate(104,69)"/>
<path d="M0 0 C2 1 2 1 2 1 Z " fill="#FEFEFD" transform="translate(111,65)"/>
<path d="M0 0 C2 1 2 1 2 1 Z " fill="#FEFEFC" transform="translate(181,57)"/>
<path d="M0 0 C2 1 2 1 2 1 Z " fill="#FEFEFC" transform="translate(130,54)"/>
<path d="M0 0 C2 1 2 1 2 1 Z " fill="#FEFEFC" transform="translate(137,50)"/>
<path d="M0 0 C2 1 2 1 2 1 Z " fill="#FEFEFC" transform="translate(158,49)"/>
<path d="M0 0 C2 1 2 1 2 1 Z " fill="#FEFEFD" transform="translate(144,46)"/>
<path d="" fill="#FEFEFE" transform="translate(0,0)"/>
<path d="" fill="#FEFEFE" transform="translate(0,0)"/>
<path d="" fill="#FEFEFE" transform="translate(0,0)"/>
<path d="" fill="#FEFEFE" transform="translate(0,0)"/>
<path d="" fill="#FEFEFE" transform="translate(0,0)"/>
<path d="" fill="#FEFEFE" transform="translate(0,0)"/>
<path d="" fill="#FEFEFE" transform="translate(0,0)"/>
<path d="" fill="#FEFEFE" transform="translate(0,0)"/>
<path d="" fill="#FEFEFE" transform="translate(0,0)"/>
<path d="" fill="#FEFEFE" transform="translate(0,0)"/>
<path d="" fill="#FEFEFE" transform="translate(0,0)"/>
<path d="" fill="#FEFEFE" transform="translate(0,0)"/>
<path d="" fill="#FEFEFD" transform="translate(0,0)"/>
<path d="" fill="#FEFEFD" transform="translate(0,0)"/>
<path d="" fill="#FFFFFE" transform="translate(0,0)"/>
<path d="" fill="#FEFEFE" transform="translate(0,0)"/>
<path d="" fill="#FEFEFE" transform="translate(0,0)"/>
<path d="" fill="#FFFFFE" transform="translate(0,0)"/>
<path d="" fill="#FEFEFD" transform="translate(0,0)"/>
<path d="" fill="#FFFFFF" transform="translate(0,0)"/>
<path d="" fill="#FFFFFF" transform="translate(0,0)"/>
<path d="" fill="#FDFDFC" transform="translate(0,0)"/>
<path d="" fill="#FFFFFE" transform="translate(0,0)"/>
<path d="" fill="#FEFEFD" transform="translate(0,0)"/>
<path d="" fill="#FEFEFE" transform="translate(0,0)"/>
<path d="" fill="#FEFEFD" transform="translate(0,0)"/>
<path d="" fill="#FEFEFE" transform="translate(0,0)"/>
<path d="" fill="#FEFEFD" transform="translate(0,0)"/>
<path d="" fill="#FFFFFF" transform="translate(0,0)"/>
<path d="" fill="#FEFEFE" transform="translate(0,0)"/>
<path d="" fill="#FEFEFD" transform="translate(0,0)"/>
<path d="" fill="#FEFEFE" transform="translate(0,0)"/>
<path d="" fill="#FEFEFD" transform="translate(0,0)"/>
<path d="" fill="#FEFEFD" transform="translate(0,0)"/>
<path d="" fill="#FFFFFF" transform="translate(0,0)"/>
<path d="" fill="#FEFEFE" transform="translate(0,0)"/>
<path d="" fill="#FEFEFE" transform="translate(0,0)"/>
<path d="" fill="#FFFFFE" transform="translate(0,0)"/>
<path d="" fill="#FFFFFF" transform="translate(0,0)"/>
<path d="" fill="#FFFFFE" transform="translate(0,0)"/>
<path d="" fill="#FFFFFE" transform="translate(0,0)"/>
<path d="" fill="#FFFFFF" transform="translate(0,0)"/>
<path d="" fill="#FEFEFE" transform="translate(0,0)"/>
<path d="" fill="#FEFFFE" transform="translate(0,0)"/>
<path d="" fill="#FDFDFC" transform="translate(0,0)"/>
<path d="" fill="#FDFDFC" transform="translate(0,0)"/>
<path d="" fill="#FDFDFC" transform="translate(0,0)"/>
<path d="" fill="#FEFEFD" transform="translate(0,0)"/>
<path d="" fill="#FDFDFD" transform="translate(0,0)"/>
<path d="" fill="#FDFDFC" transform="translate(0,0)"/>
<path d="" fill="#FEFEFD" transform="translate(0,0)"/>
<path d="" fill="#FEFEFC" transform="translate(0,0)"/>
<path d="" fill="#FDFDFC" transform="translate(0,0)"/>
<path d="" fill="#FEFEFD" transform="translate(0,0)"/>
<path d="" fill="#FDFDFC" transform="translate(0,0)"/>
<path d="" fill="#FEFEFD" transform="translate(0,0)"/>
<path d="" fill="#FDFDFC" transform="translate(0,0)"/>
<path d="" fill="#FEFEFD" transform="translate(0,0)"/>
<path d="" fill="#FDFDFC" transform="translate(0,0)"/>
<path d="" fill="#FEFEFD" transform="translate(0,0)"/>
<path d="" fill="#FDFDFC" transform="translate(0,0)"/>
<path d="" fill="#FEFEFD" transform="translate(0,0)"/>
<path d="" fill="#FDFDFC" transform="translate(0,0)"/>
<path d="" fill="#FDFDFC" transform="translate(0,0)"/>
<path d="" fill="#FDFDFC" transform="translate(0,0)"/>
<path d="" fill="#FEFEFD" transform="translate(0,0)"/>
<path d="" fill="#FDFDFC" transform="translate(0,0)"/>
<path d="" fill="#FCFCFA" transform="translate(0,0)"/>
<path d="" fill="#FDFDFB" transform="translate(0,0)"/>
<path d="" fill="#FDFDFC" transform="translate(0,0)"/>
<path d="" fill="#FDFDFB" transform="translate(0,0)"/>
<path d="" fill="#FEFEFD" transform="translate(0,0)"/>
<path d="" fill="#FEFEFD" transform="translate(0,0)"/>
<path d="" fill="#FFFFFE" transform="translate(0,0)"/>
<path d="" fill="#FCFCFA" transform="translate(0,0)"/>
<path d="" fill="#FCFCFA" transform="translate(0,0)"/>
<path d="" fill="#FDFDFC" transform="translate(0,0)"/>
<path d="" fill="#FCFCFA" transform="translate(0,0)"/>
<path d="" fill="#FDFDFB" transform="translate(0,0)"/>
<path d="" fill="#FDFDFB" transform="translate(0,0)"/>
<path d="" fill="#FCFCFA" transform="translate(0,0)"/>
<path d="" fill="#FDFDFC" transform="translate(0,0)"/>
<path d="" fill="#FDFDFC" transform="translate(0,0)"/>
<path d="" fill="#FEFEFD" transform="translate(0,0)"/>
<path d="" fill="#FDFDFC" transform="translate(0,0)"/>
<path d="" fill="#FDFDFC" transform="translate(0,0)"/>
<path d="" fill="#FDFDFC" transform="translate(0,0)"/>
<path d="" fill="#FEFEFD" transform="translate(0,0)"/>
<path d="" fill="#FDFDFC" transform="translate(0,0)"/>
<path d="" fill="#FDFDFC" transform="translate(0,0)"/>
<path d="" fill="#FEFEFC" transform="translate(0,0)"/>
<path d="" fill="#FDFEFC" transform="translate(0,0)"/>
<path d="" fill="#FEFEFD" transform="translate(0,0)"/>
<path d="" fill="#FDFDFC" transform="translate(0,0)"/>
<path d="" fill="#FDFDFC" transform="translate(0,0)"/>
<path d="" fill="#FDFDFC" transform="translate(0,0)"/>
<path d="" fill="#FEFEFC" transform="translate(0,0)"/>
<path d="" fill="#FEFEFD" transform="translate(0,0)"/>
<path d="" fill="#FEFEFD" transform="translate(0,0)"/>
<path d="" fill="#FDFDFC" transform="translate(0,0)"/>
<path d="" fill="#FEFEFD" transform="translate(0,0)"/>
<path d="" fill="#FDFDFC" transform="translate(0,0)"/>
<path d="" fill="#FEFEFD" transform="translate(0,0)"/>
<path d="" fill="#FDFEFC" transform="translate(0,0)"/>
<path d="" fill="#FEFEFD" transform="translate(0,0)"/>
<path d="" fill="#FEFEFD" transform="translate(0,0)"/>
<path d="" fill="#FDFDFC" transform="translate(0,0)"/>
<path d="" fill="#FDFDFC" transform="translate(0,0)"/>
<path d="" fill="#FDFDFC" transform="translate(0,0)"/>
<path d="" fill="#FFFFFE" transform="translate(0,0)"/>
<path d="" fill="#FEFEFD" transform="translate(0,0)"/>
<path d="" fill="#FDFDFC" transform="translate(0,0)"/>
<path d="" fill="#FDFDFB" transform="translate(0,0)"/>
<path d="" fill="#FDFDFC" transform="translate(0,0)"/>
<path d="" fill="#FDFDFB" transform="translate(0,0)"/>
<path d="" fill="#FEFEFD" transform="translate(0,0)"/>
<path d="" fill="#FDFDFC" transform="translate(0,0)"/>
<path d="" fill="#FDFEFC" transform="translate(0,0)"/>
<path d="" fill="#FEFEFD" transform="translate(0,0)"/>
<path d="" fill="#FFFFFF" transform="translate(0,0)"/>
<path d="" fill="#FDFDFC" transform="translate(0,0)"/>
<path d="" fill="#FEFEFD" transform="translate(0,0)"/>
<path d="" fill="#FEFEFE" transform="translate(0,0)"/>
<path d="" fill="#FEFEFD" transform="translate(0,0)"/>
<path d="" fill="#FEFEFE" transform="translate(0,0)"/>
<path d="" fill="#FEFEFD" transform="translate(0,0)"/>
<path d="" fill="#FEFEFD" transform="translate(0,0)"/>
<path d="" fill="#FEFEFD" transform="translate(0,0)"/>
<path d="" fill="#FEFEFD" transform="translate(0,0)"/>
<path d="" fill="#FEFEFD" transform="translate(0,0)"/>
<path d="" fill="#FEFEFD" transform="translate(0,0)"/>
<path d="" fill="#FEFEFC" transform="translate(0,0)"/>
<path d="" fill="#FEFFFE" transform="translate(0,0)"/>
<path d="" fill="#FEFFFE" transform="translate(0,0)"/>
<path d="" fill="#FEFEFD" transform="translate(0,0)"/>
<path d="" fill="#FFFFFE" transform="translate(0,0)"/>
<path d="" fill="#FDFEFC" transform="translate(0,0)"/>
<path d="" fill="#FDFEFB" transform="translate(0,0)"/>
<path d="" fill="#FDFEFC" transform="translate(0,0)"/>
<path d="" fill="#FEFEFC" transform="translate(0,0)"/>
<path d="" fill="#FDFEFC" transform="translate(0,0)"/>
<path d="" fill="#FDFEFC" transform="translate(0,0)"/>
<path d="" fill="#FDFEFC" transform="translate(0,0)"/>
<path d="" fill="#FEFEFC" transform="translate(0,0)"/>
<path d="" fill="#FEFEFC" transform="translate(0,0)"/>
<path d="" fill="#FDFEFC" transform="translate(0,0)"/>
<path d="" fill="#FDFDFB" transform="translate(0,0)"/>
<path d="" fill="#FEFEFC" transform="translate(0,0)"/>
<path d="" fill="#FEFEFC" transform="translate(0,0)"/>
<path d="" fill="#FDFEFC" transform="translate(0,0)"/>
<path d="" fill="#FEFEFD" transform="translate(0,0)"/>
<path d="" fill="#FDFEFB" transform="translate(0,0)"/>
<path d="" fill="#FEFEFC" transform="translate(0,0)"/>
<path d="" fill="#FDFEFC" transform="translate(0,0)"/>
<path d="" fill="#FDFEFC" transform="translate(0,0)"/>
<path d="" fill="#FDFEFB" transform="translate(0,0)"/>
<path d="" fill="#FDFEFC" transform="translate(0,0)"/>
<path d="" fill="#FEFEFC" transform="translate(0,0)"/>
<path d="" fill="#FDFDFC" transform="translate(0,0)"/>
<path d="" fill="#FDFEFC" transform="translate(0,0)"/>
<path d="" fill="#FDFDFB" transform="translate(0,0)"/>
<path d="" fill="#FEFEFC" transform="translate(0,0)"/>
<path d="" fill="#FDFEFC" transform="translate(0,0)"/>
<path d="" fill="#FDFEFC" transform="translate(0,0)"/>
<path d="" fill="#FEFEFC" transform="translate(0,0)"/>
<path d="" fill="#FEFEFD" transform="translate(0,0)"/>
<path d="" fill="#FEFEFC" transform="translate(0,0)"/>
<path d="" fill="#FEFEFC" transform="translate(0,0)"/>
<path d="" fill="#FEFEFC" transform="translate(0,0)"/>
<path d="" fill="#FEFEFC" transform="translate(0,0)"/>
<path d="" fill="#FEFEFC" transform="translate(0,0)"/>
<path d="" fill="#FFFFFF" transform="translate(0,0)"/>
<path d="" fill="#FFFFFE" transform="translate(0,0)"/>
<path d="" fill="#FFFFFE" transform="translate(0,0)"/>
<path d="" fill="#FEFEFE" transform="translate(0,0)"/>
<path d="" fill="#FFFFFE" transform="translate(0,0)"/>
<path d="" fill="#FEFFFE" transform="translate(0,0)"/>
<path d="" fill="#FFFFFF" transform="translate(0,0)"/>
</svg>
