<?xml version="1.0" encoding="UTF-8"?>
<svg version="1.1" xmlns="http://www.w3.org/2000/svg" width="320" height="91">
<path d="M0 0 C1.17369141 -0.03867188 1.17369141 -0.03867188 2.37109375 -0.078125 C5.08587628 0.3283665 5.94294746 1.0682461 7.5625 3.25 C7.75 5.9375 7.75 5.9375 7.5625 8.25 C6.5725 8.25 5.5825 8.25 4.5625 8.25 C4.91183594 8.69988281 5.26117188 9.14976563 5.62109375 9.61328125 C10.28332036 16.20379421 11.33405405 22.34467261 10.08203125 30.3046875 C8.62753242 36.62090892 6.44633848 42.45304549 3.5625 48.25 C8.58720674 45.87722182 10.12280983 43.03902145 12.5625 38.25 C12.8925 38.25 13.2225 38.25 13.5625 38.25 C14.24917852 47.52016007 11.12551661 55.1643027 5.31640625 62.37109375 C-2.92631702 71.20127169 -12.45368581 75.66546986 -24.4921875 76.28125 C-37.32266626 76.1451176 -46.57254778 70.43430195 -55.9921875 62.140625 C-60.58302125 58.59116248 -65.79288012 58.5710667 -71.4375 59.25 C-85.28918002 62.73326619 -98.07764415 69.33799668 -110.58569336 76.07543945 C-138.4293996 91.06300628 -138.4293996 91.06300628 -151.4375 90.25 C-149.1678843 87.9803843 -146.83751852 87.01748701 -143.92871094 85.73901367 C-127.49671448 78.48781349 -114.02741623 67.36490546 -101.02563477 55.12255859 C-83.52281431 38.70325998 -62.10594372 24.37973815 -37.6796875 22.1328125 C-35.4375 22.25 -35.4375 22.25 -32.4375 24.25 C-32.85902344 24.64832031 -33.28054687 25.04664062 -33.71484375 25.45703125 C-34.26269531 25.98683594 -34.81054688 26.51664063 -35.375 27.0625 C-35.92027344 27.58457031 -36.46554688 28.10664063 -37.02734375 28.64453125 C-39.92811406 31.9470703 -39.77014573 35.79255376 -39.72265625 39.96484375 C-39.16631312 44.42320993 -36.64332561 47.19033507 -33.375 50.0625 C-28.9423189 52.77930455 -24.47256081 52.81675236 -19.4375 52.25 C-10.41165732 49.55084324 -3.25623781 42.40490396 1.125 34.3125 C3.58251742 28.98449392 4.14305574 25.05555742 3.5625 19.25 C2.51191406 19.27320312 1.46132812 19.29640625 0.37890625 19.3203125 C-7.20611242 19.43589374 -14.07881889 19.35248032 -21.4375 17.25 C-21.4375 16.59 -21.4375 15.93 -21.4375 15.25 C-16.01475216 10.5430941 -10.57897088 6.51959482 -3.4375 5.25 C-4.4275 4.59 -5.4175 3.93 -6.4375 3.25 C-6.4375 2.59 -6.4375 1.93 -6.4375 1.25 C-4.11063547 0.08656773 -2.59028587 0.05104012 0 0 Z " fill="#0055A4" transform="translate(151.4375,0.75)"/>
<path d="M0 0 C-0.42152344 0.47050781 -0.84304687 0.94101562 -1.27734375 1.42578125 C-1.82519531 2.04839844 -2.37304688 2.67101562 -2.9375 3.3125 C-3.48277344 3.92738281 -4.02804688 4.54226562 -4.58984375 5.17578125 C-7.75808863 9.2743141 -7.37165286 14.0647957 -7 19 C-6.13346586 21.93080674 -6.13346586 21.93080674 -5 24 C-5.84433594 23.67902344 -6.68867187 23.35804687 -7.55859375 23.02734375 C-20.93823373 19.0331947 -32.63816671 23.52113497 -44.43847656 29.81054688 C-53.32738704 34.69653398 -61.76592586 40.31519482 -70.19482422 45.94677734 C-71.13471191 46.57148926 -72.07459961 47.19620117 -73.04296875 47.83984375 C-73.87852295 48.40050537 -74.71407715 48.96116699 -75.57495117 49.53881836 C-77.99199499 50.99517669 -80.37026998 51.99257334 -83 53 C-84.79353041 54.08845044 -86.56377545 55.21593221 -88.3125 56.375 C-97.74343434 62.43594713 -107.43326411 67.42291539 -119 67 C-116.7303843 64.7303843 -114.40001852 63.76748701 -111.49121094 62.48901367 C-95.05921448 55.23781349 -81.58991623 44.11490546 -68.58813477 31.87255859 C-51.47023018 15.81434742 -24.86975057 -4.56791337 0 0 Z " fill="#01ADC3" transform="translate(119,24)"/>
<path d="M0 0 C4.83790089 4.14677219 5.56057529 6.86345174 6.625 13.25 C-0.965 13.58 -8.555 13.91 -16.375 14.25 C-14.05248574 19.13495525 -14.05248574 19.13495525 -11.375 20.25 C-6.34053053 20.63463396 -6.34053053 20.63463396 -1.8125 18.6875 C1.38039411 16.80451117 3.12183244 17.35384086 6.625 18.25 C5.06489422 22.46228561 2.1404607 24.59546845 -1.375 27.25 C-6.24174752 28.87224917 -11.50186403 29.14988787 -16.4453125 27.6015625 C-21.05615931 25.26619853 -23.7387341 22.05166124 -25.375 17.25 C-26.27664571 11.95283146 -25.35607028 7.72160542 -22.375 3.25 C-15.80803536 -3.55609781 -8.32933535 -4.31891462 0 0 Z M-15.375 5.25 C-15.375 5.91 -15.375 6.57 -15.375 7.25 C-11.415 7.25 -7.455 7.25 -3.375 7.25 C-6.74733727 3.08130787 -6.74733727 3.08130787 -9.9375 2.875 C-12.62694019 3.11337681 -12.62694019 3.11337681 -15.375 5.25 Z " fill="#EE3A43" transform="translate(292.375,47.75)"/>
<path d="M0 0 C-0.76441406 0.49886719 -1.52882813 0.99773438 -2.31640625 1.51171875 C-13.66704657 9.11978934 -23.69001199 18.03550956 -33.75 27.25 C-39.00017258 32.05104277 -44.4299408 36.57560927 -50 41 C-50.52384277 41.41813965 -51.04768555 41.8362793 -51.58740234 42.26708984 C-64.97908852 52.9207433 -77.44722307 60.80998123 -95 62 C-92.7303843 59.7303843 -90.40001852 58.76748701 -87.49121094 57.48901367 C-71.05921448 50.23781349 -57.58991623 39.11490546 -44.58813477 26.87255859 C-34.56058881 17.46577345 -23.88855604 9.73917967 -11.75 3.25 C-10.92749756 2.80712646 -10.10499512 2.36425293 -9.25756836 1.90795898 C-8.10140015 1.31156616 -8.10140015 1.31156616 -6.921875 0.703125 C-6.23706055 0.34895508 -5.55224609 -0.00521484 -4.84667969 -0.37011719 C-3 -1 -3 -1 0 0 Z " fill="#8AC541" transform="translate(95,29)"/>
<path d="M0 0 C2.31 0 4.62 0 7 0 C7.04898438 1.16917969 7.09796875 2.33835938 7.1484375 3.54296875 C7.22350171 5.09116804 7.29904795 6.63934401 7.375 8.1875 C7.4059375 8.95642578 7.436875 9.72535156 7.46875 10.51757812 C7.68322619 14.68199074 7.93700171 18.2721259 10 22 C12.39351495 23.16210219 12.39351495 23.16210219 15 23 C17.05587568 21.4528198 17.902581 20.57005828 18.34057617 18.00708008 C18.32486572 17.26868896 18.30915527 16.53029785 18.29296875 15.76953125 C18.28330078 14.96708984 18.27363281 14.16464844 18.26367188 13.33789062 C18.23853516 12.50451172 18.21339844 11.67113281 18.1875 10.8125 C18.17396484 9.96751953 18.16042969 9.12253906 18.14648438 8.25195312 C18.11115799 6.16769616 18.05735139 4.08376723 18 2 C17.01 1.67 16.02 1.34 15 1 C15 0.67 15 0.34 15 0 C18.96 0 22.92 0 27 0 C27 9.9 27 19.8 27 30 C23.33333333 30 19.66666667 30 16 30 C15.23945313 30.05800781 14.47890625 30.11601563 13.6953125 30.17578125 C6.70605187 30.54755043 6.70605187 30.54755043 2.9375 27.625 C0.23466014 23.96308793 -0.1223478 22.26730016 -0.09765625 17.7734375 C-0.09443359 16.7421875 -0.09121094 15.7109375 -0.08789062 14.6484375 C-0.07951172 13.56820312 -0.07113281 12.48796875 -0.0625 11.375 C-0.05798828 10.28703125 -0.05347656 9.1990625 -0.04882812 8.078125 C-0.03701776 5.38536211 -0.02054778 2.69270812 0 0 Z " fill="#EE3A43" transform="translate(224,46)"/>
<path d="M0 0 C0.33 0 0.66 0 1 0 C1.68667852 9.27016007 -1.43698339 16.9143027 -7.24609375 24.12109375 C-15.49346821 32.95625437 -24.99160649 37.37453369 -37.0234375 38.04296875 C-42.2713147 37.96721199 -48.1542096 37.8457904 -52 34 C-50.96101563 34.04640625 -49.92203125 34.0928125 -48.8515625 34.140625 C-39.49690916 34.43717021 -31.52661384 34.38491847 -23.86328125 28.3046875 C-19.41614416 24.12014327 -16.16867563 19.37801344 -12.796875 14.3203125 C-10.48418578 11.33392685 -7.83512746 9.48603607 -4.734375 7.3828125 C-2.20624467 5.36714102 -1.1334409 2.97528235 0 0 Z " fill="#E73A45" transform="translate(164,39)"/>
<path d="M0 0 C0.99 0 1.98 0 3 0 C3 2.97 3 5.94 3 9 C5.64 9 8.28 9 11 9 C11 10.98 11 12.96 11 15 C8.36 15 5.72 15 3 15 C3.03316682 17.56590557 3.10046519 20.12332066 3.1875 22.6875 C3.19330078 23.40873047 3.19910156 24.12996094 3.20507812 24.87304688 C3.37646422 29.04344195 3.67757637 30.60696508 6.42578125 33.95703125 C8.80201268 35.98672125 8.80201268 35.98672125 11 37 C11 37.66 11 38.32 11 39 C2.01262916 39.78530425 2.01262916 39.78530425 -2.0625 36.625 C-5.34840039 32.17313496 -5.11920793 28.74916666 -5.0625 23.375 C-5.05798828 22.57320312 -5.05347656 21.77140625 -5.04882812 20.9453125 C-5.03703168 18.96350994 -5.01909605 16.98174567 -5 15 C-6.32 15 -7.64 15 -9 15 C-9 13.68 -9 12.36 -9 11 C-7.6078125 10.1028125 -7.6078125 10.1028125 -6.1875 9.1875 C-2.15908265 6.42289986 -1.56439159 4.51935348 0 0 Z " fill="#EE3A43" transform="translate(188,37)"/>
<path d="M0 0 C0.99 0 1.98 0 3 0 C3 2.97 3 5.94 3 9 C5.64 9 8.28 9 11 9 C11 10.98 11 12.96 11 15 C8.36 15 5.72 15 3 15 C3.08745575 17.39749384 3.19437075 19.79148221 3.3125 22.1875 C3.33505859 22.86103516 3.35761719 23.53457031 3.38085938 24.22851562 C3.61563363 28.603854 4.3367654 31.50124082 7 35 C9.06700655 36.32793606 9.06700655 36.32793606 11 37 C11 37.66 11 38.32 11 39 C2.03715898 39.78316087 2.03715898 39.78316087 -2.0625 36.6875 C-5.32744058 32.15871146 -5.12344867 28.18067173 -5.0625 22.8125 C-5.05798828 22.06291016 -5.05347656 21.31332031 -5.04882812 20.54101562 C-5.03706354 18.69397617 -5.01912865 16.84697787 -5 15 C-6.32 15 -7.64 15 -9 15 C-9 13.68 -9 12.36 -9 11 C-8.2575 10.5875 -7.515 10.175 -6.75 9.75 C-2.90582644 7.30370773 -1.74338812 4.10037095 0 0 Z " fill="#EE3A43" transform="translate(308,37)"/>
<path d="M0 0 C6.33333333 0 12.66666667 0 19 0 C18.6875 2.875 18.6875 2.875 18 6 C15 8 15 8 9 10 C8.67 16.6 8.34 23.2 8 30 C5.36 30 2.72 30 0 30 C0 20.1 0 10.2 0 0 Z " fill="#EE3A43" transform="translate(203,46)"/>
<path d="M0 0 C2.31 0 4.62 0 7 0 C7.09895826 5.19606986 7.17150993 10.39158998 7.21972656 15.58837891 C7.2398285 17.35572872 7.26711472 19.12301213 7.30175781 20.89013672 C7.35034009 23.43213285 7.37298226 25.97324896 7.390625 28.515625 C7.41127014 29.30430969 7.43191528 30.09299438 7.45318604 30.90557861 C7.45466326 34.52605234 7.35041748 36.55038411 5.08886719 39.45214844 C0.56014253 42.80793552 -2.27382681 43.22023743 -8 43 C-7.57847656 42.55269531 -7.15695313 42.10539062 -6.72265625 41.64453125 C-6.17480469 41.03996094 -5.62695312 40.43539062 -5.0625 39.8125 C-4.51722656 39.22082031 -3.97195312 38.62914062 -3.41015625 38.01953125 C-0.47650924 33.81815866 -0.82671183 28.69871051 -0.68359375 23.73046875 C-0.66281265 23.04946609 -0.64203156 22.36846344 -0.62062073 21.66682434 C-0.55562122 19.50714492 -0.49647288 17.34735154 -0.4375 15.1875 C-0.3942675 13.71678544 -0.35065175 12.24608209 -0.30664062 10.77539062 C-0.19999141 7.18371283 -0.09858651 3.59190918 0 0 Z " fill="#EE3A43" transform="translate(256,46)"/>
<path d="M0 0 C6.27 0 12.54 0 19 0 C16.39350532 2.60649468 13.46865679 3.44024981 10.0625 4.625 C9.42892578 4.85445312 8.79535156 5.08390625 8.14257812 5.3203125 C5.29041404 6.32801716 3.04816693 7 0 7 C0 4.69 0 2.38 0 0 Z " fill="#EE3A43" transform="translate(256,37)"/>
<path d="M0 0 C0.66 0.33 1.32 0.66 2 1 C-2.23579689 6.33445671 -6.58598211 11.30168902 -13 14 C-13.66 13.67 -14.32 13.34 -15 13 C-14.00097656 12.14535156 -13.00195312 11.29070312 -11.97265625 10.41015625 C-10.66925232 9.29429246 -9.36586791 8.17840586 -8.0625 7.0625 C-7.0734668 6.21655273 -7.0734668 6.21655273 -6.06445312 5.35351562 C-5.43603516 4.81533203 -4.80761719 4.27714844 -4.16015625 3.72265625 C-3.57886963 3.22515869 -2.99758301 2.72766113 -2.39868164 2.21508789 C-1.57708043 1.5013317 -0.76957015 0.76957015 0 0 Z " fill="#08ABBB" transform="translate(54,61)"/>
<path d="M0 0 C0.66 0 1.32 0 2 0 C2 0.99 2 1.98 2 3 C0.04669132 4.03041513 -1.91281528 5.0490893 -3.875 6.0625 C-4.96554688 6.63097656 -6.05609375 7.19945313 -7.1796875 7.78515625 C-8.11039063 8.18605469 -9.04109375 8.58695313 -10 9 C-10.66 8.67 -11.32 8.34 -12 8 C-11.21753906 7.50628906 -10.43507813 7.01257813 -9.62890625 6.50390625 C-8.61699219 5.86324219 -7.60507812 5.22257812 -6.5625 4.5625 C-5.55316406 3.92441406 -4.54382812 3.28632812 -3.50390625 2.62890625 C-1.15446165 1.22350458 -1.15446165 1.22350458 0 0 Z " fill="#0A72A4" transform="translate(37,75)"/>
</svg>
